# MagicaVoxel @ ephtracy

# material
mtllib hair0.mtl
usemtl palette

# normals
vn -1 0 0
vn 1 0 0
vn 0 0 1
vn 0 0 -1
vn 0 -1 0
vn 0 1 0

# texcoords
vt 0.958984 0.5

# verts
v -0.4 0.25 -0.3
v -0.4 0.25 -0.4
v -0.4 0.3 -0.25
v -0.4 0.3 -0.3
v -0.4 0.4 -0.2
v -0.4 0.4 -0.25
v -0.4 0.45 0.1
v -0.4 0.45 -0
v -0.4 0.45 -0.15
v -0.4 0.45 -0.2
v -0.4 0.5 0.15
v -0.4 0.5 0.1
v -0.4 0.5 -0
v -0.4 0.5 -0.05
v -0.4 0.5 -0.1
v -0.4 0.5 -0.15
v -0.4 0.55 0.2
v -0.4 0.55 0.15
v -0.4 0.55 -0.05
v -0.4 0.55 -0.1
v -0.4 0.6 0.25
v -0.4 0.6 0.2
v -0.4 0.65 0.3
v -0.4 0.65 0.25
v -0.4 0.7 0.4
v -0.4 0.7 0.3
v -0.4 0.8 0.4
v -0.4 0.8 -0.4
v -0.3 0.2 -0.35
v -0.3 0.2 -0.4
v -0.3 0.25 -0.35
v -0.3 0.25 -0.4
v -0.25 0.15 -0.35
v -0.25 0.15 -0.4
v -0.25 0.2 -0.35
v -0.25 0.2 -0.4
v -0.1 0.1 -0.35
v -0.1 0.1 -0.4
v -0.1 0.15 -0.35
v -0.1 0.15 -0.4
v -0.05 0 -0.35
v -0.05 0 -0.4
v -0.05 0.1 -0.35
v -0.05 0.1 -0.4
v 0.35 0.25 -0.3
v 0.35 0.25 -0.35
v 0.35 0.3 -0.25
v 0.35 0.3 -0.3
v 0.35 0.4 -0.2
v 0.35 0.4 -0.25
v 0.35 0.45 0.1
v 0.35 0.45 -0
v 0.35 0.45 -0.15
v 0.35 0.45 -0.2
v 0.35 0.5 0.15
v 0.35 0.5 0.1
v 0.35 0.5 -0
v 0.35 0.5 -0.05
v 0.35 0.5 -0.1
v 0.35 0.5 -0.15
v 0.35 0.55 0.2
v 0.35 0.55 0.15
v 0.35 0.55 -0.05
v 0.35 0.55 -0.1
v 0.35 0.6 0.25
v 0.35 0.6 0.2
v 0.35 0.65 0.3
v 0.35 0.65 0.25
v 0.35 0.7 0.35
v 0.35 0.7 0.3
v 0.35 0.75 0.35
v 0.35 0.75 -0.35
v -0.35 0.25 -0.3
v -0.35 0.25 -0.35
v -0.35 0.3 -0.25
v -0.35 0.3 -0.3
v -0.35 0.4 -0.2
v -0.35 0.4 -0.25
v -0.35 0.45 0.1
v -0.35 0.45 -0
v -0.35 0.45 -0.15
v -0.35 0.45 -0.2
v -0.35 0.5 0.15
v -0.35 0.5 0.1
v -0.35 0.5 -0
v -0.35 0.5 -0.05
v -0.35 0.5 -0.1
v -0.35 0.5 -0.15
v -0.35 0.55 0.2
v -0.35 0.55 0.15
v -0.35 0.55 -0.05
v -0.35 0.55 -0.1
v -0.35 0.6 0.25
v -0.35 0.6 0.2
v -0.35 0.65 0.3
v -0.35 0.65 0.25
v -0.35 0.7 0.35
v -0.35 0.7 0.3
v -0.35 0.75 0.35
v -0.35 0.75 -0.35
v 0 0 -0.35
v 0 0 -0.4
v 0 0.05 -0.35
v 0 0.05 -0.4
v 0.1 0.05 -0.35
v 0.1 0.05 -0.4
v 0.1 0.15 -0.35
v 0.1 0.15 -0.4
v 0.25 0.15 -0.35
v 0.25 0.15 -0.4
v 0.25 0.2 -0.35
v 0.25 0.2 -0.4
v 0.3 0.2 -0.35
v 0.3 0.2 -0.4
v 0.3 0.25 -0.35
v 0.3 0.25 -0.4
v 0.4 0.25 -0.3
v 0.4 0.25 -0.4
v 0.4 0.3 -0.25
v 0.4 0.3 -0.3
v 0.4 0.4 -0.2
v 0.4 0.4 -0.25
v 0.4 0.45 0.1
v 0.4 0.45 -0
v 0.4 0.45 -0.15
v 0.4 0.45 -0.2
v 0.4 0.5 0.15
v 0.4 0.5 0.1
v 0.4 0.5 -0
v 0.4 0.5 -0.05
v 0.4 0.5 -0.1
v 0.4 0.5 -0.15
v 0.4 0.55 0.2
v 0.4 0.55 0.15
v 0.4 0.55 -0.05
v 0.4 0.55 -0.1
v 0.4 0.6 0.25
v 0.4 0.6 0.2
v 0.4 0.65 0.3
v 0.4 0.65 0.25
v 0.4 0.7 0.4
v 0.4 0.7 0.3
v 0.4 0.8 0.4
v 0.4 0.8 -0.4
v -0.4 0.7 0.4
v -0.4 0.8 0.4
v 0.4 0.7 0.4
v 0.4 0.8 0.4
v -0.4 0.65 0.3
v -0.4 0.7 0.3
v -0.35 0.65 0.3
v -0.35 0.7 0.3
v 0.35 0.65 0.3
v 0.35 0.7 0.3
v 0.4 0.65 0.3
v 0.4 0.7 0.3
v -0.4 0.6 0.25
v -0.4 0.65 0.25
v -0.35 0.6 0.25
v -0.35 0.65 0.25
v 0.35 0.6 0.25
v 0.35 0.65 0.25
v 0.4 0.6 0.25
v 0.4 0.65 0.25
v -0.4 0.55 0.2
v -0.4 0.6 0.2
v -0.35 0.55 0.2
v -0.35 0.6 0.2
v 0.35 0.55 0.2
v 0.35 0.6 0.2
v 0.4 0.55 0.2
v 0.4 0.6 0.2
v -0.4 0.5 0.15
v -0.4 0.55 0.15
v -0.35 0.5 0.15
v -0.35 0.55 0.15
v 0.35 0.5 0.15
v 0.35 0.55 0.15
v 0.4 0.5 0.15
v 0.4 0.55 0.15
v -0.4 0.45 0.1
v -0.4 0.5 0.1
v -0.35 0.45 0.1
v -0.35 0.5 0.1
v 0.35 0.45 0.1
v 0.35 0.5 0.1
v 0.4 0.45 0.1
v 0.4 0.5 0.1
v -0.4 0.5 -0.1
v -0.4 0.55 -0.1
v -0.35 0.5 -0.1
v -0.35 0.55 -0.1
v 0.35 0.5 -0.1
v 0.35 0.55 -0.1
v 0.4 0.5 -0.1
v 0.4 0.55 -0.1
v -0.4 0.45 -0.15
v -0.4 0.5 -0.15
v -0.35 0.45 -0.15
v -0.35 0.5 -0.15
v 0.35 0.45 -0.15
v 0.35 0.5 -0.15
v 0.4 0.45 -0.15
v 0.4 0.5 -0.15
v -0.4 0.4 -0.2
v -0.4 0.45 -0.2
v -0.35 0.4 -0.2
v -0.35 0.45 -0.2
v 0.35 0.4 -0.2
v 0.35 0.45 -0.2
v 0.4 0.4 -0.2
v 0.4 0.45 -0.2
v -0.4 0.3 -0.25
v -0.4 0.4 -0.25
v -0.35 0.3 -0.25
v -0.35 0.4 -0.25
v 0.35 0.3 -0.25
v 0.35 0.4 -0.25
v 0.4 0.3 -0.25
v 0.4 0.4 -0.25
v -0.4 0.25 -0.3
v -0.4 0.3 -0.3
v -0.35 0.25 -0.3
v -0.35 0.3 -0.3
v 0.35 0.25 -0.3
v 0.35 0.3 -0.3
v 0.4 0.25 -0.3
v 0.4 0.3 -0.3
v -0.35 0.25 -0.35
v -0.35 0.75 -0.35
v -0.3 0.2 -0.35
v -0.3 0.25 -0.35
v -0.25 0.15 -0.35
v -0.25 0.2 -0.35
v -0.1 0.1 -0.35
v -0.1 0.15 -0.35
v -0.05 0 -0.35
v -0.05 0.1 -0.35
v 0 0 -0.35
v 0 0.05 -0.35
v 0.1 0.05 -0.35
v 0.1 0.15 -0.35
v 0.25 0.15 -0.35
v 0.25 0.2 -0.35
v 0.3 0.2 -0.35
v 0.3 0.25 -0.35
v 0.35 0.25 -0.35
v 0.35 0.75 -0.35
v -0.35 0.7 0.35
v -0.35 0.75 0.35
v 0.35 0.7 0.35
v 0.35 0.75 0.35
v -0.4 0.45 -0
v -0.4 0.5 -0
v -0.35 0.45 -0
v -0.35 0.5 -0
v 0.35 0.45 -0
v 0.35 0.5 -0
v 0.4 0.45 -0
v 0.4 0.5 -0
v -0.4 0.5 -0.05
v -0.4 0.55 -0.05
v -0.35 0.5 -0.05
v -0.35 0.55 -0.05
v 0.35 0.5 -0.05
v 0.35 0.55 -0.05
v 0.4 0.5 -0.05
v 0.4 0.55 -0.05
v -0.4 0.25 -0.4
v -0.4 0.8 -0.4
v -0.3 0.2 -0.4
v -0.3 0.25 -0.4
v -0.25 0.15 -0.4
v -0.25 0.2 -0.4
v -0.1 0.1 -0.4
v -0.1 0.15 -0.4
v -0.05 0 -0.4
v -0.05 0.1 -0.4
v 0 0 -0.4
v 0 0.05 -0.4
v 0.1 0.05 -0.4
v 0.1 0.15 -0.4
v 0.25 0.15 -0.4
v 0.25 0.2 -0.4
v 0.3 0.2 -0.4
v 0.3 0.25 -0.4
v 0.4 0.25 -0.4
v 0.4 0.8 -0.4
v -0.05 0 -0.35
v 0 0 -0.35
v -0.05 0 -0.4
v 0 0 -0.4
v 0 0.05 -0.35
v 0.1 0.05 -0.35
v 0 0.05 -0.4
v 0.1 0.05 -0.4
v -0.1 0.1 -0.35
v -0.05 0.1 -0.35
v -0.1 0.1 -0.4
v -0.05 0.1 -0.4
v -0.25 0.15 -0.35
v -0.1 0.15 -0.35
v 0.1 0.15 -0.35
v 0.25 0.15 -0.35
v -0.25 0.15 -0.4
v -0.1 0.15 -0.4
v 0.1 0.15 -0.4
v 0.25 0.15 -0.4
v -0.3 0.2 -0.35
v -0.25 0.2 -0.35
v 0.25 0.2 -0.35
v 0.3 0.2 -0.35
v -0.3 0.2 -0.4
v -0.25 0.2 -0.4
v 0.25 0.2 -0.4
v 0.3 0.2 -0.4
v -0.4 0.25 -0.3
v -0.35 0.25 -0.3
v 0.35 0.25 -0.3
v 0.4 0.25 -0.3
v -0.35 0.25 -0.35
v -0.3 0.25 -0.35
v 0.3 0.25 -0.35
v 0.35 0.25 -0.35
v -0.4 0.25 -0.4
v -0.3 0.25 -0.4
v 0.3 0.25 -0.4
v 0.4 0.25 -0.4
v -0.4 0.3 -0.25
v -0.35 0.3 -0.25
v 0.35 0.3 -0.25
v 0.4 0.3 -0.25
v -0.4 0.3 -0.3
v -0.35 0.3 -0.3
v 0.35 0.3 -0.3
v 0.4 0.3 -0.3
v -0.4 0.4 -0.2
v -0.35 0.4 -0.2
v 0.35 0.4 -0.2
v 0.4 0.4 -0.2
v -0.4 0.4 -0.25
v -0.35 0.4 -0.25
v 0.35 0.4 -0.25
v 0.4 0.4 -0.25
v -0.4 0.45 0.1
v -0.35 0.45 0.1
v 0.35 0.45 0.1
v 0.4 0.45 0.1
v -0.4 0.45 -0
v -0.35 0.45 -0
v 0.35 0.45 -0
v 0.4 0.45 -0
v -0.4 0.45 -0.15
v -0.35 0.45 -0.15
v 0.35 0.45 -0.15
v 0.4 0.45 -0.15
v -0.4 0.45 -0.2
v -0.35 0.45 -0.2
v 0.35 0.45 -0.2
v 0.4 0.45 -0.2
v -0.4 0.5 0.15
v -0.35 0.5 0.15
v 0.35 0.5 0.15
v 0.4 0.5 0.15
v -0.4 0.5 0.1
v -0.35 0.5 0.1
v 0.35 0.5 0.1
v 0.4 0.5 0.1
v -0.4 0.5 -0
v -0.35 0.5 -0
v 0.35 0.5 -0
v 0.4 0.5 -0
v -0.4 0.5 -0.05
v -0.35 0.5 -0.05
v 0.35 0.5 -0.05
v 0.4 0.5 -0.05
v -0.4 0.5 -0.1
v -0.35 0.5 -0.1
v 0.35 0.5 -0.1
v 0.4 0.5 -0.1
v -0.4 0.5 -0.15
v -0.35 0.5 -0.15
v 0.35 0.5 -0.15
v 0.4 0.5 -0.15
v -0.4 0.55 0.2
v -0.35 0.55 0.2
v 0.35 0.55 0.2
v 0.4 0.55 0.2
v -0.4 0.55 0.15
v -0.35 0.55 0.15
v 0.35 0.55 0.15
v 0.4 0.55 0.15
v -0.4 0.55 -0.05
v -0.35 0.55 -0.05
v 0.35 0.55 -0.05
v 0.4 0.55 -0.05
v -0.4 0.55 -0.1
v -0.35 0.55 -0.1
v 0.35 0.55 -0.1
v 0.4 0.55 -0.1
v -0.4 0.6 0.25
v -0.35 0.6 0.25
v 0.35 0.6 0.25
v 0.4 0.6 0.25
v -0.4 0.6 0.2
v -0.35 0.6 0.2
v 0.35 0.6 0.2
v 0.4 0.6 0.2
v -0.4 0.65 0.3
v -0.35 0.65 0.3
v 0.35 0.65 0.3
v 0.4 0.65 0.3
v -0.4 0.65 0.25
v -0.35 0.65 0.25
v 0.35 0.65 0.25
v 0.4 0.65 0.25
v -0.4 0.7 0.4
v 0.4 0.7 0.4
v -0.35 0.7 0.35
v 0.35 0.7 0.35
v -0.4 0.7 0.3
v -0.35 0.7 0.3
v 0.35 0.7 0.3
v 0.4 0.7 0.3
v -0.35 0.75 0.35
v 0.35 0.75 0.35
v -0.35 0.75 -0.35
v 0.35 0.75 -0.35
v -0.4 0.8 0.4
v 0.4 0.8 0.4
v -0.4 0.8 -0.4
v 0.4 0.8 -0.4

# faces
f 4/1/1 2/1/1 1/1/1
f 6/1/1 4/1/1 3/1/1
f 10/1/1 6/1/1 5/1/1
f 12/1/1 8/1/1 7/1/1
f 13/1/1 8/1/1 12/1/1
f 16/1/1 10/1/1 9/1/1
f 18/1/1 14/1/1 13/1/1
f 18/1/1 12/1/1 11/1/1
f 18/1/1 13/1/1 12/1/1
f 19/1/1 14/1/1 18/1/1
f 20/1/1 16/1/1 15/1/1
f 22/1/1 19/1/1 18/1/1
f 22/1/1 20/1/1 19/1/1
f 22/1/1 18/1/1 17/1/1
f 24/1/1 22/1/1 21/1/1
f 26/1/1 24/1/1 23/1/1
f 27/1/1 26/1/1 25/1/1
f 28/1/1 2/1/1 4/1/1
f 28/1/1 26/1/1 27/1/1
f 28/1/1 4/1/1 6/1/1
f 28/1/1 24/1/1 26/1/1
f 28/1/1 16/1/1 20/1/1
f 28/1/1 22/1/1 24/1/1
f 28/1/1 6/1/1 10/1/1
f 28/1/1 20/1/1 22/1/1
f 28/1/1 10/1/1 16/1/1
f 31/1/1 30/1/1 29/1/1
f 32/1/1 30/1/1 31/1/1
f 35/1/1 34/1/1 33/1/1
f 36/1/1 34/1/1 35/1/1
f 39/1/1 38/1/1 37/1/1
f 40/1/1 38/1/1 39/1/1
f 43/1/1 42/1/1 41/1/1
f 44/1/1 42/1/1 43/1/1
f 48/1/1 46/1/1 45/1/1
f 50/1/1 48/1/1 47/1/1
f 54/1/1 50/1/1 49/1/1
f 56/1/1 52/1/1 51/1/1
f 57/1/1 52/1/1 56/1/1
f 60/1/1 54/1/1 53/1/1
f 62/1/1 58/1/1 57/1/1
f 62/1/1 56/1/1 55/1/1
f 62/1/1 57/1/1 56/1/1
f 63/1/1 58/1/1 62/1/1
f 64/1/1 60/1/1 59/1/1
f 66/1/1 63/1/1 62/1/1
f 66/1/1 64/1/1 63/1/1
f 66/1/1 62/1/1 61/1/1
f 68/1/1 66/1/1 65/1/1
f 70/1/1 68/1/1 67/1/1
f 71/1/1 70/1/1 69/1/1
f 72/1/1 46/1/1 48/1/1
f 72/1/1 70/1/1 71/1/1
f 72/1/1 48/1/1 50/1/1
f 72/1/1 68/1/1 70/1/1
f 72/1/1 60/1/1 64/1/1
f 72/1/1 66/1/1 68/1/1
f 72/1/1 50/1/1 54/1/1
f 72/1/1 64/1/1 66/1/1
f 72/1/1 54/1/1 60/1/1
f 73/1/2 74/1/2 76/1/2
f 75/1/2 76/1/2 78/1/2
f 77/1/2 78/1/2 82/1/2
f 79/1/2 80/1/2 84/1/2
f 84/1/2 80/1/2 85/1/2
f 81/1/2 82/1/2 88/1/2
f 85/1/2 86/1/2 90/1/2
f 83/1/2 84/1/2 90/1/2
f 84/1/2 85/1/2 90/1/2
f 90/1/2 86/1/2 91/1/2
f 87/1/2 88/1/2 92/1/2
f 90/1/2 91/1/2 94/1/2
f 91/1/2 92/1/2 94/1/2
f 89/1/2 90/1/2 94/1/2
f 93/1/2 94/1/2 96/1/2
f 95/1/2 96/1/2 98/1/2
f 97/1/2 98/1/2 99/1/2
f 76/1/2 74/1/2 100/1/2
f 99/1/2 98/1/2 100/1/2
f 78/1/2 76/1/2 100/1/2
f 98/1/2 96/1/2 100/1/2
f 92/1/2 88/1/2 100/1/2
f 96/1/2 94/1/2 100/1/2
f 82/1/2 78/1/2 100/1/2
f 94/1/2 92/1/2 100/1/2
f 88/1/2 82/1/2 100/1/2
f 101/1/2 102/1/2 103/1/2
f 103/1/2 102/1/2 104/1/2
f 105/1/2 106/1/2 107/1/2
f 107/1/2 106/1/2 108/1/2
f 109/1/2 110/1/2 111/1/2
f 111/1/2 110/1/2 112/1/2
f 113/1/2 114/1/2 115/1/2
f 115/1/2 114/1/2 116/1/2
f 117/1/2 118/1/2 120/1/2
f 119/1/2 120/1/2 122/1/2
f 121/1/2 122/1/2 126/1/2
f 123/1/2 124/1/2 128/1/2
f 128/1/2 124/1/2 129/1/2
f 125/1/2 126/1/2 132/1/2
f 129/1/2 130/1/2 134/1/2
f 127/1/2 128/1/2 134/1/2
f 128/1/2 129/1/2 134/1/2
f 134/1/2 130/1/2 135/1/2
f 131/1/2 132/1/2 136/1/2
f 134/1/2 135/1/2 138/1/2
f 135/1/2 136/1/2 138/1/2
f 133/1/2 134/1/2 138/1/2
f 137/1/2 138/1/2 140/1/2
f 139/1/2 140/1/2 142/1/2
f 141/1/2 142/1/2 143/1/2
f 120/1/2 118/1/2 144/1/2
f 143/1/2 142/1/2 144/1/2
f 122/1/2 120/1/2 144/1/2
f 142/1/2 140/1/2 144/1/2
f 136/1/2 132/1/2 144/1/2
f 140/1/2 138/1/2 144/1/2
f 126/1/2 122/1/2 144/1/2
f 138/1/2 136/1/2 144/1/2
f 132/1/2 126/1/2 144/1/2
f 147/1/3 146/1/3 145/1/3
f 148/1/3 146/1/3 147/1/3
f 151/1/3 150/1/3 149/1/3
f 152/1/3 150/1/3 151/1/3
f 155/1/3 154/1/3 153/1/3
f 156/1/3 154/1/3 155/1/3
f 159/1/3 158/1/3 157/1/3
f 160/1/3 158/1/3 159/1/3
f 163/1/3 162/1/3 161/1/3
f 164/1/3 162/1/3 163/1/3
f 167/1/3 166/1/3 165/1/3
f 168/1/3 166/1/3 167/1/3
f 171/1/3 170/1/3 169/1/3
f 172/1/3 170/1/3 171/1/3
f 175/1/3 174/1/3 173/1/3
f 176/1/3 174/1/3 175/1/3
f 179/1/3 178/1/3 177/1/3
f 180/1/3 178/1/3 179/1/3
f 183/1/3 182/1/3 181/1/3
f 184/1/3 182/1/3 183/1/3
f 187/1/3 186/1/3 185/1/3
f 188/1/3 186/1/3 187/1/3
f 191/1/3 190/1/3 189/1/3
f 192/1/3 190/1/3 191/1/3
f 195/1/3 194/1/3 193/1/3
f 196/1/3 194/1/3 195/1/3
f 199/1/3 198/1/3 197/1/3
f 200/1/3 198/1/3 199/1/3
f 203/1/3 202/1/3 201/1/3
f 204/1/3 202/1/3 203/1/3
f 207/1/3 206/1/3 205/1/3
f 208/1/3 206/1/3 207/1/3
f 211/1/3 210/1/3 209/1/3
f 212/1/3 210/1/3 211/1/3
f 215/1/3 214/1/3 213/1/3
f 216/1/3 214/1/3 215/1/3
f 219/1/3 218/1/3 217/1/3
f 220/1/3 218/1/3 219/1/3
f 223/1/3 222/1/3 221/1/3
f 224/1/3 222/1/3 223/1/3
f 227/1/3 226/1/3 225/1/3
f 228/1/3 226/1/3 227/1/3
f 232/1/3 230/1/3 229/1/3
f 234/1/3 232/1/3 231/1/3
f 236/1/3 234/1/3 233/1/3
f 238/1/3 236/1/3 235/1/3
f 239/1/3 238/1/3 237/1/3
f 240/1/3 238/1/3 239/1/3
f 241/1/3 238/1/3 240/1/3
f 242/1/3 234/1/3 236/1/3
f 242/1/3 238/1/3 241/1/3
f 242/1/3 236/1/3 238/1/3
f 243/1/3 234/1/3 242/1/3
f 244/1/3 232/1/3 234/1/3
f 244/1/3 234/1/3 243/1/3
f 245/1/3 232/1/3 244/1/3
f 246/1/3 230/1/3 232/1/3
f 246/1/3 232/1/3 245/1/3
f 247/1/3 230/1/3 246/1/3
f 248/1/3 230/1/3 247/1/3
f 249/1/4 250/1/4 251/1/4
f 251/1/4 250/1/4 252/1/4
f 253/1/4 254/1/4 255/1/4
f 255/1/4 254/1/4 256/1/4
f 257/1/4 258/1/4 259/1/4
f 259/1/4 258/1/4 260/1/4
f 261/1/4 262/1/4 263/1/4
f 263/1/4 262/1/4 264/1/4
f 265/1/4 266/1/4 267/1/4
f 267/1/4 266/1/4 268/1/4
f 269/1/4 270/1/4 272/1/4
f 271/1/4 272/1/4 274/1/4
f 273/1/4 274/1/4 276/1/4
f 275/1/4 276/1/4 278/1/4
f 277/1/4 278/1/4 279/1/4
f 279/1/4 278/1/4 280/1/4
f 280/1/4 278/1/4 281/1/4
f 276/1/4 274/1/4 282/1/4
f 281/1/4 278/1/4 282/1/4
f 278/1/4 276/1/4 282/1/4
f 282/1/4 274/1/4 283/1/4
f 274/1/4 272/1/4 284/1/4
f 283/1/4 274/1/4 284/1/4
f 284/1/4 272/1/4 285/1/4
f 272/1/4 270/1/4 286/1/4
f 285/1/4 272/1/4 286/1/4
f 286/1/4 270/1/4 287/1/4
f 287/1/4 270/1/4 288/1/4
f 291/1/5 290/1/5 289/1/5
f 292/1/5 290/1/5 291/1/5
f 295/1/5 294/1/5 293/1/5
f 296/1/5 294/1/5 295/1/5
f 299/1/5 298/1/5 297/1/5
f 300/1/5 298/1/5 299/1/5
f 305/1/5 302/1/5 301/1/5
f 306/1/5 302/1/5 305/1/5
f 307/1/5 304/1/5 303/1/5
f 308/1/5 304/1/5 307/1/5
f 313/1/5 310/1/5 309/1/5
f 314/1/5 310/1/5 313/1/5
f 315/1/5 312/1/5 311/1/5
f 316/1/5 312/1/5 315/1/5
f 321/1/5 318/1/5 317/1/5
f 324/1/5 320/1/5 319/1/5
f 325/1/5 322/1/5 321/1/5
f 325/1/5 321/1/5 317/1/5
f 326/1/5 322/1/5 325/1/5
f 327/1/5 324/1/5 323/1/5
f 328/1/5 320/1/5 324/1/5
f 328/1/5 324/1/5 327/1/5
f 333/1/5 330/1/5 329/1/5
f 334/1/5 330/1/5 333/1/5
f 335/1/5 332/1/5 331/1/5
f 336/1/5 332/1/5 335/1/5
f 341/1/5 338/1/5 337/1/5
f 342/1/5 338/1/5 341/1/5
f 343/1/5 340/1/5 339/1/5
f 344/1/5 340/1/5 343/1/5
f 349/1/5 346/1/5 345/1/5
f 350/1/5 346/1/5 349/1/5
f 351/1/5 348/1/5 347/1/5
f 352/1/5 348/1/5 351/1/5
f 357/1/5 354/1/5 353/1/5
f 358/1/5 354/1/5 357/1/5
f 359/1/5 356/1/5 355/1/5
f 360/1/5 356/1/5 359/1/5
f 365/1/5 362/1/5 361/1/5
f 366/1/5 362/1/5 365/1/5
f 367/1/5 364/1/5 363/1/5
f 368/1/5 364/1/5 367/1/5
f 373/1/5 370/1/5 369/1/5
f 374/1/5 370/1/5 373/1/5
f 375/1/5 372/1/5 371/1/5
f 376/1/5 372/1/5 375/1/5
f 381/1/5 378/1/5 377/1/5
f 382/1/5 378/1/5 381/1/5
f 383/1/5 380/1/5 379/1/5
f 384/1/5 380/1/5 383/1/5
f 389/1/5 386/1/5 385/1/5
f 390/1/5 386/1/5 389/1/5
f 391/1/5 388/1/5 387/1/5
f 392/1/5 388/1/5 391/1/5
f 397/1/5 394/1/5 393/1/5
f 398/1/5 394/1/5 397/1/5
f 399/1/5 396/1/5 395/1/5
f 400/1/5 396/1/5 399/1/5
f 405/1/5 402/1/5 401/1/5
f 406/1/5 402/1/5 405/1/5
f 407/1/5 404/1/5 403/1/5
f 408/1/5 404/1/5 407/1/5
f 413/1/5 410/1/5 409/1/5
f 414/1/5 410/1/5 413/1/5
f 415/1/5 412/1/5 411/1/5
f 416/1/5 412/1/5 415/1/5
f 419/1/5 418/1/5 417/1/5
f 420/1/5 418/1/5 419/1/5
f 421/1/5 419/1/5 417/1/5
f 422/1/5 419/1/5 421/1/5
f 423/1/5 418/1/5 420/1/5
f 424/1/5 418/1/5 423/1/5
f 427/1/5 426/1/5 425/1/5
f 428/1/5 426/1/5 427/1/5
f 429/1/6 430/1/6 431/1/6
f 431/1/6 430/1/6 432/1/6
