# MagicaVoxel @ ephtracy

# material
mtllib shead0.mtl
usemtl palette

# normals
vn -1 0 0
vn 1 0 0
vn 0 0 1
vn 0 0 -1
vn 0 -1 0
vn 0 1 0

# texcoords
vt 0.0214844 0.5
vt 0.994141 0.5

# verts
v -0.35 0.05 0.325
v -0.35 0.05 -0.375
v -0.35 0.75 0.325
v -0.35 0.75 -0.375
v -0.2 0 0.175
v -0.2 0 -0.225
v -0.2 0.05 0.175
v -0.2 0.05 -0.225
v -0.2 0.45 0.375
v -0.2 0.45 0.325
v -0.2 0.55 0.375
v -0.2 0.55 0.325
v -0.15 0.2 0.375
v -0.15 0.2 0.325
v -0.15 0.25 0.375
v -0.15 0.25 0.325
v -0.15 0.75 0.125
v -0.15 0.75 -0.175
v -0.15 0.8 0.125
v -0.15 0.8 -0.175
v -0.1 0.15 0.375
v -0.1 0.15 0.325
v -0.1 0.2 0.375
v -0.1 0.2 0.325
v 0.1 0.2 0.375
v 0.1 0.2 0.325
v 0.1 0.25 0.375
v 0.1 0.25 0.325
v 0.1 0.45 0.375
v 0.1 0.45 0.325
v 0.1 0.55 0.375
v 0.1 0.55 0.325
v 0.1 0.75 0.075
v 0.1 0.75 -0.125
v 0.1 0.8 0.075
v 0.1 0.8 -0.125
v -0.1 0.2 0.375
v -0.1 0.2 0.325
v -0.1 0.25 0.375
v -0.1 0.25 0.325
v -0.1 0.45 0.375
v -0.1 0.45 0.325
v -0.1 0.55 0.375
v -0.1 0.55 0.325
v -0.1 0.75 0.075
v -0.1 0.75 -0.125
v -0.1 0.8 0.075
v -0.1 0.8 -0.125
v 0.1 0.15 0.375
v 0.1 0.15 0.325
v 0.1 0.2 0.375
v 0.1 0.2 0.325
v 0.15 0.2 0.375
v 0.15 0.2 0.325
v 0.15 0.25 0.375
v 0.15 0.25 0.325
v 0.15 0.75 0.125
v 0.15 0.75 -0.175
v 0.15 0.8 0.125
v 0.15 0.8 -0.175
v 0.2 0 0.175
v 0.2 0 -0.225
v 0.2 0.05 0.175
v 0.2 0.05 -0.225
v 0.2 0.45 0.375
v 0.2 0.45 0.325
v 0.2 0.55 0.375
v 0.2 0.55 0.325
v 0.35 0.05 0.325
v 0.35 0.05 -0.375
v 0.35 0.75 0.325
v 0.35 0.75 -0.375
v -0.2 0.45 0.375
v -0.2 0.55 0.375
v -0.15 0.2 0.375
v -0.15 0.25 0.375
v -0.1 0.15 0.375
v -0.1 0.2 0.375
v -0.1 0.25 0.375
v -0.1 0.45 0.375
v -0.1 0.55 0.375
v 0.1 0.15 0.375
v 0.1 0.2 0.375
v 0.1 0.25 0.375
v 0.1 0.45 0.375
v 0.1 0.55 0.375
v 0.15 0.2 0.375
v 0.15 0.25 0.375
v 0.2 0.45 0.375
v 0.2 0.55 0.375
v -0.35 0.05 0.325
v -0.35 0.75 0.325
v -0.2 0.45 0.325
v -0.2 0.55 0.325
v -0.15 0.2 0.325
v -0.15 0.25 0.325
v -0.1 0.15 0.325
v -0.1 0.2 0.325
v -0.1 0.25 0.325
v -0.1 0.45 0.325
v -0.1 0.55 0.325
v 0.1 0.15 0.325
v 0.1 0.2 0.325
v 0.1 0.25 0.325
v 0.1 0.45 0.325
v 0.1 0.55 0.325
v 0.15 0.2 0.325
v 0.15 0.25 0.325
v 0.2 0.45 0.325
v 0.2 0.55 0.325
v 0.35 0.05 0.325
v 0.35 0.75 0.325
v -0.2 0 0.175
v -0.2 0.05 0.175
v 0.2 0 0.175
v 0.2 0.05 0.175
v -0.15 0.75 0.125
v -0.15 0.8 0.125
v 0.15 0.75 0.125
v 0.15 0.8 0.125
v -0.1 0.75 -0.125
v -0.1 0.8 -0.125
v 0.1 0.75 -0.125
v 0.1 0.8 -0.125
v -0.1 0.75 0.075
v -0.1 0.8 0.075
v 0.1 0.75 0.075
v 0.1 0.8 0.075
v -0.15 0.75 -0.175
v -0.15 0.8 -0.175
v 0.15 0.75 -0.175
v 0.15 0.8 -0.175
v -0.2 0 -0.225
v -0.2 0.05 -0.225
v 0.2 0 -0.225
v 0.2 0.05 -0.225
v -0.35 0.05 -0.375
v -0.35 0.75 -0.375
v 0.35 0.05 -0.375
v 0.35 0.75 -0.375
v -0.2 0 0.175
v 0.2 0 0.175
v -0.2 0 -0.225
v 0.2 0 -0.225
v -0.35 0.05 0.325
v 0.35 0.05 0.325
v -0.2 0.05 0.175
v 0.2 0.05 0.175
v -0.2 0.05 -0.225
v 0.2 0.05 -0.225
v -0.35 0.05 -0.375
v 0.35 0.05 -0.375
v -0.1 0.15 0.375
v 0.1 0.15 0.375
v -0.1 0.15 0.325
v 0.1 0.15 0.325
v -0.15 0.2 0.375
v -0.1 0.2 0.375
v 0.1 0.2 0.375
v 0.15 0.2 0.375
v -0.15 0.2 0.325
v -0.1 0.2 0.325
v 0.1 0.2 0.325
v 0.15 0.2 0.325
v -0.2 0.45 0.375
v -0.1 0.45 0.375
v 0.1 0.45 0.375
v 0.2 0.45 0.375
v -0.2 0.45 0.325
v -0.1 0.45 0.325
v 0.1 0.45 0.325
v 0.2 0.45 0.325
v -0.1 0.2 0.375
v 0.1 0.2 0.375
v -0.1 0.2 0.325
v 0.1 0.2 0.325
v -0.15 0.25 0.375
v -0.1 0.25 0.375
v 0.1 0.25 0.375
v 0.15 0.25 0.375
v -0.15 0.25 0.325
v -0.1 0.25 0.325
v 0.1 0.25 0.325
v 0.15 0.25 0.325
v -0.2 0.55 0.375
v -0.1 0.55 0.375
v 0.1 0.55 0.375
v 0.2 0.55 0.375
v -0.2 0.55 0.325
v -0.1 0.55 0.325
v 0.1 0.55 0.325
v 0.2 0.55 0.325
v -0.35 0.75 0.325
v 0.35 0.75 0.325
v -0.15 0.75 0.125
v 0.15 0.75 0.125
v -0.1 0.75 0.075
v 0.1 0.75 0.075
v -0.1 0.75 -0.125
v 0.1 0.75 -0.125
v -0.15 0.75 -0.175
v 0.15 0.75 -0.175
v -0.35 0.75 -0.375
v 0.35 0.75 -0.375
v -0.15 0.8 0.125
v 0.15 0.8 0.125
v -0.1 0.8 0.075
v 0.1 0.8 0.075
v -0.1 0.8 -0.125
v 0.1 0.8 -0.125
v -0.15 0.8 -0.175
v 0.15 0.8 -0.175

# faces
f 3/1/1 2/1/1 1/1/1
f 4/1/1 2/1/1 3/1/1
f 7/1/1 6/1/1 5/1/1
f 8/1/1 6/1/1 7/1/1
f 11/2/1 10/2/1 9/2/1
f 12/2/1 10/2/1 11/2/1
f 15/2/1 14/2/1 13/2/1
f 16/2/1 14/2/1 15/2/1
f 19/1/1 18/1/1 17/1/1
f 20/1/1 18/1/1 19/1/1
f 23/2/1 22/2/1 21/2/1
f 24/2/1 22/2/1 23/2/1
f 27/2/1 26/2/1 25/2/1
f 28/2/1 26/2/1 27/2/1
f 31/2/1 30/2/1 29/2/1
f 32/2/1 30/2/1 31/2/1
f 35/1/1 34/1/1 33/1/1
f 36/1/1 34/1/1 35/1/1
f 37/2/2 38/2/2 39/2/2
f 39/2/2 38/2/2 40/2/2
f 41/2/2 42/2/2 43/2/2
f 43/2/2 42/2/2 44/2/2
f 45/1/2 46/1/2 47/1/2
f 47/1/2 46/1/2 48/1/2
f 49/2/2 50/2/2 51/2/2
f 51/2/2 50/2/2 52/2/2
f 53/2/2 54/2/2 55/2/2
f 55/2/2 54/2/2 56/2/2
f 57/1/2 58/1/2 59/1/2
f 59/1/2 58/1/2 60/1/2
f 61/1/2 62/1/2 63/1/2
f 63/1/2 62/1/2 64/1/2
f 65/2/2 66/2/2 67/2/2
f 67/2/2 66/2/2 68/2/2
f 69/1/2 70/1/2 71/1/2
f 71/1/2 70/1/2 72/1/2
f 78/2/3 76/2/3 75/2/3
f 79/2/3 76/2/3 78/2/3
f 80/2/3 74/2/3 73/2/3
f 81/2/3 74/2/3 80/2/3
f 82/2/3 78/2/3 77/2/3
f 83/2/3 78/2/3 82/2/3
f 87/2/3 84/2/3 83/2/3
f 88/2/3 84/2/3 87/2/3
f 89/2/3 86/2/3 85/2/3
f 90/2/3 86/2/3 89/2/3
f 93/1/3 92/1/3 91/1/3
f 94/1/3 92/1/3 93/1/3
f 95/1/3 93/1/3 91/1/3
f 96/1/3 93/1/3 95/1/3
f 97/1/3 95/1/3 91/1/3
f 98/1/3 95/1/3 97/1/3
f 99/1/3 93/1/3 96/1/3
f 100/1/3 93/1/3 99/1/3
f 101/1/3 92/1/3 94/1/3
f 102/1/3 97/1/3 91/1/3
f 103/1/3 100/1/3 99/1/3
f 103/1/3 101/1/3 100/1/3
f 103/1/3 99/1/3 98/1/3
f 104/1/3 101/1/3 103/1/3
f 105/1/3 101/1/3 104/1/3
f 106/1/3 92/1/3 101/1/3
f 106/1/3 101/1/3 105/1/3
f 107/1/3 103/1/3 102/1/3
f 108/1/3 105/1/3 104/1/3
f 109/1/3 105/1/3 108/1/3
f 109/1/3 108/1/3 107/1/3
f 110/1/3 92/1/3 106/1/3
f 111/1/3 102/1/3 91/1/3
f 111/1/3 110/1/3 109/1/3
f 111/1/3 107/1/3 102/1/3
f 111/1/3 109/1/3 107/1/3
f 112/1/3 92/1/3 110/1/3
f 112/1/3 110/1/3 111/1/3
f 115/1/3 114/1/3 113/1/3
f 116/1/3 114/1/3 115/1/3
f 119/1/3 118/1/3 117/1/3
f 120/1/3 118/1/3 119/1/3
f 123/1/3 122/1/3 121/1/3
f 124/1/3 122/1/3 123/1/3
f 125/1/4 126/1/4 127/1/4
f 127/1/4 126/1/4 128/1/4
f 129/1/4 130/1/4 131/1/4
f 131/1/4 130/1/4 132/1/4
f 133/1/4 134/1/4 135/1/4
f 135/1/4 134/1/4 136/1/4
f 137/1/4 138/1/4 139/1/4
f 139/1/4 138/1/4 140/1/4
f 143/1/5 142/1/5 141/1/5
f 144/1/5 142/1/5 143/1/5
f 147/1/5 146/1/5 145/1/5
f 148/1/5 146/1/5 147/1/5
f 149/1/5 147/1/5 145/1/5
f 150/1/5 146/1/5 148/1/5
f 151/1/5 149/1/5 145/1/5
f 151/1/5 150/1/5 149/1/5
f 152/1/5 146/1/5 150/1/5
f 152/1/5 150/1/5 151/1/5
f 155/2/5 154/2/5 153/2/5
f 156/2/5 154/2/5 155/2/5
f 161/2/5 158/2/5 157/2/5
f 162/2/5 158/2/5 161/2/5
f 163/2/5 160/2/5 159/2/5
f 164/2/5 160/2/5 163/2/5
f 169/2/5 166/2/5 165/2/5
f 170/2/5 166/2/5 169/2/5
f 171/2/5 168/2/5 167/2/5
f 172/2/5 168/2/5 171/2/5
f 173/2/6 174/2/6 175/2/6
f 175/2/6 174/2/6 176/2/6
f 177/2/6 178/2/6 181/2/6
f 181/2/6 178/2/6 182/2/6
f 179/2/6 180/2/6 183/2/6
f 183/2/6 180/2/6 184/2/6
f 185/2/6 186/2/6 189/2/6
f 189/2/6 186/2/6 190/2/6
f 187/2/6 188/2/6 191/2/6
f 191/2/6 188/2/6 192/2/6
f 193/1/6 194/1/6 195/1/6
f 195/1/6 194/1/6 196/1/6
f 197/1/6 198/1/6 199/1/6
f 199/1/6 198/1/6 200/1/6
f 193/1/6 195/1/6 201/1/6
f 196/1/6 194/1/6 202/1/6
f 193/1/6 201/1/6 203/1/6
f 201/1/6 202/1/6 203/1/6
f 202/1/6 194/1/6 204/1/6
f 203/1/6 202/1/6 204/1/6
f 205/1/6 206/1/6 207/1/6
f 207/1/6 206/1/6 208/1/6
f 205/1/6 207/1/6 209/1/6
f 208/1/6 206/1/6 210/1/6
f 205/1/6 209/1/6 211/1/6
f 209/1/6 210/1/6 211/1/6
f 210/1/6 206/1/6 212/1/6
f 211/1/6 210/1/6 212/1/6
