# MagicaVoxel @ ephtracy

# material
mtllib chair0.mtl
usemtl palette

# normals
vn -1 0 0
vn 1 0 0
vn 0 0 1
vn 0 0 -1
vn 0 -1 0
vn 0 1 0

# texcoords
vt 0.978516 0.5
vt 0.990234 0.5

# verts
v -0.4 0 0.2
v -0.4 0 0.15
v -0.4 0 -0.35
v -0.4 0 -0.4
v -0.4 0.05 0.4
v -0.4 0.05 0.2
v -0.4 0.05 0.15
v -0.4 0.05 -0.35
v -0.4 0.2 0.4
v -0.4 0.2 0.2
v -0.4 0.2 0.15
v -0.4 0.2 -0.35
v -0.4 0.25 0.2
v -0.4 0.25 0.15
v -0.4 0.25 -0.35
v -0.4 0.3 0.15
v -0.4 0.3 -0.35
v -0.4 0.45 -0.35
v -0.4 0.45 -0.4
v 0.35 0 0.2
v 0.35 0 0.15
v 0.35 0 -0.35
v 0.35 0 -0.4
v 0.35 0.05 0.2
v 0.35 0.05 0.15
v 0.35 0.05 -0.35
v 0.35 0.05 -0.4
v 0.35 0.2 0.2
v 0.35 0.2 0.15
v 0.35 0.2 -0.35
v 0.35 0.2 -0.4
v 0.35 0.25 0.2
v 0.35 0.25 0.15
v 0.35 0.25 -0.35
v 0.35 0.3 0.15
v 0.35 0.3 -0.35
v 0.35 0.35 -0.35
v 0.35 0.35 -0.4
v -0.35 0 0.2
v -0.35 0 0.15
v -0.35 0 -0.35
v -0.35 0 -0.4
v -0.35 0.05 0.2
v -0.35 0.05 0.15
v -0.35 0.05 -0.35
v -0.35 0.05 -0.4
v -0.35 0.2 0.2
v -0.35 0.2 0.15
v -0.35 0.2 -0.35
v -0.35 0.2 -0.4
v -0.35 0.25 0.2
v -0.35 0.25 0.15
v -0.35 0.25 -0.35
v -0.35 0.3 0.15
v -0.35 0.3 -0.35
v -0.35 0.35 -0.35
v -0.35 0.35 -0.4
v 0.4 0 0.2
v 0.4 0 0.15
v 0.4 0 -0.35
v 0.4 0 -0.4
v 0.4 0.05 0.4
v 0.4 0.05 0.2
v 0.4 0.05 0.15
v 0.4 0.05 -0.35
v 0.4 0.2 0.4
v 0.4 0.2 0.2
v 0.4 0.2 0.15
v 0.4 0.2 -0.35
v 0.4 0.25 0.2
v 0.4 0.25 0.15
v 0.4 0.25 -0.35
v 0.4 0.3 0.15
v 0.4 0.3 -0.35
v 0.4 0.45 -0.35
v 0.4 0.45 -0.4
v -0.4 0.05 0.4
v -0.4 0.2 0.4
v 0.4 0.05 0.4
v 0.4 0.2 0.4
v -0.4 0 0.2
v -0.4 0.05 0.2
v -0.4 0.2 0.2
v -0.4 0.25 0.2
v -0.35 0 0.2
v -0.35 0.05 0.2
v -0.35 0.2 0.2
v -0.35 0.25 0.2
v 0.35 0 0.2
v 0.35 0.05 0.2
v 0.35 0.2 0.2
v 0.35 0.25 0.2
v 0.4 0 0.2
v 0.4 0.05 0.2
v 0.4 0.2 0.2
v 0.4 0.25 0.2
v -0.4 0.25 0.15
v -0.4 0.3 0.15
v -0.35 0.25 0.15
v -0.35 0.3 0.15
v 0.35 0.25 0.15
v 0.35 0.3 0.15
v 0.4 0.25 0.15
v 0.4 0.3 0.15
v -0.4 0 -0.35
v -0.4 0.05 -0.35
v -0.4 0.2 -0.35
v -0.4 0.25 -0.35
v -0.4 0.3 -0.35
v -0.4 0.45 -0.35
v -0.35 0 -0.35
v -0.35 0.05 -0.35
v -0.35 0.2 -0.35
v -0.35 0.25 -0.35
v -0.35 0.3 -0.35
v -0.35 0.35 -0.35
v -0.35 0.45 -0.35
v 0.35 0 -0.35
v 0.35 0.05 -0.35
v 0.35 0.2 -0.35
v 0.35 0.25 -0.35
v 0.35 0.3 -0.35
v 0.35 0.35 -0.35
v 0.35 0.45 -0.35
v 0.4 0 -0.35
v 0.4 0.05 -0.35
v 0.4 0.2 -0.35
v 0.4 0.25 -0.35
v 0.4 0.3 -0.35
v 0.4 0.45 -0.35
v -0.4 0 0.15
v -0.4 0.05 0.15
v -0.4 0.2 0.15
v -0.4 0.25 0.15
v -0.35 0 0.15
v -0.35 0.05 0.15
v -0.35 0.2 0.15
v -0.35 0.25 0.15
v 0.35 0 0.15
v 0.35 0.05 0.15
v 0.35 0.2 0.15
v 0.35 0.25 0.15
v 0.4 0 0.15
v 0.4 0.05 0.15
v 0.4 0.2 0.15
v 0.4 0.25 0.15
v -0.4 0 -0.4
v -0.4 0.45 -0.4
v -0.35 0 -0.4
v -0.35 0.05 -0.4
v -0.35 0.2 -0.4
v -0.35 0.35 -0.4
v -0.35 0.45 -0.4
v 0.35 0 -0.4
v 0.35 0.05 -0.4
v 0.35 0.2 -0.4
v 0.35 0.35 -0.4
v 0.35 0.45 -0.4
v 0.4 0 -0.4
v 0.4 0.45 -0.4
v -0.4 0 0.2
v -0.35 0 0.2
v 0.35 0 0.2
v 0.4 0 0.2
v -0.4 0 0.15
v -0.35 0 0.15
v 0.35 0 0.15
v 0.4 0 0.15
v -0.4 0 -0.35
v -0.35 0 -0.35
v 0.35 0 -0.35
v 0.4 0 -0.35
v -0.4 0 -0.4
v -0.35 0 -0.4
v 0.35 0 -0.4
v 0.4 0 -0.4
v -0.4 0.05 0.4
v 0.4 0.05 0.4
v -0.4 0.05 0.2
v -0.35 0.05 0.2
v 0.35 0.05 0.2
v 0.4 0.05 0.2
v -0.4 0.05 0.15
v -0.35 0.05 0.15
v 0.35 0.05 0.15
v 0.4 0.05 0.15
v -0.4 0.05 -0.35
v -0.35 0.05 -0.35
v 0.35 0.05 -0.35
v 0.4 0.05 -0.35
v -0.35 0.05 -0.4
v 0.35 0.05 -0.4
v -0.4 0.25 0.15
v -0.35 0.25 0.15
v 0.35 0.25 0.15
v 0.4 0.25 0.15
v -0.4 0.25 -0.35
v -0.35 0.25 -0.35
v 0.35 0.25 -0.35
v 0.4 0.25 -0.35
v -0.35 0.35 -0.35
v 0.35 0.35 -0.35
v -0.35 0.35 -0.4
v 0.35 0.35 -0.4
v -0.4 0.2 0.4
v 0.4 0.2 0.4
v -0.4 0.2 0.2
v -0.35 0.2 0.2
v 0.35 0.2 0.2
v 0.4 0.2 0.2
v -0.4 0.2 0.15
v -0.35 0.2 0.15
v 0.35 0.2 0.15
v 0.4 0.2 0.15
v -0.4 0.2 -0.35
v -0.35 0.2 -0.35
v 0.35 0.2 -0.35
v 0.4 0.2 -0.35
v -0.35 0.2 -0.4
v 0.35 0.2 -0.4
v -0.4 0.25 0.2
v -0.35 0.25 0.2
v 0.35 0.25 0.2
v 0.4 0.25 0.2
v -0.4 0.25 0.15
v -0.35 0.25 0.15
v 0.35 0.25 0.15
v 0.4 0.25 0.15
v -0.4 0.3 0.15
v -0.35 0.3 0.15
v 0.35 0.3 0.15
v 0.4 0.3 0.15
v -0.4 0.3 -0.35
v -0.35 0.3 -0.35
v 0.35 0.3 -0.35
v 0.4 0.3 -0.35
v -0.4 0.45 -0.35
v -0.35 0.45 -0.35
v 0.35 0.45 -0.35
v 0.4 0.45 -0.35
v -0.4 0.45 -0.4
v -0.35 0.45 -0.4
v 0.35 0.45 -0.4
v 0.4 0.45 -0.4

# faces
f 6/1/1 2/1/1 1/1/1
f 7/1/1 2/1/1 6/1/1
f 8/1/1 4/1/1 3/1/1
f 9/2/1 6/2/1 5/2/1
f 10/1/1 7/1/1 6/1/1
f 10/2/1 6/2/1 9/2/1
f 11/2/1 8/2/1 7/2/1
f 11/1/1 7/1/1 10/1/1
f 12/1/1 4/1/1 8/1/1
f 12/2/1 8/2/1 11/2/1
f 13/1/1 11/1/1 10/1/1
f 14/1/1 11/1/1 13/1/1
f 15/1/1 4/1/1 12/1/1
f 16/1/1 15/1/1 14/1/1
f 17/1/1 4/1/1 15/1/1
f 17/1/1 15/1/1 16/1/1
f 18/1/1 4/1/1 17/1/1
f 19/1/1 4/1/1 18/1/1
f 24/1/1 21/1/1 20/1/1
f 25/1/1 21/1/1 24/1/1
f 26/1/1 23/1/1 22/1/1
f 27/1/1 23/1/1 26/1/1
f 32/1/1 29/1/1 28/1/1
f 33/1/1 29/1/1 32/1/1
f 34/1/1 31/1/1 30/1/1
f 35/1/1 34/1/1 33/1/1
f 36/1/1 31/1/1 34/1/1
f 36/1/1 34/1/1 35/1/1
f 37/1/1 31/1/1 36/1/1
f 38/1/1 31/1/1 37/1/1
f 39/1/2 40/1/2 43/1/2
f 43/1/2 40/1/2 44/1/2
f 41/1/2 42/1/2 45/1/2
f 45/1/2 42/1/2 46/1/2
f 47/1/2 48/1/2 51/1/2
f 51/1/2 48/1/2 52/1/2
f 49/1/2 50/1/2 53/1/2
f 52/1/2 53/1/2 54/1/2
f 53/1/2 50/1/2 55/1/2
f 54/1/2 53/1/2 55/1/2
f 55/1/2 50/1/2 56/1/2
f 56/1/2 50/1/2 57/1/2
f 58/1/2 59/1/2 63/1/2
f 63/1/2 59/1/2 64/1/2
f 60/1/2 61/1/2 65/1/2
f 62/2/2 63/2/2 66/2/2
f 63/1/2 64/1/2 67/1/2
f 66/2/2 63/2/2 67/2/2
f 64/2/2 65/2/2 68/2/2
f 67/1/2 64/1/2 68/1/2
f 65/1/2 61/1/2 69/1/2
f 68/2/2 65/2/2 69/2/2
f 67/1/2 68/1/2 70/1/2
f 70/1/2 68/1/2 71/1/2
f 69/1/2 61/1/2 72/1/2
f 71/1/2 72/1/2 73/1/2
f 72/1/2 61/1/2 74/1/2
f 73/1/2 72/1/2 74/1/2
f 74/1/2 61/1/2 75/1/2
f 75/1/2 61/1/2 76/1/2
f 79/2/3 78/2/3 77/2/3
f 80/2/3 78/2/3 79/2/3
f 85/1/3 82/1/3 81/1/3
f 86/1/3 82/1/3 85/1/3
f 87/1/3 84/1/3 83/1/3
f 88/1/3 84/1/3 87/1/3
f 93/1/3 90/1/3 89/1/3
f 94/1/3 90/1/3 93/1/3
f 95/1/3 92/1/3 91/1/3
f 96/1/3 92/1/3 95/1/3
f 99/1/3 98/1/3 97/1/3
f 100/1/3 98/1/3 99/1/3
f 103/1/3 102/1/3 101/1/3
f 104/1/3 102/1/3 103/1/3
f 111/1/3 106/1/3 105/1/3
f 112/1/3 106/1/3 111/1/3
f 113/1/3 108/1/3 107/1/3
f 114/1/3 108/1/3 113/1/3
f 115/1/3 110/1/3 109/1/3
f 116/1/3 110/1/3 115/1/3
f 117/1/3 110/1/3 116/1/3
f 123/2/3 117/2/3 116/2/3
f 124/2/3 117/2/3 123/2/3
f 125/1/3 119/1/3 118/1/3
f 126/1/3 119/1/3 125/1/3
f 127/1/3 121/1/3 120/1/3
f 128/1/3 121/1/3 127/1/3
f 129/1/3 123/1/3 122/1/3
f 129/1/3 124/1/3 123/1/3
f 130/1/3 124/1/3 129/1/3
f 131/1/4 132/1/4 135/1/4
f 135/1/4 132/1/4 136/1/4
f 133/1/4 134/1/4 137/1/4
f 137/1/4 134/1/4 138/1/4
f 139/1/4 140/1/4 143/1/4
f 143/1/4 140/1/4 144/1/4
f 141/1/4 142/1/4 145/1/4
f 145/1/4 142/1/4 146/1/4
f 147/1/4 148/1/4 149/1/4
f 149/1/4 148/1/4 150/1/4
f 150/1/4 148/1/4 151/1/4
f 151/1/4 148/1/4 152/1/4
f 152/1/4 148/1/4 153/1/4
f 150/2/4 151/2/4 155/2/4
f 155/2/4 151/2/4 156/2/4
f 152/2/4 153/2/4 157/2/4
f 157/2/4 153/2/4 158/2/4
f 155/1/4 156/1/4 159/1/4
f 154/1/4 155/1/4 159/1/4
f 157/1/4 158/1/4 159/1/4
f 156/1/4 157/1/4 159/1/4
f 159/1/4 158/1/4 160/1/4
f 165/1/5 162/1/5 161/1/5
f 166/1/5 162/1/5 165/1/5
f 167/1/5 164/1/5 163/1/5
f 168/1/5 164/1/5 167/1/5
f 173/1/5 170/1/5 169/1/5
f 174/1/5 170/1/5 173/1/5
f 175/1/5 172/1/5 171/1/5
f 176/1/5 172/1/5 175/1/5
f 179/2/5 178/2/5 177/2/5
f 180/2/5 178/2/5 179/2/5
f 181/2/5 178/2/5 180/2/5
f 182/2/5 178/2/5 181/2/5
f 184/2/5 181/2/5 180/2/5
f 185/2/5 181/2/5 184/2/5
f 187/2/5 184/2/5 183/2/5
f 187/2/5 186/2/5 185/2/5
f 187/2/5 185/2/5 184/2/5
f 188/2/5 186/2/5 187/2/5
f 189/2/5 186/2/5 188/2/5
f 190/2/5 186/2/5 189/2/5
f 191/2/5 189/2/5 188/2/5
f 192/2/5 189/2/5 191/2/5
f 197/1/5 194/1/5 193/1/5
f 198/1/5 194/1/5 197/1/5
f 199/1/5 196/1/5 195/1/5
f 200/1/5 196/1/5 199/1/5
f 203/2/5 202/2/5 201/2/5
f 204/2/5 202/2/5 203/2/5
f 205/2/6 206/2/6 207/2/6
f 207/2/6 206/2/6 208/2/6
f 208/2/6 206/2/6 209/2/6
f 209/2/6 206/2/6 210/2/6
f 208/2/6 209/2/6 212/2/6
f 212/2/6 209/2/6 213/2/6
f 211/2/6 212/2/6 215/2/6
f 213/2/6 214/2/6 215/2/6
f 212/2/6 213/2/6 215/2/6
f 215/2/6 214/2/6 216/2/6
f 216/2/6 214/2/6 217/2/6
f 217/2/6 214/2/6 218/2/6
f 216/2/6 217/2/6 219/2/6
f 219/2/6 217/2/6 220/2/6
f 221/1/6 222/1/6 225/1/6
f 225/1/6 222/1/6 226/1/6
f 223/1/6 224/1/6 227/1/6
f 227/1/6 224/1/6 228/1/6
f 229/1/6 230/1/6 233/1/6
f 233/1/6 230/1/6 234/1/6
f 231/1/6 232/1/6 235/1/6
f 235/1/6 232/1/6 236/1/6
f 237/1/6 238/1/6 241/1/6
f 238/2/6 239/2/6 242/2/6
f 241/1/6 238/1/6 242/1/6
f 239/1/6 240/1/6 243/1/6
f 242/2/6 239/2/6 243/2/6
f 243/1/6 240/1/6 244/1/6
