# MagicaVoxel @ ephtracy

# material
mtllib bed0.mtl
usemtl palette

# normals
vn -1 0 0
vn 1 0 0
vn 0 0 1
vn 0 0 -1
vn 0 -1 0
vn 0 1 0

# texcoords
vt 0.306641 0.5
vt 0.958984 0.5
vt 0.982422 0.5
vt 0.990234 0.5

# verts
v -0.625 0 1.125
v -0.625 0 -0.375
v -0.625 0 -0.475
v -0.625 0 -1.125
v -0.625 0.05 1.125
v -0.625 0.05 -0.375
v -0.625 0.05 -0.475
v -0.625 0.05 -1.125
v -0.525 0.05 -0.675
v -0.525 0.05 -1.125
v -0.525 0.15 -0.675
v -0.525 0.15 -1.125
v 0.525 0.05 -0.675
v 0.525 0.05 -1.125
v 0.525 0.15 -0.675
v 0.525 0.15 -1.125
v 0.625 0 1.125
v 0.625 0 -0.375
v 0.625 0 -0.475
v 0.625 0 -1.125
v 0.625 0.05 1.125
v 0.625 0.05 -0.375
v 0.625 0.05 -0.475
v 0.625 0.05 -1.125
v -0.625 0 1.125
v -0.625 0.05 1.125
v -0.175 0 1.125
v -0.175 0.05 1.125
v 0.175 0 1.125
v 0.175 0.05 1.125
v 0.625 0 1.125
v 0.625 0.05 1.125
v -0.525 0.05 -0.675
v -0.525 0.15 -0.675
v 0.525 0.05 -0.675
v 0.525 0.15 -0.675
v -0.625 0 -1.125
v -0.625 0.05 -1.125
v -0.525 0 -1.125
v -0.525 0.05 -1.125
v -0.525 0.15 -1.125
v -0.475 0.05 -1.125
v -0.475 0.1 -1.125
v 0.475 0.05 -1.125
v 0.475 0.1 -1.125
v 0.525 0 -1.125
v 0.525 0.05 -1.125
v 0.525 0.15 -1.125
v 0.625 0 -1.125
v 0.625 0.05 -1.125
v -0.625 0 1.125
v -0.175 0 1.125
v 0.175 0 1.125
v 0.625 0 1.125
v -0.175 0 1.075
v -0.075 0 1.075
v 0.075 0 1.075
v 0.175 0 1.075
v 0.275 0 1.075
v -0.425 0 1.025
v -0.375 0 1.025
v -0.075 0 1.025
v -0.025 0 1.025
v 0.025 0 1.025
v 0.075 0 1.025
v -0.525 0 0.975
v -0.475 0 0.975
v -0.025 0 0.975
v 0.025 0 0.975
v -0.525 0 0.925
v -0.475 0 0.925
v 0.175 0 0.925
v 0.275 0 0.925
v 0.425 0 0.925
v 0.525 0 0.925
v -0.425 0 0.875
v -0.375 0 0.875
v -0.225 0 0.825
v -0.175 0 0.825
v -0.025 0 0.825
v 0.025 0 0.825
v -0.225 0 0.775
v -0.175 0 0.775
v 0.425 0 0.775
v 0.525 0 0.775
v -0.025 0 0.725
v 0.025 0 0.725
v 0.225 0 0.725
v 0.275 0 0.725
v 0.225 0 0.675
v 0.275 0 0.675
v -0.025 0 0.625
v 0.025 0 0.625
v -0.025 0 0.575
v 0.025 0 0.575
v -0.575 0 0.525
v -0.375 0 0.525
v -0.325 0 0.525
v -0.275 0 0.525
v -0.325 0 0.475
v -0.275 0 0.475
v 0.375 0 0.475
v 0.475 0 0.475
v -0.125 0 0.425
v -0.075 0 0.425
v -0.125 0 0.375
v -0.075 0 0.375
v 0.025 0 0.375
v 0.175 0 0.375
v 0.375 0 0.375
v 0.475 0 0.375
v -0.575 0 0.275
v -0.375 0 0.275
v 0.025 0 0.275
v 0.175 0 0.275
v 0.225 0 0.275
v 0.175 0 0.225
v 0.225 0 0.225
v -0.125 0 0.175
v -0.025 0 0.175
v 0.025 0 0.175
v 0.125 0 0.175
v 0.375 0 0.175
v 0.425 0 0.175
v -0.475 0 0.125
v -0.425 0 0.125
v -0.275 0 0.125
v -0.225 0 0.125
v -0.175 0 0.125
v -0.125 0 0.125
v -0.025 0 0.125
v 0.025 0 0.125
v 0.125 0 0.125
v 0.175 0 0.125
v 0.225 0 0.125
v 0.275 0 0.125
v 0.375 0 0.125
v 0.425 0 0.125
v -0.475 0 0.075
v -0.425 0 0.075
v -0.125 0 0.075
v 0.125 0 0.075
v -0.225 0 0.025
v -0.175 0 0.025
v 0.175 0 0.025
v 0.225 0 0.025
v -0.275 0 -0.025
v -0.225 0 -0.025
v -0.125 0 -0.025
v -0.075 0 -0.025
v 0.075 0 -0.025
v 0.125 0 -0.025
v 0.225 0 -0.025
v 0.275 0 -0.025
v 0.525 0 -0.025
v 0.575 0 -0.025
v -0.525 0 -0.075
v -0.375 0 -0.075
v -0.225 0 -0.075
v -0.175 0 -0.075
v -0.125 0 -0.075
v -0.075 0 -0.075
v 0.075 0 -0.075
v 0.125 0 -0.075
v 0.175 0 -0.075
v 0.225 0 -0.075
v -0.175 0 -0.125
v -0.125 0 -0.125
v -0.075 0 -0.125
v 0.075 0 -0.125
v 0.125 0 -0.125
v 0.175 0 -0.125
v 0.525 0 -0.125
v 0.575 0 -0.125
v -0.125 0 -0.175
v -0.075 0 -0.175
v 0.075 0 -0.175
v 0.125 0 -0.175
v -0.525 0 -0.225
v -0.375 0 -0.225
v 0.325 0 -0.225
v 0.375 0 -0.225
v -0.075 0 -0.275
v 0.025 0 -0.275
v 0.325 0 -0.275
v 0.375 0 -0.275
v -0.625 0 -0.375
v -0.075 0 -0.375
v 0.025 0 -0.375
v 0.625 0 -0.375
v -0.625 0 -0.475
v 0.625 0 -0.475
v -0.525 0 -0.675
v 0.525 0 -0.675
v -0.625 0 -1.125
v -0.525 0 -1.125
v 0.525 0 -1.125
v 0.625 0 -1.125
v -0.625 0.05 1.125
v -0.175 0.05 1.125
v 0.175 0.05 1.125
v 0.625 0.05 1.125
v -0.175 0.05 1.075
v -0.075 0.05 1.075
v 0.075 0.05 1.075
v 0.175 0.05 1.075
v 0.275 0.05 1.075
v -0.425 0.05 1.025
v -0.375 0.05 1.025
v -0.075 0.05 1.025
v -0.025 0.05 1.025
v 0.025 0.05 1.025
v 0.075 0.05 1.025
v -0.525 0.05 0.975
v -0.475 0.05 0.975
v -0.025 0.05 0.975
v 0.025 0.05 0.975
v -0.525 0.05 0.925
v -0.475 0.05 0.925
v 0.175 0.05 0.925
v 0.275 0.05 0.925
v 0.425 0.05 0.925
v 0.525 0.05 0.925
v -0.425 0.05 0.875
v -0.375 0.05 0.875
v -0.225 0.05 0.825
v -0.175 0.05 0.825
v -0.025 0.05 0.825
v 0.025 0.05 0.825
v -0.225 0.05 0.775
v -0.175 0.05 0.775
v 0.425 0.05 0.775
v 0.525 0.05 0.775
v -0.025 0.05 0.725
v 0.025 0.05 0.725
v 0.225 0.05 0.725
v 0.275 0.05 0.725
v 0.225 0.05 0.675
v 0.275 0.05 0.675
v -0.025 0.05 0.625
v 0.025 0.05 0.625
v -0.025 0.05 0.575
v 0.025 0.05 0.575
v -0.575 0.05 0.525
v -0.375 0.05 0.525
v -0.325 0.05 0.525
v -0.275 0.05 0.525
v -0.325 0.05 0.475
v -0.275 0.05 0.475
v 0.375 0.05 0.475
v 0.475 0.05 0.475
v -0.125 0.05 0.425
v -0.075 0.05 0.425
v -0.125 0.05 0.375
v -0.075 0.05 0.375
v 0.025 0.05 0.375
v 0.175 0.05 0.375
v 0.375 0.05 0.375
v 0.475 0.05 0.375
v -0.575 0.05 0.275
v -0.375 0.05 0.275
v 0.025 0.05 0.275
v 0.175 0.05 0.275
v 0.225 0.05 0.275
v 0.175 0.05 0.225
v 0.225 0.05 0.225
v -0.125 0.05 0.175
v -0.025 0.05 0.175
v 0.025 0.05 0.175
v 0.125 0.05 0.175
v 0.375 0.05 0.175
v 0.425 0.05 0.175
v -0.475 0.05 0.125
v -0.425 0.05 0.125
v -0.275 0.05 0.125
v -0.225 0.05 0.125
v -0.175 0.05 0.125
v -0.125 0.05 0.125
v -0.025 0.05 0.125
v 0.025 0.05 0.125
v 0.125 0.05 0.125
v 0.175 0.05 0.125
v 0.225 0.05 0.125
v 0.275 0.05 0.125
v 0.375 0.05 0.125
v 0.425 0.05 0.125
v -0.475 0.05 0.075
v -0.425 0.05 0.075
v -0.125 0.05 0.075
v 0.125 0.05 0.075
v -0.225 0.05 0.025
v -0.175 0.05 0.025
v 0.175 0.05 0.025
v 0.225 0.05 0.025
v -0.275 0.05 -0.025
v -0.225 0.05 -0.025
v -0.125 0.05 -0.025
v -0.075 0.05 -0.025
v 0.075 0.05 -0.025
v 0.125 0.05 -0.025
v 0.225 0.05 -0.025
v 0.275 0.05 -0.025
v 0.525 0.05 -0.025
v 0.575 0.05 -0.025
v -0.525 0.05 -0.075
v -0.375 0.05 -0.075
v -0.225 0.05 -0.075
v -0.175 0.05 -0.075
v -0.125 0.05 -0.075
v -0.075 0.05 -0.075
v 0.075 0.05 -0.075
v 0.125 0.05 -0.075
v 0.175 0.05 -0.075
v 0.225 0.05 -0.075
v -0.175 0.05 -0.125
v -0.125 0.05 -0.125
v -0.075 0.05 -0.125
v 0.075 0.05 -0.125
v 0.125 0.05 -0.125
v 0.175 0.05 -0.125
v 0.525 0.05 -0.125
v 0.575 0.05 -0.125
v -0.125 0.05 -0.175
v -0.075 0.05 -0.175
v 0.075 0.05 -0.175
v 0.125 0.05 -0.175
v -0.525 0.05 -0.225
v -0.375 0.05 -0.225
v 0.325 0.05 -0.225
v 0.375 0.05 -0.225
v -0.075 0.05 -0.275
v 0.025 0.05 -0.275
v 0.325 0.05 -0.275
v 0.375 0.05 -0.275
v -0.625 0.05 -0.375
v -0.075 0.05 -0.375
v 0.025 0.05 -0.375
v 0.625 0.05 -0.375
v -0.625 0.05 -0.475
v 0.625 0.05 -0.475
v -0.525 0.05 -0.675
v 0.525 0.05 -0.675
v -0.625 0.05 -1.125
v -0.525 0.05 -1.125
v 0.525 0.05 -1.125
v 0.625 0.05 -1.125
v -0.525 0.15 -0.675
v 0.525 0.15 -0.675
v -0.525 0.15 -1.125
v 0.525 0.15 -1.125

# faces
f 5/4/1 2/4/1 1/4/1
f 6/2/1 3/2/1 2/2/1
f 6/4/1 2/4/1 5/4/1
f 7/3/1 4/3/1 3/3/1
f 7/2/1 3/2/1 6/2/1
f 8/3/1 4/3/1 7/3/1
f 11/2/1 10/2/1 9/2/1
f 12/2/1 10/2/1 11/2/1
f 13/2/2 14/2/2 15/2/2
f 15/2/2 14/2/2 16/2/2
f 17/4/2 18/4/2 21/4/2
f 18/2/2 19/2/2 22/2/2
f 21/4/2 18/4/2 22/4/2
f 19/3/2 20/3/2 23/3/2
f 22/2/2 19/2/2 23/2/2
f 23/3/2 20/3/2 24/3/2
f 27/4/3 26/4/3 25/4/3
f 28/4/3 26/4/3 27/4/3
f 29/2/3 28/2/3 27/2/3
f 30/2/3 28/2/3 29/2/3
f 31/4/3 30/4/3 29/4/3
f 32/4/3 30/4/3 31/4/3
f 35/2/3 34/2/3 33/2/3
f 36/2/3 34/2/3 35/2/3
f 37/3/4 38/3/4 39/3/4
f 39/3/4 38/3/4 40/3/4
f 39/4/4 40/4/4 42/4/4
f 40/2/4 41/2/4 42/2/4
f 42/2/4 41/2/4 43/2/4
f 39/4/4 42/4/4 44/4/4
f 42/4/4 43/4/4 44/4/4
f 43/2/4 41/2/4 45/2/4
f 44/4/4 43/4/4 45/4/4
f 39/4/4 44/4/4 46/4/4
f 44/2/4 45/2/4 47/2/4
f 46/4/4 44/4/4 47/4/4
f 45/2/4 41/2/4 48/2/4
f 47/2/4 45/2/4 48/2/4
f 46/3/4 47/3/4 49/3/4
f 49/3/4 47/3/4 50/3/4
f 55/4/5 52/4/5 51/4/5
f 55/2/5 53/2/5 52/2/5
f 56/2/5 53/2/5 55/2/5
f 57/2/5 53/2/5 56/2/5
f 58/4/5 54/4/5 53/4/5
f 58/2/5 53/2/5 57/2/5
f 59/4/5 54/4/5 58/4/5
f 60/4/5 55/4/5 51/4/5
f 60/4/5 56/4/5 55/4/5
f 61/4/5 56/4/5 60/4/5
f 62/2/5 57/2/5 56/2/5
f 62/4/5 56/4/5 61/4/5
f 63/2/5 57/2/5 62/2/5
f 64/2/5 57/2/5 63/2/5
f 65/4/5 58/4/5 57/4/5
f 65/2/5 57/2/5 64/2/5
f 66/4/5 60/4/5 51/4/5
f 67/4/5 60/4/5 66/4/5
f 68/2/5 64/2/5 63/2/5
f 68/4/5 62/4/5 61/4/5
f 68/4/5 63/4/5 62/4/5
f 69/4/5 65/4/5 64/4/5
f 69/2/5 64/2/5 68/2/5
f 70/3/5 67/3/5 66/3/5
f 70/4/5 66/4/5 51/4/5
f 71/4/5 60/4/5 67/4/5
f 71/3/5 67/3/5 70/3/5
f 72/3/5 59/3/5 58/3/5
f 72/4/5 58/4/5 65/4/5
f 72/4/5 65/4/5 69/4/5
f 72/4/5 69/4/5 68/4/5
f 73/4/5 54/4/5 59/4/5
f 73/3/5 59/3/5 72/3/5
f 74/4/5 54/4/5 73/4/5
f 75/4/5 54/4/5 74/4/5
f 76/3/5 61/3/5 60/3/5
f 76/4/5 60/4/5 71/4/5
f 76/4/5 71/4/5 70/4/5
f 77/4/5 72/4/5 68/4/5
f 77/3/5 61/3/5 76/3/5
f 77/4/5 74/4/5 73/4/5
f 77/4/5 73/4/5 72/4/5
f 77/4/5 68/4/5 61/4/5
f 78/4/5 77/4/5 76/4/5
f 78/4/5 74/4/5 77/4/5
f 79/4/5 74/4/5 78/4/5
f 80/4/5 74/4/5 79/4/5
f 81/4/5 74/4/5 80/4/5
f 82/4/5 78/4/5 76/4/5
f 82/3/5 79/3/5 78/3/5
f 83/4/5 80/4/5 79/4/5
f 83/3/5 79/3/5 82/3/5
f 84/3/5 75/3/5 74/3/5
f 84/4/5 74/4/5 81/4/5
f 85/4/5 54/4/5 75/4/5
f 85/3/5 75/3/5 84/3/5
f 86/4/5 80/4/5 83/4/5
f 86/4/5 83/4/5 82/4/5
f 86/2/5 81/2/5 80/2/5
f 87/4/5 84/4/5 81/4/5
f 87/2/5 81/2/5 86/2/5
f 87/4/5 85/4/5 84/4/5
f 88/4/5 85/4/5 87/4/5
f 89/4/5 85/4/5 88/4/5
f 90/4/5 87/4/5 86/4/5
f 90/4/5 88/4/5 87/4/5
f 90/3/5 89/3/5 88/3/5
f 91/4/5 85/4/5 89/4/5
f 91/3/5 89/3/5 90/3/5
f 92/4/5 86/4/5 82/4/5
f 92/4/5 90/4/5 86/4/5
f 92/4/5 91/4/5 90/4/5
f 93/4/5 91/4/5 92/4/5
f 94/4/5 92/4/5 82/4/5
f 94/2/5 93/2/5 92/2/5
f 95/4/5 91/4/5 93/4/5
f 95/2/5 93/2/5 94/2/5
f 96/4/5 76/4/5 70/4/5
f 96/4/5 70/4/5 51/4/5
f 96/4/5 95/4/5 94/4/5
f 96/4/5 94/4/5 82/4/5
f 96/4/5 82/4/5 76/4/5
f 97/4/5 95/4/5 96/4/5
f 98/4/5 95/4/5 97/4/5
f 99/4/5 95/4/5 98/4/5
f 100/4/5 98/4/5 97/4/5
f 100/3/5 99/3/5 98/3/5
f 101/4/5 95/4/5 99/4/5
f 101/3/5 99/3/5 100/3/5
f 102/4/5 85/4/5 91/4/5
f 102/4/5 95/4/5 101/4/5
f 102/4/5 91/4/5 95/4/5
f 103/4/5 85/4/5 102/4/5
f 104/4/5 101/4/5 100/4/5
f 104/4/5 102/4/5 101/4/5
f 105/4/5 102/4/5 104/4/5
f 106/4/5 104/4/5 100/4/5
f 106/3/5 105/3/5 104/3/5
f 107/4/5 102/4/5 105/4/5
f 107/3/5 105/3/5 106/3/5
f 108/4/5 102/4/5 107/4/5
f 109/4/5 102/4/5 108/4/5
f 110/3/5 103/3/5 102/3/5
f 110/4/5 102/4/5 109/4/5
f 111/4/5 85/4/5 103/4/5
f 111/3/5 103/3/5 110/3/5
f 112/4/5 96/4/5 51/4/5
f 112/3/5 97/3/5 96/3/5
f 113/4/5 100/4/5 97/4/5
f 113/3/5 97/3/5 112/3/5
f 113/4/5 106/4/5 100/4/5
f 113/4/5 108/4/5 107/4/5
f 113/4/5 107/4/5 106/4/5
f 114/3/5 109/3/5 108/3/5
f 114/4/5 108/4/5 113/4/5
f 115/4/5 110/4/5 109/4/5
f 115/3/5 109/3/5 114/3/5
f 115/4/5 111/4/5 110/4/5
f 116/4/5 111/4/5 115/4/5
f 117/4/5 114/4/5 113/4/5
f 117/4/5 113/4/5 112/4/5
f 117/3/5 116/3/5 115/3/5
f 117/4/5 115/4/5 114/4/5
f 118/4/5 111/4/5 116/4/5
f 118/3/5 116/3/5 117/3/5
f 119/4/5 117/4/5 112/4/5
f 119/4/5 118/4/5 117/4/5
f 120/4/5 118/4/5 119/4/5
f 121/4/5 118/4/5 120/4/5
f 122/4/5 118/4/5 121/4/5
f 123/4/5 111/4/5 118/4/5
f 123/4/5 118/4/5 122/4/5
f 124/4/5 111/4/5 123/4/5
f 125/4/5 119/4/5 112/4/5
f 126/4/5 119/4/5 125/4/5
f 127/4/5 119/4/5 126/4/5
f 128/4/5 119/4/5 127/4/5
f 129/4/5 119/4/5 128/4/5
f 130/2/5 120/2/5 119/2/5
f 130/4/5 119/4/5 129/4/5
f 131/4/5 121/4/5 120/4/5
f 131/2/5 120/2/5 130/2/5
f 132/2/5 122/2/5 121/2/5
f 132/4/5 121/4/5 131/4/5
f 133/4/5 123/4/5 122/4/5
f 133/2/5 122/2/5 132/2/5
f 134/4/5 123/4/5 133/4/5
f 135/4/5 123/4/5 134/4/5
f 136/4/5 123/4/5 135/4/5
f 137/3/5 124/3/5 123/3/5
f 137/4/5 123/4/5 136/4/5
f 138/4/5 111/4/5 124/4/5
f 138/3/5 124/3/5 137/3/5
f 139/4/5 125/4/5 112/4/5
f 139/3/5 126/3/5 125/3/5
f 140/4/5 127/4/5 126/4/5
f 140/3/5 126/3/5 139/3/5
f 141/4/5 131/4/5 130/4/5
f 141/2/5 130/2/5 129/2/5
f 141/4/5 132/4/5 131/4/5
f 141/4/5 133/4/5 132/4/5
f 142/2/5 134/2/5 133/2/5
f 142/4/5 133/4/5 141/4/5
f 143/4/5 129/4/5 128/4/5
f 143/2/5 128/2/5 127/2/5
f 144/2/5 142/2/5 141/2/5
f 144/4/5 129/4/5 143/4/5
f 144/2/5 141/2/5 129/2/5
f 145/2/5 134/2/5 142/2/5
f 145/2/5 142/2/5 144/2/5
f 145/4/5 135/4/5 134/4/5
f 146/2/5 136/2/5 135/2/5
f 146/4/5 135/4/5 145/4/5
f 147/4/5 127/4/5 140/4/5
f 147/2/5 144/2/5 143/2/5
f 147/2/5 146/2/5 145/2/5
f 147/4/5 140/4/5 139/4/5
f 147/2/5 143/2/5 127/2/5
f 147/2/5 145/2/5 144/2/5
f 148/2/5 146/2/5 147/2/5
f 149/2/5 146/2/5 148/2/5
f 150/2/5 146/2/5 149/2/5
f 151/2/5 146/2/5 150/2/5
f 152/2/5 146/2/5 151/2/5
f 153/2/5 136/2/5 146/2/5
f 153/2/5 146/2/5 152/2/5
f 154/4/5 137/4/5 136/4/5
f 154/2/5 136/2/5 153/2/5
f 154/4/5 138/4/5 137/4/5
f 155/4/5 54/4/5 85/4/5
f 155/4/5 138/4/5 154/4/5
f 155/4/5 85/4/5 111/4/5
f 155/4/5 111/4/5 138/4/5
f 156/4/5 54/4/5 155/4/5
f 157/4/5 139/4/5 112/4/5
f 157/4/5 147/4/5 139/4/5
f 157/4/5 148/4/5 147/4/5
f 158/4/5 148/4/5 157/4/5
f 159/2/5 149/2/5 148/2/5
f 159/4/5 148/4/5 158/4/5
f 160/2/5 149/2/5 159/2/5
f 161/4/5 150/4/5 149/4/5
f 161/2/5 149/2/5 160/2/5
f 162/2/5 151/2/5 150/2/5
f 162/4/5 150/4/5 161/4/5
f 163/4/5 152/4/5 151/4/5
f 163/2/5 151/2/5 162/2/5
f 164/2/5 153/2/5 152/2/5
f 164/4/5 152/4/5 163/4/5
f 165/2/5 153/2/5 164/2/5
f 166/4/5 154/4/5 153/4/5
f 166/2/5 153/2/5 165/2/5
f 166/4/5 155/4/5 154/4/5
f 167/2/5 162/2/5 161/2/5
f 167/2/5 165/2/5 164/2/5
f 167/4/5 160/4/5 159/4/5
f 167/4/5 159/4/5 158/4/5
f 167/2/5 163/2/5 162/2/5
f 167/2/5 164/2/5 163/2/5
f 167/2/5 161/2/5 160/2/5
f 168/2/5 165/2/5 167/2/5
f 169/2/5 165/2/5 168/2/5
f 170/2/5 165/2/5 169/2/5
f 171/2/5 165/2/5 170/2/5
f 172/4/5 166/4/5 165/4/5
f 172/2/5 165/2/5 171/2/5
f 173/4/5 155/4/5 166/4/5
f 173/4/5 166/4/5 172/4/5
f 173/3/5 156/3/5 155/3/5
f 174/4/5 54/4/5 156/4/5
f 174/3/5 156/3/5 173/3/5
f 175/4/5 168/4/5 167/4/5
f 175/2/5 169/2/5 168/2/5
f 176/4/5 170/4/5 169/4/5
f 176/2/5 169/2/5 175/2/5
f 177/2/5 171/2/5 170/2/5
f 177/4/5 170/4/5 176/4/5
f 178/4/5 172/4/5 171/4/5
f 178/2/5 171/2/5 177/2/5
f 178/4/5 173/4/5 172/4/5
f 178/4/5 174/4/5 173/4/5
f 179/4/5 157/4/5 112/4/5
f 179/3/5 158/3/5 157/3/5
f 180/4/5 177/4/5 176/4/5
f 180/3/5 158/3/5 179/3/5
f 180/4/5 176/4/5 175/4/5
f 180/4/5 167/4/5 158/4/5
f 180/4/5 178/4/5 177/4/5
f 180/4/5 175/4/5 167/4/5
f 181/4/5 174/4/5 178/4/5
f 181/4/5 178/4/5 180/4/5
f 182/4/5 174/4/5 181/4/5
f 183/4/5 180/4/5 179/4/5
f 183/4/5 181/4/5 180/4/5
f 184/4/5 181/4/5 183/4/5
f 185/3/5 182/3/5 181/3/5
f 185/4/5 181/4/5 184/4/5
f 186/4/5 174/4/5 182/4/5
f 186/3/5 182/3/5 185/3/5
f 187/4/5 179/4/5 112/4/5
f 187/4/5 112/4/5 51/4/5
f 187/4/5 183/4/5 179/4/5
f 188/3/5 184/3/5 183/3/5
f 188/4/5 183/4/5 187/4/5
f 189/4/5 186/4/5 185/4/5
f 189/3/5 184/3/5 188/3/5
f 189/4/5 185/4/5 184/4/5
f 190/4/5 174/4/5 186/4/5
f 190/4/5 186/4/5 189/4/5
f 190/4/5 54/4/5 174/4/5
f 191/2/5 189/2/5 188/2/5
f 191/2/5 188/2/5 187/2/5
f 191/2/5 190/2/5 189/2/5
f 192/2/5 190/2/5 191/2/5
f 193/3/5 192/3/5 191/3/5
f 194/3/5 192/3/5 193/3/5
f 195/3/5 193/3/5 191/3/5
f 196/4/5 194/4/5 193/4/5
f 196/3/5 193/3/5 195/3/5
f 197/3/5 192/3/5 194/3/5
f 197/4/5 194/4/5 196/4/5
f 198/3/5 192/3/5 197/3/5
f 199/4/6 200/4/6 203/4/6
f 200/2/6 201/2/6 203/2/6
f 203/2/6 201/2/6 204/2/6
f 204/2/6 201/2/6 205/2/6
f 201/4/6 202/4/6 206/4/6
f 205/2/6 201/2/6 206/2/6
f 206/4/6 202/4/6 207/4/6
f 199/4/6 203/4/6 208/4/6
f 203/4/6 204/4/6 208/4/6
f 208/4/6 204/4/6 209/4/6
f 204/2/6 205/2/6 210/2/6
f 209/4/6 204/4/6 210/4/6
f 210/2/6 205/2/6 211/2/6
f 211/2/6 205/2/6 212/2/6
f 205/4/6 206/4/6 213/4/6
f 212/2/6 205/2/6 213/2/6
f 199/4/6 208/4/6 214/4/6
f 214/4/6 208/4/6 215/4/6
f 211/2/6 212/2/6 216/2/6
f 209/4/6 210/4/6 216/4/6
f 210/4/6 211/4/6 216/4/6
f 212/4/6 213/4/6 217/4/6
f 216/2/6 212/2/6 217/2/6
f 214/3/6 215/3/6 218/3/6
f 199/4/6 214/4/6 218/4/6
f 215/4/6 208/4/6 219/4/6
f 218/3/6 215/3/6 219/3/6
f 206/3/6 207/3/6 220/3/6
f 213/4/6 206/4/6 220/4/6
f 217/4/6 213/4/6 220/4/6
f 216/4/6 217/4/6 220/4/6
f 207/4/6 202/4/6 221/4/6
f 220/3/6 207/3/6 221/3/6
f 221/4/6 202/4/6 222/4/6
f 222/4/6 202/4/6 223/4/6
f 208/3/6 209/3/6 224/3/6
f 219/4/6 208/4/6 224/4/6
f 218/4/6 219/4/6 224/4/6
f 216/4/6 220/4/6 225/4/6
f 224/3/6 209/3/6 225/3/6
f 221/4/6 222/4/6 225/4/6
f 220/4/6 221/4/6 225/4/6
f 209/4/6 216/4/6 225/4/6
f 224/4/6 225/4/6 226/4/6
f 225/4/6 222/4/6 226/4/6
f 226/4/6 222/4/6 227/4/6
f 227/4/6 222/4/6 228/4/6
f 228/4/6 222/4/6 229/4/6
f 224/4/6 226/4/6 230/4/6
f 226/3/6 227/3/6 230/3/6
f 227/4/6 228/4/6 231/4/6
f 230/3/6 227/3/6 231/3/6
f 222/3/6 223/3/6 232/3/6
f 229/4/6 222/4/6 232/4/6
f 223/4/6 202/4/6 233/4/6
f 232/3/6 223/3/6 233/3/6
f 231/4/6 228/4/6 234/4/6
f 230/4/6 231/4/6 234/4/6
f 228/2/6 229/2/6 234/2/6
f 229/4/6 232/4/6 235/4/6
f 234/2/6 229/2/6 235/2/6
f 232/4/6 233/4/6 235/4/6
f 235/4/6 233/4/6 236/4/6
f 236/4/6 233/4/6 237/4/6
f 234/4/6 235/4/6 238/4/6
f 235/4/6 236/4/6 238/4/6
f 236/3/6 237/3/6 238/3/6
f 237/4/6 233/4/6 239/4/6
f 238/3/6 237/3/6 239/3/6
f 230/4/6 234/4/6 240/4/6
f 234/4/6 238/4/6 240/4/6
f 238/4/6 239/4/6 240/4/6
f 240/4/6 239/4/6 241/4/6
f 230/4/6 240/4/6 242/4/6
f 240/2/6 241/2/6 242/2/6
f 241/4/6 239/4/6 243/4/6
f 242/2/6 241/2/6 243/2/6
f 218/4/6 224/4/6 244/4/6
f 199/4/6 218/4/6 244/4/6
f 242/4/6 243/4/6 244/4/6
f 230/4/6 242/4/6 244/4/6
f 224/4/6 230/4/6 244/4/6
f 244/4/6 243/4/6 245/4/6
f 245/4/6 243/4/6 246/4/6
f 246/4/6 243/4/6 247/4/6
f 245/4/6 246/4/6 248/4/6
f 246/3/6 247/3/6 248/3/6
f 247/4/6 243/4/6 249/4/6
f 248/3/6 247/3/6 249/3/6
f 239/4/6 233/4/6 250/4/6
f 249/4/6 243/4/6 250/4/6
f 243/4/6 239/4/6 250/4/6
f 250/4/6 233/4/6 251/4/6
f 248/4/6 249/4/6 252/4/6
f 249/4/6 250/4/6 252/4/6
f 252/4/6 250/4/6 253/4/6
f 248/4/6 252/4/6 254/4/6
f 252/3/6 253/3/6 254/3/6
f 253/4/6 250/4/6 255/4/6
f 254/3/6 253/3/6 255/3/6
f 255/4/6 250/4/6 256/4/6
f 256/4/6 250/4/6 257/4/6
f 250/3/6 251/3/6 258/3/6
f 257/4/6 250/4/6 258/4/6
f 251/4/6 233/4/6 259/4/6
f 258/3/6 251/3/6 259/3/6
f 199/4/6 244/4/6 260/4/6
f 244/3/6 245/3/6 260/3/6
f 245/4/6 248/4/6 261/4/6
f 260/3/6 245/3/6 261/3/6
f 248/4/6 254/4/6 261/4/6
f 255/4/6 256/4/6 261/4/6
f 254/4/6 255/4/6 261/4/6
f 256/3/6 257/3/6 262/3/6
f 261/4/6 256/4/6 262/4/6
f 257/4/6 258/4/6 263/4/6
f 262/3/6 257/3/6 263/3/6
f 258/4/6 259/4/6 263/4/6
f 263/4/6 259/4/6 264/4/6
f 261/4/6 262/4/6 265/4/6
f 260/4/6 261/4/6 265/4/6
f 263/3/6 264/3/6 265/3/6
f 262/4/6 263/4/6 265/4/6
f 264/4/6 259/4/6 266/4/6
f 265/3/6 264/3/6 266/3/6
f 260/4/6 265/4/6 267/4/6
f 265/4/6 266/4/6 267/4/6
f 267/4/6 266/4/6 268/4/6
f 268/4/6 266/4/6 269/4/6
f 269/4/6 266/4/6 270/4/6
f 266/4/6 259/4/6 271/4/6
f 270/4/6 266/4/6 271/4/6
f 271/4/6 259/4/6 272/4/6
f 260/4/6 267/4/6 273/4/6
f 273/4/6 267/4/6 274/4/6
f 274/4/6 267/4/6 275/4/6
f 275/4/6 267/4/6 276/4/6
f 276/4/6 267/4/6 277/4/6
f 267/2/6 268/2/6 278/2/6
f 277/4/6 267/4/6 278/4/6
f 268/4/6 269/4/6 279/4/6
f 278/2/6 268/2/6 279/2/6
f 269/2/6 270/2/6 280/2/6
f 279/4/6 269/4/6 280/4/6
f 270/4/6 271/4/6 281/4/6
f 280/2/6 270/2/6 281/2/6
f 281/4/6 271/4/6 282/4/6
f 282/4/6 271/4/6 283/4/6
f 283/4/6 271/4/6 284/4/6
f 271/3/6 272/3/6 285/3/6
f 284/4/6 271/4/6 285/4/6
f 272/4/6 259/4/6 286/4/6
f 285/3/6 272/3/6 286/3/6
f 260/4/6 273/4/6 287/4/6
f 273/3/6 274/3/6 287/3/6
f 274/4/6 275/4/6 288/4/6
f 287/3/6 274/3/6 288/3/6
f 278/4/6 279/4/6 289/4/6
f 277/2/6 278/2/6 289/2/6
f 279/4/6 280/4/6 289/4/6
f 280/4/6 281/4/6 289/4/6
f 281/2/6 282/2/6 290/2/6
f 289/4/6 281/4/6 290/4/6
f 276/4/6 277/4/6 291/4/6
f 275/2/6 276/2/6 291/2/6
f 289/2/6 290/2/6 292/2/6
f 291/4/6 277/4/6 292/4/6
f 277/2/6 289/2/6 292/2/6
f 290/2/6 282/2/6 293/2/6
f 292/2/6 290/2/6 293/2/6
f 282/4/6 283/4/6 293/4/6
f 283/2/6 284/2/6 294/2/6
f 293/4/6 283/4/6 294/4/6
f 288/4/6 275/4/6 295/4/6
f 291/2/6 292/2/6 295/2/6
f 293/2/6 294/2/6 295/2/6
f 287/4/6 288/4/6 295/4/6
f 275/2/6 291/2/6 295/2/6
f 292/2/6 293/2/6 295/2/6
f 295/2/6 294/2/6 296/2/6
f 296/2/6 294/2/6 297/2/6
f 297/2/6 294/2/6 298/2/6
f 298/2/6 294/2/6 299/2/6
f 299/2/6 294/2/6 300/2/6
f 294/2/6 284/2/6 301/2/6
f 300/2/6 294/2/6 301/2/6
f 284/4/6 285/4/6 302/4/6
f 301/2/6 284/2/6 302/2/6
f 285/4/6 286/4/6 302/4/6
f 233/4/6 202/4/6 303/4/6
f 302/4/6 286/4/6 303/4/6
f 259/4/6 233/4/6 303/4/6
f 286/4/6 259/4/6 303/4/6
f 303/4/6 202/4/6 304/4/6
f 260/4/6 287/4/6 305/4/6
f 287/4/6 295/4/6 305/4/6
f 295/4/6 296/4/6 305/4/6
f 305/4/6 296/4/6 306/4/6
f 296/2/6 297/2/6 307/2/6
f 306/4/6 296/4/6 307/4/6
f 307/2/6 297/2/6 308/2/6
f 297/4/6 298/4/6 309/4/6
f 308/2/6 297/2/6 309/2/6
f 298/2/6 299/2/6 310/2/6
f 309/4/6 298/4/6 310/4/6
f 299/4/6 300/4/6 311/4/6
f 310/2/6 299/2/6 311/2/6
f 300/2/6 301/2/6 312/2/6
f 311/4/6 300/4/6 312/4/6
f 312/2/6 301/2/6 313/2/6
f 301/4/6 302/4/6 314/4/6
f 313/2/6 301/2/6 314/2/6
f 302/4/6 303/4/6 314/4/6
f 309/2/6 310/2/6 315/2/6
f 312/2/6 313/2/6 315/2/6
f 307/4/6 308/4/6 315/4/6
f 306/4/6 307/4/6 315/4/6
f 310/2/6 311/2/6 315/2/6
f 311/2/6 312/2/6 315/2/6
f 308/2/6 309/2/6 315/2/6
f 315/2/6 313/2/6 316/2/6
f 316/2/6 313/2/6 317/2/6
f 317/2/6 313/2/6 318/2/6
f 318/2/6 313/2/6 319/2/6
f 313/4/6 314/4/6 320/4/6
f 319/2/6 313/2/6 320/2/6
f 314/4/6 303/4/6 321/4/6
f 320/4/6 314/4/6 321/4/6
f 303/3/6 304/3/6 321/3/6
f 304/4/6 202/4/6 322/4/6
f 321/3/6 304/3/6 322/3/6
f 315/4/6 316/4/6 323/4/6
f 316/2/6 317/2/6 323/2/6
f 317/4/6 318/4/6 324/4/6
f 323/2/6 317/2/6 324/2/6
f 318/2/6 319/2/6 325/2/6
f 324/4/6 318/4/6 325/4/6
f 319/4/6 320/4/6 326/4/6
f 325/2/6 319/2/6 326/2/6
f 320/4/6 321/4/6 326/4/6
f 321/4/6 322/4/6 326/4/6
f 260/4/6 305/4/6 327/4/6
f 305/3/6 306/3/6 327/3/6
f 324/4/6 325/4/6 328/4/6
f 327/3/6 306/3/6 328/3/6
f 323/4/6 324/4/6 328/4/6
f 306/4/6 315/4/6 328/4/6
f 325/4/6 326/4/6 328/4/6
f 315/4/6 323/4/6 328/4/6
f 326/4/6 322/4/6 329/4/6
f 328/4/6 326/4/6 329/4/6
f 329/4/6 322/4/6 330/4/6
f 327/4/6 328/4/6 331/4/6
f 328/4/6 329/4/6 331/4/6
f 331/4/6 329/4/6 332/4/6
f 329/3/6 330/3/6 333/3/6
f 332/4/6 329/4/6 333/4/6
f 330/4/6 322/4/6 334/4/6
f 333/3/6 330/3/6 334/3/6
f 260/4/6 327/4/6 335/4/6
f 199/4/6 260/4/6 335/4/6
f 327/4/6 331/4/6 335/4/6
f 331/3/6 332/3/6 336/3/6
f 335/4/6 331/4/6 336/4/6
f 333/4/6 334/4/6 337/4/6
f 336/3/6 332/3/6 337/3/6
f 332/4/6 333/4/6 337/4/6
f 334/4/6 322/4/6 338/4/6
f 337/4/6 334/4/6 338/4/6
f 322/4/6 202/4/6 338/4/6
f 336/2/6 337/2/6 339/2/6
f 335/2/6 336/2/6 339/2/6
f 337/2/6 338/2/6 339/2/6
f 339/2/6 338/2/6 340/2/6
f 339/3/6 340/3/6 341/3/6
f 341/3/6 340/3/6 342/3/6
f 339/3/6 341/3/6 343/3/6
f 343/3/6 341/3/6 344/3/6
f 342/3/6 340/3/6 345/3/6
f 345/3/6 340/3/6 346/3/6
f 347/2/6 348/2/6 349/2/6
f 349/2/6 348/2/6 350/2/6
