# MagicaVoxel @ ephtracy

# material
mtllib bed2.mtl
usemtl palette

# normals
vn -1 0 0
vn 1 0 0
vn 0 0 1
vn 0 0 -1
vn 0 -1 0
vn 0 1 0

# texcoords
vt 0.0878906 0.5
vt 0.306641 0.5
vt 0.958984 0.5

# verts
v -1.125 0 0.625
v -1.125 0 -0.625
v -1.125 0.1 0.625
v -1.125 0.1 -0.625
v 0.675 0.1 0.525
v 0.675 0.1 -0.525
v 0.675 0.2 0.525
v 0.675 0.2 -0.525
v 1.125 0 0.625
v 1.125 0 -0.625
v 1.125 0.1 0.625
v 1.125 0.1 0.525
v 1.125 0.1 -0.525
v 1.125 0.1 -0.625
v 1.125 0.2 0.525
v 1.125 0.2 -0.525
v -1.125 0 0.625
v -1.125 0.1 0.625
v 0.425 0 0.625
v 0.425 0.1 0.625
v 1.125 0 0.625
v 1.125 0.1 0.625
v 0.675 0.1 0.525
v 0.675 0.2 0.525
v 1.125 0.1 0.525
v 1.125 0.2 0.525
v 0.675 0.1 -0.525
v 0.675 0.2 -0.525
v 1.125 0.1 -0.525
v 1.125 0.2 -0.525
v -1.125 0 -0.625
v -1.125 0.1 -0.625
v 0.425 0 -0.625
v 0.425 0.1 -0.625
v 1.125 0 -0.625
v 1.125 0.1 -0.625
v -1.125 0 0.625
v 0.425 0 0.625
v 1.125 0 0.625
v -1.075 0 0.575
v 0.425 0 0.575
v -1.075 0 -0.575
v 0.425 0 -0.575
v -1.125 0 -0.625
v 0.425 0 -0.625
v 1.125 0 -0.625
v -1.125 0.1 0.625
v 0.425 0.1 0.625
v 1.125 0.1 0.625
v 0.675 0.1 0.525
v 1.125 0.1 0.525
v 0.675 0.1 -0.525
v 1.125 0.1 -0.525
v -1.125 0.1 -0.625
v 0.425 0.1 -0.625
v 1.125 0.1 -0.625
v 0.675 0.2 0.525
v 1.125 0.2 0.525
v 0.675 0.2 -0.525
v 1.125 0.2 -0.525

# faces
f 3/1/1 2/1/1 1/1/1
f 4/1/1 2/1/1 3/1/1
f 7/1/1 6/1/1 5/1/1
f 8/1/1 6/1/1 7/1/1
f 9/3/2 10/3/2 11/3/2
f 11/3/2 10/3/2 12/3/2
f 12/3/2 10/3/2 13/3/2
f 13/3/2 10/3/2 14/3/2
f 12/1/2 13/1/2 15/1/2
f 15/1/2 13/1/2 16/1/2
f 19/1/3 18/1/3 17/1/3
f 20/1/3 18/1/3 19/1/3
f 21/3/3 20/3/3 19/3/3
f 22/3/3 20/3/3 21/3/3
f 25/1/3 24/1/3 23/1/3
f 26/1/3 24/1/3 25/1/3
f 27/1/4 28/1/4 29/1/4
f 29/1/4 28/1/4 30/1/4
f 31/1/4 32/1/4 33/1/4
f 33/1/4 32/1/4 34/1/4
f 33/3/4 34/3/4 35/3/4
f 35/3/4 34/3/4 36/3/4
f 40/1/5 38/1/5 37/1/5
f 41/3/5 39/3/5 38/3/5
f 41/1/5 38/1/5 40/1/5
f 42/1/5 40/1/5 37/1/5
f 42/3/5 41/3/5 40/3/5
f 43/3/5 39/3/5 41/3/5
f 43/3/5 41/3/5 42/3/5
f 44/1/5 42/1/5 37/1/5
f 44/1/5 43/1/5 42/1/5
f 45/3/5 39/3/5 43/3/5
f 45/1/5 43/1/5 44/1/5
f 46/3/5 39/3/5 45/3/5
f 48/3/6 49/3/6 50/3/6
f 50/3/6 49/3/6 51/3/6
f 48/3/6 50/3/6 52/3/6
f 47/1/6 48/1/6 54/1/6
f 52/3/6 53/3/6 55/3/6
f 54/1/6 48/1/6 55/1/6
f 48/3/6 52/3/6 55/3/6
f 55/3/6 53/3/6 56/3/6
f 57/1/6 58/1/6 59/1/6
f 59/1/6 58/1/6 60/1/6
