# MagicaVoxel @ ephtracy

# material
mtllib bag1.mtl
usemtl palette

# normals
vn -1 0 0
vn 1 0 0
vn 0 0 1
vn 0 0 -1
vn 0 -1 0
vn 0 1 0

# texcoords
vt 0.162109 0.5
vt 0.986328 0.5
vt 0.990234 0.5

# verts
v -0.2 0 0.1
v -0.2 0 -0.05
v -0.2 0.05 0.1
v -0.2 0.05 0.05
v -0.2 0.4 0.1
v -0.2 0.4 0.05
v -0.2 0.45 0.05
v -0.2 0.45 -0.05
v -0.15 0.4 0.1
v -0.15 0.4 0.05
v -0.15 0.45 0.1
v -0.15 0.45 0.05
v -0.15 0.45 -0.05
v -0.15 0.5 0.05
v -0.15 0.5 -0.05
v -0.1 0 -0.05
v -0.1 0 -0.15
v -0.1 0.05 0.15
v -0.1 0.05 0.1
v -0.1 0.05 -0.05
v -0.1 0.05 -0.1
v -0.1 0.2 0.15
v -0.1 0.2 0.1
v -0.1 0.25 0.15
v -0.1 0.25 0.1
v -0.1 0.4 -0.05
v -0.1 0.4 -0.1
v -0.1 0.4 -0.15
v -0.1 0.45 -0.05
v -0.1 0.45 -0.1
v 0.05 0 -0.05
v 0.05 0 -0.15
v 0.05 0.05 -0.05
v 0.05 0.05 -0.1
v 0.05 0.4 -0.05
v 0.05 0.4 -0.1
v 0.05 0.4 -0.15
v 0.05 0.45 -0.05
v 0.05 0.45 -0.1
v -0.05 0 -0.05
v -0.05 0 -0.15
v -0.05 0.05 -0.05
v -0.05 0.05 -0.1
v -0.05 0.4 -0.05
v -0.05 0.4 -0.1
v -0.05 0.4 -0.15
v -0.05 0.45 -0.05
v -0.05 0.45 -0.1
v 0.1 0 -0.05
v 0.1 0 -0.15
v 0.1 0.05 0.15
v 0.1 0.05 0.1
v 0.1 0.05 -0.05
v 0.1 0.05 -0.1
v 0.1 0.2 0.15
v 0.1 0.2 0.1
v 0.1 0.25 0.15
v 0.1 0.25 0.1
v 0.1 0.4 -0.05
v 0.1 0.4 -0.1
v 0.1 0.4 -0.15
v 0.1 0.45 -0.05
v 0.1 0.45 -0.1
v 0.15 0.4 0.1
v 0.15 0.4 0.05
v 0.15 0.45 0.1
v 0.15 0.45 0.05
v 0.15 0.45 -0.05
v 0.15 0.5 0.05
v 0.15 0.5 -0.05
v 0.2 0 0.1
v 0.2 0 -0.05
v 0.2 0.05 0.1
v 0.2 0.05 0.05
v 0.2 0.4 0.1
v 0.2 0.4 0.05
v 0.2 0.45 0.05
v 0.2 0.45 -0.05
v -0.1 0.05 0.15
v -0.1 0.2 0.15
v -0.1 0.25 0.15
v -0.05 0.1 0.15
v -0.05 0.15 0.15
v 0.05 0.1 0.15
v 0.05 0.15 0.15
v 0.1 0.05 0.15
v 0.1 0.2 0.15
v 0.1 0.25 0.15
v -0.2 0 0.1
v -0.2 0.05 0.1
v -0.2 0.4 0.1
v -0.15 0.4 0.1
v -0.15 0.45 0.1
v -0.1 0.05 0.1
v -0.1 0.2 0.1
v -0.1 0.25 0.1
v -0.05 0.3 0.1
v -0.05 0.35 0.1
v 0 0.3 0.1
v 0 0.35 0.1
v 0 0.4 0.1
v 0.05 0.35 0.1
v 0.05 0.4 0.1
v 0.1 0.05 0.1
v 0.1 0.2 0.1
v 0.1 0.25 0.1
v 0.15 0.4 0.1
v 0.15 0.45 0.1
v 0.2 0 0.1
v 0.2 0.05 0.1
v 0.2 0.4 0.1
v -0.2 0.4 0.05
v -0.2 0.45 0.05
v -0.15 0.4 0.05
v -0.15 0.45 0.05
v -0.15 0.5 0.05
v 0.15 0.4 0.05
v 0.15 0.45 0.05
v 0.15 0.5 0.05
v 0.2 0.4 0.05
v 0.2 0.45 0.05
v -0.1 0.05 -0.1
v -0.1 0.4 -0.1
v -0.05 0.05 -0.1
v -0.05 0.4 -0.1
v 0.05 0.05 -0.1
v 0.05 0.4 -0.1
v 0.1 0.05 -0.1
v 0.1 0.4 -0.1
v -0.2 0 -0.05
v -0.2 0.45 -0.05
v -0.15 0.45 -0.05
v -0.15 0.5 -0.05
v -0.1 0 -0.05
v -0.1 0.05 -0.05
v -0.1 0.4 -0.05
v -0.1 0.45 -0.05
v -0.05 0 -0.05
v -0.05 0.05 -0.05
v -0.05 0.4 -0.05
v -0.05 0.45 -0.05
v 0.05 0 -0.05
v 0.05 0.05 -0.05
v 0.05 0.4 -0.05
v 0.05 0.45 -0.05
v 0.1 0 -0.05
v 0.1 0.05 -0.05
v 0.1 0.4 -0.05
v 0.1 0.45 -0.05
v 0.15 0.45 -0.05
v 0.15 0.5 -0.05
v 0.2 0 -0.05
v 0.2 0.45 -0.05
v -0.1 0.4 -0.1
v -0.1 0.45 -0.1
v -0.05 0.4 -0.1
v -0.05 0.45 -0.1
v 0.05 0.4 -0.1
v 0.05 0.45 -0.1
v 0.1 0.4 -0.1
v 0.1 0.45 -0.1
v -0.1 0 -0.15
v -0.1 0.4 -0.15
v -0.05 0 -0.15
v -0.05 0.4 -0.15
v 0.05 0 -0.15
v 0.05 0.4 -0.15
v 0.1 0 -0.15
v 0.1 0.4 -0.15
v -0.2 0 0.1
v 0.2 0 0.1
v -0.2 0 -0.05
v -0.1 0 -0.05
v -0.05 0 -0.05
v 0.05 0 -0.05
v 0.1 0 -0.05
v 0.2 0 -0.05
v -0.1 0 -0.15
v -0.05 0 -0.15
v 0.05 0 -0.15
v 0.1 0 -0.15
v -0.1 0.05 0.15
v 0.1 0.05 0.15
v -0.1 0.05 0.1
v 0.1 0.05 0.1
v -0.1 0.4 -0.05
v -0.05 0.4 -0.05
v 0.05 0.4 -0.05
v 0.1 0.4 -0.05
v -0.1 0.4 -0.1
v -0.05 0.4 -0.1
v 0.05 0.4 -0.1
v 0.1 0.4 -0.1
v -0.1 0.05 -0.05
v -0.05 0.05 -0.05
v 0.05 0.05 -0.05
v 0.1 0.05 -0.05
v -0.1 0.05 -0.1
v -0.05 0.05 -0.1
v 0.05 0.05 -0.1
v 0.1 0.05 -0.1
v -0.1 0.25 0.15
v 0.1 0.25 0.15
v -0.1 0.25 0.1
v 0.1 0.25 0.1
v -0.2 0.4 0.1
v -0.15 0.4 0.1
v 0.15 0.4 0.1
v 0.2 0.4 0.1
v -0.2 0.4 0.05
v -0.15 0.4 0.05
v 0.15 0.4 0.05
v 0.2 0.4 0.05
v -0.1 0.4 -0.1
v -0.05 0.4 -0.1
v 0.05 0.4 -0.1
v 0.1 0.4 -0.1
v -0.1 0.4 -0.15
v -0.05 0.4 -0.15
v 0.05 0.4 -0.15
v 0.1 0.4 -0.15
v -0.15 0.45 0.1
v 0.15 0.45 0.1
v -0.2 0.45 0.05
v -0.15 0.45 0.05
v 0.15 0.45 0.05
v 0.2 0.45 0.05
v -0.2 0.45 -0.05
v -0.15 0.45 -0.05
v -0.1 0.45 -0.05
v -0.05 0.45 -0.05
v 0.05 0.45 -0.05
v 0.1 0.45 -0.05
v 0.15 0.45 -0.05
v 0.2 0.45 -0.05
v -0.1 0.45 -0.1
v -0.05 0.45 -0.1
v 0.05 0.45 -0.1
v 0.1 0.45 -0.1
v -0.15 0.5 0.05
v 0.15 0.5 0.05
v -0.15 0.5 -0.05
v 0.15 0.5 -0.05

# faces
f 3/3/1 2/3/1 1/3/1
f 4/3/1 2/3/1 3/3/1
f 5/1/1 4/1/1 3/1/1
f 6/3/1 2/3/1 4/3/1
f 6/1/1 4/1/1 5/1/1
f 7/3/1 2/3/1 6/3/1
f 8/3/1 2/3/1 7/3/1
f 11/1/1 10/1/1 9/1/1
f 12/1/1 10/1/1 11/1/1
f 14/3/1 13/3/1 12/3/1
f 15/3/1 13/3/1 14/3/1
f 20/2/1 17/2/1 16/2/1
f 21/2/1 17/2/1 20/2/1
f 22/1/1 19/1/1 18/1/1
f 23/1/1 19/1/1 22/1/1
f 24/3/1 23/3/1 22/3/1
f 25/3/1 23/3/1 24/3/1
f 27/2/1 17/2/1 21/2/1
f 28/2/1 17/2/1 27/2/1
f 29/2/1 27/2/1 26/2/1
f 30/2/1 27/2/1 29/2/1
f 33/2/1 32/2/1 31/2/1
f 34/2/1 32/2/1 33/2/1
f 36/2/1 32/2/1 34/2/1
f 37/2/1 32/2/1 36/2/1
f 38/2/1 36/2/1 35/2/1
f 39/2/1 36/2/1 38/2/1
f 40/2/2 41/2/2 42/2/2
f 42/2/2 41/2/2 43/2/2
f 43/2/2 41/2/2 45/2/2
f 45/2/2 41/2/2 46/2/2
f 44/2/2 45/2/2 47/2/2
f 47/2/2 45/2/2 48/2/2
f 49/2/2 50/2/2 53/2/2
f 53/2/2 50/2/2 54/2/2
f 51/1/2 52/1/2 55/1/2
f 55/1/2 52/1/2 56/1/2
f 55/3/2 56/3/2 57/3/2
f 57/3/2 56/3/2 58/3/2
f 54/2/2 50/2/2 60/2/2
f 60/2/2 50/2/2 61/2/2
f 59/2/2 60/2/2 62/2/2
f 62/2/2 60/2/2 63/2/2
f 64/1/2 65/1/2 66/1/2
f 66/1/2 65/1/2 67/1/2
f 67/3/2 68/3/2 69/3/2
f 69/3/2 68/3/2 70/3/2
f 71/3/2 72/3/2 73/3/2
f 73/3/2 72/3/2 74/3/2
f 73/1/2 74/1/2 75/1/2
f 74/3/2 72/3/2 76/3/2
f 75/1/2 74/1/2 76/1/2
f 76/3/2 72/3/2 77/3/2
f 77/3/2 72/3/2 78/3/2
f 82/1/3 80/1/3 79/1/3
f 83/1/3 80/1/3 82/1/3
f 84/1/3 82/1/3 79/1/3
f 84/2/3 83/2/3 82/2/3
f 85/1/3 80/1/3 83/1/3
f 85/2/3 83/2/3 84/2/3
f 86/1/3 84/1/3 79/1/3
f 86/1/3 85/1/3 84/1/3
f 87/3/3 81/3/3 80/3/3
f 87/1/3 85/1/3 86/1/3
f 87/1/3 80/1/3 85/1/3
f 88/3/3 81/3/3 87/3/3
f 92/1/3 91/1/3 90/1/3
f 94/3/3 90/3/3 89/3/3
f 94/1/3 93/1/3 92/1/3
f 94/1/3 92/1/3 90/1/3
f 95/1/3 93/1/3 94/1/3
f 96/1/3 93/1/3 95/1/3
f 97/1/3 93/1/3 96/1/3
f 98/1/3 93/1/3 97/1/3
f 99/1/3 97/1/3 96/1/3
f 99/2/3 98/2/3 97/2/3
f 100/1/3 93/1/3 98/1/3
f 100/2/3 98/2/3 99/2/3
f 101/1/3 93/1/3 100/1/3
f 102/1/3 100/1/3 99/1/3
f 102/2/3 101/2/3 100/2/3
f 103/1/3 93/1/3 101/1/3
f 103/2/3 101/2/3 102/2/3
f 104/3/3 94/3/3 89/3/3
f 106/1/3 99/1/3 96/1/3
f 106/1/3 102/1/3 99/1/3
f 106/1/3 103/1/3 102/1/3
f 107/1/3 93/1/3 103/1/3
f 107/1/3 106/1/3 105/1/3
f 107/1/3 103/1/3 106/1/3
f 107/1/3 105/1/3 104/1/3
f 108/1/3 93/1/3 107/1/3
f 109/3/3 104/3/3 89/3/3
f 110/1/3 107/1/3 104/1/3
f 110/3/3 104/3/3 109/3/3
f 111/1/3 107/1/3 110/1/3
f 114/3/3 113/3/3 112/3/3
f 115/3/3 113/3/3 114/3/3
f 118/3/3 116/3/3 115/3/3
f 119/3/3 116/3/3 118/3/3
f 120/3/3 118/3/3 117/3/3
f 121/3/3 118/3/3 120/3/3
f 124/2/3 123/2/3 122/2/3
f 125/2/3 123/2/3 124/2/3
f 128/2/3 127/2/3 126/2/3
f 129/2/3 127/2/3 128/2/3
f 130/3/4 131/3/4 132/3/4
f 130/3/4 132/3/4 134/3/4
f 132/3/4 133/3/4 134/3/4
f 134/3/4 133/3/4 135/3/4
f 135/3/4 133/3/4 136/3/4
f 136/3/4 133/3/4 137/3/4
f 135/3/4 136/3/4 139/3/4
f 139/3/4 136/3/4 140/3/4
f 137/3/4 133/3/4 141/3/4
f 139/3/4 140/3/4 142/3/4
f 140/3/4 141/3/4 142/3/4
f 138/3/4 139/3/4 142/3/4
f 142/3/4 141/3/4 143/3/4
f 143/3/4 141/3/4 144/3/4
f 141/3/4 133/3/4 145/3/4
f 144/3/4 141/3/4 145/3/4
f 143/3/4 144/3/4 147/3/4
f 147/3/4 144/3/4 148/3/4
f 145/3/4 133/3/4 149/3/4
f 147/3/4 148/3/4 150/3/4
f 148/3/4 149/3/4 150/3/4
f 149/3/4 133/3/4 150/3/4
f 146/3/4 147/3/4 150/3/4
f 150/3/4 133/3/4 151/3/4
f 146/3/4 150/3/4 152/3/4
f 152/3/4 150/3/4 153/3/4
f 154/2/4 155/2/4 156/2/4
f 156/2/4 155/2/4 157/2/4
f 158/2/4 159/2/4 160/2/4
f 160/2/4 159/2/4 161/2/4
f 162/2/4 163/2/4 164/2/4
f 164/2/4 163/2/4 165/2/4
f 166/2/4 167/2/4 168/2/4
f 168/2/4 167/2/4 169/2/4
f 172/3/5 171/3/5 170/3/5
f 173/3/5 171/3/5 172/3/5
f 174/3/5 171/3/5 173/3/5
f 175/3/5 171/3/5 174/3/5
f 176/3/5 171/3/5 175/3/5
f 177/3/5 171/3/5 176/3/5
f 178/2/5 174/2/5 173/2/5
f 179/2/5 174/2/5 178/2/5
f 180/2/5 176/2/5 175/2/5
f 181/2/5 176/2/5 180/2/5
f 184/1/5 183/1/5 182/1/5
f 185/1/5 183/1/5 184/1/5
f 190/2/5 187/2/5 186/2/5
f 191/2/5 187/2/5 190/2/5
f 192/2/5 189/2/5 188/2/5
f 193/2/5 189/2/5 192/2/5
f 194/2/6 195/2/6 198/2/6
f 198/2/6 195/2/6 199/2/6
f 196/2/6 197/2/6 200/2/6
f 200/2/6 197/2/6 201/2/6
f 202/3/6 203/3/6 204/3/6
f 204/3/6 203/3/6 205/3/6
f 206/1/6 207/1/6 210/1/6
f 210/1/6 207/1/6 211/1/6
f 208/1/6 209/1/6 212/1/6
f 212/1/6 209/1/6 213/1/6
f 214/2/6 215/2/6 218/2/6
f 218/2/6 215/2/6 219/2/6
f 216/2/6 217/2/6 220/2/6
f 220/2/6 217/2/6 221/2/6
f 222/1/6 223/1/6 225/1/6
f 225/1/6 223/1/6 226/1/6
f 224/3/6 225/3/6 228/3/6
f 228/3/6 225/3/6 229/3/6
f 226/3/6 227/3/6 234/3/6
f 234/3/6 227/3/6 235/3/6
f 230/2/6 231/2/6 236/2/6
f 236/2/6 231/2/6 237/2/6
f 232/2/6 233/2/6 238/2/6
f 238/2/6 233/2/6 239/2/6
f 240/3/6 241/3/6 242/3/6
f 242/3/6 241/3/6 243/3/6
