# MagicaVoxel @ ephtracy

# material
mtllib rubbish0.mtl
usemtl palette

# normals
vn -1 0 0
vn 1 0 0
vn 0 0 1
vn 0 0 -1
vn 0 -1 0
vn 0 1 0

# texcoords
vt 0.978516 0.5
vt 0.986328 0.5

# verts
v -0.3 0.7 0.15
v -0.3 0.7 -0.15
v -0.3 0.75 0.25
v -0.3 0.75 0.15
v -0.3 0.75 -0.15
v -0.3 0.75 -0.25
v -0.3 0.8 0.25
v -0.3 0.8 -0.25
v -0.25 0 0.25
v -0.25 0 -0.25
v -0.25 0.1 0.2
v -0.25 0.1 0.1
v -0.25 0.1 0.05
v -0.25 0.1 -0.05
v -0.25 0.1 -0.1
v -0.25 0.1 -0.2
v -0.25 0.6 0.2
v -0.25 0.6 0.1
v -0.25 0.6 0.05
v -0.25 0.6 -0.05
v -0.25 0.6 -0.1
v -0.25 0.6 -0.2
v -0.25 0.7 0.15
v -0.25 0.7 -0.15
v -0.25 0.75 0.3
v -0.25 0.75 0.25
v -0.25 0.75 0.15
v -0.25 0.75 -0.15
v -0.25 0.75 -0.25
v -0.25 0.75 -0.3
v -0.25 0.8 0.3
v -0.25 0.8 0.25
v -0.25 0.8 -0.25
v -0.25 0.8 -0.3
v 0.2 0.1 0.2
v 0.2 0.1 0.1
v 0.2 0.1 0.05
v 0.2 0.1 -0.05
v 0.2 0.1 -0.1
v 0.2 0.1 -0.2
v 0.2 0.6 0.2
v 0.2 0.6 0.1
v 0.2 0.6 0.05
v 0.2 0.6 -0.05
v 0.2 0.6 -0.1
v 0.2 0.6 -0.2
v 0.2 0.8 0.2
v 0.2 0.8 -0.2
v -0.2 0.1 0.2
v -0.2 0.1 0.1
v -0.2 0.1 0.05
v -0.2 0.1 -0.05
v -0.2 0.1 -0.1
v -0.2 0.1 -0.2
v -0.2 0.6 0.2
v -0.2 0.6 0.1
v -0.2 0.6 0.05
v -0.2 0.6 -0.05
v -0.2 0.6 -0.1
v -0.2 0.6 -0.2
v -0.2 0.8 0.2
v -0.2 0.8 -0.2
v 0.25 0 0.25
v 0.25 0 -0.25
v 0.25 0.1 0.2
v 0.25 0.1 0.1
v 0.25 0.1 0.05
v 0.25 0.1 -0.05
v 0.25 0.1 -0.1
v 0.25 0.1 -0.2
v 0.25 0.6 0.2
v 0.25 0.6 0.1
v 0.25 0.6 0.05
v 0.25 0.6 -0.05
v 0.25 0.6 -0.1
v 0.25 0.6 -0.2
v 0.25 0.7 0.15
v 0.25 0.7 -0.15
v 0.25 0.75 0.3
v 0.25 0.75 0.25
v 0.25 0.75 0.15
v 0.25 0.75 -0.15
v 0.25 0.75 -0.25
v 0.25 0.75 -0.3
v 0.25 0.8 0.3
v 0.25 0.8 0.25
v 0.25 0.8 -0.25
v 0.25 0.8 -0.3
v 0.3 0.7 0.15
v 0.3 0.7 -0.15
v 0.3 0.75 0.25
v 0.3 0.75 0.15
v 0.3 0.75 -0.15
v 0.3 0.75 -0.25
v 0.3 0.8 0.25
v 0.3 0.8 -0.25
v -0.25 0.75 0.3
v -0.25 0.8 0.3
v 0.25 0.75 0.3
v 0.25 0.8 0.3
v -0.3 0.75 0.25
v -0.3 0.8 0.25
v -0.25 0 0.25
v -0.25 0.75 0.25
v -0.25 0.8 0.25
v -0.2 0.1 0.25
v -0.2 0.6 0.25
v -0.1 0.1 0.25
v -0.1 0.6 0.25
v -0.05 0.1 0.25
v -0.05 0.6 0.25
v 0.05 0.1 0.25
v 0.05 0.6 0.25
v 0.1 0.1 0.25
v 0.1 0.6 0.25
v 0.2 0.1 0.25
v 0.2 0.6 0.25
v 0.25 0 0.25
v 0.25 0.75 0.25
v 0.25 0.8 0.25
v 0.3 0.75 0.25
v 0.3 0.8 0.25
v -0.3 0.7 0.15
v -0.3 0.75 0.15
v -0.25 0.7 0.15
v -0.25 0.75 0.15
v 0.25 0.7 0.15
v 0.25 0.75 0.15
v 0.3 0.7 0.15
v 0.3 0.75 0.15
v -0.2 0.1 -0.2
v -0.2 0.6 -0.2
v -0.2 0.8 -0.2
v -0.1 0.1 -0.2
v -0.1 0.6 -0.2
v -0.05 0.1 -0.2
v -0.05 0.6 -0.2
v 0.05 0.1 -0.2
v 0.05 0.6 -0.2
v 0.1 0.1 -0.2
v 0.1 0.6 -0.2
v 0.2 0.1 -0.2
v 0.2 0.6 -0.2
v 0.2 0.8 -0.2
v -0.2 0.1 0.2
v -0.2 0.6 0.2
v -0.2 0.8 0.2
v -0.1 0.1 0.2
v -0.1 0.6 0.2
v -0.05 0.1 0.2
v -0.05 0.6 0.2
v 0.05 0.1 0.2
v 0.05 0.6 0.2
v 0.1 0.1 0.2
v 0.1 0.6 0.2
v 0.2 0.1 0.2
v 0.2 0.6 0.2
v 0.2 0.8 0.2
v -0.3 0.7 -0.15
v -0.3 0.75 -0.15
v -0.25 0.7 -0.15
v -0.25 0.75 -0.15
v 0.25 0.7 -0.15
v 0.25 0.75 -0.15
v 0.3 0.7 -0.15
v 0.3 0.75 -0.15
v -0.3 0.75 -0.25
v -0.3 0.8 -0.25
v -0.25 0 -0.25
v -0.25 0.75 -0.25
v -0.25 0.8 -0.25
v -0.2 0.1 -0.25
v -0.2 0.6 -0.25
v -0.1 0.1 -0.25
v -0.1 0.6 -0.25
v -0.05 0.1 -0.25
v -0.05 0.6 -0.25
v 0.05 0.1 -0.25
v 0.05 0.6 -0.25
v 0.1 0.1 -0.25
v 0.1 0.6 -0.25
v 0.2 0.1 -0.25
v 0.2 0.6 -0.25
v 0.25 0 -0.25
v 0.25 0.75 -0.25
v 0.25 0.8 -0.25
v 0.3 0.75 -0.25
v 0.3 0.8 -0.25
v -0.25 0.75 -0.3
v -0.25 0.8 -0.3
v 0.25 0.75 -0.3
v 0.25 0.8 -0.3
v -0.25 0 0.25
v 0.25 0 0.25
v -0.25 0 -0.25
v 0.25 0 -0.25
v -0.3 0.7 0.15
v -0.25 0.7 0.15
v 0.25 0.7 0.15
v 0.3 0.7 0.15
v -0.3 0.7 -0.15
v -0.25 0.7 -0.15
v 0.25 0.7 -0.15
v 0.3 0.7 -0.15
v -0.25 0.75 0.3
v 0.25 0.75 0.3
v -0.3 0.75 0.25
v -0.25 0.75 0.25
v 0.25 0.75 0.25
v 0.3 0.75 0.25
v -0.3 0.75 0.15
v -0.25 0.75 0.15
v 0.25 0.75 0.15
v 0.3 0.75 0.15
v -0.3 0.75 -0.15
v -0.25 0.75 -0.15
v 0.25 0.75 -0.15
v 0.3 0.75 -0.15
v -0.3 0.75 -0.25
v -0.25 0.75 -0.25
v 0.25 0.75 -0.25
v 0.3 0.75 -0.25
v -0.25 0.75 -0.3
v 0.25 0.75 -0.3
v -0.2 0.1 0.2
v -0.1 0.1 0.2
v -0.05 0.1 0.2
v 0.05 0.1 0.2
v 0.1 0.1 0.2
v 0.2 0.1 0.2
v -0.2 0.1 0.1
v 0.2 0.1 0.1
v -0.2 0.1 0.05
v 0.2 0.1 0.05
v -0.2 0.1 -0.05
v 0.2 0.1 -0.05
v -0.2 0.1 -0.1
v 0.2 0.1 -0.1
v -0.2 0.1 -0.2
v -0.1 0.1 -0.2
v -0.05 0.1 -0.2
v 0.05 0.1 -0.2
v 0.1 0.1 -0.2
v 0.2 0.1 -0.2
v -0.25 0.8 0.3
v 0.25 0.8 0.3
v -0.3 0.8 0.25
v -0.25 0.8 0.25
v 0.25 0.8 0.25
v 0.3 0.8 0.25
v -0.2 0.8 0.2
v 0.2 0.8 0.2
v -0.2 0.8 -0.2
v 0.2 0.8 -0.2
v -0.3 0.8 -0.25
v -0.25 0.8 -0.25
v 0.25 0.8 -0.25
v 0.3 0.8 -0.25
v -0.25 0.8 -0.3
v 0.25 0.8 -0.3

# faces
f 4/1/1 2/1/1 1/1/1
f 5/1/1 2/1/1 4/1/1
f 7/2/1 4/2/1 3/2/1
f 7/2/1 6/2/1 5/2/1
f 7/2/1 5/2/1 4/2/1
f 8/2/1 6/2/1 7/2/1
f 11/2/1 10/2/1 9/2/1
f 12/2/1 10/2/1 11/2/1
f 13/2/1 10/2/1 12/2/1
f 14/2/1 10/2/1 13/2/1
f 15/2/1 10/2/1 14/2/1
f 16/2/1 10/2/1 15/2/1
f 17/2/1 11/2/1 9/2/1
f 17/1/1 12/1/1 11/1/1
f 18/2/1 13/2/1 12/2/1
f 18/1/1 12/1/1 17/1/1
f 19/1/1 14/1/1 13/1/1
f 19/2/1 13/2/1 18/2/1
f 20/2/1 15/2/1 14/2/1
f 20/1/1 14/1/1 19/1/1
f 21/1/1 16/1/1 15/1/1
f 21/2/1 15/2/1 20/2/1
f 22/2/1 10/2/1 16/2/1
f 22/1/1 16/1/1 21/1/1
f 23/2/1 21/2/1 20/2/1
f 23/2/1 20/2/1 19/2/1
f 23/2/1 22/2/1 21/2/1
f 23/2/1 19/2/1 18/2/1
f 23/2/1 18/2/1 17/2/1
f 24/2/1 22/2/1 23/2/1
f 26/2/1 17/2/1 9/2/1
f 26/2/1 23/2/1 17/2/1
f 27/2/1 23/2/1 26/2/1
f 28/2/1 22/2/1 24/2/1
f 29/2/1 10/2/1 22/2/1
f 29/2/1 22/2/1 28/2/1
f 31/2/1 26/2/1 25/2/1
f 32/2/1 26/2/1 31/2/1
f 33/2/1 30/2/1 29/2/1
f 34/2/1 30/2/1 33/2/1
f 41/1/1 36/1/1 35/1/1
f 42/2/1 37/2/1 36/2/1
f 42/1/1 36/1/1 41/1/1
f 43/1/1 38/1/1 37/1/1
f 43/2/1 37/2/1 42/2/1
f 44/2/1 39/2/1 38/2/1
f 44/1/1 38/1/1 43/1/1
f 45/1/1 40/1/1 39/1/1
f 45/2/1 39/2/1 44/2/1
f 46/1/1 40/1/1 45/1/1
f 47/2/1 44/2/1 43/2/1
f 47/2/1 42/2/1 41/2/1
f 47/2/1 46/2/1 45/2/1
f 47/2/1 45/2/1 44/2/1
f 47/2/1 43/2/1 42/2/1
f 48/2/1 46/2/1 47/2/1
f 49/1/2 50/1/2 55/1/2
f 50/2/2 51/2/2 56/2/2
f 55/1/2 50/1/2 56/1/2
f 51/1/2 52/1/2 57/1/2
f 56/2/2 51/2/2 57/2/2
f 52/2/2 53/2/2 58/2/2
f 57/1/2 52/1/2 58/1/2
f 53/1/2 54/1/2 59/1/2
f 58/2/2 53/2/2 59/2/2
f 59/1/2 54/1/2 60/1/2
f 57/2/2 58/2/2 61/2/2
f 55/2/2 56/2/2 61/2/2
f 59/2/2 60/2/2 61/2/2
f 58/2/2 59/2/2 61/2/2
f 56/2/2 57/2/2 61/2/2
f 61/2/2 60/2/2 62/2/2
f 63/2/2 64/2/2 65/2/2
f 65/2/2 64/2/2 66/2/2
f 66/2/2 64/2/2 67/2/2
f 67/2/2 64/2/2 68/2/2
f 68/2/2 64/2/2 69/2/2
f 69/2/2 64/2/2 70/2/2
f 63/2/2 65/2/2 71/2/2
f 65/1/2 66/1/2 71/1/2
f 66/2/2 67/2/2 72/2/2
f 71/1/2 66/1/2 72/1/2
f 67/1/2 68/1/2 73/1/2
f 72/2/2 67/2/2 73/2/2
f 68/2/2 69/2/2 74/2/2
f 73/1/2 68/1/2 74/1/2
f 69/1/2 70/1/2 75/1/2
f 74/2/2 69/2/2 75/2/2
f 70/2/2 64/2/2 76/2/2
f 75/1/2 70/1/2 76/1/2
f 74/2/2 75/2/2 77/2/2
f 73/2/2 74/2/2 77/2/2
f 75/2/2 76/2/2 77/2/2
f 72/2/2 73/2/2 77/2/2
f 71/2/2 72/2/2 77/2/2
f 77/2/2 76/2/2 78/2/2
f 63/2/2 71/2/2 80/2/2
f 71/2/2 77/2/2 80/2/2
f 80/2/2 77/2/2 81/2/2
f 78/2/2 76/2/2 82/2/2
f 76/2/2 64/2/2 83/2/2
f 82/2/2 76/2/2 83/2/2
f 79/2/2 80/2/2 85/2/2
f 85/2/2 80/2/2 86/2/2
f 83/2/2 84/2/2 87/2/2
f 87/2/2 84/2/2 88/2/2
f 89/1/2 90/1/2 92/1/2
f 92/1/2 90/1/2 93/1/2
f 91/2/2 92/2/2 95/2/2
f 93/2/2 94/2/2 95/2/2
f 92/2/2 93/2/2 95/2/2
f 95/2/2 94/2/2 96/2/2
f 99/2/3 98/2/3 97/2/3
f 100/2/3 98/2/3 99/2/3
f 104/2/3 102/2/3 101/2/3
f 105/2/3 102/2/3 104/2/3
f 106/2/3 104/2/3 103/2/3
f 107/2/3 104/2/3 106/2/3
f 108/2/3 106/2/3 103/2/3
f 108/1/3 107/1/3 106/1/3
f 109/2/3 104/2/3 107/2/3
f 109/1/3 107/1/3 108/1/3
f 110/2/3 108/2/3 103/2/3
f 110/2/3 109/2/3 108/2/3
f 111/2/3 104/2/3 109/2/3
f 111/2/3 109/2/3 110/2/3
f 112/2/3 110/2/3 103/2/3
f 112/1/3 111/1/3 110/1/3
f 113/2/3 104/2/3 111/2/3
f 113/1/3 111/1/3 112/1/3
f 114/2/3 112/2/3 103/2/3
f 114/2/3 113/2/3 112/2/3
f 115/2/3 104/2/3 113/2/3
f 115/2/3 113/2/3 114/2/3
f 116/2/3 114/2/3 103/2/3
f 116/1/3 115/1/3 114/1/3
f 117/2/3 104/2/3 115/2/3
f 117/1/3 115/1/3 116/1/3
f 118/2/3 116/2/3 103/2/3
f 118/2/3 117/2/3 116/2/3
f 119/2/3 104/2/3 117/2/3
f 119/2/3 117/2/3 118/2/3
f 121/2/3 120/2/3 119/2/3
f 122/2/3 120/2/3 121/2/3
f 125/1/3 124/1/3 123/1/3
f 126/1/3 124/1/3 125/1/3
f 129/1/3 128/1/3 127/1/3
f 130/1/3 128/1/3 129/1/3
f 134/1/3 132/1/3 131/1/3
f 135/2/3 133/2/3 132/2/3
f 135/1/3 132/1/3 134/1/3
f 136/2/3 135/2/3 134/2/3
f 137/2/3 133/2/3 135/2/3
f 137/2/3 135/2/3 136/2/3
f 138/1/3 137/1/3 136/1/3
f 139/2/3 133/2/3 137/2/3
f 139/1/3 137/1/3 138/1/3
f 140/2/3 139/2/3 138/2/3
f 141/2/3 133/2/3 139/2/3
f 141/2/3 139/2/3 140/2/3
f 142/1/3 141/1/3 140/1/3
f 143/2/3 133/2/3 141/2/3
f 143/1/3 141/1/3 142/1/3
f 144/2/3 133/2/3 143/2/3
f 145/1/4 146/1/4 148/1/4
f 146/2/4 147/2/4 149/2/4
f 148/1/4 146/1/4 149/1/4
f 148/2/4 149/2/4 150/2/4
f 149/2/4 147/2/4 151/2/4
f 150/2/4 149/2/4 151/2/4
f 150/1/4 151/1/4 152/1/4
f 151/2/4 147/2/4 153/2/4
f 152/1/4 151/1/4 153/1/4
f 152/2/4 153/2/4 154/2/4
f 153/2/4 147/2/4 155/2/4
f 154/2/4 153/2/4 155/2/4
f 154/1/4 155/1/4 156/1/4
f 155/2/4 147/2/4 157/2/4
f 156/1/4 155/1/4 157/1/4
f 157/2/4 147/2/4 158/2/4
f 159/1/4 160/1/4 161/1/4
f 161/1/4 160/1/4 162/1/4
f 163/1/4 164/1/4 165/1/4
f 165/1/4 164/1/4 166/1/4
f 167/2/4 168/2/4 170/2/4
f 170/2/4 168/2/4 171/2/4
f 169/2/4 170/2/4 172/2/4
f 172/2/4 170/2/4 173/2/4
f 169/2/4 172/2/4 174/2/4
f 172/1/4 173/1/4 174/1/4
f 173/2/4 170/2/4 175/2/4
f 174/1/4 173/1/4 175/1/4
f 169/2/4 174/2/4 176/2/4
f 174/2/4 175/2/4 176/2/4
f 175/2/4 170/2/4 177/2/4
f 176/2/4 175/2/4 177/2/4
f 169/2/4 176/2/4 178/2/4
f 176/1/4 177/1/4 178/1/4
f 177/2/4 170/2/4 179/2/4
f 178/1/4 177/1/4 179/1/4
f 169/2/4 178/2/4 180/2/4
f 178/2/4 179/2/4 180/2/4
f 179/2/4 170/2/4 181/2/4
f 180/2/4 179/2/4 181/2/4
f 169/2/4 180/2/4 182/2/4
f 180/1/4 181/1/4 182/1/4
f 181/2/4 170/2/4 183/2/4
f 182/1/4 181/1/4 183/1/4
f 169/2/4 182/2/4 184/2/4
f 182/2/4 183/2/4 184/2/4
f 183/2/4 170/2/4 185/2/4
f 184/2/4 183/2/4 185/2/4
f 185/2/4 186/2/4 187/2/4
f 187/2/4 186/2/4 188/2/4
f 189/2/4 190/2/4 191/2/4
f 191/2/4 190/2/4 192/2/4
f 195/2/5 194/2/5 193/2/5
f 196/2/5 194/2/5 195/2/5
f 201/1/5 198/1/5 197/1/5
f 202/1/5 198/1/5 201/1/5
f 203/1/5 200/1/5 199/1/5
f 204/1/5 200/1/5 203/1/5
f 208/2/5 206/2/5 205/2/5
f 209/2/5 206/2/5 208/2/5
f 211/2/5 208/2/5 207/2/5
f 212/2/5 208/2/5 211/2/5
f 213/2/5 210/2/5 209/2/5
f 214/2/5 210/2/5 213/2/5
f 219/2/5 216/2/5 215/2/5
f 220/2/5 216/2/5 219/2/5
f 221/2/5 218/2/5 217/2/5
f 222/2/5 218/2/5 221/2/5
f 223/2/5 221/2/5 220/2/5
f 224/2/5 221/2/5 223/2/5
f 225/2/6 226/2/6 231/2/6
f 229/2/6 230/2/6 231/2/6
f 228/2/6 229/2/6 231/2/6
f 227/2/6 228/2/6 231/2/6
f 226/2/6 227/2/6 231/2/6
f 231/2/6 230/2/6 232/2/6
f 231/2/6 232/2/6 233/2/6
f 233/2/6 232/2/6 234/2/6
f 233/2/6 234/2/6 235/2/6
f 235/2/6 234/2/6 236/2/6
f 235/2/6 236/2/6 237/2/6
f 237/2/6 236/2/6 238/2/6
f 237/2/6 238/2/6 239/2/6
f 239/2/6 238/2/6 240/2/6
f 240/2/6 238/2/6 241/2/6
f 241/2/6 238/2/6 242/2/6
f 242/2/6 238/2/6 243/2/6
f 243/2/6 238/2/6 244/2/6
f 245/2/6 246/2/6 248/2/6
f 248/2/6 246/2/6 249/2/6
f 247/2/6 248/2/6 251/2/6
f 249/2/6 250/2/6 251/2/6
f 248/2/6 249/2/6 251/2/6
f 251/2/6 250/2/6 252/2/6
f 247/2/6 251/2/6 253/2/6
f 252/2/6 250/2/6 254/2/6
f 247/2/6 253/2/6 255/2/6
f 253/2/6 254/2/6 255/2/6
f 255/2/6 254/2/6 256/2/6
f 254/2/6 250/2/6 257/2/6
f 256/2/6 254/2/6 257/2/6
f 257/2/6 250/2/6 258/2/6
f 256/2/6 257/2/6 259/2/6
f 259/2/6 257/2/6 260/2/6
