# MagicaVoxel @ ephtracy

# material
mtllib mlgjam.mtl
usemtl palette

# normals
vn -1 0 0
vn 1 0 0
vn 0 0 1
vn 0 0 -1
vn 0 -1 0
vn 0 1 0

# texcoords
vt 0.107422 0.5
vt 0.587891 0.5
vt 0.958984 0.5
vt 0.966797 0.5
vt 0.978516 0.5

# verts
v -0.1 0 0.4
v -0.1 0 -0.4
v -0.1 0.1 0.4
v -0.1 0.1 -0.4
v -0.1 1.5 0.4
v -0.1 1.5 -0.4
v -0.1 1.6 0.4
v -0.1 1.6 -0.4
v -0.05 0.1 0.1
v -0.05 0.1 -0
v -0.05 1.5 0.1
v -0.05 1.5 -0
v 0 0.1 0.4
v 0 0.1 0.1
v 0 0.1 -0
v 0 0.1 -0.4
v 0 0.15 0.35
v 0 0.15 0.2
v 0 0.15 -0
v 0 0.15 -0.05
v 0 0.15 -0.1
v 0 0.15 -0.15
v 0 0.15 -0.3
v 0 0.15 -0.35
v 0 0.25 0.3
v 0 0.25 0.25
v 0 0.3 -0.2
v 0 0.3 -0.25
v 0 0.35 0.35
v 0 0.35 0.3
v 0 0.4 -0.15
v 0 0.4 -0.2
v 0 0.4 -0.25
v 0 0.4 -0.3
v 0 0.65 -0.2
v 0 0.65 -0.25
v 0 0.75 0.35
v 0 0.75 0.25
v 0 0.75 0.2
v 0 0.75 0.15
v 0 0.75 -0.15
v 0 0.75 -0.2
v 0 0.75 -0.25
v 0 0.75 -0.3
v 0 0.8 0.35
v 0 0.8 0.15
v 0 0.8 -0
v 0 0.8 -0.05
v 0 0.8 -0.1
v 0 0.8 -0.15
v 0 0.8 -0.3
v 0 0.8 -0.35
v 0 0.85 0.4
v 0 0.85 0.35
v 0 0.85 0.3
v 0 0.85 0.15
v 0 0.85 0.1
v 0 0.85 -0
v 0 0.85 -0.1
v 0 0.85 -0.15
v 0 0.85 -0.35
v 0 0.85 -0.4
v 0 0.9 -0.2
v 0 0.9 -0.25
v 0 0.95 -0
v 0 0.95 -0.1
v 0 0.95 -0.25
v 0 0.95 -0.3
v 0 1 0.25
v 0 1 0.2
v 0 1 -0.25
v 0 1 -0.3
v 0 1.05 -0.25
v 0 1.05 -0.35
v 0 1.1 0.3
v 0 1.1 0.25
v 0 1.1 0.2
v 0 1.1 0.15
v 0 1.25 -0.3
v 0 1.25 -0.35
v 0 1.3 0.25
v 0 1.3 0.2
v 0 1.4 0.3
v 0 1.4 0.25
v 0 1.4 0.2
v 0 1.4 0.15
v 0 1.4 -0.2
v 0 1.4 -0.3
v 0 1.45 0.35
v 0 1.45 0.3
v 0 1.45 0.15
v 0 1.45 0.1
v 0 1.45 -0.15
v 0 1.45 -0.35
v 0 1.5 0.4
v 0 1.5 0.1
v 0 1.5 -0
v 0 1.5 -0.4
v 0.05 0.1 0.4
v 0.05 0.1 -0.4
v 0.05 0.15 0.35
v 0.05 0.15 0.2
v 0.05 0.15 0.1
v 0.05 0.15 0.05
v 0.05 0.15 -0
v 0.05 0.15 -0.05
v 0.05 0.15 -0.1
v 0.05 0.15 -0.15
v 0.05 0.15 -0.3
v 0.05 0.15 -0.35
v 0.05 0.25 0.3
v 0.05 0.25 0.25
v 0.05 0.3 0.05
v 0.05 0.3 -0
v 0.05 0.3 -0.2
v 0.05 0.3 -0.25
v 0.05 0.35 0.35
v 0.05 0.35 0.3
v 0.05 0.4 0.05
v 0.05 0.4 -0
v 0.05 0.4 -0.15
v 0.05 0.4 -0.2
v 0.05 0.4 -0.25
v 0.05 0.4 -0.3
v 0.05 0.6 0.05
v 0.05 0.6 -0
v 0.05 0.65 -0.2
v 0.05 0.65 -0.25
v 0.05 0.75 0.35
v 0.05 0.75 0.25
v 0.05 0.75 0.2
v 0.05 0.75 0.15
v 0.05 0.75 -0.15
v 0.05 0.75 -0.2
v 0.05 0.75 -0.25
v 0.05 0.75 -0.3
v 0.05 0.8 0.35
v 0.05 0.8 0.15
v 0.05 0.8 0.1
v 0.05 0.8 -0.05
v 0.05 0.8 -0.1
v 0.05 0.8 -0.15
v 0.05 0.8 -0.3
v 0.05 0.8 -0.35
v 0.05 0.85 0.4
v 0.05 0.85 0.35
v 0.05 0.85 0.3
v 0.05 0.85 0.15
v 0.05 0.85 0.1
v 0.05 0.85 0.05
v 0.05 0.85 -0.1
v 0.05 0.85 -0.15
v 0.05 0.85 -0.35
v 0.05 0.85 -0.4
v 0.05 0.9 -0.2
v 0.05 0.9 -0.25
v 0.05 0.95 -0
v 0.05 0.95 -0.1
v 0.05 0.95 -0.25
v 0.05 0.95 -0.3
v 0.05 1 0.25
v 0.05 1 0.2
v 0.05 1 -0.25
v 0.05 1 -0.3
v 0.05 1.05 -0.25
v 0.05 1.05 -0.35
v 0.05 1.1 0.3
v 0.05 1.1 0.25
v 0.05 1.1 0.2
v 0.05 1.1 0.15
v 0.05 1.25 -0.3
v 0.05 1.25 -0.35
v 0.05 1.3 0.25
v 0.05 1.3 0.2
v 0.05 1.4 0.3
v 0.05 1.4 0.25
v 0.05 1.4 0.2
v 0.05 1.4 0.15
v 0.05 1.4 -0.2
v 0.05 1.4 -0.3
v 0.05 1.45 0.35
v 0.05 1.45 0.3
v 0.05 1.45 0.15
v 0.05 1.45 0.1
v 0.05 1.45 0.05
v 0.05 1.45 -0
v 0.05 1.45 -0.15
v 0.05 1.45 -0.35
v 0.05 1.5 0.4
v 0.05 1.5 -0.4
v 0.1 0 0.4
v 0.1 0 -0.4
v 0.1 0.1 0.4
v 0.1 0.1 -0.4
v 0.1 1.5 0.4
v 0.1 1.5 -0.4
v 0.1 1.6 0.4
v 0.1 1.6 -0.4
v -0.1 0 0.4
v -0.1 0.1 0.4
v -0.1 1.5 0.4
v -0.1 1.6 0.4
v 0 0.1 0.4
v 0 0.85 0.4
v 0 1.5 0.4
v 0.05 0.1 0.4
v 0.05 0.85 0.4
v 0.05 1.5 0.4
v 0.1 0 0.4
v 0.1 0.1 0.4
v 0.1 1.5 0.4
v 0.1 1.6 0.4
v -0.05 0.1 0.1
v -0.05 1.5 0.1
v 0 0.1 0.1
v 0 0.85 0.1
v 0 1.45 0.1
v 0 1.5 0.1
v -0.05 0.1 -0
v -0.05 1.5 -0
v 0 0.1 -0
v 0 0.15 -0
v 0 0.8 -0
v 0 0.85 -0
v 0 0.95 -0
v 0 1.5 -0
v -0.1 0 -0.4
v -0.1 0.1 -0.4
v -0.1 1.5 -0.4
v -0.1 1.6 -0.4
v 0 0.1 -0.4
v 0 0.85 -0.4
v 0 1.5 -0.4
v 0.05 0.1 -0.4
v 0.05 0.85 -0.4
v 0.05 1.5 -0.4
v 0.1 0 -0.4
v 0.1 0.1 -0.4
v 0.1 1.5 -0.4
v 0.1 1.6 -0.4
v -0.1 0 0.4
v 0.1 0 0.4
v -0.1 0 -0.4
v 0.1 0 -0.4
v -0.1 1.5 0.4
v 0 1.5 0.4
v 0.05 1.5 0.4
v 0.1 1.5 0.4
v -0.05 1.5 0.1
v 0 1.5 0.1
v -0.05 1.5 -0
v 0 1.5 -0
v -0.1 1.5 -0.4
v 0 1.5 -0.4
v 0.05 1.5 -0.4
v 0.1 1.5 -0.4
v -0.1 0.1 0.4
v 0 0.1 0.4
v 0.05 0.1 0.4
v 0.1 0.1 0.4
v -0.05 0.1 0.1
v 0 0.1 0.1
v -0.05 0.1 -0
v 0 0.1 -0
v -0.1 0.1 -0.4
v 0 0.1 -0.4
v 0.05 0.1 -0.4
v 0.1 0.1 -0.4
v -0.1 1.6 0.4
v 0.1 1.6 0.4
v -0.1 1.6 -0.4
v 0.1 1.6 -0.4

# faces
f 3/5/1 2/5/1 1/5/1
f 4/5/1 2/5/1 3/5/1
f 7/4/1 6/4/1 5/4/1
f 8/4/1 6/4/1 7/4/1
f 11/4/1 10/4/1 9/4/1
f 12/4/1 10/4/1 11/4/1
f 17/2/1 14/2/1 13/2/1
f 18/2/1 14/2/1 17/2/1
f 19/2/1 16/2/1 15/2/1
f 20/2/1 16/2/1 19/2/1
f 21/2/1 16/2/1 20/2/1
f 22/2/1 16/2/1 21/2/1
f 23/2/1 16/2/1 22/2/1
f 24/2/1 16/2/1 23/2/1
f 25/3/1 18/3/1 17/3/1
f 26/3/1 18/3/1 25/3/1
f 27/2/1 23/2/1 22/2/1
f 28/2/1 23/2/1 27/2/1
f 29/2/1 17/2/1 13/2/1
f 29/3/1 25/3/1 17/3/1
f 30/2/1 26/2/1 25/2/1
f 30/3/1 25/3/1 29/3/1
f 31/3/1 22/3/1 21/3/1
f 31/2/1 27/2/1 22/2/1
f 32/3/1 28/3/1 27/3/1
f 32/2/1 27/2/1 31/2/1
f 33/2/1 23/2/1 28/2/1
f 33/3/1 28/3/1 32/3/1
f 34/3/1 24/3/1 23/3/1
f 34/2/1 23/2/1 33/2/1
f 35/3/1 32/3/1 31/3/1
f 35/3/1 33/3/1 32/3/1
f 35/3/1 34/3/1 33/3/1
f 36/3/1 34/3/1 35/3/1
f 37/2/1 30/2/1 29/2/1
f 37/2/1 29/2/1 13/2/1
f 38/2/1 26/2/1 30/2/1
f 38/2/1 30/2/1 37/2/1
f 38/3/1 18/3/1 26/3/1
f 39/2/1 14/2/1 18/2/1
f 39/3/1 18/3/1 38/3/1
f 40/2/1 14/2/1 39/2/1
f 41/3/1 35/3/1 31/3/1
f 41/3/1 31/3/1 21/3/1
f 42/2/1 36/2/1 35/2/1
f 42/3/1 35/3/1 41/3/1
f 43/3/1 34/3/1 36/3/1
f 43/2/1 36/2/1 42/2/1
f 44/3/1 24/3/1 34/3/1
f 44/3/1 34/3/1 43/3/1
f 45/3/1 38/3/1 37/3/1
f 45/2/1 37/2/1 13/2/1
f 45/3/1 40/3/1 39/3/1
f 45/3/1 39/3/1 38/3/1
f 46/2/1 14/2/1 40/2/1
f 46/3/1 40/3/1 45/3/1
f 47/3/1 20/3/1 19/3/1
f 48/2/1 21/2/1 20/2/1
f 48/3/1 20/3/1 47/3/1
f 49/3/1 41/3/1 21/3/1
f 49/2/1 21/2/1 48/2/1
f 50/2/1 43/2/1 42/2/1
f 50/3/1 41/3/1 49/3/1
f 50/2/1 44/2/1 43/2/1
f 50/2/1 42/2/1 41/2/1
f 51/3/1 24/3/1 44/3/1
f 51/2/1 44/2/1 50/2/1
f 52/2/1 16/2/1 24/2/1
f 52/3/1 24/3/1 51/3/1
f 53/2/1 46/2/1 45/2/1
f 53/2/1 45/2/1 13/2/1
f 54/2/1 46/2/1 53/2/1
f 55/2/1 46/2/1 54/2/1
f 56/2/1 14/2/1 46/2/1
f 56/2/1 46/2/1 55/2/1
f 57/2/1 14/2/1 56/2/1
f 58/2/1 50/2/1 49/2/1
f 58/2/1 49/2/1 48/2/1
f 58/2/1 51/2/1 50/2/1
f 58/2/1 52/2/1 51/2/1
f 58/2/1 48/2/1 47/2/1
f 59/2/1 52/2/1 58/2/1
f 60/2/1 52/2/1 59/2/1
f 61/2/1 16/2/1 52/2/1
f 61/2/1 52/2/1 60/2/1
f 62/2/1 16/2/1 61/2/1
f 63/3/1 61/3/1 60/3/1
f 64/3/1 61/3/1 63/3/1
f 65/3/1 59/3/1 58/3/1
f 66/1/1 60/1/1 59/1/1
f 66/3/1 59/3/1 65/3/1
f 67/3/1 61/3/1 64/3/1
f 67/1/1 64/1/1 63/1/1
f 68/3/1 61/3/1 67/3/1
f 69/1/1 56/1/1 55/1/1
f 70/1/1 56/1/1 69/1/1
f 71/1/1 67/1/1 63/1/1
f 71/1/1 68/1/1 67/1/1
f 72/3/1 61/3/1 68/3/1
f 72/1/1 68/1/1 71/1/1
f 73/1/1 71/1/1 63/1/1
f 73/3/1 72/3/1 71/3/1
f 74/3/1 61/3/1 72/3/1
f 74/3/1 72/3/1 73/3/1
f 74/1/1 62/1/1 61/1/1
f 75/3/1 55/3/1 54/3/1
f 75/1/1 69/1/1 55/1/1
f 76/3/1 70/3/1 69/3/1
f 76/1/1 69/1/1 75/1/1
f 77/1/1 56/1/1 70/1/1
f 77/3/1 70/3/1 76/3/1
f 78/3/1 57/3/1 56/3/1
f 78/1/1 56/1/1 77/1/1
f 79/1/1 74/1/1 73/1/1
f 80/1/1 62/1/1 74/1/1
f 80/1/1 74/1/1 79/1/1
f 81/3/1 77/3/1 76/3/1
f 81/3/1 76/3/1 75/3/1
f 81/3/1 78/3/1 77/3/1
f 82/3/1 78/3/1 81/3/1
f 83/3/1 75/3/1 54/3/1
f 83/3/1 81/3/1 75/3/1
f 84/1/1 82/1/1 81/1/1
f 84/3/1 81/3/1 83/3/1
f 85/3/1 78/3/1 82/3/1
f 85/1/1 82/1/1 84/1/1
f 86/3/1 57/3/1 78/3/1
f 86/3/1 78/3/1 85/3/1
f 87/1/1 73/1/1 63/1/1
f 87/1/1 79/1/1 73/1/1
f 87/3/1 63/3/1 60/3/1
f 88/3/1 80/3/1 79/3/1
f 88/1/1 79/1/1 87/1/1
f 89/1/1 54/1/1 53/1/1
f 89/3/1 83/3/1 54/3/1
f 90/1/1 86/1/1 85/1/1
f 90/3/1 83/3/1 89/3/1
f 90/1/1 85/1/1 84/1/1
f 90/1/1 84/1/1 83/1/1
f 91/3/1 57/3/1 86/3/1
f 91/1/1 86/1/1 90/1/1
f 92/3/1 57/3/1 91/3/1
f 93/1/1 60/1/1 66/1/1
f 93/3/1 87/3/1 60/3/1
f 93/3/1 88/3/1 87/3/1
f 93/1/1 66/1/1 65/1/1
f 94/1/1 62/1/1 80/1/1
f 94/3/1 88/3/1 93/3/1
f 94/3/1 80/3/1 88/3/1
f 95/1/1 90/1/1 89/1/1
f 95/1/1 91/1/1 90/1/1
f 95/1/1 89/1/1 53/1/1
f 95/1/1 92/1/1 91/1/1
f 96/1/1 92/1/1 95/1/1
f 97/1/1 93/1/1 65/1/1
f 97/1/1 94/1/1 93/1/1
f 98/1/1 62/1/1 94/1/1
f 98/1/1 94/1/1 97/1/1
f 99/2/2 100/2/2 101/2/2
f 101/2/2 100/2/2 102/2/2
f 102/2/2 100/2/2 103/2/2
f 103/2/2 100/2/2 104/2/2
f 104/2/2 100/2/2 105/2/2
f 105/2/2 100/2/2 106/2/2
f 106/2/2 100/2/2 107/2/2
f 107/2/2 100/2/2 108/2/2
f 108/2/2 100/2/2 109/2/2
f 109/2/2 100/2/2 110/2/2
f 101/3/2 102/3/2 111/3/2
f 111/3/2 102/3/2 112/3/2
f 103/3/2 104/3/2 113/3/2
f 104/2/2 105/2/2 113/2/2
f 105/3/2 106/3/2 114/3/2
f 113/2/2 105/2/2 114/2/2
f 108/2/2 109/2/2 115/2/2
f 115/2/2 109/2/2 116/2/2
f 99/2/2 101/2/2 117/2/2
f 101/3/2 111/3/2 117/3/2
f 111/2/2 112/2/2 118/2/2
f 117/3/2 111/3/2 118/3/2
f 103/3/2 113/3/2 119/3/2
f 113/3/2 114/3/2 119/3/2
f 114/3/2 106/3/2 120/3/2
f 119/3/2 114/3/2 120/3/2
f 107/3/2 108/3/2 121/3/2
f 108/2/2 115/2/2 121/2/2
f 115/3/2 116/3/2 122/3/2
f 121/2/2 115/2/2 122/2/2
f 116/2/2 109/2/2 123/2/2
f 122/3/2 116/3/2 123/3/2
f 109/3/2 110/3/2 124/3/2
f 123/2/2 109/2/2 124/2/2
f 103/3/2 119/3/2 125/3/2
f 119/2/2 120/2/2 125/2/2
f 120/3/2 106/3/2 126/3/2
f 125/2/2 120/2/2 126/2/2
f 121/3/2 122/3/2 127/3/2
f 122/3/2 123/3/2 127/3/2
f 123/3/2 124/3/2 127/3/2
f 127/3/2 124/3/2 128/3/2
f 99/2/2 117/2/2 129/2/2
f 117/2/2 118/2/2 129/2/2
f 112/3/2 102/3/2 130/3/2
f 129/2/2 118/2/2 130/2/2
f 118/2/2 112/2/2 130/2/2
f 102/2/2 103/2/2 131/2/2
f 130/3/2 102/3/2 131/3/2
f 131/2/2 103/2/2 132/2/2
f 121/3/2 127/3/2 133/3/2
f 107/3/2 121/3/2 133/3/2
f 127/2/2 128/2/2 134/2/2
f 133/3/2 127/3/2 134/3/2
f 128/3/2 124/3/2 135/3/2
f 134/2/2 128/2/2 135/2/2
f 124/3/2 110/3/2 136/3/2
f 135/3/2 124/3/2 136/3/2
f 129/3/2 130/3/2 137/3/2
f 99/2/2 129/2/2 137/2/2
f 131/3/2 132/3/2 137/3/2
f 130/3/2 131/3/2 137/3/2
f 132/2/2 103/2/2 138/2/2
f 137/3/2 132/3/2 138/3/2
f 103/3/2 125/3/2 139/3/2
f 138/2/2 103/2/2 139/2/2
f 125/3/2 126/3/2 139/3/2
f 126/3/2 106/3/2 140/3/2
f 139/3/2 126/3/2 140/3/2
f 106/2/2 107/2/2 140/2/2
f 107/3/2 133/3/2 141/3/2
f 140/2/2 107/2/2 141/2/2
f 135/2/2 136/2/2 142/2/2
f 141/3/2 133/3/2 142/3/2
f 133/2/2 134/2/2 142/2/2
f 134/2/2 135/2/2 142/2/2
f 136/3/2 110/3/2 143/3/2
f 142/2/2 136/2/2 143/2/2
f 110/2/2 100/2/2 144/2/2
f 143/3/2 110/3/2 144/3/2
f 138/2/2 139/2/2 145/2/2
f 142/2/2 143/2/2 145/2/2
f 143/2/2 144/2/2 145/2/2
f 139/2/2 140/2/2 145/2/2
f 99/2/2 137/2/2 145/2/2
f 137/2/2 138/2/2 145/2/2
f 140/2/2 141/2/2 145/2/2
f 141/2/2 142/2/2 145/2/2
f 145/2/2 144/2/2 146/2/2
f 146/2/2 144/2/2 147/2/2
f 147/2/2 144/2/2 148/2/2
f 148/2/2 144/2/2 149/2/2
f 149/2/2 144/2/2 150/2/2
f 150/2/2 144/2/2 151/2/2
f 151/2/2 144/2/2 152/2/2
f 144/2/2 100/2/2 153/2/2
f 152/2/2 144/2/2 153/2/2
f 153/2/2 100/2/2 154/2/2
f 152/3/2 153/3/2 155/3/2
f 155/3/2 153/3/2 156/3/2
f 150/3/2 151/3/2 157/3/2
f 151/1/2 152/1/2 158/1/2
f 157/3/2 151/3/2 158/3/2
f 156/3/2 153/3/2 159/3/2
f 155/1/2 156/1/2 159/1/2
f 159/3/2 153/3/2 160/3/2
f 147/1/2 148/1/2 161/1/2
f 161/1/2 148/1/2 162/1/2
f 155/1/2 159/1/2 163/1/2
f 159/1/2 160/1/2 163/1/2
f 160/3/2 153/3/2 164/3/2
f 163/1/2 160/1/2 164/1/2
f 155/1/2 163/1/2 165/1/2
f 163/3/2 164/3/2 165/3/2
f 164/3/2 153/3/2 166/3/2
f 165/3/2 164/3/2 166/3/2
f 153/1/2 154/1/2 166/1/2
f 146/3/2 147/3/2 167/3/2
f 147/1/2 161/1/2 167/1/2
f 161/3/2 162/3/2 168/3/2
f 167/1/2 161/1/2 168/1/2
f 162/1/2 148/1/2 169/1/2
f 168/3/2 162/3/2 169/3/2
f 148/3/2 149/3/2 170/3/2
f 169/1/2 148/1/2 170/1/2
f 165/1/2 166/1/2 171/1/2
f 166/1/2 154/1/2 172/1/2
f 171/1/2 166/1/2 172/1/2
f 168/3/2 169/3/2 173/3/2
f 167/3/2 168/3/2 173/3/2
f 169/3/2 170/3/2 173/3/2
f 173/3/2 170/3/2 174/3/2
f 146/3/2 167/3/2 175/3/2
f 167/3/2 173/3/2 175/3/2
f 173/1/2 174/1/2 176/1/2
f 175/3/2 173/3/2 176/3/2
f 174/3/2 170/3/2 177/3/2
f 176/1/2 174/1/2 177/1/2
f 170/3/2 149/3/2 178/3/2
f 177/3/2 170/3/2 178/3/2
f 165/1/2 171/1/2 179/1/2
f 155/1/2 165/1/2 179/1/2
f 152/3/2 155/3/2 179/3/2
f 171/3/2 172/3/2 180/3/2
f 179/1/2 171/1/2 180/1/2
f 145/1/2 146/1/2 181/1/2
f 146/3/2 175/3/2 181/3/2
f 177/1/2 178/1/2 182/1/2
f 181/3/2 175/3/2 182/3/2
f 176/1/2 177/1/2 182/1/2
f 175/1/2 176/1/2 182/1/2
f 178/3/2 149/3/2 183/3/2
f 182/1/2 178/1/2 183/1/2
f 149/1/2 150/1/2 184/1/2
f 183/3/2 149/3/2 184/3/2
f 150/3/2 157/3/2 185/3/2
f 184/1/2 150/1/2 185/1/2
f 157/1/2 158/1/2 186/1/2
f 185/3/2 157/3/2 186/3/2
f 158/1/2 152/1/2 187/1/2
f 186/1/2 158/1/2 187/1/2
f 152/3/2 179/3/2 187/3/2
f 179/3/2 180/3/2 187/3/2
f 180/3/2 172/3/2 188/3/2
f 187/3/2 180/3/2 188/3/2
f 172/1/2 154/1/2 188/1/2
f 183/1/2 184/1/2 189/1/2
f 186/1/2 187/1/2 189/1/2
f 187/1/2 188/1/2 189/1/2
f 181/1/2 182/1/2 189/1/2
f 185/1/2 186/1/2 189/1/2
f 182/1/2 183/1/2 189/1/2
f 184/1/2 185/1/2 189/1/2
f 145/1/2 181/1/2 189/1/2
f 188/1/2 154/1/2 190/1/2
f 189/1/2 188/1/2 190/1/2
f 191/5/2 192/5/2 193/5/2
f 193/5/2 192/5/2 194/5/2
f 195/4/2 196/4/2 197/4/2
f 197/4/2 196/4/2 198/4/2
f 203/5/3 200/5/3 199/5/3
f 205/4/3 202/4/3 201/4/3
f 206/2/3 204/2/3 203/2/3
f 206/5/3 203/5/3 199/5/3
f 207/1/3 205/1/3 204/1/3
f 207/2/3 204/2/3 206/2/3
f 208/4/3 202/4/3 205/4/3
f 208/1/3 205/1/3 207/1/3
f 209/5/3 206/5/3 199/5/3
f 210/5/3 206/5/3 209/5/3
f 211/4/3 202/4/3 208/4/3
f 212/4/3 202/4/3 211/4/3
f 215/4/3 214/4/3 213/4/3
f 216/4/3 214/4/3 215/4/3
f 217/4/3 214/4/3 216/4/3
f 218/4/3 214/4/3 217/4/3
f 219/4/4 220/4/4 221/4/4
f 221/4/4 220/4/4 222/4/4
f 222/4/4 220/4/4 223/4/4
f 223/4/4 220/4/4 224/4/4
f 224/4/4 220/4/4 225/4/4
f 225/4/4 220/4/4 226/4/4
f 227/5/4 228/5/4 231/5/4
f 229/4/4 230/4/4 233/4/4
f 231/2/4 232/2/4 234/2/4
f 227/5/4 231/5/4 234/5/4
f 232/1/4 233/1/4 235/1/4
f 234/2/4 232/2/4 235/2/4
f 233/4/4 230/4/4 236/4/4
f 235/1/4 233/1/4 236/1/4
f 227/5/4 234/5/4 237/5/4
f 237/5/4 234/5/4 238/5/4
f 236/4/4 230/4/4 239/4/4
f 239/4/4 230/4/4 240/4/4
f 243/5/5 242/5/5 241/5/5
f 244/5/5 242/5/5 243/5/5
f 249/4/5 246/4/5 245/4/5
f 250/4/5 246/4/5 249/4/5
f 251/4/5 249/4/5 245/4/5
f 253/4/5 251/4/5 245/4/5
f 253/4/5 252/4/5 251/4/5
f 254/4/5 252/4/5 253/4/5
f 255/4/5 248/4/5 247/4/5
f 256/4/5 248/4/5 255/4/5
f 257/5/6 258/5/6 261/5/6
f 261/5/6 258/5/6 262/5/6
f 257/5/6 261/5/6 263/5/6
f 257/5/6 263/5/6 265/5/6
f 263/5/6 264/5/6 265/5/6
f 265/5/6 264/5/6 266/5/6
f 259/5/6 260/5/6 267/5/6
f 267/5/6 260/5/6 268/5/6
f 269/4/6 270/4/6 271/4/6
f 271/4/6 270/4/6 272/4/6
