# MagicaVoxel @ ephtracy

# material
mtllib plant3.mtl
usemtl palette

# normals
vn -1 0 0
vn 1 0 0
vn 0 0 1
vn 0 0 -1
vn 0 -1 0
vn 0 1 0

# texcoords
vt 0.392578 0.5
vt 0.837891 0.5
vt 0.884766 0.5

# verts
v -0.2 0.45 -0
v -0.2 0.45 -0.05
v -0.2 0.55 -0
v -0.2 0.55 -0.05
v -0.15 0 0.1
v -0.15 0 -0.2
v -0.15 0.25 0.1
v -0.15 0.25 -0.2
v -0.1 0.45 0.05
v -0.1 0.45 -0
v -0.1 0.5 0.05
v -0.1 0.5 -0
v -0.05 0.25 0.05
v -0.05 0.25 -0
v -0.05 0.25 -0.1
v -0.05 0.25 -0.15
v -0.05 0.3 -0.1
v -0.05 0.3 -0.15
v -0.05 0.4 0.15
v -0.05 0.4 0.1
v -0.05 0.4 -0.05
v -0.05 0.4 -0.15
v -0.05 0.45 0.1
v -0.05 0.45 0.05
v -0.05 0.45 -0
v -0.05 0.45 -0.05
v -0.05 0.45 -0.15
v -0.05 0.5 0.15
v -0.05 0.5 0.05
v -0.05 0.5 -0
v -0.05 0.55 -0
v -0.05 0.65 0.05
v -0.05 0.65 -0
v 0 0.25 -0
v 0 0.25 -0.1
v 0 0.3 -0.1
v 0 0.4 -0.05
v 0 0.4 -0.1
v 0 0.45 -0.05
v 0 0.5 -0
v 0 0.5 -0.05
v 0 0.55 -0
v 0 0.55 -0.05
v 0 0.6 0.1
v 0 0.6 0.05
v 0 0.6 -0.15
v 0 0.6 -0.2
v 0 0.65 0.1
v 0 0.65 0.05
v 0 0.65 -0
v 0 0.65 -0.05
v 0 0.65 -0.15
v 0 0.7 -0.05
v 0 0.7 -0.2
v 0 0.8 -0
v 0 0.8 -0.05
v 0.05 0.25 0.05
v 0.05 0.25 -0
v 0.05 0.3 0.15
v 0.05 0.3 0.05
v 0.05 0.35 0.15
v 0.05 0.35 0.05
v 0.05 0.35 -0.1
v 0.05 0.35 -0.2
v 0.05 0.4 0.05
v 0.05 0.4 -0
v 0.05 0.4 -0.1
v 0.05 0.4 -0.2
v 0.05 0.6 0.15
v 0.05 0.6 0.1
v 0.05 0.65 0.15
v 0.05 0.65 0.1
v 0.1 0.25 -0.1
v 0.1 0.25 -0.15
v 0.1 0.35 -0.1
v 0.1 0.35 -0.15
v 0.1 0.5 0.25
v 0.1 0.5 0.2
v 0.1 0.55 0.25
v 0.1 0.55 0.2
v 0.1 0.55 0.15
v 0.1 0.6 0.2
v 0.1 0.6 0.15
v 0.1 0.6 -0.2
v 0.1 0.6 -0.25
v 0.1 0.65 -0.2
v 0.1 0.7 -0.2
v 0.1 0.7 -0.25
v -0.15 0.45 -0
v -0.15 0.45 -0.05
v -0.15 0.5 -0
v -0.15 0.5 -0.05
v 0 0.25 0.05
v 0 0.25 -0
v 0 0.25 -0.1
v 0 0.25 -0.15
v 0 0.3 -0.1
v 0 0.3 -0.15
v 0 0.4 0.15
v 0 0.4 0.1
v 0 0.4 -0.1
v 0 0.4 -0.15
v 0 0.45 0.1
v 0 0.45 0.05
v 0 0.45 -0
v 0 0.45 -0.1
v 0 0.45 -0.15
v 0 0.5 0.15
v 0 0.5 0.05
v 0 0.5 -0
v 0 0.6 0.05
v 0 0.6 -0
v 0.05 0.45 0.05
v 0.05 0.45 -0
v 0.05 0.45 -0.05
v 0.05 0.5 0.05
v 0.05 0.5 -0
v 0.05 0.6 0.05
v 0.05 0.6 -0
v 0.05 0.6 -0.15
v 0.05 0.6 -0.2
v 0.05 0.65 0.05
v 0.05 0.65 -0
v 0.05 0.65 -0.05
v 0.05 0.65 -0.15
v 0.05 0.65 -0.2
v 0.05 0.7 -0
v 0.05 0.7 -0.05
v 0.05 0.7 -0.15
v 0.1 0.25 0.05
v 0.1 0.25 -0
v 0.1 0.25 -0.05
v 0.1 0.25 -0.1
v 0.1 0.3 0.15
v 0.1 0.3 0.1
v 0.1 0.3 0.05
v 0.1 0.3 -0
v 0.1 0.3 -0.05
v 0.1 0.35 0.15
v 0.1 0.35 0.1
v 0.1 0.35 0.05
v 0.1 0.35 -0.1
v 0.1 0.35 -0.15
v 0.1 0.35 -0.2
v 0.1 0.4 0.05
v 0.1 0.4 -0
v 0.1 0.4 -0.1
v 0.1 0.4 -0.2
v 0.1 0.45 -0
v 0.1 0.45 -0.1
v 0.1 0.6 0.1
v 0.1 0.6 0.05
v 0.1 0.65 0.1
v 0.1 0.65 0.05
v 0.1 0.7 -0
v 0.1 0.7 -0.05
v 0.1 0.8 -0
v 0.1 0.8 -0.05
v 0.15 0.25 -0
v 0.15 0.25 -0.05
v 0.15 0.25 -0.1
v 0.15 0.25 -0.15
v 0.15 0.3 0.1
v 0.15 0.3 0.05
v 0.15 0.3 -0
v 0.15 0.3 -0.05
v 0.15 0.3 -0.1
v 0.15 0.3 -0.15
v 0.15 0.35 0.1
v 0.15 0.35 0.05
v 0.15 0.5 0.25
v 0.15 0.5 0.2
v 0.15 0.55 0.25
v 0.15 0.55 0.2
v 0.15 0.55 0.15
v 0.15 0.6 0.2
v 0.15 0.6 0.15
v 0.15 0.6 0.1
v 0.15 0.6 -0.2
v 0.15 0.6 -0.25
v 0.15 0.65 0.15
v 0.15 0.65 0.1
v 0.15 0.65 -0.15
v 0.15 0.65 -0.2
v 0.15 0.7 -0.15
v 0.15 0.7 -0.25
v 0.2 0 0.1
v 0.2 0 -0.2
v 0.2 0.25 0.1
v 0.2 0.25 -0.2
v 0.2 0.3 -0.1
v 0.2 0.3 -0.15
v 0.2 0.35 -0.1
v 0.2 0.35 -0.15
v 0.1 0.5 0.25
v 0.1 0.55 0.25
v 0.15 0.5 0.25
v 0.15 0.55 0.25
v 0.1 0.55 0.2
v 0.1 0.6 0.2
v 0.15 0.55 0.2
v 0.15 0.6 0.2
v -0.05 0.4 0.15
v -0.05 0.5 0.15
v 0 0.4 0.15
v 0 0.5 0.15
v 0.05 0.3 0.15
v 0.05 0.35 0.15
v 0.05 0.6 0.15
v 0.05 0.65 0.15
v 0.1 0.3 0.15
v 0.1 0.35 0.15
v 0.1 0.6 0.15
v 0.15 0.6 0.15
v 0.15 0.65 0.15
v -0.15 0 0.1
v -0.15 0.25 0.1
v 0 0.6 0.1
v 0 0.65 0.1
v 0.05 0.6 0.1
v 0.05 0.65 0.1
v 0.1 0.3 0.1
v 0.1 0.35 0.1
v 0.15 0.3 0.1
v 0.15 0.35 0.1
v 0.2 0 0.1
v 0.2 0.25 0.1
v -0.1 0.45 0.05
v -0.1 0.5 0.05
v -0.05 0.25 0.05
v -0.05 0.45 0.05
v -0.05 0.5 0.05
v -0.05 0.65 0.05
v 0 0.25 0.05
v 0 0.45 0.05
v 0 0.5 0.05
v 0 0.6 0.05
v 0 0.65 0.05
v 0.05 0.25 0.05
v 0.05 0.3 0.05
v 0.05 0.35 0.05
v 0.05 0.4 0.05
v 0.05 0.45 0.05
v 0.05 0.5 0.05
v 0.1 0.25 0.05
v 0.1 0.3 0.05
v 0.1 0.35 0.05
v 0.1 0.4 0.05
v -0.2 0.45 -0
v -0.2 0.55 -0
v -0.15 0.45 -0
v -0.15 0.5 -0
v -0.1 0.5 -0
v -0.05 0.5 -0
v -0.05 0.55 -0
v 0 0.25 -0
v 0 0.45 -0
v 0 0.5 -0
v 0 0.6 -0
v 0 0.65 -0
v 0 0.8 -0
v 0.05 0.25 -0
v 0.05 0.4 -0
v 0.05 0.45 -0
v 0.05 0.5 -0
v 0.05 0.6 -0
v 0.05 0.65 -0
v 0.05 0.7 -0
v 0.1 0.25 -0
v 0.1 0.3 -0
v 0.1 0.4 -0
v 0.1 0.45 -0
v 0.1 0.7 -0
v 0.1 0.8 -0
v 0.15 0.25 -0
v 0.15 0.3 -0
v -0.05 0.4 -0.05
v -0.05 0.45 -0.05
v 0 0.4 -0.05
v 0 0.45 -0.05
v -0.05 0.25 -0.1
v -0.05 0.3 -0.1
v 0 0.25 -0.1
v 0 0.3 -0.1
v 0.1 0.25 -0.1
v 0.1 0.35 -0.1
v 0.15 0.25 -0.1
v 0.15 0.3 -0.1
v 0.2 0.3 -0.1
v 0.2 0.35 -0.1
v 0 0.6 -0.15
v 0 0.65 -0.15
v 0.05 0.6 -0.15
v 0.05 0.65 -0.15
v 0.05 0.7 -0.15
v 0.15 0.65 -0.15
v 0.15 0.7 -0.15
v 0.1 0.6 -0.2
v 0.1 0.65 -0.2
v 0.15 0.6 -0.2
v 0.15 0.65 -0.2
v 0.1 0.5 0.2
v 0.1 0.55 0.2
v 0.15 0.5 0.2
v 0.15 0.55 0.2
v 0.1 0.55 0.15
v 0.1 0.6 0.15
v 0.15 0.55 0.15
v 0.15 0.6 0.15
v -0.05 0.4 0.1
v -0.05 0.45 0.1
v 0 0.4 0.1
v 0 0.45 0.1
v 0.1 0.6 0.1
v 0.1 0.65 0.1
v 0.15 0.6 0.1
v 0.15 0.65 0.1
v 0.05 0.6 0.05
v 0.05 0.65 0.05
v 0.1 0.3 0.05
v 0.1 0.35 0.05
v 0.1 0.6 0.05
v 0.1 0.65 0.05
v 0.15 0.3 0.05
v 0.15 0.35 0.05
v -0.1 0.45 -0
v -0.1 0.5 -0
v -0.05 0.25 -0
v -0.05 0.45 -0
v -0.05 0.55 -0
v -0.05 0.65 -0
v 0 0.25 -0
v 0 0.5 -0
v 0 0.55 -0
v 0 0.65 -0
v -0.2 0.45 -0.05
v -0.2 0.55 -0.05
v -0.15 0.45 -0.05
v -0.15 0.5 -0.05
v 0 0.45 -0.05
v 0 0.5 -0.05
v 0 0.55 -0.05
v 0 0.65 -0.05
v 0 0.7 -0.05
v 0 0.8 -0.05
v 0.05 0.45 -0.05
v 0.05 0.65 -0.05
v 0.05 0.7 -0.05
v 0.1 0.25 -0.05
v 0.1 0.3 -0.05
v 0.1 0.7 -0.05
v 0.1 0.8 -0.05
v 0.15 0.25 -0.05
v 0.15 0.3 -0.05
v 0 0.25 -0.1
v 0 0.3 -0.1
v 0 0.4 -0.1
v 0 0.45 -0.1
v 0.05 0.35 -0.1
v 0.05 0.4 -0.1
v 0.1 0.25 -0.1
v 0.1 0.35 -0.1
v 0.1 0.4 -0.1
v 0.1 0.45 -0.1
v -0.05 0.25 -0.15
v -0.05 0.3 -0.15
v -0.05 0.4 -0.15
v -0.05 0.45 -0.15
v 0 0.25 -0.15
v 0 0.3 -0.15
v 0 0.4 -0.15
v 0 0.45 -0.15
v 0.1 0.25 -0.15
v 0.1 0.35 -0.15
v 0.15 0.25 -0.15
v 0.15 0.3 -0.15
v 0.2 0.3 -0.15
v 0.2 0.35 -0.15
v -0.15 0 -0.2
v -0.15 0.25 -0.2
v 0 0.6 -0.2
v 0 0.7 -0.2
v 0.05 0.35 -0.2
v 0.05 0.4 -0.2
v 0.05 0.6 -0.2
v 0.05 0.65 -0.2
v 0.1 0.35 -0.2
v 0.1 0.4 -0.2
v 0.1 0.65 -0.2
v 0.1 0.7 -0.2
v 0.2 0 -0.2
v 0.2 0.25 -0.2
v 0.1 0.6 -0.25
v 0.1 0.7 -0.25
v 0.15 0.6 -0.25
v 0.15 0.7 -0.25
v -0.15 0 0.1
v 0.2 0 0.1
v -0.15 0 -0.2
v 0.2 0 -0.2
v 0.05 0.3 0.15
v 0.1 0.3 0.15
v 0.1 0.3 0.1
v 0.15 0.3 0.1
v 0.05 0.3 0.05
v 0.1 0.3 0.05
v 0.15 0.3 0.05
v 0.15 0.3 -0.1
v 0.2 0.3 -0.1
v 0.15 0.3 -0.15
v 0.2 0.3 -0.15
v 0.05 0.35 -0.1
v 0.1 0.35 -0.1
v 0.1 0.35 -0.15
v 0.05 0.35 -0.2
v 0.1 0.35 -0.2
v -0.05 0.4 0.15
v 0 0.4 0.15
v -0.05 0.4 0.1
v 0 0.4 0.1
v -0.05 0.4 -0.05
v 0 0.4 -0.05
v 0 0.4 -0.1
v -0.05 0.4 -0.15
v 0 0.4 -0.15
v -0.05 0.45 0.1
v 0 0.45 0.1
v -0.1 0.45 0.05
v -0.05 0.45 0.05
v 0 0.45 0.05
v 0.05 0.45 0.05
v -0.2 0.45 -0
v -0.15 0.45 -0
v -0.1 0.45 -0
v -0.05 0.45 -0
v 0 0.45 -0
v 0.05 0.45 -0
v -0.2 0.45 -0.05
v -0.15 0.45 -0.05
v 0.1 0.5 0.25
v 0.15 0.5 0.25
v 0.1 0.5 0.2
v 0.15 0.5 0.2
v -0.15 0.5 -0
v -0.1 0.5 -0
v 0 0.5 -0
v -0.15 0.5 -0.05
v 0 0.5 -0.05
v 0.1 0.55 0.2
v 0.15 0.55 0.2
v 0.1 0.55 0.15
v 0.15 0.55 0.15
v 0.05 0.6 0.15
v 0.1 0.6 0.15
v 0.15 0.6 0.15
v 0 0.6 0.1
v 0.05 0.6 0.1
v 0.1 0.6 0.1
v 0.15 0.6 0.1
v 0 0.6 0.05
v 0.05 0.6 0.05
v 0.1 0.6 0.05
v 0 0.6 -0
v 0.05 0.6 -0
v 0 0.6 -0.15
v 0.05 0.6 -0.15
v 0 0.6 -0.2
v 0.05 0.6 -0.2
v 0.1 0.6 -0.2
v 0.15 0.6 -0.2
v 0.1 0.6 -0.25
v 0.15 0.6 -0.25
v 0 0.65 -0.05
v 0.05 0.65 -0.05
v 0 0.65 -0.15
v 0.05 0.65 -0.15
v 0.15 0.65 -0.15
v 0.05 0.65 -0.2
v 0.1 0.65 -0.2
v 0.15 0.65 -0.2
v 0.05 0.7 -0
v 0.1 0.7 -0
v 0.05 0.7 -0.05
v 0.1 0.7 -0.05
v -0.15 0.25 0.1
v 0.2 0.25 0.1
v -0.1 0.25 0.05
v -0.05 0.25 0.05
v 0 0.25 0.05
v 0.05 0.25 0.05
v 0.1 0.25 0.05
v 0.15 0.25 0.05
v -0.05 0.25 -0
v 0 0.25 -0
v 0.05 0.25 -0
v 0.1 0.25 -0
v 0.15 0.25 -0
v 0.1 0.25 -0.05
v 0.15 0.25 -0.05
v -0.05 0.25 -0.1
v 0 0.25 -0.1
v 0.1 0.25 -0.1
v 0.15 0.25 -0.1
v -0.1 0.25 -0.15
v -0.05 0.25 -0.15
v 0 0.25 -0.15
v 0.1 0.25 -0.15
v 0.15 0.25 -0.15
v -0.15 0.25 -0.2
v 0.2 0.25 -0.2
v 0.1 0.3 -0
v 0.15 0.3 -0
v 0.1 0.3 -0.05
v 0.15 0.3 -0.05
v -0.05 0.3 -0.1
v 0 0.3 -0.1
v -0.05 0.3 -0.15
v 0 0.3 -0.15
v 0.05 0.35 0.15
v 0.1 0.35 0.15
v 0.1 0.35 0.1
v 0.15 0.35 0.1
v 0.05 0.35 0.05
v 0.1 0.35 0.05
v 0.15 0.35 0.05
v 0.1 0.35 -0.1
v 0.2 0.35 -0.1
v 0.1 0.35 -0.15
v 0.2 0.35 -0.15
v 0.05 0.4 0.05
v 0.1 0.4 0.05
v 0.05 0.4 -0
v 0.1 0.4 -0
v 0.05 0.4 -0.1
v 0.1 0.4 -0.1
v 0.05 0.4 -0.2
v 0.1 0.4 -0.2
v 0.05 0.45 -0
v 0.1 0.45 -0
v -0.05 0.45 -0.05
v 0 0.45 -0.05
v 0.05 0.45 -0.05
v 0 0.45 -0.1
v 0.1 0.45 -0.1
v -0.05 0.45 -0.15
v 0 0.45 -0.15
v -0.05 0.5 0.15
v 0 0.5 0.15
v -0.1 0.5 0.05
v -0.05 0.5 0.05
v 0 0.5 0.05
v 0.05 0.5 0.05
v -0.1 0.5 -0
v -0.05 0.5 -0
v 0 0.5 -0
v 0.05 0.5 -0
v 0.1 0.55 0.25
v 0.15 0.55 0.25
v 0.1 0.55 0.2
v 0.15 0.55 0.2
v -0.2 0.55 -0
v -0.05 0.55 -0
v 0 0.55 -0
v -0.2 0.55 -0.05
v 0 0.55 -0.05
v 0.1 0.6 0.2
v 0.15 0.6 0.2
v 0.1 0.6 0.15
v 0.15 0.6 0.15
v 0.05 0.65 0.15
v 0.15 0.65 0.15
v 0 0.65 0.1
v 0.05 0.65 0.1
v 0.1 0.65 0.1
v 0.15 0.65 0.1
v -0.05 0.65 0.05
v 0 0.65 0.05
v 0.05 0.65 0.05
v 0.1 0.65 0.05
v -0.05 0.65 -0
v 0 0.65 -0
v 0.05 0.65 -0
v 0 0.7 -0.05
v 0.05 0.7 -0.05
v 0.05 0.7 -0.15
v 0.15 0.7 -0.15
v 0 0.7 -0.2
v 0.1 0.7 -0.2
v 0.1 0.7 -0.25
v 0.15 0.7 -0.25
v 0 0.8 -0
v 0.1 0.8 -0
v 0 0.8 -0.05
v 0.1 0.8 -0.05

# faces
f 3/3/1 2/3/1 1/3/1
f 4/3/1 2/3/1 3/3/1
f 7/1/1 6/1/1 5/1/1
f 8/1/1 6/1/1 7/1/1
f 11/3/1 10/3/1 9/3/1
f 12/3/1 10/3/1 11/3/1
f 17/3/1 16/3/1 15/3/1
f 18/3/1 16/3/1 17/3/1
f 23/3/1 20/3/1 19/3/1
f 24/3/1 14/3/1 13/3/1
f 25/3/1 14/3/1 24/3/1
f 26/3/1 22/3/1 21/3/1
f 27/3/1 22/3/1 26/3/1
f 28/3/1 23/3/1 19/3/1
f 28/3/1 24/3/1 23/3/1
f 29/3/1 24/3/1 28/3/1
f 31/3/1 30/3/1 29/3/1
f 32/3/1 31/3/1 29/3/1
f 33/3/1 31/3/1 32/3/1
f 36/3/1 35/3/1 34/3/1
f 37/3/1 36/3/1 34/3/1
f 38/3/1 36/3/1 37/3/1
f 39/3/1 37/3/1 34/3/1
f 40/3/1 39/3/1 34/3/1
f 41/3/1 39/3/1 40/3/1
f 48/3/1 45/3/1 44/3/1
f 49/3/1 45/3/1 48/3/1
f 50/3/1 43/3/1 42/3/1
f 51/3/1 43/3/1 50/3/1
f 52/3/1 47/3/1 46/3/1
f 53/3/1 51/3/1 50/3/1
f 53/3/1 52/3/1 51/3/1
f 54/3/1 47/3/1 52/3/1
f 54/3/1 52/3/1 53/3/1
f 55/3/1 53/3/1 50/3/1
f 56/3/1 53/3/1 55/3/1
f 60/3/1 58/3/1 57/3/1
f 61/3/1 60/3/1 59/3/1
f 62/3/1 58/3/1 60/3/1
f 62/3/1 60/3/1 61/3/1
f 65/3/1 58/3/1 62/3/1
f 66/3/1 58/3/1 65/3/1
f 67/3/1 64/3/1 63/3/1
f 68/3/1 64/3/1 67/3/1
f 71/3/1 70/3/1 69/3/1
f 72/3/1 70/3/1 71/3/1
f 75/3/1 74/3/1 73/3/1
f 76/3/1 74/3/1 75/3/1
f 79/3/1 78/3/1 77/3/1
f 80/3/1 78/3/1 79/3/1
f 82/3/1 81/3/1 80/3/1
f 83/3/1 81/3/1 82/3/1
f 86/3/1 85/3/1 84/3/1
f 87/3/1 85/3/1 86/3/1
f 88/3/1 85/3/1 87/3/1
f 89/3/2 90/3/2 91/3/2
f 91/3/2 90/3/2 92/3/2
f 95/3/2 96/3/2 97/3/2
f 97/3/2 96/3/2 98/3/2
f 99/3/2 100/3/2 103/3/2
f 93/3/2 94/3/2 104/3/2
f 104/3/2 94/3/2 105/3/2
f 101/3/2 102/3/2 106/3/2
f 106/3/2 102/3/2 107/3/2
f 99/3/2 103/3/2 108/3/2
f 103/3/2 104/3/2 108/3/2
f 108/3/2 104/3/2 109/3/2
f 109/3/2 110/3/2 111/3/2
f 111/3/2 110/3/2 112/3/2
f 113/3/2 114/3/2 116/3/2
f 114/3/2 115/3/2 116/3/2
f 116/3/2 115/3/2 117/3/2
f 117/3/2 115/3/2 119/3/2
f 118/3/2 119/3/2 122/3/2
f 119/3/2 115/3/2 123/3/2
f 122/3/2 119/3/2 123/3/2
f 123/3/2 115/3/2 124/3/2
f 120/3/2 121/3/2 125/3/2
f 125/3/2 121/3/2 126/3/2
f 123/3/2 124/3/2 127/3/2
f 124/3/2 125/3/2 127/3/2
f 127/3/2 125/3/2 128/3/2
f 128/3/2 125/3/2 129/3/2
f 130/3/2 131/3/2 136/3/2
f 136/3/2 131/3/2 137/3/2
f 132/3/2 133/3/2 138/3/2
f 134/3/2 135/3/2 139/3/2
f 139/3/2 135/3/2 140/3/2
f 137/3/2 138/3/2 141/3/2
f 136/3/2 137/3/2 141/3/2
f 138/3/2 133/3/2 142/3/2
f 141/3/2 138/3/2 142/3/2
f 143/3/2 144/3/2 145/3/2
f 142/3/2 143/3/2 145/3/2
f 141/3/2 142/3/2 145/3/2
f 145/3/2 144/3/2 146/3/2
f 146/3/2 144/3/2 147/3/2
f 147/3/2 144/3/2 148/3/2
f 146/3/2 147/3/2 149/3/2
f 149/3/2 147/3/2 150/3/2
f 151/3/2 152/3/2 153/3/2
f 153/3/2 152/3/2 154/3/2
f 155/3/2 156/3/2 157/3/2
f 157/3/2 156/3/2 158/3/2
f 159/3/2 160/3/2 165/3/2
f 165/3/2 160/3/2 166/3/2
f 161/3/2 162/3/2 167/3/2
f 167/3/2 162/3/2 168/3/2
f 163/3/2 164/3/2 169/3/2
f 169/3/2 164/3/2 170/3/2
f 171/3/2 172/3/2 173/3/2
f 173/3/2 172/3/2 174/3/2
f 174/3/2 175/3/2 176/3/2
f 176/3/2 175/3/2 177/3/2
f 177/3/2 178/3/2 181/3/2
f 181/3/2 178/3/2 182/3/2
f 179/3/2 180/3/2 184/3/2
f 183/3/2 184/3/2 185/3/2
f 184/3/2 180/3/2 186/3/2
f 185/3/2 184/3/2 186/3/2
f 187/1/2 188/1/2 189/1/2
f 189/1/2 188/1/2 190/1/2
f 191/3/2 192/3/2 193/3/2
f 193/3/2 192/3/2 194/3/2
f 197/3/3 196/3/3 195/3/3
f 198/3/3 196/3/3 197/3/3
f 201/3/3 200/3/3 199/3/3
f 202/3/3 200/3/3 201/3/3
f 205/3/3 204/3/3 203/3/3
f 206/3/3 204/3/3 205/3/3
f 211/3/3 208/3/3 207/3/3
f 212/3/3 208/3/3 211/3/3
f 213/3/3 210/3/3 209/3/3
f 214/3/3 210/3/3 213/3/3
f 215/3/3 210/3/3 214/3/3
f 220/3/3 219/3/3 218/3/3
f 221/3/3 219/3/3 220/3/3
f 224/3/3 223/3/3 222/3/3
f 225/3/3 223/3/3 224/3/3
f 226/1/3 217/1/3 216/1/3
f 227/1/3 217/1/3 226/1/3
f 231/3/3 229/3/3 228/3/3
f 232/3/3 229/3/3 231/3/3
f 234/3/3 231/3/3 230/3/3
f 235/3/3 231/3/3 234/3/3
f 236/3/3 233/3/3 232/3/3
f 237/3/3 233/3/3 236/3/3
f 238/3/3 233/3/3 237/3/3
f 243/3/3 236/3/3 235/3/3
f 244/3/3 236/3/3 243/3/3
f 245/3/3 240/3/3 239/3/3
f 246/3/3 240/3/3 245/3/3
f 247/3/3 242/3/3 241/3/3
f 248/3/3 242/3/3 247/3/3
f 251/3/3 250/3/3 249/3/3
f 252/3/3 250/3/3 251/3/3
f 253/3/3 250/3/3 252/3/3
f 254/3/3 250/3/3 253/3/3
f 255/3/3 250/3/3 254/3/3
f 262/3/3 257/3/3 256/3/3
f 263/3/3 257/3/3 262/3/3
f 264/3/3 257/3/3 263/3/3
f 265/3/3 259/3/3 258/3/3
f 266/3/3 259/3/3 265/3/3
f 267/3/3 261/3/3 260/3/3
f 268/3/3 261/3/3 267/3/3
f 271/3/3 264/3/3 263/3/3
f 272/3/3 264/3/3 271/3/3
f 273/3/3 261/3/3 268/3/3
f 274/3/3 261/3/3 273/3/3
f 275/3/3 270/3/3 269/3/3
f 276/3/3 270/3/3 275/3/3
f 279/3/3 278/3/3 277/3/3
f 280/3/3 278/3/3 279/3/3
f 283/3/3 282/3/3 281/3/3
f 284/3/3 282/3/3 283/3/3
f 287/3/3 286/3/3 285/3/3
f 288/3/3 286/3/3 287/3/3
f 289/3/3 286/3/3 288/3/3
f 290/3/3 286/3/3 289/3/3
f 293/3/3 292/3/3 291/3/3
f 294/3/3 292/3/3 293/3/3
f 296/3/3 295/3/3 294/3/3
f 297/3/3 295/3/3 296/3/3
f 300/3/3 299/3/3 298/3/3
f 301/3/3 299/3/3 300/3/3
f 302/3/4 303/3/4 304/3/4
f 304/3/4 303/3/4 305/3/4
f 306/3/4 307/3/4 308/3/4
f 308/3/4 307/3/4 309/3/4
f 310/3/4 311/3/4 312/3/4
f 312/3/4 311/3/4 313/3/4
f 314/3/4 315/3/4 316/3/4
f 316/3/4 315/3/4 317/3/4
f 318/3/4 319/3/4 322/3/4
f 322/3/4 319/3/4 323/3/4
f 320/3/4 321/3/4 324/3/4
f 324/3/4 321/3/4 325/3/4
f 326/3/4 327/3/4 329/3/4
f 328/3/4 329/3/4 332/3/4
f 329/3/4 327/3/4 333/3/4
f 332/3/4 329/3/4 333/3/4
f 330/3/4 331/3/4 334/3/4
f 334/3/4 331/3/4 335/3/4
f 336/3/4 337/3/4 338/3/4
f 338/3/4 337/3/4 339/3/4
f 339/3/4 337/3/4 341/3/4
f 341/3/4 337/3/4 342/3/4
f 340/3/4 341/3/4 346/3/4
f 341/3/4 342/3/4 346/3/4
f 342/3/4 343/3/4 346/3/4
f 346/3/4 343/3/4 347/3/4
f 344/3/4 345/3/4 348/3/4
f 348/3/4 345/3/4 351/3/4
f 351/3/4 345/3/4 352/3/4
f 349/3/4 350/3/4 353/3/4
f 353/3/4 350/3/4 354/3/4
f 355/3/4 356/3/4 359/3/4
f 357/3/4 358/3/4 359/3/4
f 356/3/4 357/3/4 359/3/4
f 359/3/4 358/3/4 360/3/4
f 355/3/4 359/3/4 361/3/4
f 361/3/4 359/3/4 362/3/4
f 360/3/4 358/3/4 363/3/4
f 363/3/4 358/3/4 364/3/4
f 365/3/4 366/3/4 369/3/4
f 369/3/4 366/3/4 370/3/4
f 367/3/4 368/3/4 371/3/4
f 371/3/4 368/3/4 372/3/4
f 373/3/4 374/3/4 375/3/4
f 375/3/4 374/3/4 376/3/4
f 376/3/4 374/3/4 377/3/4
f 377/3/4 374/3/4 378/3/4
f 381/3/4 382/3/4 385/3/4
f 385/3/4 382/3/4 386/3/4
f 383/3/4 384/3/4 387/3/4
f 387/3/4 384/3/4 388/3/4
f 386/3/4 382/3/4 389/3/4
f 389/3/4 382/3/4 390/3/4
f 379/1/4 380/1/4 391/1/4
f 391/1/4 380/1/4 392/1/4
f 393/3/4 394/3/4 395/3/4
f 395/3/4 394/3/4 396/3/4
f 399/1/5 398/1/5 397/1/5
f 400/1/5 398/1/5 399/1/5
f 403/3/5 402/3/5 401/3/5
f 405/3/5 403/3/5 401/3/5
f 405/3/5 404/3/5 403/3/5
f 406/3/5 404/3/5 405/3/5
f 407/3/5 404/3/5 406/3/5
f 410/3/5 409/3/5 408/3/5
f 411/3/5 409/3/5 410/3/5
f 414/3/5 413/3/5 412/3/5
f 415/3/5 414/3/5 412/3/5
f 416/3/5 414/3/5 415/3/5
f 419/3/5 418/3/5 417/3/5
f 420/3/5 418/3/5 419/3/5
f 423/3/5 422/3/5 421/3/5
f 424/3/5 423/3/5 421/3/5
f 425/3/5 423/3/5 424/3/5
f 429/3/5 427/3/5 426/3/5
f 430/3/5 427/3/5 429/3/5
f 434/3/5 429/3/5 428/3/5
f 435/3/5 429/3/5 434/3/5
f 436/3/5 431/3/5 430/3/5
f 437/3/5 431/3/5 436/3/5
f 438/3/5 433/3/5 432/3/5
f 439/3/5 433/3/5 438/3/5
f 442/3/5 441/3/5 440/3/5
f 443/3/5 441/3/5 442/3/5
f 447/3/5 445/3/5 444/3/5
f 447/3/5 446/3/5 445/3/5
f 448/3/5 446/3/5 447/3/5
f 451/3/5 450/3/5 449/3/5
f 452/3/5 450/3/5 451/3/5
f 457/3/5 454/3/5 453/3/5
f 457/3/5 455/3/5 454/3/5
f 458/3/5 455/3/5 457/3/5
f 459/3/5 455/3/5 458/3/5
f 460/3/5 457/3/5 456/3/5
f 460/3/5 458/3/5 457/3/5
f 461/3/5 458/3/5 460/3/5
f 462/3/5 458/3/5 461/3/5
f 463/3/5 461/3/5 460/3/5
f 464/3/5 461/3/5 463/3/5
f 467/3/5 466/3/5 465/3/5
f 468/3/5 466/3/5 467/3/5
f 471/3/5 470/3/5 469/3/5
f 472/3/5 470/3/5 471/3/5
f 475/3/5 474/3/5 473/3/5
f 476/3/5 474/3/5 475/3/5
f 478/3/5 477/3/5 476/3/5
f 479/3/5 477/3/5 478/3/5
f 480/3/5 477/3/5 479/3/5
f 483/3/5 482/3/5 481/3/5
f 484/3/5 482/3/5 483/3/5
f 485/1/6 486/1/6 487/1/6
f 487/1/6 486/1/6 488/1/6
f 488/1/6 486/1/6 489/1/6
f 489/1/6 486/1/6 490/1/6
f 490/1/6 486/1/6 491/1/6
f 491/1/6 486/1/6 492/1/6
f 487/2/6 488/2/6 493/2/6
f 489/2/6 490/2/6 494/2/6
f 494/2/6 490/2/6 495/2/6
f 491/2/6 492/2/6 496/2/6
f 492/1/6 486/1/6 497/1/6
f 496/2/6 492/2/6 497/2/6
f 497/1/6 486/1/6 499/1/6
f 493/2/6 494/2/6 500/2/6
f 487/2/6 493/2/6 500/2/6
f 500/2/6 494/2/6 501/2/6
f 498/2/6 499/2/6 502/2/6
f 499/1/6 486/1/6 503/1/6
f 502/2/6 499/2/6 503/2/6
f 485/1/6 487/1/6 504/1/6
f 487/2/6 500/2/6 504/2/6
f 504/2/6 500/2/6 505/2/6
f 501/2/6 502/2/6 506/2/6
f 506/2/6 502/2/6 507/2/6
f 503/1/6 486/1/6 508/1/6
f 506/1/6 507/1/6 509/1/6
f 507/1/6 508/1/6 509/1/6
f 504/1/6 505/1/6 509/1/6
f 485/1/6 504/1/6 509/1/6
f 505/1/6 506/1/6 509/1/6
f 508/1/6 486/1/6 510/1/6
f 509/1/6 508/1/6 510/1/6
f 511/3/6 512/3/6 513/3/6
f 513/3/6 512/3/6 514/3/6
f 515/3/6 516/3/6 517/3/6
f 517/3/6 516/3/6 518/3/6
f 519/3/6 520/3/6 521/3/6
f 519/3/6 521/3/6 523/3/6
f 521/3/6 522/3/6 523/3/6
f 523/3/6 522/3/6 524/3/6
f 524/3/6 522/3/6 525/3/6
f 526/3/6 527/3/6 528/3/6
f 528/3/6 527/3/6 529/3/6
f 530/3/6 531/3/6 532/3/6
f 532/3/6 531/3/6 533/3/6
f 534/3/6 535/3/6 536/3/6
f 536/3/6 535/3/6 537/3/6
f 538/3/6 539/3/6 542/3/6
f 540/3/6 541/3/6 543/3/6
f 541/3/6 542/3/6 543/3/6
f 542/3/6 539/3/6 544/3/6
f 543/3/6 542/3/6 544/3/6
f 540/3/6 543/3/6 545/3/6
f 545/3/6 543/3/6 546/3/6
f 547/3/6 548/3/6 550/3/6
f 550/3/6 548/3/6 551/3/6
f 549/3/6 550/3/6 553/3/6
f 553/3/6 550/3/6 554/3/6
f 551/3/6 552/3/6 555/3/6
f 555/3/6 552/3/6 556/3/6
f 557/3/6 558/3/6 559/3/6
f 559/3/6 558/3/6 560/3/6
f 561/3/6 562/3/6 564/3/6
f 562/3/6 563/3/6 564/3/6
f 564/3/6 563/3/6 565/3/6
f 566/3/6 567/3/6 568/3/6
f 568/3/6 567/3/6 569/3/6
f 570/3/6 571/3/6 573/3/6
f 573/3/6 571/3/6 574/3/6
f 574/3/6 571/3/6 575/3/6
f 572/3/6 573/3/6 577/3/6
f 573/3/6 574/3/6 577/3/6
f 577/3/6 574/3/6 578/3/6
f 578/3/6 574/3/6 579/3/6
f 576/3/6 577/3/6 580/3/6
f 577/3/6 578/3/6 580/3/6
f 580/3/6 578/3/6 581/3/6
f 581/3/6 578/3/6 582/3/6
f 583/3/6 584/3/6 585/3/6
f 583/3/6 585/3/6 587/3/6
f 585/3/6 586/3/6 587/3/6
f 587/3/6 586/3/6 588/3/6
f 588/3/6 586/3/6 589/3/6
f 589/3/6 586/3/6 590/3/6
f 591/3/6 592/3/6 593/3/6
f 593/3/6 592/3/6 594/3/6
