# MagicaVoxel @ ephtracy

# material
mtllib plant1.mtl
usemtl palette

# normals
vn -1 0 0
vn 1 0 0
vn 0 0 1
vn 0 0 -1
vn 0 -1 0
vn 0 1 0

# texcoords
vt 0.392578 0.5
vt 0.837891 0.5
vt 0.884766 0.5

# verts
v -0.175 0 0.15
v -0.175 0 -0.15
v -0.175 0.25 0.15
v -0.175 0.25 -0.15
v -0.075 0.25 0.1
v -0.075 0.25 0.05
v -0.075 0.3 0.1
v -0.075 0.3 0.05
v -0.075 0.4 -0
v -0.075 0.4 -0.05
v -0.075 0.45 -0
v -0.075 0.45 -0.05
v -0.025 0.25 -0
v -0.025 0.25 -0.05
v -0.025 0.4 -0
v -0.025 0.4 -0.05
v 0.075 0.25 0.05
v 0.075 0.25 -0
v 0.075 0.3 0.05
v 0.075 0.3 -0
v -0.025 0.25 0.1
v -0.025 0.25 0.05
v -0.025 0.3 0.1
v -0.025 0.3 0.05
v 0.025 0.25 -0
v 0.025 0.25 -0.05
v 0.025 0.45 -0
v 0.025 0.45 -0.05
v 0.125 0.25 0.05
v 0.125 0.25 -0
v 0.125 0.3 0.05
v 0.125 0.3 -0
v 0.175 0 0.15
v 0.175 0 -0.15
v 0.175 0.25 0.15
v 0.175 0.25 -0.15
v -0.175 0 0.15
v -0.175 0.25 0.15
v 0.175 0 0.15
v 0.175 0.25 0.15
v -0.075 0.25 0.1
v -0.075 0.3 0.1
v -0.025 0.25 0.1
v -0.025 0.3 0.1
v 0.075 0.25 0.05
v 0.075 0.3 0.05
v 0.125 0.25 0.05
v 0.125 0.3 0.05
v -0.075 0.4 -0
v -0.075 0.45 -0
v -0.025 0.25 -0
v -0.025 0.4 -0
v 0.025 0.25 -0
v 0.025 0.45 -0
v -0.075 0.25 0.05
v -0.075 0.3 0.05
v -0.025 0.25 0.05
v -0.025 0.3 0.05
v 0.075 0.25 -0
v 0.075 0.3 -0
v 0.125 0.25 -0
v 0.125 0.3 -0
v -0.075 0.4 -0.05
v -0.075 0.45 -0.05
v -0.025 0.25 -0.05
v -0.025 0.4 -0.05
v 0.025 0.25 -0.05
v 0.025 0.45 -0.05
v -0.175 0 -0.15
v -0.175 0.25 -0.15
v 0.175 0 -0.15
v 0.175 0.25 -0.15
v -0.175 0 0.15
v 0.175 0 0.15
v -0.175 0 -0.15
v 0.175 0 -0.15
v -0.075 0.4 -0
v -0.025 0.4 -0
v -0.075 0.4 -0.05
v -0.025 0.4 -0.05
v -0.175 0.25 0.15
v 0.175 0.25 0.15
v -0.125 0.25 0.1
v -0.075 0.25 0.1
v -0.025 0.25 0.1
v 0.125 0.25 0.1
v -0.075 0.25 0.05
v -0.025 0.25 0.05
v 0.075 0.25 0.05
v 0.125 0.25 0.05
v -0.025 0.25 -0
v 0.025 0.25 -0
v 0.075 0.25 -0
v 0.125 0.25 -0
v -0.025 0.25 -0.05
v 0.025 0.25 -0.05
v -0.125 0.25 -0.1
v 0.125 0.25 -0.1
v -0.175 0.25 -0.15
v 0.175 0.25 -0.15
v -0.075 0.3 0.1
v -0.025 0.3 0.1
v -0.075 0.3 0.05
v -0.025 0.3 0.05
v 0.075 0.3 0.05
v 0.125 0.3 0.05
v 0.075 0.3 -0
v 0.125 0.3 -0
v -0.075 0.45 -0
v 0.025 0.45 -0
v -0.075 0.45 -0.05
v 0.025 0.45 -0.05

# faces
f 3/1/1 2/1/1 1/1/1
f 4/1/1 2/1/1 3/1/1
f 7/3/1 6/3/1 5/3/1
f 8/3/1 6/3/1 7/3/1
f 11/3/1 10/3/1 9/3/1
f 12/3/1 10/3/1 11/3/1
f 15/3/1 14/3/1 13/3/1
f 16/3/1 14/3/1 15/3/1
f 19/3/1 18/3/1 17/3/1
f 20/3/1 18/3/1 19/3/1
f 21/3/2 22/3/2 23/3/2
f 23/3/2 22/3/2 24/3/2
f 25/3/2 26/3/2 27/3/2
f 27/3/2 26/3/2 28/3/2
f 29/3/2 30/3/2 31/3/2
f 31/3/2 30/3/2 32/3/2
f 33/1/2 34/1/2 35/1/2
f 35/1/2 34/1/2 36/1/2
f 39/1/3 38/1/3 37/1/3
f 40/1/3 38/1/3 39/1/3
f 43/3/3 42/3/3 41/3/3
f 44/3/3 42/3/3 43/3/3
f 47/3/3 46/3/3 45/3/3
f 48/3/3 46/3/3 47/3/3
f 52/3/3 50/3/3 49/3/3
f 53/3/3 52/3/3 51/3/3
f 54/3/3 50/3/3 52/3/3
f 54/3/3 52/3/3 53/3/3
f 55/3/4 56/3/4 57/3/4
f 57/3/4 56/3/4 58/3/4
f 59/3/4 60/3/4 61/3/4
f 61/3/4 60/3/4 62/3/4
f 63/3/4 64/3/4 66/3/4
f 65/3/4 66/3/4 67/3/4
f 66/3/4 64/3/4 68/3/4
f 67/3/4 66/3/4 68/3/4
f 69/1/4 70/1/4 71/1/4
f 71/1/4 70/1/4 72/1/4
f 75/1/5 74/1/5 73/1/5
f 76/1/5 74/1/5 75/1/5
f 79/3/5 78/3/5 77/3/5
f 80/3/5 78/3/5 79/3/5
f 81/1/6 82/1/6 83/1/6
f 83/1/6 82/1/6 84/1/6
f 84/1/6 82/1/6 85/1/6
f 85/1/6 82/1/6 86/1/6
f 83/2/6 84/2/6 87/2/6
f 85/2/6 86/2/6 88/2/6
f 88/2/6 86/2/6 89/2/6
f 86/1/6 82/1/6 90/1/6
f 89/2/6 86/2/6 90/2/6
f 88/2/6 89/2/6 91/2/6
f 87/2/6 88/2/6 91/2/6
f 91/2/6 89/2/6 92/2/6
f 92/2/6 89/2/6 93/2/6
f 90/1/6 82/1/6 94/1/6
f 87/2/6 91/2/6 95/2/6
f 92/2/6 93/2/6 96/2/6
f 93/2/6 94/2/6 96/2/6
f 81/1/6 83/1/6 97/1/6
f 95/2/6 96/2/6 97/2/6
f 87/2/6 95/2/6 97/2/6
f 83/2/6 87/2/6 97/2/6
f 96/2/6 94/2/6 98/2/6
f 97/2/6 96/2/6 98/2/6
f 94/1/6 82/1/6 98/1/6
f 81/1/6 97/1/6 99/1/6
f 97/1/6 98/1/6 99/1/6
f 98/1/6 82/1/6 100/1/6
f 99/1/6 98/1/6 100/1/6
f 101/3/6 102/3/6 103/3/6
f 103/3/6 102/3/6 104/3/6
f 105/3/6 106/3/6 107/3/6
f 107/3/6 106/3/6 108/3/6
f 109/3/6 110/3/6 111/3/6
f 111/3/6 110/3/6 112/3/6
