# MagicaVoxel @ ephtracy

# material
mtllib computer.mtl
usemtl palette

# normals
vn -1 0 0
vn 1 0 0
vn 0 0 1
vn 0 0 -1
vn 0 -1 0
vn 0 1 0

# texcoords
vt 0.841797 0.5
vt 0.958984 0.5
vt 0.978516 0.5
vt 0.982422 0.5
vt 0.986328 0.5
vt 0.990234 0.5
vt 0.994141 0.5

# verts
v -0.175 0 0.4
v -0.175 0 -0.35
v -0.175 0 -0.4
v -0.175 0.8 0.4
v -0.175 0.8 -0.35
v -0.175 0.8 -0.4
v 0.025 0 -0.1
v 0.025 0 -0.25
v 0.025 0.05 -0.1
v 0.025 0.05 -0.25
v -0.075 0 -0.1
v -0.075 0 -0.25
v -0.075 0.05 -0.1
v -0.075 0.05 -0.25
v 0.175 0 0.4
v 0.175 0 -0.35
v 0.175 0 -0.4
v 0.175 0.15 0.35
v 0.175 0.15 -0.25
v 0.175 0.2 0.3
v 0.175 0.2 -0.2
v 0.175 0.35 0.25
v 0.175 0.35 -0.15
v 0.175 0.4 0.25
v 0.175 0.4 -0.15
v 0.175 0.45 0.25
v 0.175 0.45 0.05
v 0.175 0.5 0.25
v 0.175 0.5 0.05
v 0.175 0.55 0.15
v 0.175 0.55 -0.15
v 0.175 0.6 0.15
v 0.175 0.6 -0.15
v 0.175 0.7 0.3
v 0.175 0.7 -0.2
v 0.175 0.75 0.35
v 0.175 0.75 -0.25
v 0.175 0.8 0.4
v 0.175 0.8 -0.35
v 0.175 0.8 -0.4
v -0.175 0 0.4
v -0.175 0.8 0.4
v 0.175 0 0.4
v 0.175 0.8 0.4
v -0.075 0 -0.25
v -0.075 0.05 -0.25
v 0.025 0 -0.25
v 0.025 0.05 -0.25
v -0.075 0 -0.1
v -0.075 0.05 -0.1
v 0.025 0 -0.1
v 0.025 0.05 -0.1
v -0.175 0 -0.4
v -0.175 0.8 -0.4
v -0.125 0.05 -0.4
v -0.125 0.1 -0.4
v -0.125 0.35 -0.4
v -0.125 0.4 -0.4
v -0.125 0.6 -0.4
v -0.125 0.65 -0.4
v -0.125 0.7 -0.4
v -0.125 0.75 -0.4
v -0.075 0.05 -0.4
v -0.075 0.1 -0.4
v -0.075 0.15 -0.4
v -0.075 0.3 -0.4
v -0.075 0.35 -0.4
v -0.075 0.4 -0.4
v -0.075 0.6 -0.4
v -0.075 0.65 -0.4
v -0.025 0.2 -0.4
v -0.025 0.25 -0.4
v 0.025 0.2 -0.4
v 0.025 0.25 -0.4
v 0.075 0.05 -0.4
v 0.075 0.1 -0.4
v 0.075 0.15 -0.4
v 0.075 0.3 -0.4
v 0.075 0.35 -0.4
v 0.075 0.4 -0.4
v 0.125 0.05 -0.4
v 0.125 0.1 -0.4
v 0.125 0.35 -0.4
v 0.125 0.4 -0.4
v 0.125 0.65 -0.4
v 0.125 0.7 -0.4
v 0.125 0.75 -0.4
v 0.175 0 -0.4
v 0.175 0.8 -0.4
v -0.175 0 0.4
v 0.175 0 0.4
v -0.125 0 0.35
v 0.125 0 0.35
v -0.125 0 0.1
v 0.125 0 0.1
v -0.125 0 0.05
v -0.025 0 0.05
v 0.025 0 0.05
v 0.075 0 0.05
v -0.125 0 -0.05
v -0.025 0 -0.05
v 0.025 0 -0.05
v 0.075 0 -0.05
v -0.125 0 -0.1
v -0.075 0 -0.1
v 0.025 0 -0.1
v 0.125 0 -0.1
v -0.075 0 -0.25
v 0.025 0 -0.25
v -0.175 0 -0.35
v -0.125 0 -0.35
v 0.125 0 -0.35
v 0.175 0 -0.35
v -0.175 0 -0.4
v 0.175 0 -0.4
v -0.075 0.05 -0.1
v 0.025 0.05 -0.1
v -0.075 0.05 -0.25
v 0.025 0.05 -0.25
v -0.175 0.8 0.4
v 0.175 0.8 0.4
v -0.125 0.8 -0
v 0.125 0.8 -0
v -0.125 0.8 -0.3
v 0.125 0.8 -0.3
v -0.175 0.8 -0.35
v 0.175 0.8 -0.35
v -0.175 0.8 -0.4
v 0.175 0.8 -0.4

# faces
f 4/6/1 2/6/1 1/6/1
f 5/4/1 3/4/1 2/4/1
f 5/6/1 2/6/1 4/6/1
f 6/4/1 3/4/1 5/4/1
f 9/4/1 8/4/1 7/4/1
f 10/4/1 8/4/1 9/4/1
f 11/4/2 12/4/2 13/4/2
f 13/4/2 12/4/2 14/4/2
f 15/6/2 16/6/2 18/6/2
f 18/6/2 16/6/2 19/6/2
f 18/4/2 19/4/2 20/4/2
f 20/4/2 19/4/2 21/4/2
f 20/1/2 21/1/2 22/1/2
f 22/1/2 21/1/2 23/1/2
f 20/1/2 22/1/2 24/1/2
f 22/7/2 23/7/2 24/7/2
f 23/1/2 21/1/2 25/1/2
f 24/7/2 23/7/2 25/7/2
f 20/1/2 24/1/2 26/1/2
f 24/1/2 25/1/2 26/1/2
f 26/1/2 25/1/2 27/1/2
f 20/1/2 26/1/2 28/1/2
f 26/7/2 27/7/2 28/7/2
f 27/1/2 25/1/2 29/1/2
f 28/7/2 27/7/2 29/7/2
f 28/1/2 29/1/2 30/1/2
f 25/1/2 21/1/2 31/1/2
f 30/1/2 29/1/2 31/1/2
f 29/1/2 25/1/2 31/1/2
f 28/1/2 30/1/2 32/1/2
f 30/7/2 31/7/2 32/7/2
f 31/1/2 21/1/2 33/1/2
f 32/7/2 31/7/2 33/7/2
f 18/4/2 20/4/2 34/4/2
f 28/1/2 32/1/2 34/1/2
f 32/1/2 33/1/2 34/1/2
f 20/1/2 28/1/2 34/1/2
f 33/1/2 21/1/2 35/1/2
f 34/1/2 33/1/2 35/1/2
f 21/4/2 19/4/2 35/4/2
f 15/6/2 18/6/2 36/6/2
f 18/4/2 34/4/2 36/4/2
f 34/4/2 35/4/2 36/4/2
f 35/4/2 19/4/2 37/4/2
f 36/4/2 35/4/2 37/4/2
f 19/6/2 16/6/2 37/6/2
f 15/6/2 36/6/2 38/6/2
f 36/6/2 37/6/2 38/6/2
f 16/4/2 17/4/2 39/4/2
f 38/6/2 37/6/2 39/6/2
f 37/6/2 16/6/2 39/6/2
f 39/4/2 17/4/2 40/4/2
f 43/6/3 42/6/3 41/6/3
f 44/6/3 42/6/3 43/6/3
f 47/4/3 46/4/3 45/4/3
f 48/4/3 46/4/3 47/4/3
f 49/5/4 50/5/4 51/5/4
f 51/5/4 50/5/4 52/5/4
f 53/4/4 54/4/4 55/4/4
f 55/4/4 54/4/4 56/4/4
f 56/4/4 54/4/4 57/4/4
f 57/4/4 54/4/4 58/4/4
f 58/4/4 54/4/4 59/4/4
f 59/4/4 54/4/4 60/4/4
f 60/4/4 54/4/4 61/4/4
f 61/4/4 54/4/4 62/4/4
f 53/4/4 55/4/4 63/4/4
f 55/2/4 56/2/4 63/2/4
f 56/6/4 57/6/4 64/6/4
f 63/2/4 56/2/4 64/2/4
f 64/6/4 57/6/4 65/6/4
f 65/6/4 57/6/4 66/6/4
f 57/2/4 58/2/4 67/2/4
f 66/6/4 57/6/4 67/6/4
f 58/4/4 59/4/4 68/4/4
f 67/2/4 58/2/4 68/2/4
f 59/1/4 60/1/4 69/1/4
f 68/4/4 59/4/4 69/4/4
f 60/6/4 61/6/4 70/6/4
f 69/1/4 60/1/4 70/1/4
f 65/1/4 66/1/4 71/1/4
f 71/1/4 66/1/4 72/1/4
f 65/1/4 71/1/4 73/1/4
f 71/6/4 72/6/4 73/6/4
f 72/1/4 66/1/4 74/1/4
f 73/6/4 72/6/4 74/6/4
f 53/4/4 63/4/4 75/4/4
f 63/4/4 64/4/4 75/4/4
f 64/6/4 65/6/4 76/6/4
f 75/4/4 64/4/4 76/4/4
f 73/1/4 74/1/4 77/1/4
f 76/6/4 65/6/4 77/6/4
f 65/1/4 73/1/4 77/1/4
f 74/1/4 66/1/4 78/1/4
f 77/1/4 74/1/4 78/1/4
f 66/6/4 67/6/4 78/6/4
f 69/4/4 70/4/4 79/4/4
f 78/6/4 67/6/4 79/6/4
f 67/4/4 68/4/4 79/4/4
f 68/4/4 69/4/4 79/4/4
f 79/4/4 70/4/4 80/4/4
f 53/4/4 75/4/4 81/4/4
f 75/2/4 76/2/4 81/2/4
f 76/6/4 77/6/4 82/6/4
f 81/2/4 76/2/4 82/2/4
f 77/6/4 78/6/4 82/6/4
f 78/6/4 79/6/4 82/6/4
f 79/2/4 80/2/4 83/2/4
f 82/6/4 79/6/4 83/6/4
f 80/4/4 70/4/4 84/4/4
f 83/2/4 80/2/4 84/2/4
f 70/6/4 61/6/4 85/6/4
f 84/4/4 70/4/4 85/4/4
f 61/2/4 62/2/4 86/2/4
f 85/6/4 61/6/4 86/6/4
f 62/4/4 54/4/4 87/4/4
f 86/2/4 62/2/4 87/2/4
f 85/4/4 86/4/4 88/4/4
f 84/4/4 85/4/4 88/4/4
f 86/4/4 87/4/4 88/4/4
f 82/4/4 83/4/4 88/4/4
f 81/4/4 82/4/4 88/4/4
f 83/4/4 84/4/4 88/4/4
f 53/4/4 81/4/4 88/4/4
f 87/4/4 54/4/4 89/4/4
f 88/4/4 87/4/4 89/4/4
f 92/6/5 91/6/5 90/6/5
f 93/6/5 91/6/5 92/6/5
f 94/6/5 92/6/5 90/6/5
f 94/4/5 93/4/5 92/4/5
f 95/6/5 91/6/5 93/6/5
f 95/4/5 93/4/5 94/4/5
f 96/6/5 94/6/5 90/6/5
f 96/5/5 95/5/5 94/5/5
f 97/5/5 95/5/5 96/5/5
f 98/5/5 95/5/5 97/5/5
f 99/5/5 95/5/5 98/5/5
f 100/6/5 96/6/5 90/6/5
f 100/3/5 97/3/5 96/3/5
f 101/5/5 98/5/5 97/5/5
f 101/3/5 97/3/5 100/3/5
f 102/3/5 99/3/5 98/3/5
f 102/5/5 98/5/5 101/5/5
f 103/5/5 95/5/5 99/5/5
f 103/3/5 99/3/5 102/3/5
f 104/5/5 102/5/5 101/5/5
f 104/5/5 101/5/5 100/5/5
f 104/5/5 103/5/5 102/5/5
f 104/6/5 100/6/5 90/6/5
f 105/5/5 103/5/5 104/5/5
f 106/5/5 103/5/5 105/5/5
f 107/6/5 91/6/5 95/6/5
f 107/5/5 103/5/5 106/5/5
f 107/5/5 95/5/5 103/5/5
f 108/4/5 105/4/5 104/4/5
f 109/4/5 107/4/5 106/4/5
f 110/6/5 104/6/5 90/6/5
f 111/4/5 108/4/5 104/4/5
f 111/6/5 104/6/5 110/6/5
f 111/4/5 109/4/5 108/4/5
f 112/6/5 91/6/5 107/6/5
f 112/4/5 109/4/5 111/4/5
f 112/4/5 107/4/5 109/4/5
f 113/6/5 91/6/5 112/6/5
f 114/4/5 111/4/5 110/4/5
f 114/4/5 112/4/5 111/4/5
f 114/4/5 113/4/5 112/4/5
f 115/4/5 113/4/5 114/4/5
f 118/4/5 117/4/5 116/4/5
f 119/4/5 117/4/5 118/4/5
f 120/6/6 121/6/6 122/6/6
f 122/6/6 121/6/6 123/6/6
f 120/6/6 122/6/6 124/6/6
f 122/5/6 123/5/6 124/5/6
f 123/6/6 121/6/6 125/6/6
f 124/5/6 123/5/6 125/5/6
f 120/6/6 124/6/6 126/6/6
f 124/6/6 125/6/6 126/6/6
f 125/6/6 121/6/6 127/6/6
f 126/6/6 125/6/6 127/6/6
f 126/4/6 127/4/6 128/4/6
f 128/4/6 127/4/6 129/4/6
