# MagicaVoxel @ ephtracy

# material
mtllib nopizza.mtl
usemtl palette

# normals
vn -1 0 0
vn 1 0 0
vn 0 0 1
vn 0 0 -1
vn 0 -1 0
vn 0 1 0

# texcoords
vt 0.0449219 0.5
vt 0.537109 0.5

# verts
v -0.25 0 0.125
v -0.25 0 0.075
v -0.25 0.05 0.125
v -0.25 0.05 0.075
v -0.15 0 0.375
v -0.15 0 0.325
v -0.15 0.05 0.375
v -0.15 0.05 0.325
v -0.05 0 -0.325
v -0.05 0 -0.375
v -0.05 0.05 -0.325
v -0.05 0.05 -0.375
v 0 0 0.175
v 0 0 0.125
v 0 0 -0.025
v 0 0 -0.075
v 0 0.05 0.175
v 0 0.05 0.125
v 0 0.05 -0.025
v 0 0.05 -0.075
v 0.1 0 -0.125
v 0.1 0 -0.175
v 0.1 0.05 -0.125
v 0.1 0.05 -0.175
v 0.2 0 0.225
v 0.2 0 0.175
v 0.2 0 0.025
v 0.2 0 -0.025
v 0.2 0.05 0.225
v 0.2 0.05 0.175
v 0.2 0.05 0.025
v 0.2 0.05 -0.025
v -0.2 0 0.125
v -0.2 0 0.075
v -0.2 0.05 0.125
v -0.2 0.05 0.075
v -0.1 0 0.375
v -0.1 0 0.325
v -0.1 0.05 0.375
v -0.1 0.05 0.325
v 0 0 -0.325
v 0 0 -0.375
v 0 0.05 -0.325
v 0 0.05 -0.375
v 0.05 0 0.175
v 0.05 0 0.125
v 0.05 0 -0.025
v 0.05 0 -0.075
v 0.05 0.05 0.175
v 0.05 0.05 0.125
v 0.05 0.05 -0.025
v 0.05 0.05 -0.075
v 0.15 0 -0.125
v 0.15 0 -0.175
v 0.15 0.05 -0.125
v 0.15 0.05 -0.175
v 0.25 0 0.225
v 0.25 0 0.175
v 0.25 0 0.025
v 0.25 0 -0.025
v 0.25 0.05 0.225
v 0.25 0.05 0.175
v 0.25 0.05 0.025
v 0.25 0.05 -0.025
v -0.15 0 0.375
v -0.15 0.05 0.375
v -0.1 0 0.375
v -0.1 0.05 0.375
v 0.2 0 0.225
v 0.2 0.05 0.225
v 0.25 0 0.225
v 0.25 0.05 0.225
v 0 0 0.175
v 0 0.05 0.175
v 0.05 0 0.175
v 0.05 0.05 0.175
v -0.25 0 0.125
v -0.25 0.05 0.125
v -0.2 0 0.125
v -0.2 0.05 0.125
v 0.2 0 0.025
v 0.2 0.05 0.025
v 0.25 0 0.025
v 0.25 0.05 0.025
v 0 0 -0.025
v 0 0.05 -0.025
v 0.05 0 -0.025
v 0.05 0.05 -0.025
v 0.1 0 -0.125
v 0.1 0.05 -0.125
v 0.15 0 -0.125
v 0.15 0.05 -0.125
v -0.05 0 -0.325
v -0.05 0.05 -0.325
v 0 0 -0.325
v 0 0.05 -0.325
v -0.15 0 0.325
v -0.15 0.05 0.325
v -0.1 0 0.325
v -0.1 0.05 0.325
v 0.2 0 0.175
v 0.2 0.05 0.175
v 0.25 0 0.175
v 0.25 0.05 0.175
v 0 0 0.125
v 0 0.05 0.125
v 0.05 0 0.125
v 0.05 0.05 0.125
v -0.25 0 0.075
v -0.25 0.05 0.075
v -0.2 0 0.075
v -0.2 0.05 0.075
v 0.2 0 -0.025
v 0.2 0.05 -0.025
v 0.25 0 -0.025
v 0.25 0.05 -0.025
v 0 0 -0.075
v 0 0.05 -0.075
v 0.05 0 -0.075
v 0.05 0.05 -0.075
v 0.1 0 -0.175
v 0.1 0.05 -0.175
v 0.15 0 -0.175
v 0.15 0.05 -0.175
v -0.05 0 -0.375
v -0.05 0.05 -0.375
v 0 0 -0.375
v 0 0.05 -0.375
v -0.15 0 0.375
v -0.1 0 0.375
v -0.15 0 0.325
v -0.1 0 0.325
v 0.2 0 0.225
v 0.25 0 0.225
v 0 0 0.175
v 0.05 0 0.175
v 0.2 0 0.175
v 0.25 0 0.175
v -0.25 0 0.125
v -0.2 0 0.125
v 0 0 0.125
v 0.05 0 0.125
v -0.25 0 0.075
v -0.2 0 0.075
v 0.2 0 0.025
v 0.25 0 0.025
v 0 0 -0.025
v 0.05 0 -0.025
v 0.2 0 -0.025
v 0.25 0 -0.025
v 0 0 -0.075
v 0.05 0 -0.075
v 0.1 0 -0.125
v 0.15 0 -0.125
v 0.1 0 -0.175
v 0.15 0 -0.175
v -0.05 0 -0.325
v 0 0 -0.325
v -0.05 0 -0.375
v 0 0 -0.375
v -0.15 0.05 0.375
v -0.1 0.05 0.375
v -0.15 0.05 0.325
v -0.1 0.05 0.325
v 0.2 0.05 0.225
v 0.25 0.05 0.225
v 0 0.05 0.175
v 0.05 0.05 0.175
v 0.2 0.05 0.175
v 0.25 0.05 0.175
v -0.25 0.05 0.125
v -0.2 0.05 0.125
v 0 0.05 0.125
v 0.05 0.05 0.125
v -0.25 0.05 0.075
v -0.2 0.05 0.075
v 0.2 0.05 0.025
v 0.25 0.05 0.025
v 0 0.05 -0.025
v 0.05 0.05 -0.025
v 0.2 0.05 -0.025
v 0.25 0.05 -0.025
v 0 0.05 -0.075
v 0.05 0.05 -0.075
v 0.1 0.05 -0.125
v 0.15 0.05 -0.125
v 0.1 0.05 -0.175
v 0.15 0.05 -0.175
v -0.05 0.05 -0.325
v 0 0.05 -0.325
v -0.05 0.05 -0.375
v 0 0.05 -0.375

# faces
f 3/2/1 2/2/1 1/2/1
f 4/2/1 2/2/1 3/2/1
f 7/2/1 6/2/1 5/2/1
f 8/2/1 6/2/1 7/2/1
f 11/2/1 10/2/1 9/2/1
f 12/2/1 10/2/1 11/2/1
f 17/2/1 14/2/1 13/2/1
f 18/2/1 14/2/1 17/2/1
f 19/1/1 16/1/1 15/1/1
f 20/1/1 16/1/1 19/1/1
f 23/2/1 22/2/1 21/2/1
f 24/2/1 22/2/1 23/2/1
f 29/2/1 26/2/1 25/2/1
f 30/2/1 26/2/1 29/2/1
f 31/2/1 28/2/1 27/2/1
f 32/2/1 28/2/1 31/2/1
f 33/2/2 34/2/2 35/2/2
f 35/2/2 34/2/2 36/2/2
f 37/2/2 38/2/2 39/2/2
f 39/2/2 38/2/2 40/2/2
f 41/2/2 42/2/2 43/2/2
f 43/2/2 42/2/2 44/2/2
f 45/2/2 46/2/2 49/2/2
f 49/2/2 46/2/2 50/2/2
f 47/1/2 48/1/2 51/1/2
f 51/1/2 48/1/2 52/1/2
f 53/2/2 54/2/2 55/2/2
f 55/2/2 54/2/2 56/2/2
f 57/2/2 58/2/2 61/2/2
f 61/2/2 58/2/2 62/2/2
f 59/2/2 60/2/2 63/2/2
f 63/2/2 60/2/2 64/2/2
f 67/2/3 66/2/3 65/2/3
f 68/2/3 66/2/3 67/2/3
f 71/2/3 70/2/3 69/2/3
f 72/2/3 70/2/3 71/2/3
f 75/2/3 74/2/3 73/2/3
f 76/2/3 74/2/3 75/2/3
f 79/2/3 78/2/3 77/2/3
f 80/2/3 78/2/3 79/2/3
f 83/2/3 82/2/3 81/2/3
f 84/2/3 82/2/3 83/2/3
f 87/1/3 86/1/3 85/1/3
f 88/1/3 86/1/3 87/1/3
f 91/2/3 90/2/3 89/2/3
f 92/2/3 90/2/3 91/2/3
f 95/2/3 94/2/3 93/2/3
f 96/2/3 94/2/3 95/2/3
f 97/2/4 98/2/4 99/2/4
f 99/2/4 98/2/4 100/2/4
f 101/2/4 102/2/4 103/2/4
f 103/2/4 102/2/4 104/2/4
f 105/2/4 106/2/4 107/2/4
f 107/2/4 106/2/4 108/2/4
f 109/2/4 110/2/4 111/2/4
f 111/2/4 110/2/4 112/2/4
f 113/2/4 114/2/4 115/2/4
f 115/2/4 114/2/4 116/2/4
f 117/1/4 118/1/4 119/1/4
f 119/1/4 118/1/4 120/1/4
f 121/2/4 122/2/4 123/2/4
f 123/2/4 122/2/4 124/2/4
f 125/2/4 126/2/4 127/2/4
f 127/2/4 126/2/4 128/2/4
f 131/2/5 130/2/5 129/2/5
f 132/2/5 130/2/5 131/2/5
f 137/2/5 134/2/5 133/2/5
f 138/2/5 134/2/5 137/2/5
f 141/2/5 136/2/5 135/2/5
f 142/2/5 136/2/5 141/2/5
f 143/2/5 140/2/5 139/2/5
f 144/2/5 140/2/5 143/2/5
f 149/2/5 146/2/5 145/2/5
f 150/2/5 146/2/5 149/2/5
f 151/1/5 148/1/5 147/1/5
f 152/1/5 148/1/5 151/1/5
f 155/2/5 154/2/5 153/2/5
f 156/2/5 154/2/5 155/2/5
f 159/2/5 158/2/5 157/2/5
f 160/2/5 158/2/5 159/2/5
f 161/2/6 162/2/6 163/2/6
f 163/2/6 162/2/6 164/2/6
f 165/2/6 166/2/6 169/2/6
f 169/2/6 166/2/6 170/2/6
f 167/2/6 168/2/6 173/2/6
f 173/2/6 168/2/6 174/2/6
f 171/2/6 172/2/6 175/2/6
f 175/2/6 172/2/6 176/2/6
f 177/2/6 178/2/6 181/2/6
f 181/2/6 178/2/6 182/2/6
f 179/1/6 180/1/6 183/1/6
f 183/1/6 180/1/6 184/1/6
f 185/2/6 186/2/6 187/2/6
f 187/2/6 186/2/6 188/2/6
f 189/2/6 190/2/6 191/2/6
f 191/2/6 190/2/6 192/2/6
