# MagicaVoxel @ ephtracy

# material
mtllib pizza0d.mtl
usemtl palette

# normals
vn -1 0 0
vn 1 0 0
vn 0 0 1
vn 0 0 -1
vn 0 -1 0
vn 0 1 0

# texcoords
vt 0.0449219 0.5
vt 0.537109 0.5
vt 0.748047 0.5
vt 0.962891 0.5

# verts
v -0.325 0 0.1
v -0.325 0 -0.05
v -0.325 0.05 0.1
v -0.325 0.05 -0.05
v -0.275 0 -0.05
v -0.275 0 -0.1
v -0.275 0.05 -0.05
v -0.275 0.05 -0.1
v -0.225 0 -0.1
v -0.225 0 -0.15
v -0.225 0.05 0.1
v -0.225 0.05 0.05
v -0.225 0.05 -0.1
v -0.225 0.05 -0.15
v -0.225 0.1 0.1
v -0.225 0.1 0.05
v -0.175 0 0.25
v -0.175 0 0.2
v -0.175 0 0.15
v -0.175 0 0.1
v -0.175 0 -0.15
v -0.175 0 -0.2
v -0.175 0.05 0.25
v -0.175 0.05 0.2
v -0.175 0.05 0.15
v -0.175 0.05 0.1
v -0.175 0.05 -0.15
v -0.175 0.05 -0.2
v -0.125 0.05 0.05
v -0.125 0.05 -0
v -0.125 0.1 0.05
v -0.125 0.1 -0
v -0.075 0 0.2
v -0.075 0 0.15
v -0.075 0 -0.2
v -0.075 0 -0.25
v -0.075 0.05 0.2
v -0.075 0.05 0.15
v -0.075 0.05 0.1
v -0.075 0.05 0.05
v -0.075 0.05 -0.2
v -0.075 0.05 -0.25
v -0.075 0.1 0.1
v -0.075 0.1 0.05
v -0.025 0 0.25
v -0.025 0 0.2
v -0.025 0.05 0.25
v -0.025 0.05 0.2
v -0.025 0.05 0.15
v -0.025 0.05 -0.05
v -0.025 0.05 -0.1
v -0.025 0.1 0.2
v -0.025 0.1 0.15
v -0.025 0.1 -0.05
v -0.025 0.1 -0.1
v 0.225 0 -0.15
v 0.225 0 -0.2
v 0.225 0.05 -0.15
v 0.225 0.05 -0.2
v 0.275 0 -0
v 0.275 0 -0.05
v 0.275 0.05 -0
v 0.275 0.05 -0.05
v -0.175 0.05 0.1
v -0.175 0.05 0.05
v -0.175 0.1 0.1
v -0.175 0.1 0.05
v -0.125 0 0.25
v -0.125 0 0.2
v -0.125 0.05 0.25
v -0.125 0.05 0.2
v -0.075 0.05 0.05
v -0.075 0.05 -0
v -0.075 0.1 0.05
v -0.075 0.1 -0
v -0.025 0.05 0.1
v -0.025 0.05 0.05
v -0.025 0.1 0.1
v -0.025 0.1 0.05
v 0.025 0 0.25
v 0.025 0 -0.15
v 0.025 0.05 0.25
v 0.025 0.05 0.2
v 0.025 0.05 0.15
v 0.025 0.05 -0.05
v 0.025 0.05 -0.1
v 0.025 0.05 -0.15
v 0.025 0.1 0.2
v 0.025 0.1 0.15
v 0.025 0.1 -0.05
v 0.025 0.1 -0.1
v 0.075 0 -0.15
v 0.075 0 -0.2
v 0.075 0 -0.25
v 0.075 0.05 -0.15
v 0.075 0.05 -0.2
v 0.075 0.05 -0.25
v 0.275 0 -0.15
v 0.275 0 -0.2
v 0.275 0.05 -0.15
v 0.275 0.05 -0.2
v 0.325 0 -0
v 0.325 0 -0.05
v 0.325 0.05 -0
v 0.325 0.05 -0.05
v -0.175 0 0.25
v -0.175 0.05 0.25
v -0.125 0 0.25
v -0.125 0.05 0.25
v -0.025 0 0.25
v -0.025 0.05 0.25
v 0.025 0 0.25
v 0.025 0.05 0.25
v -0.075 0 0.2
v -0.075 0.05 0.2
v -0.025 0 0.2
v -0.025 0.05 0.2
v -0.025 0.1 0.2
v 0.025 0.05 0.2
v 0.025 0.1 0.2
v -0.175 0 0.15
v -0.175 0.05 0.15
v -0.075 0 0.15
v -0.075 0.05 0.15
v -0.325 0 0.1
v -0.325 0.05 0.1
v -0.275 0 0.1
v -0.275 0.05 0.1
v -0.225 0.05 0.1
v -0.225 0.1 0.1
v -0.175 0 0.1
v -0.175 0.05 0.1
v -0.175 0.1 0.1
v -0.075 0.05 0.1
v -0.075 0.1 0.1
v -0.025 0.05 0.1
v -0.025 0.1 0.1
v -0.125 0.05 0.05
v -0.125 0.1 0.05
v -0.075 0.05 0.05
v -0.075 0.1 0.05
v 0.275 0 -0
v 0.275 0.05 -0
v 0.325 0 -0
v 0.325 0.05 -0
v -0.025 0.05 -0.05
v -0.025 0.1 -0.05
v 0.025 0.05 -0.05
v 0.025 0.1 -0.05
v 0.025 0 -0.15
v 0.025 0.05 -0.15
v 0.075 0 -0.15
v 0.075 0.05 -0.15
v 0.225 0 -0.15
v 0.225 0.05 -0.15
v 0.275 0 -0.15
v 0.275 0.05 -0.15
v -0.175 0 0.2
v -0.175 0.05 0.2
v -0.125 0 0.2
v -0.125 0.05 0.2
v -0.025 0.05 0.15
v -0.025 0.1 0.15
v 0.025 0.05 0.15
v 0.025 0.1 0.15
v -0.225 0.05 0.05
v -0.225 0.1 0.05
v -0.175 0.05 0.05
v -0.175 0.1 0.05
v -0.075 0.05 0.05
v -0.075 0.1 0.05
v -0.025 0.05 0.05
v -0.025 0.1 0.05
v -0.125 0.05 -0
v -0.125 0.1 -0
v -0.075 0.05 -0
v -0.075 0.1 -0
v -0.325 0 -0.05
v -0.325 0.05 -0.05
v -0.275 0 -0.05
v -0.275 0.05 -0.05
v 0.275 0 -0.05
v 0.275 0.05 -0.05
v 0.325 0 -0.05
v 0.325 0.05 -0.05
v -0.275 0 -0.1
v -0.275 0.05 -0.1
v -0.225 0 -0.1
v -0.225 0.05 -0.1
v -0.025 0.05 -0.1
v -0.025 0.1 -0.1
v 0.025 0.05 -0.1
v 0.025 0.1 -0.1
v -0.225 0 -0.15
v -0.225 0.05 -0.15
v -0.175 0 -0.15
v -0.175 0.05 -0.15
v -0.175 0 -0.2
v -0.175 0.05 -0.2
v -0.075 0 -0.2
v -0.075 0.05 -0.2
v 0.225 0 -0.2
v 0.225 0.05 -0.2
v 0.275 0 -0.2
v 0.275 0.05 -0.2
v -0.075 0 -0.25
v -0.075 0.05 -0.25
v 0.075 0 -0.25
v 0.075 0.05 -0.25
v -0.175 0 0.25
v -0.125 0 0.25
v -0.025 0 0.25
v 0.025 0 0.25
v -0.175 0 0.2
v -0.125 0 0.2
v -0.075 0 0.2
v -0.025 0 0.2
v -0.175 0 0.15
v -0.075 0 0.15
v -0.325 0 0.1
v -0.275 0 0.1
v -0.175 0 0.1
v -0.275 0 -0
v -0.225 0 -0
v 0.275 0 -0
v 0.325 0 -0
v -0.325 0 -0.05
v -0.275 0 -0.05
v 0.275 0 -0.05
v 0.325 0 -0.05
v -0.275 0 -0.1
v -0.225 0 -0.1
v -0.175 0 -0.1
v -0.225 0 -0.15
v -0.175 0 -0.15
v -0.075 0 -0.15
v 0.025 0 -0.15
v 0.075 0 -0.15
v 0.225 0 -0.15
v 0.275 0 -0.15
v -0.175 0 -0.2
v -0.075 0 -0.2
v 0.075 0 -0.2
v 0.225 0 -0.2
v 0.275 0 -0.2
v -0.075 0 -0.25
v 0.075 0 -0.25
v -0.175 0.05 0.25
v -0.125 0.05 0.25
v -0.025 0.05 0.25
v 0.025 0.05 0.25
v -0.175 0.05 0.2
v -0.125 0.05 0.2
v -0.075 0.05 0.2
v -0.025 0.05 0.2
v 0.025 0.05 0.2
v -0.175 0.05 0.15
v -0.075 0.05 0.15
v -0.025 0.05 0.15
v 0.025 0.05 0.15
v -0.325 0.05 0.1
v -0.275 0.05 0.1
v -0.225 0.05 0.1
v -0.175 0.05 0.1
v -0.075 0.05 0.1
v -0.025 0.05 0.1
v -0.225 0.05 0.05
v -0.175 0.05 0.05
v -0.125 0.05 0.05
v -0.075 0.05 0.05
v -0.025 0.05 0.05
v -0.275 0.05 -0
v -0.225 0.05 -0
v -0.125 0.05 -0
v -0.075 0.05 -0
v 0.275 0.05 -0
v 0.325 0.05 -0
v -0.325 0.05 -0.05
v -0.275 0.05 -0.05
v -0.025 0.05 -0.05
v 0.025 0.05 -0.05
v 0.275 0.05 -0.05
v 0.325 0.05 -0.05
v -0.275 0.05 -0.1
v -0.225 0.05 -0.1
v -0.175 0.05 -0.1
v -0.025 0.05 -0.1
v 0.025 0.05 -0.1
v -0.225 0.05 -0.15
v -0.175 0.05 -0.15
v -0.075 0.05 -0.15
v 0.025 0.05 -0.15
v 0.075 0.05 -0.15
v 0.225 0.05 -0.15
v 0.275 0.05 -0.15
v -0.175 0.05 -0.2
v -0.075 0.05 -0.2
v 0.075 0.05 -0.2
v 0.225 0.05 -0.2
v 0.275 0.05 -0.2
v -0.075 0.05 -0.25
v 0.075 0.05 -0.25
v -0.025 0.1 0.2
v 0.025 0.1 0.2
v -0.025 0.1 0.15
v 0.025 0.1 0.15
v -0.225 0.1 0.1
v -0.175 0.1 0.1
v -0.075 0.1 0.1
v -0.025 0.1 0.1
v -0.225 0.1 0.05
v -0.175 0.1 0.05
v -0.125 0.1 0.05
v -0.075 0.1 0.05
v -0.025 0.1 0.05
v -0.125 0.1 -0
v -0.075 0.1 -0
v -0.025 0.1 -0.05
v 0.025 0.1 -0.05
v -0.025 0.1 -0.1
v 0.025 0.1 -0.1

# faces
f 3/2/1 2/2/1 1/2/1
f 4/2/1 2/2/1 3/2/1
f 7/2/1 6/2/1 5/2/1
f 8/2/1 6/2/1 7/2/1
f 13/2/1 10/2/1 9/2/1
f 14/2/1 10/2/1 13/2/1
f 15/1/1 12/1/1 11/1/1
f 16/1/1 12/1/1 15/1/1
f 23/4/1 18/4/1 17/4/1
f 24/4/1 18/4/1 23/4/1
f 25/1/1 20/1/1 19/1/1
f 26/1/1 20/1/1 25/1/1
f 27/2/1 22/2/1 21/2/1
f 28/2/1 22/2/1 27/2/1
f 31/3/1 30/3/1 29/3/1
f 32/3/1 30/3/1 31/3/1
f 37/1/1 34/1/1 33/1/1
f 38/1/1 34/1/1 37/1/1
f 41/2/1 36/2/1 35/2/1
f 42/2/1 36/2/1 41/2/1
f 43/3/1 40/3/1 39/3/1
f 44/3/1 40/3/1 43/3/1
f 47/1/1 46/1/1 45/1/1
f 48/1/1 46/1/1 47/1/1
f 52/4/1 49/4/1 48/4/1
f 53/4/1 49/4/1 52/4/1
f 54/4/1 51/4/1 50/4/1
f 55/4/1 51/4/1 54/4/1
f 58/2/1 57/2/1 56/2/1
f 59/2/1 57/2/1 58/2/1
f 62/2/1 61/2/1 60/2/1
f 63/2/1 61/2/1 62/2/1
f 64/1/2 65/1/2 66/1/2
f 66/1/2 65/1/2 67/1/2
f 68/4/2 69/4/2 70/4/2
f 70/4/2 69/4/2 71/4/2
f 72/3/2 73/3/2 74/3/2
f 74/3/2 73/3/2 75/3/2
f 76/3/2 77/3/2 78/3/2
f 78/3/2 77/3/2 79/3/2
f 80/1/2 81/1/2 82/1/2
f 82/1/2 81/1/2 83/1/2
f 83/1/2 81/1/2 84/1/2
f 84/1/2 81/1/2 85/1/2
f 85/1/2 81/1/2 86/1/2
f 86/1/2 81/1/2 87/1/2
f 83/4/2 84/4/2 88/4/2
f 88/4/2 84/4/2 89/4/2
f 85/4/2 86/4/2 90/4/2
f 90/4/2 86/4/2 91/4/2
f 92/1/2 93/1/2 95/1/2
f 93/2/2 94/2/2 96/2/2
f 95/1/2 93/1/2 96/1/2
f 96/2/2 94/2/2 97/2/2
f 98/2/2 99/2/2 100/2/2
f 100/2/2 99/2/2 101/2/2
f 102/2/2 103/2/2 104/2/2
f 104/2/2 103/2/2 105/2/2
f 108/4/3 107/4/3 106/4/3
f 109/4/3 107/4/3 108/4/3
f 112/1/3 111/1/3 110/1/3
f 113/1/3 111/1/3 112/1/3
f 116/1/3 115/1/3 114/1/3
f 117/1/3 115/1/3 116/1/3
f 119/4/3 118/4/3 117/4/3
f 120/4/3 118/4/3 119/4/3
f 123/1/3 122/1/3 121/1/3
f 124/1/3 122/1/3 123/1/3
f 127/2/3 126/2/3 125/2/3
f 128/2/3 126/2/3 127/2/3
f 129/1/3 128/1/3 127/1/3
f 131/1/3 129/1/3 127/1/3
f 131/1/3 130/1/3 129/1/3
f 132/1/3 130/1/3 131/1/3
f 133/1/3 130/1/3 132/1/3
f 136/3/3 135/3/3 134/3/3
f 137/3/3 135/3/3 136/3/3
f 140/3/3 139/3/3 138/3/3
f 141/3/3 139/3/3 140/3/3
f 144/2/3 143/2/3 142/2/3
f 145/2/3 143/2/3 144/2/3
f 148/4/3 147/4/3 146/4/3
f 149/4/3 147/4/3 148/4/3
f 152/1/3 151/1/3 150/1/3
f 153/1/3 151/1/3 152/1/3
f 156/2/3 155/2/3 154/2/3
f 157/2/3 155/2/3 156/2/3
f 158/4/4 159/4/4 160/4/4
f 160/4/4 159/4/4 161/4/4
f 162/4/4 163/4/4 164/4/4
f 164/4/4 163/4/4 165/4/4
f 166/1/4 167/1/4 168/1/4
f 168/1/4 167/1/4 169/1/4
f 170/3/4 171/3/4 172/3/4
f 172/3/4 171/3/4 173/3/4
f 174/3/4 175/3/4 176/3/4
f 176/3/4 175/3/4 177/3/4
f 178/2/4 179/2/4 180/2/4
f 180/2/4 179/2/4 181/2/4
f 182/2/4 183/2/4 184/2/4
f 184/2/4 183/2/4 185/2/4
f 186/2/4 187/2/4 188/2/4
f 188/2/4 187/2/4 189/2/4
f 190/4/4 191/4/4 192/4/4
f 192/4/4 191/4/4 193/4/4
f 194/2/4 195/2/4 196/2/4
f 196/2/4 195/2/4 197/2/4
f 198/2/4 199/2/4 200/2/4
f 200/2/4 199/2/4 201/2/4
f 202/2/4 203/2/4 204/2/4
f 204/2/4 203/2/4 205/2/4
f 206/2/4 207/2/4 208/2/4
f 208/2/4 207/2/4 209/2/4
f 214/4/5 211/4/5 210/4/5
f 215/4/5 211/4/5 214/4/5
f 217/1/5 213/1/5 212/1/5
f 219/1/5 217/1/5 216/1/5
f 222/1/5 219/1/5 218/1/5
f 223/2/5 221/2/5 220/2/5
f 223/1/5 222/1/5 221/1/5
f 224/1/5 222/1/5 223/1/5
f 227/2/5 223/2/5 220/2/5
f 227/2/5 224/2/5 223/2/5
f 228/2/5 224/2/5 227/2/5
f 229/2/5 226/2/5 225/2/5
f 230/2/5 226/2/5 229/2/5
f 231/2/5 224/2/5 228/2/5
f 232/1/5 222/1/5 224/1/5
f 232/2/5 224/2/5 231/2/5
f 233/1/5 219/1/5 222/1/5
f 233/1/5 222/1/5 232/1/5
f 234/2/5 233/2/5 232/2/5
f 235/1/5 219/1/5 233/1/5
f 235/2/5 233/2/5 234/2/5
f 236/1/5 217/1/5 219/1/5
f 236/1/5 219/1/5 235/1/5
f 237/1/5 213/1/5 217/1/5
f 237/1/5 217/1/5 236/1/5
f 241/2/5 236/2/5 235/2/5
f 242/1/5 238/1/5 237/1/5
f 242/2/5 236/2/5 241/2/5
f 242/1/5 237/1/5 236/1/5
f 243/1/5 238/1/5 242/1/5
f 244/2/5 240/2/5 239/2/5
f 245/2/5 240/2/5 244/2/5
f 246/2/5 243/2/5 242/2/5
f 247/2/5 243/2/5 246/2/5
f 248/4/6 249/4/6 252/4/6
f 252/4/6 249/4/6 253/4/6
f 250/1/6 251/1/6 255/1/6
f 255/1/6 251/1/6 256/1/6
f 254/1/6 255/1/6 258/1/6
f 258/1/6 255/1/6 259/1/6
f 257/1/6 258/1/6 264/1/6
f 258/1/6 259/1/6 264/1/6
f 259/1/6 260/1/6 264/1/6
f 264/1/6 260/1/6 265/1/6
f 265/1/6 260/1/6 266/1/6
f 262/1/6 263/1/6 267/1/6
f 264/1/6 265/1/6 268/1/6
f 268/1/6 265/1/6 269/1/6
f 269/1/6 265/1/6 270/1/6
f 266/1/6 260/1/6 271/1/6
f 261/2/6 262/2/6 272/2/6
f 262/1/6 267/1/6 272/1/6
f 267/1/6 268/1/6 272/1/6
f 268/1/6 269/1/6 272/1/6
f 272/1/6 269/1/6 273/1/6
f 273/1/6 269/1/6 274/1/6
f 270/1/6 271/1/6 275/1/6
f 261/2/6 272/2/6 278/2/6
f 272/2/6 273/2/6 278/2/6
f 278/2/6 273/2/6 279/2/6
f 274/1/6 275/1/6 280/1/6
f 273/1/6 274/1/6 280/1/6
f 271/1/6 260/1/6 280/1/6
f 275/1/6 271/1/6 280/1/6
f 280/1/6 260/1/6 281/1/6
f 276/2/6 277/2/6 282/2/6
f 282/2/6 277/2/6 283/2/6
f 279/2/6 273/2/6 284/2/6
f 273/1/6 280/1/6 285/1/6
f 284/2/6 273/2/6 285/2/6
f 285/1/6 280/1/6 286/1/6
f 286/1/6 280/1/6 287/1/6
f 285/2/6 286/2/6 289/2/6
f 287/1/6 288/1/6 290/1/6
f 289/2/6 286/2/6 290/2/6
f 286/1/6 287/1/6 290/1/6
f 290/1/6 288/1/6 291/1/6
f 291/1/6 288/1/6 292/1/6
f 290/2/6 291/2/6 296/2/6
f 292/1/6 293/1/6 297/1/6
f 296/2/6 291/2/6 297/2/6
f 291/1/6 292/1/6 297/1/6
f 297/1/6 293/1/6 298/1/6
f 294/2/6 295/2/6 299/2/6
f 299/2/6 295/2/6 300/2/6
f 297/2/6 298/2/6 301/2/6
f 301/2/6 298/2/6 302/2/6
f 303/4/6 304/4/6 305/4/6
f 305/4/6 304/4/6 306/4/6
f 307/1/6 308/1/6 311/1/6
f 311/1/6 308/1/6 312/1/6
f 309/3/6 310/3/6 314/3/6
f 314/3/6 310/3/6 315/3/6
f 313/3/6 314/3/6 316/3/6
f 316/3/6 314/3/6 317/3/6
f 318/4/6 319/4/6 320/4/6
f 320/4/6 319/4/6 321/4/6
