# MagicaVoxel @ ephtracy

# material
mtllib pizza1d.mtl
usemtl palette

# normals
vn -1 0 0
vn 1 0 0
vn 0 0 1
vn 0 0 -1
vn 0 -1 0
vn 0 1 0

# texcoords
vt 0.0449219 0.5
vt 0.369141 0.5
vt 0.857422 0.5

# verts
v -0.35 0 0.125
v -0.35 0 -0.075
v -0.35 0.05 0.125
v -0.35 0.05 -0.075
v -0.3 0 -0.075
v -0.3 0 -0.125
v -0.3 0.05 -0.075
v -0.3 0.05 -0.125
v -0.25 0 -0.125
v -0.25 0 -0.175
v -0.25 0.05 0.125
v -0.25 0.05 0.025
v -0.25 0.05 -0.125
v -0.25 0.05 -0.175
v -0.25 0.1 0.125
v -0.25 0.1 0.025
v -0.2 0 -0.175
v -0.2 0 -0.225
v -0.2 0.05 -0.175
v -0.2 0.05 -0.225
v -0.15 0.05 -0.025
v -0.15 0.05 -0.125
v -0.15 0.1 -0.025
v -0.15 0.1 -0.125
v -0.1 0 -0.225
v -0.1 0 -0.275
v -0.1 0.05 0.125
v -0.1 0.05 0.075
v -0.1 0.05 -0.225
v -0.1 0.05 -0.275
v -0.1 0.1 0.125
v -0.1 0.1 0.075
v 0 0.05 0.125
v 0 0.05 0.025
v 0 0.1 0.125
v 0 0.1 0.025
v 0.05 0 -0.225
v 0.05 0 -0.275
v 0.05 0.05 -0.225
v 0.05 0.05 -0.275
v 0.1 0 0.275
v 0.1 0 0.225
v 0.1 0.05 0.275
v 0.1 0.05 0.225
v 0.2 0 -0.025
v 0.2 0 -0.075
v 0.2 0.05 -0.025
v 0.2 0.05 -0.075
v 0.3 0 0.125
v 0.3 0 0.075
v 0.3 0.05 0.125
v 0.3 0.05 0.075
v -0.15 0.05 0.125
v -0.15 0.05 0.025
v -0.15 0.1 0.125
v -0.15 0.1 0.025
v -0.05 0 -0.175
v -0.05 0 -0.225
v -0.05 0 -0.275
v -0.05 0.05 0.125
v -0.05 0.05 0.075
v -0.05 0.05 -0.025
v -0.05 0.05 -0.125
v -0.05 0.05 -0.175
v -0.05 0.05 -0.225
v -0.05 0.05 -0.275
v -0.05 0.1 0.125
v -0.05 0.1 0.075
v -0.05 0.1 -0.025
v -0.05 0.1 -0.125
v 0 0 -0.025
v 0 0 -0.175
v 0 0.05 -0.025
v 0 0.05 -0.175
v 0.05 0.05 0.125
v 0.05 0.05 0.025
v 0.05 0.1 0.125
v 0.05 0.1 0.025
v 0.1 0 0.025
v 0.1 0 -0.025
v 0.1 0 -0.225
v 0.1 0 -0.275
v 0.1 0.05 0.025
v 0.1 0.05 -0.025
v 0.1 0.05 -0.225
v 0.1 0.05 -0.275
v 0.15 0 0.275
v 0.15 0 0.225
v 0.15 0 0.125
v 0.15 0 0.025
v 0.15 0.05 0.275
v 0.15 0.05 0.225
v 0.15 0.05 0.125
v 0.15 0.05 0.025
v 0.25 0 -0.025
v 0.25 0 -0.075
v 0.25 0.05 -0.025
v 0.25 0.05 -0.075
v 0.35 0 0.125
v 0.35 0 0.075
v 0.35 0.05 0.125
v 0.35 0.05 0.075
v 0.1 0 0.275
v 0.1 0.05 0.275
v 0.15 0 0.275
v 0.15 0.05 0.275
v -0.35 0 0.125
v -0.35 0.05 0.125
v -0.3 0 0.125
v -0.3 0.05 0.125
v -0.25 0.05 0.125
v -0.25 0.1 0.125
v -0.15 0.05 0.125
v -0.15 0.1 0.125
v -0.1 0.05 0.125
v -0.1 0.1 0.125
v -0.05 0.05 0.125
v -0.05 0.1 0.125
v 0 0.05 0.125
v 0 0.1 0.125
v 0.05 0.05 0.125
v 0.05 0.1 0.125
v 0.15 0 0.125
v 0.15 0.05 0.125
v 0.3 0 0.125
v 0.3 0.05 0.125
v 0.35 0 0.125
v 0.35 0.05 0.125
v -0.15 0.05 -0.025
v -0.15 0.1 -0.025
v -0.05 0.05 -0.025
v -0.05 0.1 -0.025
v 0.2 0 -0.025
v 0.2 0.05 -0.025
v 0.25 0 -0.025
v 0.25 0.05 -0.025
v 0.05 0 -0.225
v 0.05 0.05 -0.225
v 0.1 0 -0.225
v 0.1 0.05 -0.225
v 0.1 0 0.225
v 0.1 0.05 0.225
v 0.15 0 0.225
v 0.15 0.05 0.225
v -0.1 0.05 0.075
v -0.1 0.1 0.075
v -0.05 0.05 0.075
v -0.05 0.1 0.075
v 0.3 0 0.075
v 0.3 0.05 0.075
v 0.35 0 0.075
v 0.35 0.05 0.075
v -0.25 0.05 0.025
v -0.25 0.1 0.025
v -0.15 0.05 0.025
v -0.15 0.1 0.025
v 0 0.05 0.025
v 0 0.1 0.025
v 0.05 0.05 0.025
v 0.05 0.1 0.025
v 0.1 0 0.025
v 0.1 0.05 0.025
v 0.15 0 0.025
v 0.15 0.05 0.025
v 0 0 -0.025
v 0 0.05 -0.025
v 0.1 0 -0.025
v 0.1 0.05 -0.025
v -0.35 0 -0.075
v -0.35 0.05 -0.075
v -0.3 0 -0.075
v -0.3 0.05 -0.075
v 0.2 0 -0.075
v 0.2 0.05 -0.075
v 0.25 0 -0.075
v 0.25 0.05 -0.075
v -0.3 0 -0.125
v -0.3 0.05 -0.125
v -0.25 0 -0.125
v -0.25 0.05 -0.125
v -0.15 0.05 -0.125
v -0.15 0.1 -0.125
v -0.05 0.05 -0.125
v -0.05 0.1 -0.125
v -0.25 0 -0.175
v -0.25 0.05 -0.175
v -0.2 0 -0.175
v -0.2 0.05 -0.175
v -0.05 0 -0.175
v -0.05 0.05 -0.175
v 0 0 -0.175
v 0 0.05 -0.175
v -0.2 0 -0.225
v -0.2 0.05 -0.225
v -0.1 0 -0.225
v -0.1 0.05 -0.225
v -0.1 0 -0.275
v -0.1 0.05 -0.275
v -0.05 0 -0.275
v -0.05 0.05 -0.275
v 0.05 0 -0.275
v 0.05 0.05 -0.275
v 0.1 0 -0.275
v 0.1 0.05 -0.275
v 0.1 0 0.275
v 0.15 0 0.275
v 0.1 0 0.225
v 0.15 0 0.225
v -0.35 0 0.125
v -0.3 0 0.125
v 0.15 0 0.125
v 0.3 0 0.125
v 0.35 0 0.125
v 0.3 0 0.075
v 0.35 0 0.075
v 0.1 0 0.025
v 0.15 0 0.025
v -0.3 0 -0.025
v -0.25 0 -0.025
v 0 0 -0.025
v 0.1 0 -0.025
v 0.2 0 -0.025
v 0.25 0 -0.025
v -0.35 0 -0.075
v -0.3 0 -0.075
v 0.2 0 -0.075
v 0.25 0 -0.075
v -0.3 0 -0.125
v -0.25 0 -0.125
v -0.2 0 -0.125
v -0.25 0 -0.175
v -0.2 0 -0.175
v -0.1 0 -0.175
v -0.05 0 -0.175
v 0 0 -0.175
v -0.2 0 -0.225
v -0.1 0 -0.225
v -0.05 0 -0.225
v 0.05 0 -0.225
v 0.1 0 -0.225
v -0.1 0 -0.275
v -0.05 0 -0.275
v 0.05 0 -0.275
v 0.1 0 -0.275
v 0.1 0.05 0.275
v 0.15 0.05 0.275
v 0.1 0.05 0.225
v 0.15 0.05 0.225
v -0.35 0.05 0.125
v -0.3 0.05 0.125
v -0.25 0.05 0.125
v -0.15 0.05 0.125
v -0.1 0.05 0.125
v -0.05 0.05 0.125
v 0 0.05 0.125
v 0.05 0.05 0.125
v 0.15 0.05 0.125
v 0.3 0.05 0.125
v 0.35 0.05 0.125
v -0.1 0.05 0.075
v -0.05 0.05 0.075
v 0.3 0.05 0.075
v 0.35 0.05 0.075
v -0.25 0.05 0.025
v -0.15 0.05 0.025
v 0 0.05 0.025
v 0.05 0.05 0.025
v 0.1 0.05 0.025
v 0.15 0.05 0.025
v -0.3 0.05 -0.025
v -0.25 0.05 -0.025
v -0.15 0.05 -0.025
v -0.05 0.05 -0.025
v 0 0.05 -0.025
v 0.1 0.05 -0.025
v 0.2 0.05 -0.025
v 0.25 0.05 -0.025
v -0.35 0.05 -0.075
v -0.3 0.05 -0.075
v 0.2 0.05 -0.075
v 0.25 0.05 -0.075
v -0.3 0.05 -0.125
v -0.25 0.05 -0.125
v -0.2 0.05 -0.125
v -0.15 0.05 -0.125
v -0.05 0.05 -0.125
v -0.25 0.05 -0.175
v -0.2 0.05 -0.175
v -0.1 0.05 -0.175
v -0.05 0.05 -0.175
v 0 0.05 -0.175
v -0.2 0.05 -0.225
v -0.1 0.05 -0.225
v -0.05 0.05 -0.225
v 0.05 0.05 -0.225
v 0.1 0.05 -0.225
v -0.1 0.05 -0.275
v -0.05 0.05 -0.275
v 0.05 0.05 -0.275
v 0.1 0.05 -0.275
v -0.25 0.1 0.125
v -0.15 0.1 0.125
v -0.1 0.1 0.125
v -0.05 0.1 0.125
v 0 0.1 0.125
v 0.05 0.1 0.125
v -0.1 0.1 0.075
v -0.05 0.1 0.075
v -0.25 0.1 0.025
v -0.15 0.1 0.025
v 0 0.1 0.025
v 0.05 0.1 0.025
v -0.15 0.1 -0.025
v -0.05 0.1 -0.025
v -0.15 0.1 -0.125
v -0.05 0.1 -0.125

# faces
f 3/2/1 2/2/1 1/2/1
f 4/2/1 2/2/1 3/2/1
f 7/2/1 6/2/1 5/2/1
f 8/2/1 6/2/1 7/2/1
f 13/2/1 10/2/1 9/2/1
f 14/2/1 10/2/1 13/2/1
f 15/3/1 12/3/1 11/3/1
f 16/3/1 12/3/1 15/3/1
f 19/2/1 18/2/1 17/2/1
f 20/2/1 18/2/1 19/2/1
f 23/3/1 22/3/1 21/3/1
f 24/3/1 22/3/1 23/3/1
f 29/2/1 26/2/1 25/2/1
f 30/2/1 26/2/1 29/2/1
f 31/3/1 28/3/1 27/3/1
f 32/3/1 28/3/1 31/3/1
f 35/3/1 34/3/1 33/3/1
f 36/3/1 34/3/1 35/3/1
f 39/2/1 38/2/1 37/2/1
f 40/2/1 38/2/1 39/2/1
f 43/2/1 42/2/1 41/2/1
f 44/2/1 42/2/1 43/2/1
f 47/2/1 46/2/1 45/2/1
f 48/2/1 46/2/1 47/2/1
f 51/2/1 50/2/1 49/2/1
f 52/2/1 50/2/1 51/2/1
f 53/3/2 54/3/2 55/3/2
f 55/3/2 54/3/2 56/3/2
f 57/1/2 58/1/2 64/1/2
f 58/2/2 59/2/2 65/2/2
f 64/1/2 58/1/2 65/1/2
f 65/2/2 59/2/2 66/2/2
f 60/3/2 61/3/2 67/3/2
f 67/3/2 61/3/2 68/3/2
f 62/3/2 63/3/2 69/3/2
f 69/3/2 63/3/2 70/3/2
f 71/1/2 72/1/2 73/1/2
f 73/1/2 72/1/2 74/1/2
f 75/3/2 76/3/2 77/3/2
f 77/3/2 76/3/2 78/3/2
f 79/1/2 80/1/2 83/1/2
f 83/1/2 80/1/2 84/1/2
f 81/2/2 82/2/2 85/2/2
f 85/2/2 82/2/2 86/2/2
f 87/2/2 88/2/2 91/2/2
f 91/2/2 88/2/2 92/2/2
f 89/1/2 90/1/2 93/1/2
f 93/1/2 90/1/2 94/1/2
f 95/2/2 96/2/2 97/2/2
f 97/2/2 96/2/2 98/2/2
f 99/2/2 100/2/2 101/2/2
f 101/2/2 100/2/2 102/2/2
f 105/2/3 104/2/3 103/2/3
f 106/2/3 104/2/3 105/2/3
f 109/2/3 108/2/3 107/2/3
f 110/2/3 108/2/3 109/2/3
f 111/1/3 110/1/3 109/1/3
f 113/1/3 111/1/3 109/1/3
f 113/3/3 112/3/3 111/3/3
f 114/3/3 112/3/3 113/3/3
f 115/1/3 113/1/3 109/1/3
f 117/1/3 115/1/3 109/1/3
f 117/3/3 116/3/3 115/3/3
f 118/3/3 116/3/3 117/3/3
f 119/1/3 117/1/3 109/1/3
f 121/1/3 119/1/3 109/1/3
f 121/3/3 120/3/3 119/3/3
f 122/3/3 120/3/3 121/3/3
f 123/1/3 121/1/3 109/1/3
f 124/1/3 121/1/3 123/1/3
f 127/2/3 126/2/3 125/2/3
f 128/2/3 126/2/3 127/2/3
f 131/3/3 130/3/3 129/3/3
f 132/3/3 130/3/3 131/3/3
f 135/2/3 134/2/3 133/2/3
f 136/2/3 134/2/3 135/2/3
f 139/2/3 138/2/3 137/2/3
f 140/2/3 138/2/3 139/2/3
f 141/2/4 142/2/4 143/2/4
f 143/2/4 142/2/4 144/2/4
f 145/3/4 146/3/4 147/3/4
f 147/3/4 146/3/4 148/3/4
f 149/2/4 150/2/4 151/2/4
f 151/2/4 150/2/4 152/2/4
f 153/3/4 154/3/4 155/3/4
f 155/3/4 154/3/4 156/3/4
f 157/3/4 158/3/4 159/3/4
f 159/3/4 158/3/4 160/3/4
f 161/1/4 162/1/4 163/1/4
f 163/1/4 162/1/4 164/1/4
f 165/1/4 166/1/4 167/1/4
f 167/1/4 166/1/4 168/1/4
f 169/2/4 170/2/4 171/2/4
f 171/2/4 170/2/4 172/2/4
f 173/2/4 174/2/4 175/2/4
f 175/2/4 174/2/4 176/2/4
f 177/2/4 178/2/4 179/2/4
f 179/2/4 178/2/4 180/2/4
f 181/3/4 182/3/4 183/3/4
f 183/3/4 182/3/4 184/3/4
f 185/2/4 186/2/4 187/2/4
f 187/2/4 186/2/4 188/2/4
f 189/1/4 190/1/4 191/1/4
f 191/1/4 190/1/4 192/1/4
f 193/2/4 194/2/4 195/2/4
f 195/2/4 194/2/4 196/2/4
f 197/2/4 198/2/4 199/2/4
f 199/2/4 198/2/4 200/2/4
f 201/2/4 202/2/4 203/2/4
f 203/2/4 202/2/4 204/2/4
f 207/2/5 206/2/5 205/2/5
f 208/2/5 206/2/5 207/2/5
f 214/2/5 213/2/5 212/2/5
f 215/2/5 213/2/5 214/2/5
f 216/1/5 211/1/5 210/1/5
f 217/1/5 211/1/5 216/1/5
f 218/2/5 210/2/5 209/2/5
f 218/1/5 216/1/5 210/1/5
f 219/1/5 216/1/5 218/1/5
f 220/1/5 216/1/5 219/1/5
f 221/1/5 216/1/5 220/1/5
f 224/2/5 218/2/5 209/2/5
f 224/2/5 219/2/5 218/2/5
f 225/2/5 219/2/5 224/2/5
f 226/2/5 223/2/5 222/2/5
f 227/2/5 223/2/5 226/2/5
f 228/2/5 219/2/5 225/2/5
f 229/1/5 220/1/5 219/1/5
f 229/2/5 219/2/5 228/2/5
f 230/1/5 220/1/5 229/1/5
f 231/2/5 230/2/5 229/2/5
f 232/1/5 220/1/5 230/1/5
f 232/2/5 230/2/5 231/2/5
f 233/1/5 220/1/5 232/1/5
f 234/1/5 220/1/5 233/1/5
f 235/1/5 220/1/5 234/1/5
f 236/2/5 233/2/5 232/2/5
f 237/1/5 234/1/5 233/1/5
f 237/2/5 233/2/5 236/2/5
f 238/1/5 234/1/5 237/1/5
f 241/2/5 238/2/5 237/2/5
f 242/2/5 238/2/5 241/2/5
f 243/2/5 240/2/5 239/2/5
f 244/2/5 240/2/5 243/2/5
f 245/2/6 246/2/6 247/2/6
f 247/2/6 246/2/6 248/2/6
f 252/1/6 253/1/6 260/1/6
f 254/1/6 255/1/6 261/1/6
f 258/2/6 259/2/6 262/2/6
f 262/2/6 259/2/6 263/2/6
f 250/1/6 251/1/6 264/1/6
f 260/1/6 261/1/6 265/1/6
f 252/1/6 260/1/6 265/1/6
f 261/1/6 255/1/6 266/1/6
f 265/1/6 261/1/6 266/1/6
f 256/1/6 257/1/6 267/1/6
f 267/1/6 257/1/6 268/1/6
f 268/1/6 257/1/6 269/1/6
f 265/1/6 266/1/6 270/1/6
f 249/2/6 250/2/6 270/2/6
f 267/1/6 268/1/6 270/1/6
f 266/1/6 267/1/6 270/1/6
f 250/1/6 264/1/6 270/1/6
f 264/1/6 265/1/6 270/1/6
f 270/1/6 268/1/6 271/1/6
f 271/1/6 268/1/6 272/1/6
f 272/1/6 268/1/6 273/1/6
f 273/1/6 268/1/6 274/1/6
f 274/1/6 268/1/6 275/1/6
f 249/2/6 270/2/6 278/2/6
f 270/2/6 271/2/6 278/2/6
f 278/2/6 271/2/6 279/2/6
f 276/2/6 277/2/6 280/2/6
f 280/2/6 277/2/6 281/2/6
f 279/2/6 271/2/6 282/2/6
f 271/1/6 272/1/6 283/1/6
f 282/2/6 271/2/6 283/2/6
f 283/1/6 272/1/6 284/1/6
f 284/1/6 272/1/6 285/1/6
f 273/1/6 274/1/6 286/1/6
f 283/2/6 284/2/6 287/2/6
f 284/1/6 285/1/6 288/1/6
f 287/2/6 284/2/6 288/2/6
f 285/1/6 286/1/6 288/1/6
f 288/1/6 286/1/6 289/1/6
f 286/1/6 274/1/6 290/1/6
f 289/1/6 286/1/6 290/1/6
f 290/1/6 274/1/6 291/1/6
f 288/2/6 289/2/6 292/2/6
f 289/1/6 290/1/6 293/1/6
f 292/2/6 289/2/6 293/2/6
f 293/1/6 290/1/6 294/1/6
f 293/2/6 294/2/6 297/2/6
f 297/2/6 294/2/6 298/2/6
f 295/2/6 296/2/6 299/2/6
f 299/2/6 296/2/6 300/2/6
f 303/3/6 304/3/6 307/3/6
f 307/3/6 304/3/6 308/3/6
f 301/3/6 302/3/6 309/3/6
f 309/3/6 302/3/6 310/3/6
f 305/3/6 306/3/6 311/3/6
f 311/3/6 306/3/6 312/3/6
f 313/3/6 314/3/6 315/3/6
f 315/3/6 314/3/6 316/3/6
