# MagicaVoxel @ ephtracy

# material
mtllib pizzabox.mtl
usemtl palette

# normals
vn -1 0 0
vn 1 0 0
vn 0 0 1
vn 0 0 -1
vn 0 -1 0
vn 0 1 0

# texcoords
vt 0.0449219 0.5
vt 0.369141 0.5
vt 0.767578 0.5
vt 0.857422 0.5
vt 0.958984 0.5
vt 0.962891 0.5
vt 0.986328 0.5

# verts
v -0.525 0 0.525
v -0.525 0 -0.525
v -0.525 0.1 0.525
v -0.525 0.1 -0.525
v 0.075 0.05 0.525
v 0.075 0.05 0.475
v 0.075 0.1 0.525
v 0.075 0.1 0.475
v -0.075 0.05 0.525
v -0.075 0.05 0.475
v -0.075 0.1 0.525
v -0.075 0.1 0.475
v 0.525 0 0.525
v 0.525 0 -0.525
v 0.525 0.1 0.525
v 0.525 0.1 -0.525
v -0.525 0 0.525
v -0.525 0.1 0.525
v -0.075 0.05 0.525
v -0.075 0.1 0.525
v 0.075 0.05 0.525
v 0.075 0.1 0.525
v 0.525 0 0.525
v 0.525 0.1 0.525
v -0.075 0.05 0.475
v -0.075 0.1 0.475
v 0.075 0.05 0.475
v 0.075 0.1 0.475
v -0.525 0 -0.525
v -0.525 0.1 -0.525
v 0.525 0 -0.525
v 0.525 0.1 -0.525
v -0.525 0 0.525
v 0.525 0 0.525
v -0.525 0 -0.525
v 0.525 0 -0.525
v -0.075 0.05 0.525
v 0.075 0.05 0.525
v -0.075 0.05 0.475
v 0.075 0.05 0.475
v -0.525 0.1 0.525
v -0.075 0.1 0.525
v 0.075 0.1 0.525
v 0.525 0.1 0.525
v -0.075 0.1 0.475
v 0.075 0.1 0.475
v -0.225 0.1 0.425
v 0.225 0.1 0.425
v -0.275 0.1 0.375
v -0.225 0.1 0.375
v -0.175 0.1 0.375
v 0.175 0.1 0.375
v 0.225 0.1 0.375
v 0.275 0.1 0.375
v -0.375 0.1 0.325
v -0.275 0.1 0.325
v -0.175 0.1 0.325
v -0.125 0.1 0.325
v -0.025 0.1 0.325
v 0.025 0.1 0.325
v 0.125 0.1 0.325
v 0.175 0.1 0.325
v 0.225 0.1 0.325
v 0.275 0.1 0.325
v 0.325 0.1 0.325
v -0.325 0.1 0.275
v -0.275 0.1 0.275
v -0.175 0.1 0.275
v -0.125 0.1 0.275
v -0.075 0.1 0.275
v 0.125 0.1 0.275
v 0.175 0.1 0.275
v 0.225 0.1 0.275
v 0.275 0.1 0.275
v 0.325 0.1 0.275
v 0.375 0.1 0.275
v -0.275 0.1 0.225
v -0.175 0.1 0.225
v -0.125 0.1 0.225
v -0.075 0.1 0.225
v -0.025 0.1 0.225
v 0.025 0.1 0.225
v 0.075 0.1 0.225
v 0.125 0.1 0.225
v 0.175 0.1 0.225
v 0.275 0.1 0.225
v -0.425 0.1 0.175
v -0.375 0.1 0.175
v -0.325 0.1 0.175
v -0.225 0.1 0.175
v -0.175 0.1 0.175
v -0.125 0.1 0.175
v -0.075 0.1 0.175
v 0.075 0.1 0.175
v 0.325 0.1 0.175
v 0.375 0.1 0.175
v 0.425 0.1 0.175
v -0.425 0.1 0.125
v -0.375 0.1 0.125
v -0.275 0.1 0.125
v -0.225 0.1 0.125
v -0.125 0.1 0.125
v 0.125 0.1 0.125
v 0.175 0.1 0.125
v 0.275 0.1 0.125
v 0.375 0.1 0.125
v 0.425 0.1 0.125
v -0.425 0.1 0.075
v -0.375 0.1 0.075
v -0.225 0.1 0.075
v -0.175 0.1 0.075
v -0.075 0.1 0.075
v 0.025 0.1 0.075
v 0.125 0.1 0.075
v 0.225 0.1 0.075
v 0.275 0.1 0.075
v 0.325 0.1 0.075
v 0.375 0.1 0.075
v 0.425 0.1 0.075
v -0.375 0.1 0.025
v -0.275 0.1 0.025
v -0.025 0.1 0.025
v 0.025 0.1 0.025
v 0.175 0.1 0.025
v 0.225 0.1 0.025
v 0.325 0.1 0.025
v 0.375 0.1 0.025
v -0.125 0.1 -0.025
v -0.075 0.1 -0.025
v 0.075 0.1 -0.025
v 0.125 0.1 -0.025
v -0.425 0.1 -0.075
v -0.275 0.1 -0.075
v -0.225 0.1 -0.075
v -0.175 0.1 -0.075
v -0.125 0.1 -0.075
v -0.025 0.1 -0.075
v 0.075 0.1 -0.075
v 0.175 0.1 -0.075
v 0.275 0.1 -0.075
v 0.425 0.1 -0.075
v -0.425 0.1 -0.125
v -0.375 0.1 -0.125
v -0.225 0.1 -0.125
v -0.175 0.1 -0.125
v -0.075 0.1 -0.125
v 0.025 0.1 -0.125
v 0.075 0.1 -0.125
v 0.125 0.1 -0.125
v 0.175 0.1 -0.125
v 0.275 0.1 -0.125
v 0.375 0.1 -0.125
v 0.425 0.1 -0.125
v -0.425 0.1 -0.175
v -0.375 0.1 -0.175
v -0.325 0.1 -0.175
v -0.275 0.1 -0.175
v -0.225 0.1 -0.175
v -0.125 0.1 -0.175
v -0.075 0.1 -0.175
v -0.025 0.1 -0.175
v 0.025 0.1 -0.175
v 0.075 0.1 -0.175
v 0.125 0.1 -0.175
v 0.325 0.1 -0.175
v 0.375 0.1 -0.175
v 0.425 0.1 -0.175
v -0.275 0.1 -0.225
v -0.175 0.1 -0.225
v -0.125 0.1 -0.225
v -0.025 0.1 -0.225
v 0.025 0.1 -0.225
v 0.075 0.1 -0.225
v 0.125 0.1 -0.225
v 0.175 0.1 -0.225
v 0.275 0.1 -0.225
v -0.325 0.1 -0.275
v -0.275 0.1 -0.275
v -0.175 0.1 -0.275
v -0.125 0.1 -0.275
v -0.075 0.1 -0.275
v 0.075 0.1 -0.275
v 0.125 0.1 -0.275
v 0.175 0.1 -0.275
v 0.275 0.1 -0.275
v 0.325 0.1 -0.275
v 0.375 0.1 -0.275
v -0.375 0.1 -0.325
v -0.275 0.1 -0.325
v -0.175 0.1 -0.325
v -0.075 0.1 -0.325
v -0.025 0.1 -0.325
v 0.025 0.1 -0.325
v 0.075 0.1 -0.325
v 0.175 0.1 -0.325
v 0.275 0.1 -0.325
v 0.325 0.1 -0.325
v -0.275 0.1 -0.375
v -0.225 0.1 -0.375
v -0.175 0.1 -0.375
v 0.175 0.1 -0.375
v 0.225 0.1 -0.375
v 0.275 0.1 -0.375
v -0.225 0.1 -0.425
v 0.225 0.1 -0.425
v -0.525 0.1 -0.525
v 0.525 0.1 -0.525

# faces
f 3/5/1 2/5/1 1/5/1
f 4/5/1 2/5/1 3/5/1
f 7/5/1 6/5/1 5/5/1
f 8/5/1 6/5/1 7/5/1
f 9/5/2 10/5/2 11/5/2
f 11/5/2 10/5/2 12/5/2
f 13/5/2 14/5/2 15/5/2
f 15/5/2 14/5/2 16/5/2
f 19/5/3 18/5/3 17/5/3
f 20/5/3 18/5/3 19/5/3
f 21/5/3 19/5/3 17/5/3
f 23/5/3 21/5/3 17/5/3
f 23/5/3 22/5/3 21/5/3
f 24/5/3 22/5/3 23/5/3
f 27/5/3 26/5/3 25/5/3
f 28/5/3 26/5/3 27/5/3
f 29/5/4 30/5/4 31/5/4
f 31/5/4 30/5/4 32/5/4
f 35/5/5 34/5/5 33/5/5
f 36/5/5 34/5/5 35/5/5
f 37/5/6 38/5/6 39/5/6
f 39/5/6 38/5/6 40/5/6
f 41/5/6 42/5/6 45/5/6
f 43/5/6 44/5/6 46/5/6
f 41/5/6 45/5/6 47/5/6
f 45/5/6 46/5/6 47/5/6
f 46/5/6 44/5/6 48/5/6
f 47/5/6 46/5/6 48/5/6
f 41/5/6 47/5/6 49/5/6
f 47/2/6 48/2/6 50/2/6
f 49/5/6 47/5/6 50/5/6
f 50/2/6 48/2/6 51/2/6
f 51/2/6 48/2/6 52/2/6
f 48/5/6 44/5/6 53/5/6
f 52/2/6 48/2/6 53/2/6
f 53/5/6 44/5/6 54/5/6
f 41/5/6 49/5/6 55/5/6
f 49/2/6 50/2/6 56/2/6
f 55/5/6 49/5/6 56/5/6
f 50/2/6 51/2/6 56/2/6
f 51/1/6 52/1/6 57/1/6
f 56/2/6 51/2/6 57/2/6
f 57/1/6 52/1/6 58/1/6
f 58/1/6 52/1/6 59/1/6
f 59/1/6 52/1/6 60/1/6
f 60/1/6 52/1/6 61/1/6
f 53/2/6 54/2/6 62/2/6
f 61/1/6 52/1/6 62/1/6
f 52/2/6 53/2/6 62/2/6
f 62/2/6 54/2/6 63/2/6
f 54/5/6 44/5/6 64/5/6
f 63/2/6 54/2/6 64/2/6
f 64/5/6 44/5/6 65/5/6
f 55/2/6 56/2/6 66/2/6
f 56/1/6 57/1/6 67/1/6
f 66/2/6 56/2/6 67/2/6
f 57/1/6 58/1/6 67/1/6
f 67/1/6 58/1/6 68/1/6
f 58/4/6 59/4/6 69/4/6
f 68/1/6 58/1/6 69/1/6
f 69/4/6 59/4/6 70/4/6
f 60/4/6 61/4/6 71/4/6
f 61/1/6 62/1/6 71/1/6
f 62/6/6 63/6/6 72/6/6
f 71/1/6 62/1/6 72/1/6
f 63/1/6 64/1/6 73/1/6
f 72/6/6 63/6/6 73/6/6
f 64/2/6 65/2/6 74/2/6
f 73/1/6 64/1/6 74/1/6
f 65/5/6 44/5/6 75/5/6
f 74/2/6 65/2/6 75/2/6
f 75/5/6 44/5/6 76/5/6
f 67/1/6 68/1/6 77/1/6
f 66/1/6 67/1/6 77/1/6
f 68/3/6 69/3/6 78/3/6
f 77/1/6 68/1/6 78/1/6
f 69/1/6 70/1/6 79/1/6
f 78/3/6 69/3/6 79/3/6
f 70/4/6 59/4/6 80/4/6
f 79/1/6 70/1/6 80/1/6
f 59/1/6 60/1/6 81/1/6
f 80/4/6 59/4/6 81/4/6
f 60/4/6 71/4/6 82/4/6
f 81/1/6 60/1/6 82/1/6
f 82/4/6 71/4/6 83/4/6
f 71/6/6 72/6/6 84/6/6
f 83/4/6 71/4/6 84/4/6
f 73/1/6 74/1/6 85/1/6
f 84/6/6 72/6/6 85/6/6
f 72/1/6 73/1/6 85/1/6
f 74/1/6 75/1/6 85/1/6
f 85/1/6 75/1/6 86/1/6
f 41/5/6 55/5/6 87/5/6
f 55/2/6 66/2/6 88/2/6
f 87/5/6 55/5/6 88/5/6
f 66/1/6 77/1/6 89/1/6
f 88/2/6 66/2/6 89/2/6
f 77/4/6 78/4/6 90/4/6
f 78/1/6 79/1/6 91/1/6
f 90/4/6 78/4/6 91/4/6
f 79/1/6 80/1/6 91/1/6
f 91/1/6 80/1/6 92/1/6
f 80/3/6 81/3/6 93/3/6
f 92/1/6 80/1/6 93/1/6
f 81/3/6 82/3/6 93/3/6
f 82/3/6 83/3/6 93/3/6
f 83/1/6 84/1/6 94/1/6
f 93/3/6 83/3/6 94/3/6
f 86/1/6 75/1/6 95/1/6
f 75/2/6 76/2/6 95/2/6
f 76/5/6 44/5/6 96/5/6
f 95/2/6 76/2/6 96/2/6
f 96/5/6 44/5/6 97/5/6
f 41/5/6 87/5/6 98/5/6
f 87/2/6 88/2/6 98/2/6
f 88/1/6 89/1/6 99/1/6
f 98/2/6 88/2/6 99/2/6
f 77/4/6 90/4/6 100/4/6
f 99/1/6 89/1/6 100/1/6
f 89/1/6 77/1/6 100/1/6
f 91/3/6 92/3/6 101/3/6
f 100/4/6 90/4/6 101/4/6
f 90/3/6 91/3/6 101/3/6
f 92/1/6 93/1/6 102/1/6
f 101/3/6 92/3/6 102/3/6
f 93/1/6 94/1/6 102/1/6
f 94/1/6 84/1/6 103/1/6
f 102/1/6 94/1/6 103/1/6
f 84/6/6 85/6/6 103/6/6
f 85/4/6 86/4/6 104/4/6
f 103/6/6 85/6/6 104/6/6
f 86/1/6 95/1/6 105/1/6
f 104/4/6 86/4/6 105/4/6
f 95/1/6 96/1/6 105/1/6
f 96/2/6 97/2/6 106/2/6
f 105/1/6 96/1/6 106/1/6
f 97/5/6 44/5/6 107/5/6
f 106/2/6 97/2/6 107/2/6
f 100/6/6 101/6/6 108/6/6
f 99/6/6 100/6/6 108/6/6
f 106/6/6 107/6/6 108/6/6
f 102/6/6 103/6/6 108/6/6
f 103/6/6 104/6/6 108/6/6
f 104/6/6 105/6/6 108/6/6
f 105/6/6 106/6/6 108/6/6
f 41/5/6 98/5/6 108/5/6
f 98/6/6 99/6/6 108/6/6
f 101/6/6 102/6/6 108/6/6
f 108/6/6 107/6/6 109/6/6
f 109/6/6 107/6/6 110/6/6
f 110/6/6 107/6/6 111/6/6
f 111/6/6 107/6/6 112/6/6
f 112/6/6 107/6/6 113/6/6
f 113/6/6 107/6/6 114/6/6
f 114/6/6 107/6/6 115/6/6
f 115/6/6 107/6/6 116/6/6
f 116/6/6 107/6/6 117/6/6
f 117/6/6 107/6/6 118/6/6
f 107/5/6 44/5/6 119/5/6
f 118/6/6 107/6/6 119/6/6
f 108/7/6 109/7/6 120/7/6
f 109/6/6 110/6/6 120/6/6
f 120/6/6 110/6/6 121/6/6
f 112/7/6 113/7/6 122/7/6
f 113/6/6 114/6/6 123/6/6
f 122/7/6 113/7/6 123/7/6
f 114/7/6 115/7/6 124/7/6
f 115/6/6 116/6/6 125/6/6
f 124/7/6 115/7/6 125/7/6
f 117/6/6 118/6/6 126/6/6
f 116/7/6 117/7/6 126/7/6
f 118/7/6 119/7/6 127/7/6
f 126/6/6 118/6/6 127/6/6
f 111/6/6 112/6/6 128/6/6
f 112/7/6 122/7/6 129/7/6
f 128/6/6 112/6/6 129/6/6
f 123/6/6 114/6/6 130/6/6
f 122/6/6 123/6/6 130/6/6
f 114/7/6 124/7/6 131/7/6
f 130/6/6 114/6/6 131/6/6
f 41/5/6 108/5/6 132/5/6
f 108/7/6 120/7/6 132/7/6
f 120/7/6 121/7/6 132/7/6
f 121/6/6 110/6/6 133/6/6
f 132/7/6 121/7/6 133/7/6
f 110/7/6 111/7/6 134/7/6
f 133/6/6 110/6/6 134/6/6
f 111/6/6 128/6/6 135/6/6
f 134/7/6 111/7/6 135/7/6
f 128/7/6 129/7/6 136/7/6
f 135/6/6 128/6/6 136/6/6
f 129/7/6 122/7/6 137/7/6
f 136/7/6 129/7/6 137/7/6
f 122/6/6 130/6/6 137/6/6
f 130/7/6 131/7/6 138/7/6
f 137/6/6 130/6/6 138/6/6
f 131/7/6 124/7/6 139/7/6
f 138/7/6 131/7/6 139/7/6
f 124/6/6 125/6/6 139/6/6
f 125/6/6 116/6/6 140/6/6
f 139/6/6 125/6/6 140/6/6
f 116/7/6 126/7/6 140/7/6
f 126/7/6 127/7/6 140/7/6
f 119/5/6 44/5/6 141/5/6
f 140/7/6 127/7/6 141/7/6
f 127/7/6 119/7/6 141/7/6
f 138/6/6 139/6/6 142/6/6
f 137/6/6 138/6/6 142/6/6
f 140/6/6 141/6/6 142/6/6
f 135/6/6 136/6/6 142/6/6
f 133/6/6 134/6/6 142/6/6
f 41/5/6 132/5/6 142/5/6
f 134/6/6 135/6/6 142/6/6
f 132/6/6 133/6/6 142/6/6
f 136/6/6 137/6/6 142/6/6
f 139/6/6 140/6/6 142/6/6
f 142/6/6 141/6/6 143/6/6
f 143/6/6 141/6/6 144/6/6
f 144/6/6 141/6/6 145/6/6
f 145/6/6 141/6/6 146/6/6
f 146/6/6 141/6/6 147/6/6
f 147/6/6 141/6/6 148/6/6
f 148/6/6 141/6/6 149/6/6
f 149/6/6 141/6/6 150/6/6
f 150/6/6 141/6/6 151/6/6
f 151/6/6 141/6/6 152/6/6
f 141/5/6 44/5/6 153/5/6
f 152/6/6 141/6/6 153/6/6
f 41/5/6 142/5/6 154/5/6
f 142/2/6 143/2/6 154/2/6
f 143/1/6 144/1/6 155/1/6
f 154/2/6 143/2/6 155/2/6
f 155/1/6 144/1/6 156/1/6
f 156/1/6 144/1/6 157/1/6
f 144/4/6 145/4/6 158/4/6
f 157/1/6 144/1/6 158/1/6
f 145/3/6 146/3/6 159/3/6
f 146/1/6 147/1/6 160/1/6
f 159/3/6 146/3/6 160/3/6
f 160/1/6 147/1/6 161/1/6
f 147/4/6 148/4/6 162/4/6
f 161/1/6 147/1/6 162/1/6
f 148/6/6 149/6/6 163/6/6
f 162/4/6 148/4/6 163/4/6
f 149/1/6 150/1/6 164/1/6
f 163/6/6 149/6/6 164/6/6
f 151/1/6 152/1/6 165/1/6
f 152/2/6 153/2/6 166/2/6
f 165/1/6 152/1/6 166/1/6
f 153/5/6 44/5/6 167/5/6
f 166/2/6 153/2/6 167/2/6
f 156/1/6 157/1/6 168/1/6
f 157/4/6 158/4/6 168/4/6
f 158/4/6 145/4/6 169/4/6
f 168/4/6 158/4/6 169/4/6
f 145/3/6 159/3/6 169/3/6
f 160/1/6 161/1/6 170/1/6
f 169/3/6 159/3/6 170/3/6
f 159/1/6 160/1/6 170/1/6
f 161/6/6 162/6/6 171/6/6
f 170/1/6 161/1/6 171/1/6
f 162/1/6 163/1/6 172/1/6
f 171/6/6 162/6/6 172/6/6
f 163/3/6 164/3/6 173/3/6
f 172/1/6 163/1/6 173/1/6
f 164/1/6 150/1/6 174/1/6
f 173/3/6 164/3/6 174/3/6
f 150/4/6 151/4/6 175/4/6
f 174/1/6 150/1/6 175/1/6
f 151/1/6 165/1/6 176/1/6
f 175/4/6 151/4/6 176/4/6
f 156/1/6 168/1/6 177/1/6
f 168/1/6 169/1/6 177/1/6
f 155/2/6 156/2/6 177/2/6
f 177/1/6 169/1/6 178/1/6
f 169/3/6 170/3/6 179/3/6
f 178/1/6 169/1/6 179/1/6
f 170/4/6 171/4/6 180/4/6
f 179/3/6 170/3/6 180/3/6
f 180/4/6 171/4/6 181/4/6
f 172/4/6 173/4/6 182/4/6
f 173/4/6 174/4/6 182/4/6
f 174/3/6 175/3/6 183/3/6
f 182/4/6 174/4/6 183/4/6
f 175/1/6 176/1/6 184/1/6
f 183/3/6 175/3/6 184/3/6
f 176/1/6 165/1/6 185/1/6
f 184/1/6 176/1/6 185/1/6
f 165/2/6 166/2/6 186/2/6
f 185/1/6 165/1/6 186/1/6
f 166/5/6 167/5/6 187/5/6
f 186/2/6 166/2/6 187/2/6
f 177/2/6 178/2/6 188/2/6
f 154/5/6 155/5/6 188/5/6
f 155/2/6 177/2/6 188/2/6
f 178/1/6 179/1/6 189/1/6
f 188/2/6 178/2/6 189/2/6
f 180/1/6 181/1/6 189/1/6
f 179/1/6 180/1/6 189/1/6
f 189/1/6 181/1/6 190/1/6
f 181/4/6 171/4/6 191/4/6
f 190/1/6 181/1/6 191/1/6
f 171/1/6 172/1/6 192/1/6
f 191/4/6 171/4/6 192/4/6
f 172/4/6 182/4/6 193/4/6
f 192/1/6 172/1/6 193/1/6
f 184/1/6 185/1/6 194/1/6
f 193/4/6 182/4/6 194/4/6
f 183/1/6 184/1/6 194/1/6
f 182/1/6 183/1/6 194/1/6
f 194/1/6 185/1/6 195/1/6
f 185/2/6 186/2/6 196/2/6
f 195/1/6 185/1/6 196/1/6
f 186/5/6 187/5/6 197/5/6
f 196/2/6 186/2/6 197/2/6
f 189/2/6 190/2/6 198/2/6
f 188/5/6 189/5/6 198/5/6
f 198/2/6 190/2/6 199/2/6
f 192/1/6 193/1/6 200/1/6
f 199/2/6 190/2/6 200/2/6
f 191/1/6 192/1/6 200/1/6
f 190/1/6 191/1/6 200/1/6
f 193/1/6 194/1/6 200/1/6
f 194/1/6 195/1/6 200/1/6
f 195/2/6 196/2/6 201/2/6
f 200/1/6 195/1/6 201/1/6
f 201/2/6 196/2/6 202/2/6
f 196/5/6 197/5/6 203/5/6
f 202/2/6 196/2/6 203/2/6
f 198/5/6 199/5/6 204/5/6
f 201/2/6 202/2/6 204/2/6
f 199/2/6 200/2/6 204/2/6
f 200/2/6 201/2/6 204/2/6
f 202/5/6 203/5/6 205/5/6
f 204/2/6 202/2/6 205/2/6
f 188/5/6 198/5/6 206/5/6
f 41/5/6 154/5/6 206/5/6
f 204/5/6 205/5/6 206/5/6
f 198/5/6 204/5/6 206/5/6
f 154/5/6 188/5/6 206/5/6
f 197/5/6 187/5/6 207/5/6
f 206/5/6 205/5/6 207/5/6
f 203/5/6 197/5/6 207/5/6
f 167/5/6 44/5/6 207/5/6
f 187/5/6 167/5/6 207/5/6
f 205/5/6 203/5/6 207/5/6
