# MagicaVoxel @ ephtracy

# material
mtllib pizza1a.mtl
usemtl palette

# normals
vn -1 0 0
vn 1 0 0
vn 0 0 1
vn 0 0 -1
vn 0 -1 0
vn 0 1 0

# texcoords
vt 0.0449219 0.5
vt 0.537109 0.5
vt 0.857422 0.5

# verts
v -0.425 0 0.225
v -0.425 0 -0.225
v -0.425 0.05 0.225
v -0.425 0.05 -0.225
v -0.375 0 0.275
v -0.375 0 0.225
v -0.375 0 -0.225
v -0.375 0 -0.275
v -0.375 0.05 0.275
v -0.375 0.05 0.225
v -0.375 0.05 -0.225
v -0.375 0.05 -0.275
v -0.325 0 0.375
v -0.325 0 0.275
v -0.325 0 -0.275
v -0.325 0 -0.325
v -0.325 0.05 0.375
v -0.325 0.05 0.275
v -0.325 0.05 0.125
v -0.325 0.05 0.025
v -0.325 0.05 -0.025
v -0.325 0.05 -0.125
v -0.325 0.05 -0.275
v -0.325 0.05 -0.325
v -0.325 0.1 0.125
v -0.325 0.1 0.025
v -0.325 0.1 -0.025
v -0.325 0.1 -0.125
v -0.275 0 -0.325
v -0.275 0 -0.375
v -0.275 0.05 -0.325
v -0.275 0.05 -0.375
v -0.225 0.05 0.275
v -0.225 0.05 0.175
v -0.225 0.05 -0.175
v -0.225 0.05 -0.275
v -0.225 0.1 0.275
v -0.225 0.1 0.175
v -0.225 0.1 -0.175
v -0.225 0.1 -0.275
v -0.175 0 0.425
v -0.175 0 0.375
v -0.175 0 -0.375
v -0.175 0 -0.425
v -0.175 0.05 0.425
v -0.175 0.05 0.375
v -0.175 0.05 -0.025
v -0.175 0.05 -0.075
v -0.175 0.05 -0.375
v -0.175 0.05 -0.425
v -0.175 0.1 -0.025
v -0.175 0.1 -0.075
v -0.125 0.05 0.125
v -0.125 0.05 0.025
v -0.125 0.1 0.125
v -0.125 0.1 0.025
v -0.075 0.05 0.325
v -0.075 0.05 0.225
v -0.075 0.05 -0.025
v -0.075 0.05 -0.125
v -0.075 0.1 0.325
v -0.075 0.1 0.225
v -0.075 0.1 -0.025
v -0.075 0.1 -0.125
v -0.025 0.05 0.125
v -0.025 0.05 0.075
v -0.025 0.05 -0.175
v -0.025 0.05 -0.275
v -0.025 0.1 0.125
v -0.025 0.1 0.075
v -0.025 0.1 -0.175
v -0.025 0.1 -0.275
v 0.075 0.05 0.075
v 0.075 0.05 0.025
v 0.075 0.05 -0.025
v 0.075 0.05 -0.075
v 0.075 0.1 0.075
v 0.075 0.1 0.025
v 0.075 0.1 -0.025
v 0.075 0.1 -0.075
v 0.125 0.05 0.275
v 0.125 0.05 0.175
v 0.125 0.05 -0.175
v 0.125 0.05 -0.275
v 0.125 0.1 0.275
v 0.125 0.1 0.175
v 0.125 0.1 -0.175
v 0.125 0.1 -0.275
v 0.225 0.05 0.125
v 0.225 0.05 0.025
v 0.225 0.05 -0.025
v 0.225 0.05 -0.125
v 0.225 0.1 0.125
v 0.225 0.1 0.025
v 0.225 0.1 -0.025
v 0.225 0.1 -0.125
v -0.225 0.05 0.125
v -0.225 0.05 0.025
v -0.225 0.05 -0.025
v -0.225 0.05 -0.125
v -0.225 0.1 0.125
v -0.225 0.1 0.025
v -0.225 0.1 -0.025
v -0.225 0.1 -0.125
v -0.175 0.05 0.275
v -0.175 0.05 0.225
v -0.175 0.1 0.275
v -0.175 0.1 0.225
v -0.125 0.05 0.225
v -0.125 0.05 0.175
v -0.125 0.05 -0.025
v -0.125 0.05 -0.075
v -0.125 0.05 -0.175
v -0.125 0.05 -0.275
v -0.125 0.1 0.225
v -0.125 0.1 0.175
v -0.125 0.1 -0.025
v -0.125 0.1 -0.075
v -0.125 0.1 -0.175
v -0.125 0.1 -0.275
v -0.075 0.05 0.125
v -0.075 0.05 0.025
v -0.075 0.1 0.125
v -0.075 0.1 0.025
v -0.025 0.05 -0.025
v -0.025 0.05 -0.125
v -0.025 0.1 -0.025
v -0.025 0.1 -0.125
v 0.025 0.05 0.325
v 0.025 0.05 0.225
v 0.025 0.05 0.125
v 0.025 0.05 0.075
v 0.025 0.05 -0.175
v 0.025 0.05 -0.275
v 0.025 0.1 0.325
v 0.025 0.1 0.225
v 0.025 0.1 0.125
v 0.025 0.1 0.075
v 0.025 0.1 -0.175
v 0.025 0.1 -0.275
v 0.125 0.05 0.075
v 0.125 0.05 0.025
v 0.125 0.05 -0.025
v 0.125 0.05 -0.075
v 0.125 0.1 0.075
v 0.125 0.1 0.025
v 0.125 0.1 -0.025
v 0.125 0.1 -0.075
v 0.175 0 0.425
v 0.175 0 0.375
v 0.175 0 -0.375
v 0.175 0 -0.425
v 0.175 0.05 0.425
v 0.175 0.05 0.375
v 0.175 0.05 -0.375
v 0.175 0.05 -0.425
v 0.225 0.05 0.275
v 0.225 0.05 0.175
v 0.225 0.05 -0.175
v 0.225 0.05 -0.275
v 0.225 0.1 0.275
v 0.225 0.1 0.175
v 0.225 0.1 -0.175
v 0.225 0.1 -0.275
v 0.275 0 -0.325
v 0.275 0 -0.375
v 0.275 0.05 -0.325
v 0.275 0.05 -0.375
v 0.325 0 0.375
v 0.325 0 0.275
v 0.325 0 -0.275
v 0.325 0 -0.325
v 0.325 0.05 0.375
v 0.325 0.05 0.275
v 0.325 0.05 0.125
v 0.325 0.05 0.025
v 0.325 0.05 -0.025
v 0.325 0.05 -0.125
v 0.325 0.05 -0.275
v 0.325 0.05 -0.325
v 0.325 0.1 0.125
v 0.325 0.1 0.025
v 0.325 0.1 -0.025
v 0.325 0.1 -0.125
v 0.375 0 0.275
v 0.375 0 0.225
v 0.375 0 -0.225
v 0.375 0 -0.275
v 0.375 0.05 0.275
v 0.375 0.05 0.225
v 0.375 0.05 -0.225
v 0.375 0.05 -0.275
v 0.425 0 0.225
v 0.425 0 -0.225
v 0.425 0.05 0.225
v 0.425 0.05 -0.225
v -0.175 0 0.425
v -0.175 0.05 0.425
v 0.175 0 0.425
v 0.175 0.05 0.425
v -0.325 0 0.375
v -0.325 0.05 0.375
v -0.175 0 0.375
v -0.175 0.05 0.375
v 0.175 0 0.375
v 0.175 0.05 0.375
v 0.325 0 0.375
v 0.325 0.05 0.375
v -0.075 0.05 0.325
v -0.075 0.1 0.325
v 0.025 0.05 0.325
v 0.025 0.1 0.325
v -0.375 0 0.275
v -0.375 0.05 0.275
v -0.325 0 0.275
v -0.325 0.05 0.275
v -0.225 0.05 0.275
v -0.225 0.1 0.275
v -0.175 0.05 0.275
v -0.175 0.1 0.275
v 0.125 0.05 0.275
v 0.125 0.1 0.275
v 0.225 0.05 0.275
v 0.225 0.1 0.275
v 0.325 0 0.275
v 0.325 0.05 0.275
v 0.375 0 0.275
v 0.375 0.05 0.275
v -0.425 0 0.225
v -0.425 0.05 0.225
v -0.375 0 0.225
v -0.375 0.05 0.225
v -0.175 0.05 0.225
v -0.175 0.1 0.225
v -0.125 0.05 0.225
v -0.125 0.1 0.225
v 0.375 0 0.225
v 0.375 0.05 0.225
v 0.425 0 0.225
v 0.425 0.05 0.225
v -0.325 0.05 0.125
v -0.325 0.1 0.125
v -0.225 0.05 0.125
v -0.225 0.1 0.125
v -0.125 0.05 0.125
v -0.125 0.1 0.125
v -0.075 0.05 0.125
v -0.075 0.1 0.125
v -0.025 0.05 0.125
v -0.025 0.1 0.125
v 0.025 0.05 0.125
v 0.025 0.1 0.125
v 0.225 0.05 0.125
v 0.225 0.1 0.125
v 0.325 0.05 0.125
v 0.325 0.1 0.125
v 0.075 0.05 0.075
v 0.075 0.1 0.075
v 0.125 0.05 0.075
v 0.125 0.1 0.075
v -0.325 0.05 -0.025
v -0.325 0.1 -0.025
v -0.225 0.05 -0.025
v -0.225 0.1 -0.025
v -0.175 0.05 -0.025
v -0.175 0.1 -0.025
v -0.125 0.05 -0.025
v -0.125 0.1 -0.025
v -0.075 0.05 -0.025
v -0.075 0.1 -0.025
v -0.025 0.05 -0.025
v -0.025 0.1 -0.025
v 0.075 0.05 -0.025
v 0.075 0.1 -0.025
v 0.125 0.05 -0.025
v 0.125 0.1 -0.025
v 0.225 0.05 -0.025
v 0.225 0.1 -0.025
v 0.325 0.05 -0.025
v 0.325 0.1 -0.025
v -0.225 0.05 -0.175
v -0.225 0.1 -0.175
v -0.125 0.05 -0.175
v -0.125 0.1 -0.175
v -0.025 0.05 -0.175
v -0.025 0.1 -0.175
v 0.025 0.05 -0.175
v 0.025 0.1 -0.175
v 0.125 0.05 -0.175
v 0.125 0.1 -0.175
v 0.225 0.05 -0.175
v 0.225 0.1 -0.175
v -0.075 0.05 0.225
v -0.075 0.1 0.225
v 0.025 0.05 0.225
v 0.025 0.1 0.225
v -0.225 0.05 0.175
v -0.225 0.1 0.175
v -0.125 0.05 0.175
v -0.125 0.1 0.175
v 0.125 0.05 0.175
v 0.125 0.1 0.175
v 0.225 0.05 0.175
v 0.225 0.1 0.175
v -0.025 0.05 0.075
v -0.025 0.1 0.075
v 0.025 0.05 0.075
v 0.025 0.1 0.075
v -0.325 0.05 0.025
v -0.325 0.1 0.025
v -0.225 0.05 0.025
v -0.225 0.1 0.025
v -0.125 0.05 0.025
v -0.125 0.1 0.025
v -0.075 0.05 0.025
v -0.075 0.1 0.025
v 0.075 0.05 0.025
v 0.075 0.1 0.025
v 0.125 0.05 0.025
v 0.125 0.1 0.025
v 0.225 0.05 0.025
v 0.225 0.1 0.025
v 0.325 0.05 0.025
v 0.325 0.1 0.025
v -0.175 0.05 -0.075
v -0.175 0.1 -0.075
v -0.125 0.05 -0.075
v -0.125 0.1 -0.075
v 0.075 0.05 -0.075
v 0.075 0.1 -0.075
v 0.125 0.05 -0.075
v 0.125 0.1 -0.075
v -0.325 0.05 -0.125
v -0.325 0.1 -0.125
v -0.225 0.05 -0.125
v -0.225 0.1 -0.125
v -0.075 0.05 -0.125
v -0.075 0.1 -0.125
v -0.025 0.05 -0.125
v -0.025 0.1 -0.125
v 0.225 0.05 -0.125
v 0.225 0.1 -0.125
v 0.325 0.05 -0.125
v 0.325 0.1 -0.125
v -0.425 0 -0.225
v -0.425 0.05 -0.225
v -0.375 0 -0.225
v -0.375 0.05 -0.225
v 0.375 0 -0.225
v 0.375 0.05 -0.225
v 0.425 0 -0.225
v 0.425 0.05 -0.225
v -0.375 0 -0.275
v -0.375 0.05 -0.275
v -0.325 0 -0.275
v -0.325 0.05 -0.275
v -0.225 0.05 -0.275
v -0.225 0.1 -0.275
v -0.125 0.05 -0.275
v -0.125 0.1 -0.275
v -0.025 0.05 -0.275
v -0.025 0.1 -0.275
v 0.025 0.05 -0.275
v 0.025 0.1 -0.275
v 0.125 0.05 -0.275
v 0.125 0.1 -0.275
v 0.225 0.05 -0.275
v 0.225 0.1 -0.275
v 0.325 0 -0.275
v 0.325 0.05 -0.275
v 0.375 0 -0.275
v 0.375 0.05 -0.275
v -0.325 0 -0.325
v -0.325 0.05 -0.325
v -0.275 0 -0.325
v -0.275 0.05 -0.325
v 0.275 0 -0.325
v 0.275 0.05 -0.325
v 0.325 0 -0.325
v 0.325 0.05 -0.325
v -0.275 0 -0.375
v -0.275 0.05 -0.375
v -0.175 0 -0.375
v -0.175 0.05 -0.375
v 0.175 0 -0.375
v 0.175 0.05 -0.375
v 0.275 0 -0.375
v 0.275 0.05 -0.375
v -0.175 0 -0.425
v -0.175 0.05 -0.425
v 0.175 0 -0.425
v 0.175 0.05 -0.425
v -0.175 0 0.425
v 0.175 0 0.425
v -0.325 0 0.375
v -0.175 0 0.375
v 0.175 0 0.375
v 0.325 0 0.375
v -0.275 0 0.325
v -0.175 0 0.325
v 0.175 0 0.325
v 0.275 0 0.325
v -0.375 0 0.275
v -0.325 0 0.275
v -0.275 0 0.275
v 0.275 0 0.275
v 0.325 0 0.275
v 0.375 0 0.275
v -0.425 0 0.225
v -0.375 0 0.225
v 0.375 0 0.225
v 0.425 0 0.225
v -0.375 0 0.175
v -0.325 0 0.175
v 0.325 0 0.175
v 0.375 0 0.175
v -0.375 0 -0.175
v -0.325 0 -0.175
v 0.325 0 -0.175
v 0.375 0 -0.175
v -0.425 0 -0.225
v -0.375 0 -0.225
v 0.375 0 -0.225
v 0.425 0 -0.225
v -0.375 0 -0.275
v -0.325 0 -0.275
v -0.275 0 -0.275
v 0.275 0 -0.275
v 0.325 0 -0.275
v 0.375 0 -0.275
v -0.325 0 -0.325
v -0.275 0 -0.325
v -0.175 0 -0.325
v 0.175 0 -0.325
v 0.275 0 -0.325
v 0.325 0 -0.325
v -0.275 0 -0.375
v -0.175 0 -0.375
v 0.175 0 -0.375
v 0.275 0 -0.375
v -0.175 0 -0.425
v 0.175 0 -0.425
v -0.175 0.05 0.425
v 0.175 0.05 0.425
v -0.325 0.05 0.375
v -0.175 0.05 0.375
v 0.175 0.05 0.375
v 0.325 0.05 0.375
v -0.275 0.05 0.325
v -0.175 0.05 0.325
v -0.075 0.05 0.325
v 0.025 0.05 0.325
v 0.175 0.05 0.325
v 0.275 0.05 0.325
v -0.375 0.05 0.275
v -0.325 0.05 0.275
v -0.275 0.05 0.275
v -0.225 0.05 0.275
v -0.175 0.05 0.275
v 0.125 0.05 0.275
v 0.225 0.05 0.275
v 0.275 0.05 0.275
v 0.325 0.05 0.275
v 0.375 0.05 0.275
v -0.425 0.05 0.225
v -0.375 0.05 0.225
v -0.175 0.05 0.225
v -0.125 0.05 0.225
v -0.075 0.05 0.225
v 0.025 0.05 0.225
v 0.375 0.05 0.225
v 0.425 0.05 0.225
v -0.375 0.05 0.175
v -0.325 0.05 0.175
v -0.225 0.05 0.175
v -0.125 0.05 0.175
v 0.125 0.05 0.175
v 0.225 0.05 0.175
v 0.325 0.05 0.175
v 0.375 0.05 0.175
v -0.325 0.05 0.125
v -0.225 0.05 0.125
v -0.125 0.05 0.125
v -0.075 0.05 0.125
v -0.025 0.05 0.125
v 0.025 0.05 0.125
v 0.225 0.05 0.125
v 0.325 0.05 0.125
v -0.025 0.05 0.075
v 0.025 0.05 0.075
v 0.075 0.05 0.075
v 0.125 0.05 0.075
v -0.325 0.05 0.025
v -0.225 0.05 0.025
v -0.125 0.05 0.025
v -0.075 0.05 0.025
v 0.075 0.05 0.025
v 0.125 0.05 0.025
v 0.225 0.05 0.025
v 0.325 0.05 0.025
v -0.325 0.05 -0.025
v -0.225 0.05 -0.025
v -0.175 0.05 -0.025
v -0.125 0.05 -0.025
v -0.075 0.05 -0.025
v -0.025 0.05 -0.025
v 0.075 0.05 -0.025
v 0.125 0.05 -0.025
v 0.225 0.05 -0.025
v 0.325 0.05 -0.025
v -0.175 0.05 -0.075
v -0.125 0.05 -0.075
v 0.075 0.05 -0.075
v 0.125 0.05 -0.075
v -0.325 0.05 -0.125
v -0.225 0.05 -0.125
v -0.075 0.05 -0.125
v -0.025 0.05 -0.125
v 0.225 0.05 -0.125
v 0.325 0.05 -0.125
v -0.375 0.05 -0.175
v -0.325 0.05 -0.175
v -0.225 0.05 -0.175
v -0.125 0.05 -0.175
v -0.025 0.05 -0.175
v 0.025 0.05 -0.175
v 0.125 0.05 -0.175
v 0.225 0.05 -0.175
v 0.325 0.05 -0.175
v 0.375 0.05 -0.175
v -0.425 0.05 -0.225
v -0.375 0.05 -0.225
v 0.375 0.05 -0.225
v 0.425 0.05 -0.225
v -0.375 0.05 -0.275
v -0.325 0.05 -0.275
v -0.275 0.05 -0.275
v -0.225 0.05 -0.275
v -0.125 0.05 -0.275
v -0.025 0.05 -0.275
v 0.025 0.05 -0.275
v 0.125 0.05 -0.275
v 0.225 0.05 -0.275
v 0.275 0.05 -0.275
v 0.325 0.05 -0.275
v 0.375 0.05 -0.275
v -0.325 0.05 -0.325
v -0.275 0.05 -0.325
v -0.175 0.05 -0.325
v 0.175 0.05 -0.325
v 0.275 0.05 -0.325
v 0.325 0.05 -0.325
v -0.275 0.05 -0.375
v -0.175 0.05 -0.375
v 0.175 0.05 -0.375
v 0.275 0.05 -0.375
v -0.175 0.05 -0.425
v 0.175 0.05 -0.425
v -0.075 0.1 0.325
v 0.025 0.1 0.325
v -0.225 0.1 0.275
v -0.175 0.1 0.275
v 0.125 0.1 0.275
v 0.225 0.1 0.275
v -0.175 0.1 0.225
v -0.125 0.1 0.225
v -0.075 0.1 0.225
v 0.025 0.1 0.225
v -0.225 0.1 0.175
v -0.125 0.1 0.175
v 0.125 0.1 0.175
v 0.225 0.1 0.175
v -0.325 0.1 0.125
v -0.225 0.1 0.125
v -0.125 0.1 0.125
v -0.075 0.1 0.125
v -0.025 0.1 0.125
v 0.025 0.1 0.125
v 0.225 0.1 0.125
v 0.325 0.1 0.125
v -0.025 0.1 0.075
v 0.025 0.1 0.075
v 0.075 0.1 0.075
v 0.125 0.1 0.075
v -0.325 0.1 0.025
v -0.225 0.1 0.025
v -0.125 0.1 0.025
v -0.075 0.1 0.025
v 0.075 0.1 0.025
v 0.125 0.1 0.025
v 0.225 0.1 0.025
v 0.325 0.1 0.025
v -0.325 0.1 -0.025
v -0.225 0.1 -0.025
v -0.175 0.1 -0.025
v -0.125 0.1 -0.025
v -0.075 0.1 -0.025
v -0.025 0.1 -0.025
v 0.075 0.1 -0.025
v 0.125 0.1 -0.025
v 0.225 0.1 -0.025
v 0.325 0.1 -0.025
v -0.175 0.1 -0.075
v -0.125 0.1 -0.075
v 0.075 0.1 -0.075
v 0.125 0.1 -0.075
v -0.325 0.1 -0.125
v -0.225 0.1 -0.125
v -0.075 0.1 -0.125
v -0.025 0.1 -0.125
v 0.225 0.1 -0.125
v 0.325 0.1 -0.125
v -0.225 0.1 -0.175
v -0.125 0.1 -0.175
v -0.025 0.1 -0.175
v 0.025 0.1 -0.175
v 0.125 0.1 -0.175
v 0.225 0.1 -0.175
v -0.225 0.1 -0.275
v -0.125 0.1 -0.275
v -0.025 0.1 -0.275
v 0.025 0.1 -0.275
v 0.125 0.1 -0.275
v 0.225 0.1 -0.275

# faces
f 3/2/1 2/2/1 1/2/1
f 4/2/1 2/2/1 3/2/1
f 9/2/1 6/2/1 5/2/1
f 10/2/1 6/2/1 9/2/1
f 11/2/1 8/2/1 7/2/1
f 12/2/1 8/2/1 11/2/1
f 17/2/1 14/2/1 13/2/1
f 18/2/1 14/2/1 17/2/1
f 23/2/1 16/2/1 15/2/1
f 24/2/1 16/2/1 23/2/1
f 25/3/1 20/3/1 19/3/1
f 26/3/1 20/3/1 25/3/1
f 27/3/1 22/3/1 21/3/1
f 28/3/1 22/3/1 27/3/1
f 31/2/1 30/2/1 29/2/1
f 32/2/1 30/2/1 31/2/1
f 37/3/1 34/3/1 33/3/1
f 38/3/1 34/3/1 37/3/1
f 39/3/1 36/3/1 35/3/1
f 40/3/1 36/3/1 39/3/1
f 45/2/1 42/2/1 41/2/1
f 46/2/1 42/2/1 45/2/1
f 49/2/1 44/2/1 43/2/1
f 50/2/1 44/2/1 49/2/1
f 51/3/1 48/3/1 47/3/1
f 52/3/1 48/3/1 51/3/1
f 55/3/1 54/3/1 53/3/1
f 56/3/1 54/3/1 55/3/1
f 61/3/1 58/3/1 57/3/1
f 62/3/1 58/3/1 61/3/1
f 63/3/1 60/3/1 59/3/1
f 64/3/1 60/3/1 63/3/1
f 69/3/1 66/3/1 65/3/1
f 70/3/1 66/3/1 69/3/1
f 71/3/1 68/3/1 67/3/1
f 72/3/1 68/3/1 71/3/1
f 77/3/1 74/3/1 73/3/1
f 78/3/1 74/3/1 77/3/1
f 79/3/1 76/3/1 75/3/1
f 80/3/1 76/3/1 79/3/1
f 85/3/1 82/3/1 81/3/1
f 86/3/1 82/3/1 85/3/1
f 87/3/1 84/3/1 83/3/1
f 88/3/1 84/3/1 87/3/1
f 93/3/1 90/3/1 89/3/1
f 94/3/1 90/3/1 93/3/1
f 95/3/1 92/3/1 91/3/1
f 96/3/1 92/3/1 95/3/1
f 97/3/2 98/3/2 101/3/2
f 101/3/2 98/3/2 102/3/2
f 99/3/2 100/3/2 103/3/2
f 103/3/2 100/3/2 104/3/2
f 105/3/2 106/3/2 107/3/2
f 107/3/2 106/3/2 108/3/2
f 109/3/2 110/3/2 115/3/2
f 115/3/2 110/3/2 116/3/2
f 111/3/2 112/3/2 117/3/2
f 117/3/2 112/3/2 118/3/2
f 113/3/2 114/3/2 119/3/2
f 119/3/2 114/3/2 120/3/2
f 121/3/2 122/3/2 123/3/2
f 123/3/2 122/3/2 124/3/2
f 125/3/2 126/3/2 127/3/2
f 127/3/2 126/3/2 128/3/2
f 129/3/2 130/3/2 135/3/2
f 135/3/2 130/3/2 136/3/2
f 131/3/2 132/3/2 137/3/2
f 137/3/2 132/3/2 138/3/2
f 133/3/2 134/3/2 139/3/2
f 139/3/2 134/3/2 140/3/2
f 141/3/2 142/3/2 145/3/2
f 145/3/2 142/3/2 146/3/2
f 143/3/2 144/3/2 147/3/2
f 147/3/2 144/3/2 148/3/2
f 149/2/2 150/2/2 153/2/2
f 153/2/2 150/2/2 154/2/2
f 151/2/2 152/2/2 155/2/2
f 155/2/2 152/2/2 156/2/2
f 157/3/2 158/3/2 161/3/2
f 161/3/2 158/3/2 162/3/2
f 159/3/2 160/3/2 163/3/2
f 163/3/2 160/3/2 164/3/2
f 165/2/2 166/2/2 167/2/2
f 167/2/2 166/2/2 168/2/2
f 169/2/2 170/2/2 173/2/2
f 173/2/2 170/2/2 174/2/2
f 171/2/2 172/2/2 179/2/2
f 179/2/2 172/2/2 180/2/2
f 175/3/2 176/3/2 181/3/2
f 181/3/2 176/3/2 182/3/2
f 177/3/2 178/3/2 183/3/2
f 183/3/2 178/3/2 184/3/2
f 185/2/2 186/2/2 189/2/2
f 189/2/2 186/2/2 190/2/2
f 187/2/2 188/2/2 191/2/2
f 191/2/2 188/2/2 192/2/2
f 193/2/2 194/2/2 195/2/2
f 195/2/2 194/2/2 196/2/2
f 199/2/3 198/2/3 197/2/3
f 200/2/3 198/2/3 199/2/3
f 203/2/3 202/2/3 201/2/3
f 204/2/3 202/2/3 203/2/3
f 207/2/3 206/2/3 205/2/3
f 208/2/3 206/2/3 207/2/3
f 211/3/3 210/3/3 209/3/3
f 212/3/3 210/3/3 211/3/3
f 215/2/3 214/2/3 213/2/3
f 216/2/3 214/2/3 215/2/3
f 219/3/3 218/3/3 217/3/3
f 220/3/3 218/3/3 219/3/3
f 223/3/3 222/3/3 221/3/3
f 224/3/3 222/3/3 223/3/3
f 227/2/3 226/2/3 225/2/3
f 228/2/3 226/2/3 227/2/3
f 231/2/3 230/2/3 229/2/3
f 232/2/3 230/2/3 231/2/3
f 235/3/3 234/3/3 233/3/3
f 236/3/3 234/3/3 235/3/3
f 239/2/3 238/2/3 237/2/3
f 240/2/3 238/2/3 239/2/3
f 243/3/3 242/3/3 241/3/3
f 244/3/3 242/3/3 243/3/3
f 247/3/3 246/3/3 245/3/3
f 248/3/3 246/3/3 247/3/3
f 251/3/3 250/3/3 249/3/3
f 252/3/3 250/3/3 251/3/3
f 255/3/3 254/3/3 253/3/3
f 256/3/3 254/3/3 255/3/3
f 259/3/3 258/3/3 257/3/3
f 260/3/3 258/3/3 259/3/3
f 263/3/3 262/3/3 261/3/3
f 264/3/3 262/3/3 263/3/3
f 267/3/3 266/3/3 265/3/3
f 268/3/3 266/3/3 267/3/3
f 271/3/3 270/3/3 269/3/3
f 272/3/3 270/3/3 271/3/3
f 275/3/3 274/3/3 273/3/3
f 276/3/3 274/3/3 275/3/3
f 279/3/3 278/3/3 277/3/3
f 280/3/3 278/3/3 279/3/3
f 283/3/3 282/3/3 281/3/3
f 284/3/3 282/3/3 283/3/3
f 287/3/3 286/3/3 285/3/3
f 288/3/3 286/3/3 287/3/3
f 291/3/3 290/3/3 289/3/3
f 292/3/3 290/3/3 291/3/3
f 293/3/4 294/3/4 295/3/4
f 295/3/4 294/3/4 296/3/4
f 297/3/4 298/3/4 299/3/4
f 299/3/4 298/3/4 300/3/4
f 301/3/4 302/3/4 303/3/4
f 303/3/4 302/3/4 304/3/4
f 305/3/4 306/3/4 307/3/4
f 307/3/4 306/3/4 308/3/4
f 309/3/4 310/3/4 311/3/4
f 311/3/4 310/3/4 312/3/4
f 313/3/4 314/3/4 315/3/4
f 315/3/4 314/3/4 316/3/4
f 317/3/4 318/3/4 319/3/4
f 319/3/4 318/3/4 320/3/4
f 321/3/4 322/3/4 323/3/4
f 323/3/4 322/3/4 324/3/4
f 325/3/4 326/3/4 327/3/4
f 327/3/4 326/3/4 328/3/4
f 329/3/4 330/3/4 331/3/4
f 331/3/4 330/3/4 332/3/4
f 333/3/4 334/3/4 335/3/4
f 335/3/4 334/3/4 336/3/4
f 337/3/4 338/3/4 339/3/4
f 339/3/4 338/3/4 340/3/4
f 341/3/4 342/3/4 343/3/4
f 343/3/4 342/3/4 344/3/4
f 345/2/4 346/2/4 347/2/4
f 347/2/4 346/2/4 348/2/4
f 349/2/4 350/2/4 351/2/4
f 351/2/4 350/2/4 352/2/4
f 353/2/4 354/2/4 355/2/4
f 355/2/4 354/2/4 356/2/4
f 357/3/4 358/3/4 359/3/4
f 359/3/4 358/3/4 360/3/4
f 361/3/4 362/3/4 363/3/4
f 363/3/4 362/3/4 364/3/4
f 365/3/4 366/3/4 367/3/4
f 367/3/4 366/3/4 368/3/4
f 369/2/4 370/2/4 371/2/4
f 371/2/4 370/2/4 372/2/4
f 373/2/4 374/2/4 375/2/4
f 375/2/4 374/2/4 376/2/4
f 377/2/4 378/2/4 379/2/4
f 379/2/4 378/2/4 380/2/4
f 381/2/4 382/2/4 383/2/4
f 383/2/4 382/2/4 384/2/4
f 385/2/4 386/2/4 387/2/4
f 387/2/4 386/2/4 388/2/4
f 389/2/4 390/2/4 391/2/4
f 391/2/4 390/2/4 392/2/4
f 396/2/5 394/2/5 393/2/5
f 397/2/5 394/2/5 396/2/5
f 399/2/5 396/2/5 395/2/5
f 400/1/5 397/1/5 396/1/5
f 400/2/5 396/2/5 399/2/5
f 401/2/5 398/2/5 397/2/5
f 401/1/5 397/1/5 400/1/5
f 402/2/5 398/2/5 401/2/5
f 404/2/5 399/2/5 395/2/5
f 405/1/5 400/1/5 399/1/5
f 405/1/5 401/1/5 400/1/5
f 405/2/5 399/2/5 404/2/5
f 405/1/5 402/1/5 401/1/5
f 406/2/5 398/2/5 402/2/5
f 406/1/5 402/1/5 405/1/5
f 407/2/5 398/2/5 406/2/5
f 410/2/5 404/2/5 403/2/5
f 411/2/5 408/2/5 407/2/5
f 413/2/5 410/2/5 409/2/5
f 413/2/5 404/2/5 410/2/5
f 414/1/5 405/1/5 404/1/5
f 414/2/5 404/2/5 413/2/5
f 414/1/5 406/1/5 405/1/5
f 414/1/5 407/1/5 406/1/5
f 415/2/5 412/2/5 411/2/5
f 415/1/5 407/1/5 414/1/5
f 415/2/5 411/2/5 407/2/5
f 416/2/5 412/2/5 415/2/5
f 417/1/5 414/1/5 413/1/5
f 417/2/5 413/2/5 409/2/5
f 417/1/5 416/1/5 415/1/5
f 417/1/5 415/1/5 414/1/5
f 418/1/5 416/1/5 417/1/5
f 419/1/5 416/1/5 418/1/5
f 420/2/5 412/2/5 416/2/5
f 420/1/5 416/1/5 419/1/5
f 421/2/5 417/2/5 409/2/5
f 421/2/5 418/2/5 417/2/5
f 422/2/5 418/2/5 421/2/5
f 423/2/5 412/2/5 420/2/5
f 423/2/5 420/2/5 419/2/5
f 424/2/5 412/2/5 423/2/5
f 425/2/5 418/2/5 422/2/5
f 426/1/5 419/1/5 418/1/5
f 426/2/5 418/2/5 425/2/5
f 427/1/5 419/1/5 426/1/5
f 428/1/5 419/1/5 427/1/5
f 429/2/5 423/2/5 419/2/5
f 429/1/5 419/1/5 428/1/5
f 430/2/5 423/2/5 429/2/5
f 431/2/5 427/2/5 426/2/5
f 432/1/5 428/1/5 427/1/5
f 432/2/5 427/2/5 431/2/5
f 433/1/5 428/1/5 432/1/5
f 434/1/5 428/1/5 433/1/5
f 435/2/5 429/2/5 428/2/5
f 435/1/5 428/1/5 434/1/5
f 436/2/5 429/2/5 435/2/5
f 437/2/5 433/2/5 432/2/5
f 438/1/5 434/1/5 433/1/5
f 438/2/5 433/2/5 437/2/5
f 439/2/5 435/2/5 434/2/5
f 439/1/5 434/1/5 438/1/5
f 440/2/5 435/2/5 439/2/5
f 441/2/5 439/2/5 438/2/5
f 442/2/5 439/2/5 441/2/5
f 443/2/6 444/2/6 446/2/6
f 446/2/6 444/2/6 447/2/6
f 445/2/6 446/2/6 449/2/6
f 446/1/6 447/1/6 450/1/6
f 449/2/6 446/2/6 450/2/6
f 450/1/6 447/1/6 451/1/6
f 451/1/6 447/1/6 452/1/6
f 447/2/6 448/2/6 453/2/6
f 452/1/6 447/1/6 453/1/6
f 453/2/6 448/2/6 454/2/6
f 445/2/6 449/2/6 456/2/6
f 449/1/6 450/1/6 457/1/6
f 450/1/6 451/1/6 457/1/6
f 456/2/6 449/2/6 457/2/6
f 457/1/6 451/1/6 458/1/6
f 458/1/6 451/1/6 459/1/6
f 453/1/6 454/1/6 460/1/6
f 452/1/6 453/1/6 460/1/6
f 460/1/6 454/1/6 461/1/6
f 454/2/6 448/2/6 462/2/6
f 461/1/6 454/1/6 462/1/6
f 462/2/6 448/2/6 463/2/6
f 455/2/6 456/2/6 466/2/6
f 459/1/6 451/1/6 467/1/6
f 467/1/6 451/1/6 468/1/6
f 468/1/6 451/1/6 469/1/6
f 452/1/6 460/1/6 470/1/6
f 463/2/6 464/2/6 471/2/6
f 465/2/6 466/2/6 473/2/6
f 466/2/6 456/2/6 473/2/6
f 456/1/6 457/1/6 474/1/6
f 473/2/6 456/2/6 474/2/6
f 457/1/6 458/1/6 474/1/6
f 474/1/6 458/1/6 475/1/6
f 469/1/6 470/1/6 476/1/6
f 468/1/6 469/1/6 476/1/6
f 470/1/6 460/1/6 477/1/6
f 476/1/6 470/1/6 477/1/6
f 461/1/6 462/1/6 478/1/6
f 462/1/6 463/1/6 478/1/6
f 471/2/6 472/2/6 479/2/6
f 463/2/6 471/2/6 479/2/6
f 478/1/6 463/1/6 479/1/6
f 479/2/6 472/2/6 480/2/6
f 474/1/6 475/1/6 481/1/6
f 477/1/6 478/1/6 481/1/6
f 479/1/6 480/1/6 481/1/6
f 478/1/6 479/1/6 481/1/6
f 475/1/6 476/1/6 481/1/6
f 476/1/6 477/1/6 481/1/6
f 473/1/6 474/1/6 481/1/6
f 481/1/6 480/1/6 482/1/6
f 482/1/6 480/1/6 483/1/6
f 483/1/6 480/1/6 484/1/6
f 484/1/6 480/1/6 485/1/6
f 485/1/6 480/1/6 486/1/6
f 486/1/6 480/1/6 487/1/6
f 487/1/6 480/1/6 488/1/6
f 484/1/6 485/1/6 489/1/6
f 486/1/6 487/1/6 490/1/6
f 490/1/6 487/1/6 491/1/6
f 491/1/6 487/1/6 492/1/6
f 473/1/6 481/1/6 493/1/6
f 482/1/6 483/1/6 494/1/6
f 494/1/6 483/1/6 495/1/6
f 484/1/6 489/1/6 496/1/6
f 489/1/6 490/1/6 496/1/6
f 490/1/6 491/1/6 496/1/6
f 496/1/6 491/1/6 497/1/6
f 492/1/6 487/1/6 498/1/6
f 498/1/6 487/1/6 499/1/6
f 488/1/6 480/1/6 500/1/6
f 496/1/6 497/1/6 501/1/6
f 499/1/6 500/1/6 501/1/6
f 498/1/6 499/1/6 501/1/6
f 473/1/6 493/1/6 501/1/6
f 497/1/6 498/1/6 501/1/6
f 494/1/6 495/1/6 501/1/6
f 495/1/6 496/1/6 501/1/6
f 493/1/6 494/1/6 501/1/6
f 501/1/6 500/1/6 502/1/6
f 502/1/6 500/1/6 503/1/6
f 503/1/6 500/1/6 504/1/6
f 504/1/6 500/1/6 505/1/6
f 505/1/6 500/1/6 506/1/6
f 506/1/6 500/1/6 507/1/6
f 507/1/6 500/1/6 508/1/6
f 508/1/6 500/1/6 509/1/6
f 500/1/6 480/1/6 510/1/6
f 509/1/6 500/1/6 510/1/6
f 502/1/6 503/1/6 511/1/6
f 504/1/6 505/1/6 512/1/6
f 506/1/6 507/1/6 513/1/6
f 508/1/6 509/1/6 514/1/6
f 473/1/6 501/1/6 515/1/6
f 511/1/6 512/1/6 516/1/6
f 502/1/6 511/1/6 516/1/6
f 512/1/6 505/1/6 517/1/6
f 516/1/6 512/1/6 517/1/6
f 506/1/6 513/1/6 518/1/6
f 513/1/6 514/1/6 518/1/6
f 514/1/6 509/1/6 519/1/6
f 518/1/6 514/1/6 519/1/6
f 510/1/6 480/1/6 520/1/6
f 465/2/6 473/2/6 521/2/6
f 519/1/6 520/1/6 521/1/6
f 516/1/6 517/1/6 521/1/6
f 518/1/6 519/1/6 521/1/6
f 473/1/6 515/1/6 521/1/6
f 517/1/6 518/1/6 521/1/6
f 515/1/6 516/1/6 521/1/6
f 521/1/6 520/1/6 522/1/6
f 522/1/6 520/1/6 523/1/6
f 523/1/6 520/1/6 524/1/6
f 524/1/6 520/1/6 525/1/6
f 525/1/6 520/1/6 526/1/6
f 526/1/6 520/1/6 527/1/6
f 527/1/6 520/1/6 528/1/6
f 520/1/6 480/1/6 529/1/6
f 528/1/6 520/1/6 529/1/6
f 480/2/6 472/2/6 530/2/6
f 529/1/6 480/1/6 530/1/6
f 465/2/6 521/2/6 531/2/6
f 521/2/6 522/2/6 531/2/6
f 531/2/6 522/2/6 532/2/6
f 530/2/6 472/2/6 533/2/6
f 529/2/6 530/2/6 533/2/6
f 533/2/6 472/2/6 534/2/6
f 532/2/6 522/2/6 535/2/6
f 522/1/6 523/1/6 536/1/6
f 535/2/6 522/2/6 536/2/6
f 536/1/6 523/1/6 537/1/6
f 537/1/6 523/1/6 538/1/6
f 524/1/6 525/1/6 539/1/6
f 539/1/6 525/1/6 540/1/6
f 526/1/6 527/1/6 541/1/6
f 541/1/6 527/1/6 542/1/6
f 528/1/6 529/1/6 543/1/6
f 543/1/6 529/1/6 544/1/6
f 529/2/6 533/2/6 545/2/6
f 544/1/6 529/1/6 545/1/6
f 545/2/6 533/2/6 546/2/6
f 536/2/6 537/2/6 547/2/6
f 541/1/6 542/1/6 548/1/6
f 547/2/6 537/2/6 548/2/6
f 543/1/6 544/1/6 548/1/6
f 542/1/6 543/1/6 548/1/6
f 539/1/6 540/1/6 548/1/6
f 540/1/6 541/1/6 548/1/6
f 537/1/6 538/1/6 548/1/6
f 538/1/6 539/1/6 548/1/6
f 548/1/6 544/1/6 549/1/6
f 549/1/6 544/1/6 550/1/6
f 544/2/6 545/2/6 551/2/6
f 550/1/6 544/1/6 551/1/6
f 551/2/6 545/2/6 552/2/6
f 548/2/6 549/2/6 553/2/6
f 549/1/6 550/1/6 554/1/6
f 553/2/6 549/2/6 554/2/6
f 550/2/6 551/2/6 555/2/6
f 554/1/6 550/1/6 555/1/6
f 555/2/6 551/2/6 556/2/6
f 554/2/6 555/2/6 557/2/6
f 557/2/6 555/2/6 558/2/6
f 561/3/6 562/3/6 565/3/6
f 559/3/6 560/3/6 567/3/6
f 567/3/6 560/3/6 568/3/6
f 565/3/6 566/3/6 569/3/6
f 561/3/6 565/3/6 569/3/6
f 569/3/6 566/3/6 570/3/6
f 563/3/6 564/3/6 571/3/6
f 571/3/6 564/3/6 572/3/6
f 577/3/6 578/3/6 581/3/6
f 581/3/6 578/3/6 582/3/6
f 573/3/6 574/3/6 585/3/6
f 585/3/6 574/3/6 586/3/6
f 575/3/6 576/3/6 587/3/6
f 587/3/6 576/3/6 588/3/6
f 583/3/6 584/3/6 589/3/6
f 589/3/6 584/3/6 590/3/6
f 579/3/6 580/3/6 591/3/6
f 591/3/6 580/3/6 592/3/6
f 595/3/6 596/3/6 603/3/6
f 603/3/6 596/3/6 604/3/6
f 599/3/6 600/3/6 605/3/6
f 605/3/6 600/3/6 606/3/6
f 593/3/6 594/3/6 607/3/6
f 607/3/6 594/3/6 608/3/6
f 597/3/6 598/3/6 609/3/6
f 609/3/6 598/3/6 610/3/6
f 601/3/6 602/3/6 611/3/6
f 611/3/6 602/3/6 612/3/6
f 613/3/6 614/3/6 619/3/6
f 619/3/6 614/3/6 620/3/6
f 615/3/6 616/3/6 621/3/6
f 621/3/6 616/3/6 622/3/6
f 617/3/6 618/3/6 623/3/6
f 623/3/6 618/3/6 624/3/6
