# MagicaVoxel @ ephtracy

# material
mtllib eye2.mtl
usemtl palette

# normals
vn -1 0 0
vn 1 0 0
vn 0 0 1
vn 0 0 -1
vn 0 -1 0
vn 0 1 0

# texcoords
vt 0.958984 0.5
vt 0.966797 0.5
vt 0.994141 0.5

# verts
v -0.4 0.05 -0.1
v -0.4 0.05 -0.2
v -0.4 0.1 0.2
v -0.4 0.1 -0.1
v -0.4 0.1 -0.15
v -0.4 0.1 -0.2
v -0.4 0.15 0.2
v -0.4 0.15 -0.15
v -0.3 0 0.2
v -0.3 0 0.15
v -0.3 0.1 0.2
v -0.3 0.1 0.15
v -0.3 0.15 0.2
v -0.3 0.15 0.15
v -0.3 0.2 0.2
v -0.3 0.2 0.15
v -0.05 0.1 0.15
v -0.05 0.1 0.1
v -0.05 0.15 0.15
v -0.05 0.15 0.1
v 0.05 0 0.2
v 0.05 0 0.15
v 0.05 0.1 0.15
v 0.05 0.15 0.15
v 0.05 0.2 0.2
v 0.05 0.2 0.15
v 0.35 0.05 -0.1
v 0.35 0.05 -0.2
v 0.35 0.1 0.15
v 0.35 0.1 -0.1
v 0.35 0.1 -0.15
v 0.35 0.1 -0.2
v 0.35 0.15 0.15
v 0.35 0.15 -0.15
v -0.35 0.05 -0.1
v -0.35 0.05 -0.2
v -0.35 0.1 0.15
v -0.35 0.1 -0.1
v -0.35 0.1 -0.15
v -0.35 0.1 -0.2
v -0.35 0.15 0.15
v -0.35 0.15 -0.15
v -0.05 0 0.2
v -0.05 0 0.15
v -0.05 0.1 0.15
v -0.05 0.15 0.15
v -0.05 0.2 0.2
v -0.05 0.2 0.15
v 0.05 0.1 0.15
v 0.05 0.1 0.1
v 0.05 0.15 0.15
v 0.05 0.15 0.1
v 0.3 0 0.2
v 0.3 0 0.15
v 0.3 0.1 0.2
v 0.3 0.1 0.15
v 0.3 0.15 0.2
v 0.3 0.15 0.15
v 0.3 0.2 0.2
v 0.3 0.2 0.15
v 0.4 0.05 -0.1
v 0.4 0.05 -0.2
v 0.4 0.1 0.2
v 0.4 0.1 -0.1
v 0.4 0.1 -0.15
v 0.4 0.1 -0.2
v 0.4 0.15 0.2
v 0.4 0.15 -0.15
v -0.4 0.1 0.2
v -0.4 0.15 0.2
v -0.3 0 0.2
v -0.3 0.1 0.2
v -0.3 0.15 0.2
v -0.3 0.2 0.2
v -0.25 0.05 0.2
v -0.25 0.15 0.2
v -0.2 0.1 0.2
v -0.2 0.15 0.2
v -0.1 0.05 0.2
v -0.1 0.1 0.2
v -0.1 0.15 0.2
v -0.05 0 0.2
v -0.05 0.2 0.2
v 0.05 0 0.2
v 0.05 0.2 0.2
v 0.1 0.05 0.2
v 0.1 0.15 0.2
v 0.15 0.1 0.2
v 0.15 0.15 0.2
v 0.25 0.05 0.2
v 0.25 0.1 0.2
v 0.25 0.15 0.2
v 0.3 0 0.2
v 0.3 0.1 0.2
v 0.3 0.15 0.2
v 0.3 0.2 0.2
v 0.4 0.1 0.2
v 0.4 0.15 0.2
v -0.05 0.1 0.15
v -0.05 0.15 0.15
v 0.05 0.1 0.15
v 0.05 0.15 0.15
v -0.4 0.05 -0.1
v -0.4 0.1 -0.1
v -0.35 0.05 -0.1
v -0.35 0.1 -0.1
v 0.35 0.05 -0.1
v 0.35 0.1 -0.1
v 0.4 0.05 -0.1
v 0.4 0.1 -0.1
v -0.35 0.1 0.15
v -0.35 0.15 0.15
v -0.3 0 0.15
v -0.3 0.1 0.15
v -0.3 0.15 0.15
v -0.3 0.2 0.15
v -0.25 0.05 0.15
v -0.25 0.15 0.15
v -0.2 0.1 0.15
v -0.2 0.15 0.15
v -0.1 0.05 0.15
v -0.1 0.1 0.15
v -0.1 0.15 0.15
v -0.05 0 0.15
v -0.05 0.1 0.15
v -0.05 0.15 0.15
v -0.05 0.2 0.15
v 0.05 0 0.15
v 0.05 0.1 0.15
v 0.05 0.15 0.15
v 0.05 0.2 0.15
v 0.1 0.05 0.15
v 0.1 0.15 0.15
v 0.15 0.1 0.15
v 0.15 0.15 0.15
v 0.25 0.05 0.15
v 0.25 0.1 0.15
v 0.25 0.15 0.15
v 0.3 0 0.15
v 0.3 0.1 0.15
v 0.3 0.15 0.15
v 0.3 0.2 0.15
v 0.35 0.1 0.15
v 0.35 0.15 0.15
v -0.05 0.1 0.1
v -0.05 0.15 0.1
v 0.05 0.1 0.1
v 0.05 0.15 0.1
v -0.4 0.1 -0.15
v -0.4 0.15 -0.15
v -0.35 0.1 -0.15
v -0.35 0.15 -0.15
v 0.35 0.1 -0.15
v 0.35 0.15 -0.15
v 0.4 0.1 -0.15
v 0.4 0.15 -0.15
v -0.4 0.05 -0.2
v -0.4 0.1 -0.2
v -0.35 0.05 -0.2
v -0.35 0.1 -0.2
v 0.35 0.05 -0.2
v 0.35 0.1 -0.2
v 0.4 0.05 -0.2
v 0.4 0.1 -0.2
v -0.3 0 0.2
v -0.05 0 0.2
v 0.05 0 0.2
v 0.3 0 0.2
v -0.3 0 0.15
v -0.05 0 0.15
v 0.05 0 0.15
v 0.3 0 0.15
v -0.4 0.05 -0.1
v -0.35 0.05 -0.1
v 0.35 0.05 -0.1
v 0.4 0.05 -0.1
v -0.4 0.05 -0.2
v -0.35 0.05 -0.2
v 0.35 0.05 -0.2
v 0.4 0.05 -0.2
v -0.4 0.1 0.2
v -0.3 0.1 0.2
v 0.3 0.1 0.2
v 0.4 0.1 0.2
v -0.35 0.1 0.15
v -0.3 0.1 0.15
v -0.05 0.1 0.15
v 0.05 0.1 0.15
v 0.3 0.1 0.15
v 0.35 0.1 0.15
v -0.05 0.1 0.1
v 0.05 0.1 0.1
v -0.4 0.1 -0.1
v -0.35 0.1 -0.1
v 0.35 0.1 -0.1
v 0.4 0.1 -0.1
v -0.4 0.1 -0.15
v -0.35 0.1 -0.15
v 0.35 0.1 -0.15
v 0.4 0.1 -0.15
v -0.4 0.1 -0.2
v -0.35 0.1 -0.2
v 0.35 0.1 -0.2
v 0.4 0.1 -0.2
v -0.4 0.15 0.2
v -0.3 0.15 0.2
v 0.3 0.15 0.2
v 0.4 0.15 0.2
v -0.35 0.15 0.15
v -0.3 0.15 0.15
v -0.05 0.15 0.15
v 0.05 0.15 0.15
v 0.3 0.15 0.15
v 0.35 0.15 0.15
v -0.05 0.15 0.1
v 0.05 0.15 0.1
v -0.4 0.15 -0.15
v -0.35 0.15 -0.15
v 0.35 0.15 -0.15
v 0.4 0.15 -0.15
v -0.3 0.2 0.2
v -0.05 0.2 0.2
v 0.05 0.2 0.2
v 0.3 0.2 0.2
v -0.3 0.2 0.15
v -0.05 0.2 0.15
v 0.05 0.2 0.15
v 0.3 0.2 0.15

# faces
f 4/3/1 2/3/1 1/3/1
f 5/3/1 2/3/1 4/3/1
f 6/3/1 2/3/1 5/3/1
f 7/3/1 4/3/1 3/3/1
f 7/3/1 5/3/1 4/3/1
f 8/3/1 5/3/1 7/3/1
f 11/3/1 10/3/1 9/3/1
f 12/3/1 10/3/1 11/3/1
f 15/3/1 14/3/1 13/3/1
f 16/3/1 14/3/1 15/3/1
f 19/3/1 18/3/1 17/3/1
f 20/3/1 18/3/1 19/3/1
f 23/3/1 22/3/1 21/3/1
f 24/3/1 23/3/1 21/3/1
f 25/3/1 24/3/1 21/3/1
f 26/3/1 24/3/1 25/3/1
f 30/3/1 28/3/1 27/3/1
f 31/3/1 28/3/1 30/3/1
f 32/3/1 28/3/1 31/3/1
f 33/3/1 30/3/1 29/3/1
f 33/3/1 31/3/1 30/3/1
f 34/3/1 31/3/1 33/3/1
f 35/3/2 36/3/2 38/3/2
f 38/3/2 36/3/2 39/3/2
f 39/3/2 36/3/2 40/3/2
f 37/3/2 38/3/2 41/3/2
f 38/3/2 39/3/2 41/3/2
f 41/3/2 39/3/2 42/3/2
f 43/3/2 44/3/2 45/3/2
f 43/3/2 45/3/2 46/3/2
f 43/3/2 46/3/2 47/3/2
f 47/3/2 46/3/2 48/3/2
f 49/3/2 50/3/2 51/3/2
f 51/3/2 50/3/2 52/3/2
f 53/3/2 54/3/2 55/3/2
f 55/3/2 54/3/2 56/3/2
f 57/3/2 58/3/2 59/3/2
f 59/3/2 58/3/2 60/3/2
f 61/3/2 62/3/2 64/3/2
f 64/3/2 62/3/2 65/3/2
f 65/3/2 62/3/2 66/3/2
f 63/3/2 64/3/2 67/3/2
f 64/3/2 65/3/2 67/3/2
f 67/3/2 65/3/2 68/3/2
f 72/3/3 70/3/3 69/3/3
f 73/3/3 70/3/3 72/3/3
f 75/3/3 72/3/3 71/3/3
f 75/3/3 74/3/3 73/3/3
f 75/3/3 73/3/3 72/3/3
f 76/3/3 74/3/3 75/3/3
f 77/2/3 76/2/3 75/2/3
f 78/3/3 74/3/3 76/3/3
f 78/2/3 76/2/3 77/2/3
f 79/3/3 75/3/3 71/3/3
f 79/2/3 77/2/3 75/2/3
f 80/1/3 78/1/3 77/1/3
f 80/2/3 77/2/3 79/2/3
f 81/3/3 74/3/3 78/3/3
f 81/1/3 78/1/3 80/1/3
f 82/3/3 80/3/3 79/3/3
f 82/3/3 79/3/3 71/3/3
f 82/3/3 81/3/3 80/3/3
f 83/3/3 74/3/3 81/3/3
f 83/3/3 81/3/3 82/3/3
f 86/3/3 85/3/3 84/3/3
f 87/3/3 85/3/3 86/3/3
f 88/2/3 87/2/3 86/2/3
f 89/3/3 85/3/3 87/3/3
f 89/2/3 87/2/3 88/2/3
f 90/3/3 86/3/3 84/3/3
f 90/2/3 88/2/3 86/2/3
f 91/1/3 89/1/3 88/1/3
f 91/2/3 88/2/3 90/2/3
f 92/3/3 85/3/3 89/3/3
f 92/1/3 89/1/3 91/1/3
f 93/3/3 91/3/3 90/3/3
f 93/3/3 90/3/3 84/3/3
f 93/3/3 92/3/3 91/3/3
f 94/3/3 92/3/3 93/3/3
f 95/3/3 85/3/3 92/3/3
f 95/3/3 92/3/3 94/3/3
f 96/3/3 85/3/3 95/3/3
f 97/3/3 95/3/3 94/3/3
f 98/3/3 95/3/3 97/3/3
f 101/3/3 100/3/3 99/3/3
f 102/3/3 100/3/3 101/3/3
f 105/3/3 104/3/3 103/3/3
f 106/3/3 104/3/3 105/3/3
f 109/3/3 108/3/3 107/3/3
f 110/3/3 108/3/3 109/3/3
f 111/3/4 112/3/4 114/3/4
f 114/3/4 112/3/4 115/3/4
f 113/3/4 114/3/4 117/3/4
f 115/3/4 116/3/4 117/3/4
f 114/3/4 115/3/4 117/3/4
f 117/3/4 116/3/4 118/3/4
f 117/2/4 118/2/4 119/2/4
f 118/3/4 116/3/4 120/3/4
f 119/2/4 118/2/4 120/2/4
f 113/3/4 117/3/4 121/3/4
f 117/2/4 119/2/4 121/2/4
f 119/1/4 120/1/4 122/1/4
f 121/2/4 119/2/4 122/2/4
f 120/3/4 116/3/4 123/3/4
f 122/1/4 120/1/4 123/1/4
f 121/3/4 122/3/4 124/3/4
f 113/3/4 121/3/4 124/3/4
f 122/3/4 123/3/4 124/3/4
f 124/3/4 123/3/4 125/3/4
f 123/3/4 116/3/4 126/3/4
f 125/3/4 123/3/4 126/3/4
f 126/3/4 116/3/4 127/3/4
f 128/3/4 129/3/4 132/3/4
f 130/3/4 131/3/4 132/3/4
f 129/3/4 130/3/4 132/3/4
f 132/3/4 131/3/4 133/3/4
f 132/2/4 133/2/4 134/2/4
f 133/3/4 131/3/4 135/3/4
f 134/2/4 133/2/4 135/2/4
f 128/3/4 132/3/4 136/3/4
f 132/2/4 134/2/4 136/2/4
f 134/1/4 135/1/4 137/1/4
f 136/2/4 134/2/4 137/2/4
f 135/3/4 131/3/4 138/3/4
f 137/1/4 135/1/4 138/1/4
f 136/3/4 137/3/4 139/3/4
f 128/3/4 136/3/4 139/3/4
f 137/3/4 138/3/4 139/3/4
f 139/3/4 138/3/4 140/3/4
f 138/3/4 131/3/4 141/3/4
f 140/3/4 138/3/4 141/3/4
f 141/3/4 131/3/4 142/3/4
f 140/3/4 141/3/4 143/3/4
f 143/3/4 141/3/4 144/3/4
f 145/3/4 146/3/4 147/3/4
f 147/3/4 146/3/4 148/3/4
f 149/3/4 150/3/4 151/3/4
f 151/3/4 150/3/4 152/3/4
f 153/3/4 154/3/4 155/3/4
f 155/3/4 154/3/4 156/3/4
f 157/3/4 158/3/4 159/3/4
f 159/3/4 158/3/4 160/3/4
f 161/3/4 162/3/4 163/3/4
f 163/3/4 162/3/4 164/3/4
f 169/3/5 166/3/5 165/3/5
f 170/3/5 166/3/5 169/3/5
f 171/3/5 168/3/5 167/3/5
f 172/3/5 168/3/5 171/3/5
f 177/3/5 174/3/5 173/3/5
f 178/3/5 174/3/5 177/3/5
f 179/3/5 176/3/5 175/3/5
f 180/3/5 176/3/5 179/3/5
f 185/3/5 182/3/5 181/3/5
f 186/3/5 182/3/5 185/3/5
f 189/3/5 184/3/5 183/3/5
f 190/3/5 184/3/5 189/3/5
f 191/3/5 188/3/5 187/3/5
f 192/3/5 188/3/5 191/3/5
f 193/3/5 185/3/5 181/3/5
f 194/3/5 185/3/5 193/3/5
f 195/3/5 184/3/5 190/3/5
f 196/3/5 184/3/5 195/3/5
f 197/3/6 198/3/6 201/3/6
f 201/3/6 198/3/6 202/3/6
f 199/3/6 200/3/6 203/3/6
f 203/3/6 200/3/6 204/3/6
f 205/3/6 206/3/6 209/3/6
f 209/3/6 206/3/6 210/3/6
f 207/3/6 208/3/6 213/3/6
f 213/3/6 208/3/6 214/3/6
f 211/3/6 212/3/6 215/3/6
f 215/3/6 212/3/6 216/3/6
f 205/3/6 209/3/6 217/3/6
f 217/3/6 209/3/6 218/3/6
f 214/3/6 208/3/6 219/3/6
f 219/3/6 208/3/6 220/3/6
f 221/3/6 222/3/6 225/3/6
f 225/3/6 222/3/6 226/3/6
f 223/3/6 224/3/6 227/3/6
f 227/3/6 224/3/6 228/3/6
