# MagicaVoxel @ ephtracy

# material
mtllib lamp.mtl
usemtl palette

# normals
vn -1 0 0
vn 1 0 0
vn 0 0 1
vn 0 0 -1
vn 0 -1 0
vn 0 1 0

# texcoords
vt 0.00976563 0.5
vt 0.958984 0.5
vt 0.978516 0.5

# verts
v -0.225 1.8 0.225
v -0.225 1.8 -0.225
v -0.225 1.85 0.075
v -0.225 1.85 0.025
v -0.225 1.85 -0.025
v -0.225 1.85 -0.075
v -0.225 1.9 0.075
v -0.225 1.9 0.025
v -0.225 1.9 -0.025
v -0.225 1.9 -0.075
v -0.225 1.95 0.125
v -0.225 1.95 -0.125
v -0.225 2 0.125
v -0.225 2 0.075
v -0.225 2 0.025
v -0.225 2 -0.025
v -0.225 2 -0.075
v -0.225 2 -0.125
v -0.225 2.05 0.075
v -0.225 2.05 0.025
v -0.225 2.05 -0.025
v -0.225 2.05 -0.075
v -0.225 2.1 0.025
v -0.225 2.1 -0.025
v -0.225 2.15 0.225
v -0.225 2.15 -0.225
v -0.175 0 0.175
v -0.175 0 -0.175
v -0.175 0.05 0.175
v -0.175 0.05 -0.175
v -0.125 1.85 0.125
v -0.125 1.85 -0.125
v -0.125 1.9 0.125
v -0.125 1.9 -0.125
v -0.125 2 0.125
v -0.125 2 -0.125
v -0.125 2.15 0.125
v -0.125 2.15 -0.125
v -0.075 1.8 0.075
v -0.075 1.8 -0.075
v -0.075 1.85 0.075
v -0.075 1.85 -0.075
v -0.025 0.05 0.025
v -0.025 0.05 -0.025
v -0.025 1.55 0.025
v -0.025 1.55 -0.025
v -0.025 1.6 0.025
v -0.025 1.6 -0.025
v -0.025 1.8 0.025
v -0.025 1.8 -0.025
v -0.025 2.15 0.025
v -0.025 2.15 -0.025
v -0.025 2.2 0.025
v -0.025 2.2 -0.025
v 0.175 1.8 0.175
v 0.175 1.8 -0.175
v 0.175 1.85 0.075
v 0.175 1.85 0.025
v 0.175 1.85 -0.025
v 0.175 1.85 -0.075
v 0.175 1.9 0.175
v 0.175 1.9 0.075
v 0.175 1.9 0.025
v 0.175 1.9 -0.025
v 0.175 1.9 -0.075
v 0.175 1.9 -0.175
v 0.175 2 0.175
v 0.175 2 0.075
v 0.175 2 0.025
v 0.175 2 -0.025
v 0.175 2 -0.075
v 0.175 2 -0.175
v 0.175 2.05 0.075
v 0.175 2.05 0.025
v 0.175 2.05 -0.025
v 0.175 2.05 -0.075
v 0.175 2.1 0.025
v 0.175 2.1 -0.025
v 0.175 2.15 0.175
v 0.175 2.15 -0.175
v -0.175 1.8 0.175
v -0.175 1.8 -0.175
v -0.175 1.85 0.075
v -0.175 1.85 0.025
v -0.175 1.85 -0.025
v -0.175 1.85 -0.075
v -0.175 1.9 0.175
v -0.175 1.9 0.075
v -0.175 1.9 0.025
v -0.175 1.9 -0.025
v -0.175 1.9 -0.075
v -0.175 1.9 -0.175
v -0.175 2 0.175
v -0.175 2 0.075
v -0.175 2 0.025
v -0.175 2 -0.025
v -0.175 2 -0.075
v -0.175 2 -0.175
v -0.175 2.05 0.075
v -0.175 2.05 0.025
v -0.175 2.05 -0.025
v -0.175 2.05 -0.075
v -0.175 2.1 0.025
v -0.175 2.1 -0.025
v -0.175 2.15 0.175
v -0.175 2.15 -0.175
v 0.025 0.05 0.025
v 0.025 0.05 -0.025
v 0.025 1.55 0.025
v 0.025 1.55 -0.025
v 0.025 1.6 0.025
v 0.025 1.6 -0.025
v 0.025 1.8 0.025
v 0.025 1.8 -0.025
v 0.025 2.15 0.025
v 0.025 2.15 -0.025
v 0.025 2.2 0.025
v 0.025 2.2 -0.025
v 0.075 1.8 0.075
v 0.075 1.8 -0.075
v 0.075 1.85 0.075
v 0.075 1.85 -0.075
v 0.125 1.85 0.125
v 0.125 1.85 -0.125
v 0.125 1.9 0.125
v 0.125 1.9 -0.125
v 0.125 2 0.125
v 0.125 2 -0.125
v 0.125 2.15 0.125
v 0.125 2.15 -0.125
v 0.175 0 0.175
v 0.175 0 -0.175
v 0.175 0.05 0.175
v 0.175 0.05 -0.175
v 0.225 1.8 0.225
v 0.225 1.8 -0.225
v 0.225 1.85 0.075
v 0.225 1.85 0.025
v 0.225 1.85 -0.025
v 0.225 1.85 -0.075
v 0.225 1.9 0.075
v 0.225 1.9 0.025
v 0.225 1.9 -0.025
v 0.225 1.9 -0.075
v 0.225 1.95 0.125
v 0.225 1.95 -0.125
v 0.225 2 0.125
v 0.225 2 0.075
v 0.225 2 0.025
v 0.225 2 -0.025
v 0.225 2 -0.075
v 0.225 2 -0.125
v 0.225 2.05 0.075
v 0.225 2.05 0.025
v 0.225 2.05 -0.025
v 0.225 2.05 -0.075
v 0.225 2.1 0.025
v 0.225 2.1 -0.025
v 0.225 2.15 0.225
v 0.225 2.15 -0.225
v -0.225 1.8 0.225
v -0.225 2.15 0.225
v -0.125 1.95 0.225
v -0.125 2 0.225
v -0.075 1.85 0.225
v -0.075 1.9 0.225
v -0.075 2 0.225
v -0.075 2.05 0.225
v -0.025 1.85 0.225
v -0.025 1.9 0.225
v -0.025 2 0.225
v -0.025 2.05 0.225
v -0.025 2.1 0.225
v 0.025 1.85 0.225
v 0.025 1.9 0.225
v 0.025 2 0.225
v 0.025 2.05 0.225
v 0.025 2.1 0.225
v 0.075 1.85 0.225
v 0.075 1.9 0.225
v 0.075 2 0.225
v 0.075 2.05 0.225
v 0.125 1.95 0.225
v 0.125 2 0.225
v 0.225 1.8 0.225
v 0.225 2.15 0.225
v -0.175 0 0.175
v -0.175 0.05 0.175
v 0.175 0 0.175
v 0.175 0.05 0.175
v -0.125 1.85 0.125
v -0.125 1.9 0.125
v -0.125 2 0.125
v -0.125 2.15 0.125
v 0.125 1.85 0.125
v 0.125 1.9 0.125
v 0.125 2 0.125
v 0.125 2.15 0.125
v -0.075 1.8 0.075
v -0.075 1.85 0.075
v 0.075 1.8 0.075
v 0.075 1.85 0.075
v -0.025 0.05 0.025
v -0.025 1.55 0.025
v -0.025 1.6 0.025
v -0.025 1.8 0.025
v -0.025 2.15 0.025
v -0.025 2.2 0.025
v 0.025 0.05 0.025
v 0.025 1.55 0.025
v 0.025 1.6 0.025
v 0.025 1.8 0.025
v 0.025 2.15 0.025
v 0.025 2.2 0.025
v -0.175 1.8 -0.175
v -0.175 1.9 -0.175
v -0.175 2 -0.175
v -0.175 2.15 -0.175
v -0.075 1.85 -0.175
v -0.075 1.9 -0.175
v -0.075 2 -0.175
v -0.075 2.05 -0.175
v -0.025 1.85 -0.175
v -0.025 1.9 -0.175
v -0.025 2 -0.175
v -0.025 2.05 -0.175
v -0.025 2.1 -0.175
v 0.025 1.85 -0.175
v 0.025 1.9 -0.175
v 0.025 2 -0.175
v 0.025 2.05 -0.175
v 0.025 2.1 -0.175
v 0.075 1.85 -0.175
v 0.075 1.9 -0.175
v 0.075 2 -0.175
v 0.075 2.05 -0.175
v 0.175 1.8 -0.175
v 0.175 1.9 -0.175
v 0.175 2 -0.175
v 0.175 2.15 -0.175
v -0.175 1.8 0.175
v -0.175 1.9 0.175
v -0.175 2 0.175
v -0.175 2.15 0.175
v -0.075 1.85 0.175
v -0.075 1.9 0.175
v -0.075 2 0.175
v -0.075 2.05 0.175
v -0.025 1.85 0.175
v -0.025 1.9 0.175
v -0.025 2 0.175
v -0.025 2.05 0.175
v -0.025 2.1 0.175
v 0.025 1.85 0.175
v 0.025 1.9 0.175
v 0.025 2 0.175
v 0.025 2.05 0.175
v 0.025 2.1 0.175
v 0.075 1.85 0.175
v 0.075 1.9 0.175
v 0.075 2 0.175
v 0.075 2.05 0.175
v 0.175 1.8 0.175
v 0.175 1.9 0.175
v 0.175 2 0.175
v 0.175 2.15 0.175
v -0.025 0.05 -0.025
v -0.025 1.55 -0.025
v -0.025 1.6 -0.025
v -0.025 1.8 -0.025
v -0.025 2.15 -0.025
v -0.025 2.2 -0.025
v 0.025 0.05 -0.025
v 0.025 1.55 -0.025
v 0.025 1.6 -0.025
v 0.025 1.8 -0.025
v 0.025 2.15 -0.025
v 0.025 2.2 -0.025
v -0.075 1.8 -0.075
v -0.075 1.85 -0.075
v 0.075 1.8 -0.075
v 0.075 1.85 -0.075
v -0.125 1.85 -0.125
v -0.125 1.9 -0.125
v -0.125 2 -0.125
v -0.125 2.15 -0.125
v 0.125 1.85 -0.125
v 0.125 1.9 -0.125
v 0.125 2 -0.125
v 0.125 2.15 -0.125
v -0.175 0 -0.175
v -0.175 0.05 -0.175
v 0.175 0 -0.175
v 0.175 0.05 -0.175
v -0.225 1.8 -0.225
v -0.225 2.15 -0.225
v -0.125 1.95 -0.225
v -0.125 2 -0.225
v -0.075 1.85 -0.225
v -0.075 1.9 -0.225
v -0.075 2 -0.225
v -0.075 2.05 -0.225
v -0.025 1.85 -0.225
v -0.025 1.9 -0.225
v -0.025 2 -0.225
v -0.025 2.05 -0.225
v -0.025 2.1 -0.225
v 0.025 1.85 -0.225
v 0.025 1.9 -0.225
v 0.025 2 -0.225
v 0.025 2.05 -0.225
v 0.025 2.1 -0.225
v 0.075 1.85 -0.225
v 0.075 1.9 -0.225
v 0.075 2 -0.225
v 0.075 2.05 -0.225
v 0.125 1.95 -0.225
v 0.125 2 -0.225
v 0.225 1.8 -0.225
v 0.225 2.15 -0.225
v -0.175 0 0.175
v 0.175 0 0.175
v -0.175 0 -0.175
v 0.175 0 -0.175
v -0.225 1.8 0.225
v 0.225 1.8 0.225
v -0.175 1.8 0.175
v 0.175 1.8 0.175
v -0.075 1.8 0.075
v 0.075 1.8 0.075
v -0.025 1.8 0.025
v 0.025 1.8 0.025
v -0.025 1.8 -0.025
v 0.025 1.8 -0.025
v -0.075 1.8 -0.075
v 0.075 1.8 -0.075
v -0.175 1.8 -0.175
v 0.175 1.8 -0.175
v -0.225 1.8 -0.225
v 0.225 1.8 -0.225
v -0.125 1.85 0.125
v 0.125 1.85 0.125
v -0.075 1.85 0.075
v 0.075 1.85 0.075
v -0.075 1.85 -0.075
v 0.075 1.85 -0.075
v -0.125 1.85 -0.125
v 0.125 1.85 -0.125
v -0.175 1.9 0.175
v -0.075 1.9 0.175
v -0.025 1.9 0.175
v 0.025 1.9 0.175
v 0.075 1.9 0.175
v 0.175 1.9 0.175
v -0.125 1.9 0.125
v 0.125 1.9 0.125
v -0.175 1.9 0.075
v 0.175 1.9 0.075
v -0.175 1.9 0.025
v 0.175 1.9 0.025
v -0.175 1.9 -0.025
v 0.175 1.9 -0.025
v -0.175 1.9 -0.075
v 0.175 1.9 -0.075
v -0.125 1.9 -0.125
v 0.125 1.9 -0.125
v -0.175 1.9 -0.175
v -0.075 1.9 -0.175
v -0.025 1.9 -0.175
v 0.025 1.9 -0.175
v 0.075 1.9 -0.175
v 0.175 1.9 -0.175
v -0.175 0.05 0.175
v 0.175 0.05 0.175
v -0.025 0.05 0.025
v 0.025 0.05 0.025
v -0.025 0.05 -0.025
v 0.025 0.05 -0.025
v -0.175 0.05 -0.175
v 0.175 0.05 -0.175
v -0.175 2 0.175
v -0.075 2 0.175
v -0.025 2 0.175
v 0.025 2 0.175
v 0.075 2 0.175
v 0.175 2 0.175
v -0.125 2 0.125
v 0.125 2 0.125
v -0.175 2 0.075
v 0.175 2 0.075
v -0.175 2 0.025
v 0.175 2 0.025
v -0.175 2 -0.025
v 0.175 2 -0.025
v -0.175 2 -0.075
v 0.175 2 -0.075
v -0.125 2 -0.125
v 0.125 2 -0.125
v -0.175 2 -0.175
v -0.075 2 -0.175
v -0.025 2 -0.175
v 0.025 2 -0.175
v 0.075 2 -0.175
v 0.175 2 -0.175
v -0.225 2.15 0.225
v 0.225 2.15 0.225
v -0.175 2.15 0.175
v 0.175 2.15 0.175
v -0.125 2.15 0.125
v 0.125 2.15 0.125
v -0.025 2.15 0.025
v 0.025 2.15 0.025
v -0.025 2.15 -0.025
v 0.025 2.15 -0.025
v -0.125 2.15 -0.125
v 0.125 2.15 -0.125
v -0.175 2.15 -0.175
v 0.175 2.15 -0.175
v -0.225 2.15 -0.225
v 0.225 2.15 -0.225
v -0.025 2.2 0.025
v 0.025 2.2 0.025
v -0.025 2.2 -0.025
v 0.025 2.2 -0.025

# faces
f 3/2/1 2/2/1 1/2/1
f 4/2/1 2/2/1 3/2/1
f 5/2/1 2/2/1 4/2/1
f 6/2/1 2/2/1 5/2/1
f 7/2/1 3/2/1 1/2/1
f 7/1/1 4/1/1 3/1/1
f 8/2/1 5/2/1 4/2/1
f 8/1/1 4/1/1 7/1/1
f 9/1/1 6/1/1 5/1/1
f 9/2/1 5/2/1 8/2/1
f 10/2/1 2/2/1 6/2/1
f 10/1/1 6/1/1 9/1/1
f 11/2/1 9/2/1 8/2/1
f 11/2/1 8/2/1 7/2/1
f 11/2/1 10/2/1 9/2/1
f 11/2/1 7/2/1 1/2/1
f 12/2/1 2/2/1 10/2/1
f 12/2/1 10/2/1 11/2/1
f 13/2/1 11/2/1 1/2/1
f 13/1/1 12/1/1 11/1/1
f 14/1/1 12/1/1 13/1/1
f 15/1/1 12/1/1 14/1/1
f 16/1/1 12/1/1 15/1/1
f 17/1/1 12/1/1 16/1/1
f 18/2/1 2/2/1 12/2/1
f 18/1/1 12/1/1 17/1/1
f 19/2/1 14/2/1 13/2/1
f 19/1/1 15/1/1 14/1/1
f 20/2/1 16/2/1 15/2/1
f 20/1/1 15/1/1 19/1/1
f 21/1/1 17/1/1 16/1/1
f 21/2/1 16/2/1 20/2/1
f 22/2/1 18/2/1 17/2/1
f 22/1/1 17/1/1 21/1/1
f 23/2/1 20/2/1 19/2/1
f 23/1/1 21/1/1 20/1/1
f 24/2/1 22/2/1 21/2/1
f 24/1/1 21/1/1 23/1/1
f 25/2/1 13/2/1 1/2/1
f 25/2/1 23/2/1 19/2/1
f 25/2/1 24/2/1 23/2/1
f 25/2/1 19/2/1 13/2/1
f 26/2/1 18/2/1 22/2/1
f 26/2/1 24/2/1 25/2/1
f 26/2/1 22/2/1 24/2/1
f 26/2/1 2/2/1 18/2/1
f 29/2/1 28/2/1 27/2/1
f 30/2/1 28/2/1 29/2/1
f 33/2/1 32/2/1 31/2/1
f 34/2/1 32/2/1 33/2/1
f 37/2/1 36/2/1 35/2/1
f 38/2/1 36/2/1 37/2/1
f 41/2/1 40/2/1 39/2/1
f 42/2/1 40/2/1 41/2/1
f 45/3/1 44/3/1 43/3/1
f 46/3/1 44/3/1 45/3/1
f 47/2/1 46/2/1 45/2/1
f 48/2/1 46/2/1 47/2/1
f 49/3/1 48/3/1 47/3/1
f 50/3/1 48/3/1 49/3/1
f 53/3/1 52/3/1 51/3/1
f 54/3/1 52/3/1 53/3/1
f 57/2/1 56/2/1 55/2/1
f 58/2/1 56/2/1 57/2/1
f 59/2/1 56/2/1 58/2/1
f 60/2/1 56/2/1 59/2/1
f 61/2/1 57/2/1 55/2/1
f 62/1/1 58/1/1 57/1/1
f 62/2/1 57/2/1 61/2/1
f 63/2/1 59/2/1 58/2/1
f 63/1/1 58/1/1 62/1/1
f 64/1/1 60/1/1 59/1/1
f 64/2/1 59/2/1 63/2/1
f 65/2/1 56/2/1 60/2/1
f 65/1/1 60/1/1 64/1/1
f 66/2/1 56/2/1 65/2/1
f 73/2/1 68/2/1 67/2/1
f 73/1/1 69/1/1 68/1/1
f 74/2/1 70/2/1 69/2/1
f 74/1/1 69/1/1 73/1/1
f 75/1/1 71/1/1 70/1/1
f 75/2/1 70/2/1 74/2/1
f 76/2/1 72/2/1 71/2/1
f 76/1/1 71/1/1 75/1/1
f 77/1/1 75/1/1 74/1/1
f 77/2/1 74/2/1 73/2/1
f 78/2/1 76/2/1 75/2/1
f 78/1/1 75/1/1 77/1/1
f 79/2/1 77/2/1 73/2/1
f 79/2/1 73/2/1 67/2/1
f 79/2/1 78/2/1 77/2/1
f 80/2/1 72/2/1 76/2/1
f 80/2/1 78/2/1 79/2/1
f 80/2/1 76/2/1 78/2/1
f 81/2/2 82/2/2 83/2/2
f 83/2/2 82/2/2 84/2/2
f 84/2/2 82/2/2 85/2/2
f 85/2/2 82/2/2 86/2/2
f 81/2/2 83/2/2 87/2/2
f 83/1/2 84/1/2 88/1/2
f 87/2/2 83/2/2 88/2/2
f 84/2/2 85/2/2 89/2/2
f 88/1/2 84/1/2 89/1/2
f 85/1/2 86/1/2 90/1/2
f 89/2/2 85/2/2 90/2/2
f 86/2/2 82/2/2 91/2/2
f 90/1/2 86/1/2 91/1/2
f 91/2/2 82/2/2 92/2/2
f 93/2/2 94/2/2 99/2/2
f 94/1/2 95/1/2 99/1/2
f 95/2/2 96/2/2 100/2/2
f 99/1/2 95/1/2 100/1/2
f 96/1/2 97/1/2 101/1/2
f 100/2/2 96/2/2 101/2/2
f 97/2/2 98/2/2 102/2/2
f 101/1/2 97/1/2 102/1/2
f 100/1/2 101/1/2 103/1/2
f 99/2/2 100/2/2 103/2/2
f 101/2/2 102/2/2 104/2/2
f 103/1/2 101/1/2 104/1/2
f 99/2/2 103/2/2 105/2/2
f 93/2/2 99/2/2 105/2/2
f 103/2/2 104/2/2 105/2/2
f 102/2/2 98/2/2 106/2/2
f 105/2/2 104/2/2 106/2/2
f 104/2/2 102/2/2 106/2/2
f 107/3/2 108/3/2 109/3/2
f 109/3/2 108/3/2 110/3/2
f 109/2/2 110/2/2 111/2/2
f 111/2/2 110/2/2 112/2/2
f 111/3/2 112/3/2 113/3/2
f 113/3/2 112/3/2 114/3/2
f 115/3/2 116/3/2 117/3/2
f 117/3/2 116/3/2 118/3/2
f 119/2/2 120/2/2 121/2/2
f 121/2/2 120/2/2 122/2/2
f 123/2/2 124/2/2 125/2/2
f 125/2/2 124/2/2 126/2/2
f 127/2/2 128/2/2 129/2/2
f 129/2/2 128/2/2 130/2/2
f 131/2/2 132/2/2 133/2/2
f 133/2/2 132/2/2 134/2/2
f 135/2/2 136/2/2 137/2/2
f 137/2/2 136/2/2 138/2/2
f 138/2/2 136/2/2 139/2/2
f 139/2/2 136/2/2 140/2/2
f 135/2/2 137/2/2 141/2/2
f 137/1/2 138/1/2 141/1/2
f 138/2/2 139/2/2 142/2/2
f 141/1/2 138/1/2 142/1/2
f 139/1/2 140/1/2 143/1/2
f 142/2/2 139/2/2 143/2/2
f 140/2/2 136/2/2 144/2/2
f 143/1/2 140/1/2 144/1/2
f 142/2/2 143/2/2 145/2/2
f 141/2/2 142/2/2 145/2/2
f 143/2/2 144/2/2 145/2/2
f 135/2/2 141/2/2 145/2/2
f 144/2/2 136/2/2 146/2/2
f 145/2/2 144/2/2 146/2/2
f 135/2/2 145/2/2 147/2/2
f 145/1/2 146/1/2 147/1/2
f 147/1/2 146/1/2 148/1/2
f 148/1/2 146/1/2 149/1/2
f 149/1/2 146/1/2 150/1/2
f 150/1/2 146/1/2 151/1/2
f 146/2/2 136/2/2 152/2/2
f 151/1/2 146/1/2 152/1/2
f 147/2/2 148/2/2 153/2/2
f 148/1/2 149/1/2 153/1/2
f 149/2/2 150/2/2 154/2/2
f 153/1/2 149/1/2 154/1/2
f 150/1/2 151/1/2 155/1/2
f 154/2/2 150/2/2 155/2/2
f 151/2/2 152/2/2 156/2/2
f 155/1/2 151/1/2 156/1/2
f 153/2/2 154/2/2 157/2/2
f 154/1/2 155/1/2 157/1/2
f 155/2/2 156/2/2 158/2/2
f 157/1/2 155/1/2 158/1/2
f 135/2/2 147/2/2 159/2/2
f 153/2/2 157/2/2 159/2/2
f 157/2/2 158/2/2 159/2/2
f 147/2/2 153/2/2 159/2/2
f 156/2/2 152/2/2 160/2/2
f 159/2/2 158/2/2 160/2/2
f 158/2/2 156/2/2 160/2/2
f 152/2/2 136/2/2 160/2/2
f 163/2/3 162/2/3 161/2/3
f 164/2/3 162/2/3 163/2/3
f 165/2/3 163/2/3 161/2/3
f 166/2/3 163/2/3 165/2/3
f 167/2/3 162/2/3 164/2/3
f 167/1/3 164/1/3 163/1/3
f 168/2/3 162/2/3 167/2/3
f 169/1/3 166/1/3 165/1/3
f 169/2/3 165/2/3 161/2/3
f 170/2/3 163/2/3 166/2/3
f 170/1/3 166/1/3 169/1/3
f 171/1/3 168/1/3 167/1/3
f 171/1/3 167/1/3 163/1/3
f 172/2/3 162/2/3 168/2/3
f 172/1/3 168/1/3 171/1/3
f 173/2/3 162/2/3 172/2/3
f 174/2/3 169/2/3 161/2/3
f 174/2/3 170/2/3 169/2/3
f 175/2/3 163/2/3 170/2/3
f 175/2/3 170/2/3 174/2/3
f 176/1/3 171/1/3 163/1/3
f 176/2/3 172/2/3 171/2/3
f 177/1/3 173/1/3 172/1/3
f 177/2/3 172/2/3 176/2/3
f 178/2/3 162/2/3 173/2/3
f 178/1/3 173/1/3 177/1/3
f 179/2/3 174/2/3 161/2/3
f 179/1/3 175/1/3 174/1/3
f 180/2/3 163/2/3 175/2/3
f 180/1/3 175/1/3 179/1/3
f 181/1/3 177/1/3 176/1/3
f 181/1/3 176/1/3 163/1/3
f 182/2/3 178/2/3 177/2/3
f 182/1/3 177/1/3 181/1/3
f 183/2/3 163/2/3 180/2/3
f 183/2/3 180/2/3 179/2/3
f 183/1/3 181/1/3 163/1/3
f 184/2/3 182/2/3 181/2/3
f 184/1/3 181/1/3 183/1/3
f 185/2/3 179/2/3 161/2/3
f 185/2/3 183/2/3 179/2/3
f 185/2/3 184/2/3 183/2/3
f 186/2/3 178/2/3 182/2/3
f 186/2/3 184/2/3 185/2/3
f 186/2/3 182/2/3 184/2/3
f 186/2/3 162/2/3 178/2/3
f 189/2/3 188/2/3 187/2/3
f 190/2/3 188/2/3 189/2/3
f 195/2/3 192/2/3 191/2/3
f 196/2/3 192/2/3 195/2/3
f 197/2/3 194/2/3 193/2/3
f 198/2/3 194/2/3 197/2/3
f 201/2/3 200/2/3 199/2/3
f 202/2/3 200/2/3 201/2/3
f 209/3/3 204/3/3 203/3/3
f 210/2/3 205/2/3 204/2/3
f 210/3/3 204/3/3 209/3/3
f 211/3/3 206/3/3 205/3/3
f 211/2/3 205/2/3 210/2/3
f 212/3/3 206/3/3 211/3/3
f 213/3/3 208/3/3 207/3/3
f 214/3/3 208/3/3 213/3/3
f 219/2/3 216/2/3 215/2/3
f 220/2/3 216/2/3 219/2/3
f 221/2/3 218/2/3 217/2/3
f 222/2/3 218/2/3 221/2/3
f 223/1/3 220/1/3 219/1/3
f 223/2/3 219/2/3 215/2/3
f 224/1/3 220/1/3 223/1/3
f 225/1/3 222/1/3 221/1/3
f 226/2/3 218/2/3 222/2/3
f 226/1/3 222/1/3 225/1/3
f 227/2/3 218/2/3 226/2/3
f 228/2/3 224/2/3 223/2/3
f 228/2/3 223/2/3 215/2/3
f 229/2/3 224/2/3 228/2/3
f 230/2/3 226/2/3 225/2/3
f 231/1/3 227/1/3 226/1/3
f 231/2/3 226/2/3 230/2/3
f 232/2/3 218/2/3 227/2/3
f 232/1/3 227/1/3 231/1/3
f 233/1/3 229/1/3 228/1/3
f 233/2/3 228/2/3 215/2/3
f 234/1/3 229/1/3 233/1/3
f 235/1/3 231/1/3 230/1/3
f 236/2/3 232/2/3 231/2/3
f 236/1/3 231/1/3 235/1/3
f 237/2/3 234/2/3 233/2/3
f 237/2/3 233/2/3 215/2/3
f 238/2/3 234/2/3 237/2/3
f 239/2/3 236/2/3 235/2/3
f 240/2/3 232/2/3 236/2/3
f 240/2/3 236/2/3 239/2/3
f 240/2/3 218/2/3 232/2/3
f 241/2/4 242/2/4 245/2/4
f 245/2/4 242/2/4 246/2/4
f 243/2/4 244/2/4 247/2/4
f 247/2/4 244/2/4 248/2/4
f 245/1/4 246/1/4 249/1/4
f 241/2/4 245/2/4 249/2/4
f 249/1/4 246/1/4 250/1/4
f 247/1/4 248/1/4 251/1/4
f 248/2/4 244/2/4 252/2/4
f 251/1/4 248/1/4 252/1/4
f 252/2/4 244/2/4 253/2/4
f 249/2/4 250/2/4 254/2/4
f 241/2/4 249/2/4 254/2/4
f 254/2/4 250/2/4 255/2/4
f 251/2/4 252/2/4 256/2/4
f 252/1/4 253/1/4 257/1/4
f 256/2/4 252/2/4 257/2/4
f 253/2/4 244/2/4 258/2/4
f 257/1/4 253/1/4 258/1/4
f 254/1/4 255/1/4 259/1/4
f 241/2/4 254/2/4 259/2/4
f 259/1/4 255/1/4 260/1/4
f 256/1/4 257/1/4 261/1/4
f 257/2/4 258/2/4 262/2/4
f 261/1/4 257/1/4 262/1/4
f 259/2/4 260/2/4 263/2/4
f 241/2/4 259/2/4 263/2/4
f 263/2/4 260/2/4 264/2/4
f 261/2/4 262/2/4 265/2/4
f 262/2/4 258/2/4 266/2/4
f 265/2/4 262/2/4 266/2/4
f 258/2/4 244/2/4 266/2/4
f 267/3/4 268/3/4 273/3/4
f 268/2/4 269/2/4 274/2/4
f 273/3/4 268/3/4 274/3/4
f 269/3/4 270/3/4 275/3/4
f 274/2/4 269/2/4 275/2/4
f 275/3/4 270/3/4 276/3/4
f 271/3/4 272/3/4 277/3/4
f 277/3/4 272/3/4 278/3/4
f 279/2/4 280/2/4 281/2/4
f 281/2/4 280/2/4 282/2/4
f 283/2/4 284/2/4 287/2/4
f 287/2/4 284/2/4 288/2/4
f 285/2/4 286/2/4 289/2/4
f 289/2/4 286/2/4 290/2/4
f 291/2/4 292/2/4 293/2/4
f 293/2/4 292/2/4 294/2/4
f 295/2/4 296/2/4 297/2/4
f 297/2/4 296/2/4 298/2/4
f 295/2/4 297/2/4 299/2/4
f 299/2/4 297/2/4 300/2/4
f 298/2/4 296/2/4 301/2/4
f 297/1/4 298/1/4 301/1/4
f 301/2/4 296/2/4 302/2/4
f 299/1/4 300/1/4 303/1/4
f 295/2/4 299/2/4 303/2/4
f 300/2/4 297/2/4 304/2/4
f 303/1/4 300/1/4 304/1/4
f 301/1/4 302/1/4 305/1/4
f 297/1/4 301/1/4 305/1/4
f 302/2/4 296/2/4 306/2/4
f 305/1/4 302/1/4 306/1/4
f 306/2/4 296/2/4 307/2/4
f 295/2/4 303/2/4 308/2/4
f 303/2/4 304/2/4 308/2/4
f 304/2/4 297/2/4 309/2/4
f 308/2/4 304/2/4 309/2/4
f 297/1/4 305/1/4 310/1/4
f 305/2/4 306/2/4 310/2/4
f 306/1/4 307/1/4 311/1/4
f 310/2/4 306/2/4 311/2/4
f 307/2/4 296/2/4 312/2/4
f 311/1/4 307/1/4 312/1/4
f 295/2/4 308/2/4 313/2/4
f 308/1/4 309/1/4 313/1/4
f 309/2/4 297/2/4 314/2/4
f 313/1/4 309/1/4 314/1/4
f 310/1/4 311/1/4 315/1/4
f 297/1/4 310/1/4 315/1/4
f 311/2/4 312/2/4 316/2/4
f 315/1/4 311/1/4 316/1/4
f 314/2/4 297/2/4 317/2/4
f 313/2/4 314/2/4 317/2/4
f 297/1/4 315/1/4 317/1/4
f 315/2/4 316/2/4 318/2/4
f 317/1/4 315/1/4 318/1/4
f 295/2/4 313/2/4 319/2/4
f 313/2/4 317/2/4 319/2/4
f 317/2/4 318/2/4 319/2/4
f 316/2/4 312/2/4 320/2/4
f 319/2/4 318/2/4 320/2/4
f 318/2/4 316/2/4 320/2/4
f 312/2/4 296/2/4 320/2/4
f 323/2/5 322/2/5 321/2/5
f 324/2/5 322/2/5 323/2/5
f 327/2/5 326/2/5 325/2/5
f 328/2/5 326/2/5 327/2/5
f 331/2/5 330/2/5 329/2/5
f 332/2/5 330/2/5 331/2/5
f 333/2/5 331/2/5 329/2/5
f 334/2/5 330/2/5 332/2/5
f 335/2/5 333/2/5 329/2/5
f 335/2/5 334/2/5 333/2/5
f 336/2/5 330/2/5 334/2/5
f 336/2/5 334/2/5 335/2/5
f 337/2/5 327/2/5 325/2/5
f 338/2/5 326/2/5 328/2/5
f 339/2/5 337/2/5 325/2/5
f 339/2/5 338/2/5 337/2/5
f 340/2/5 326/2/5 338/2/5
f 340/2/5 338/2/5 339/2/5
f 343/2/5 342/2/5 341/2/5
f 344/2/5 342/2/5 343/2/5
f 345/2/5 343/2/5 341/2/5
f 346/2/5 342/2/5 344/2/5
f 347/2/5 345/2/5 341/2/5
f 347/2/5 346/2/5 345/2/5
f 348/2/5 342/2/5 346/2/5
f 348/2/5 346/2/5 347/2/5
f 355/2/5 350/2/5 349/2/5
f 355/2/5 354/2/5 353/2/5
f 355/2/5 353/2/5 352/2/5
f 355/2/5 352/2/5 351/2/5
f 355/2/5 351/2/5 350/2/5
f 356/2/5 354/2/5 355/2/5
f 357/2/5 355/2/5 349/2/5
f 358/2/5 354/2/5 356/2/5
f 359/2/5 355/2/5 357/2/5
f 360/2/5 358/2/5 356/2/5
f 361/2/5 355/2/5 359/2/5
f 362/2/5 360/2/5 356/2/5
f 363/2/5 355/2/5 361/2/5
f 364/2/5 362/2/5 356/2/5
f 365/2/5 355/2/5 363/2/5
f 366/2/5 364/2/5 356/2/5
f 367/2/5 365/2/5 363/2/5
f 367/2/5 366/2/5 365/2/5
f 368/2/5 366/2/5 367/2/5
f 369/2/5 366/2/5 368/2/5
f 370/2/5 366/2/5 369/2/5
f 371/2/5 366/2/5 370/2/5
f 372/2/5 364/2/5 366/2/5
f 372/2/5 366/2/5 371/2/5
f 373/2/6 374/2/6 375/2/6
f 375/2/6 374/2/6 376/2/6
f 373/2/6 375/2/6 377/2/6
f 376/2/6 374/2/6 378/2/6
f 373/2/6 377/2/6 379/2/6
f 377/2/6 378/2/6 379/2/6
f 378/2/6 374/2/6 380/2/6
f 379/2/6 378/2/6 380/2/6
f 381/2/6 382/2/6 387/2/6
f 385/2/6 386/2/6 387/2/6
f 384/2/6 385/2/6 387/2/6
f 383/2/6 384/2/6 387/2/6
f 382/2/6 383/2/6 387/2/6
f 387/2/6 386/2/6 388/2/6
f 381/2/6 387/2/6 389/2/6
f 388/2/6 386/2/6 390/2/6
f 389/2/6 387/2/6 391/2/6
f 388/2/6 390/2/6 392/2/6
f 391/2/6 387/2/6 393/2/6
f 388/2/6 392/2/6 394/2/6
f 393/2/6 387/2/6 395/2/6
f 388/2/6 394/2/6 396/2/6
f 395/2/6 387/2/6 397/2/6
f 388/2/6 396/2/6 398/2/6
f 395/2/6 397/2/6 399/2/6
f 397/2/6 398/2/6 399/2/6
f 399/2/6 398/2/6 400/2/6
f 400/2/6 398/2/6 401/2/6
f 401/2/6 398/2/6 402/2/6
f 402/2/6 398/2/6 403/2/6
f 398/2/6 396/2/6 404/2/6
f 403/2/6 398/2/6 404/2/6
f 405/2/6 406/2/6 407/2/6
f 407/2/6 406/2/6 408/2/6
f 409/2/6 410/2/6 411/2/6
f 411/2/6 410/2/6 412/2/6
f 409/2/6 411/2/6 413/2/6
f 412/2/6 410/2/6 414/2/6
f 409/2/6 413/2/6 415/2/6
f 413/2/6 414/2/6 415/2/6
f 414/2/6 410/2/6 416/2/6
f 415/2/6 414/2/6 416/2/6
f 405/2/6 407/2/6 417/2/6
f 408/2/6 406/2/6 418/2/6
f 405/2/6 417/2/6 419/2/6
f 417/2/6 418/2/6 419/2/6
f 418/2/6 406/2/6 420/2/6
f 419/2/6 418/2/6 420/2/6
f 421/3/6 422/3/6 423/3/6
f 423/3/6 422/3/6 424/3/6
