# MagicaVoxel @ ephtracy

# material
mtllib body0.mtl
usemtl palette

# normals
vn -1 0 0
vn 1 0 0
vn 0 0 1
vn 0 0 -1
vn 0 -1 0
vn 0 1 0

# texcoords
vt 0.0371094 0.5
vt 0.466797 0.5
vt 0.775391 0.5
vt 0.958984 0.5
vt 0.994141 0.5

# verts
v -0.25 0.2 0.2
v -0.25 0.2 -0.2
v -0.25 0.6 0.2
v -0.25 0.6 -0.2
v -0.2 0 0.1
v -0.2 0 -0.1
v -0.2 0.05 0.1
v -0.2 0.05 -0.1
v -0.2 0.2 0.1
v -0.2 0.2 -0.1
v 0.05 0 0.1
v 0.05 0 -0.1
v 0.05 0.05 0.1
v 0.05 0.05 -0.1
v 0.05 0.2 0.1
v 0.05 0.2 -0.1
v -0.05 0 0.1
v -0.05 0 -0.1
v -0.05 0.05 0.1
v -0.05 0.05 -0.1
v -0.05 0.2 0.1
v -0.05 0.2 -0.1
v 0.2 0 0.1
v 0.2 0 -0.1
v 0.2 0.05 0.1
v 0.2 0.05 -0.1
v 0.2 0.2 0.1
v 0.2 0.2 -0.1
v 0.25 0.2 0.2
v 0.25 0.2 -0.2
v 0.25 0.6 0.2
v 0.25 0.6 -0.2
v -0.25 0.2 0.2
v -0.25 0.6 0.2
v 0.25 0.2 0.2
v 0.25 0.6 0.2
v -0.2 0 0.1
v -0.2 0.05 0.1
v -0.2 0.2 0.1
v -0.05 0 0.1
v -0.05 0.05 0.1
v -0.05 0.2 0.1
v 0.05 0 0.1
v 0.05 0.05 0.1
v 0.05 0.2 0.1
v 0.2 0 0.1
v 0.2 0.05 0.1
v 0.2 0.2 0.1
v -0.2 0 -0.1
v -0.2 0.05 -0.1
v -0.2 0.2 -0.1
v -0.05 0 -0.1
v -0.05 0.05 -0.1
v -0.05 0.2 -0.1
v 0.05 0 -0.1
v 0.05 0.05 -0.1
v 0.05 0.2 -0.1
v 0.2 0 -0.1
v 0.2 0.05 -0.1
v 0.2 0.2 -0.1
v -0.25 0.2 -0.2
v -0.25 0.6 -0.2
v 0.25 0.2 -0.2
v 0.25 0.6 -0.2
v -0.2 0 0.1
v -0.05 0 0.1
v 0.05 0 0.1
v 0.2 0 0.1
v -0.15 0 0.05
v -0.1 0 0.05
v 0.1 0 0.05
v 0.15 0 0.05
v -0.15 0 -0.05
v -0.1 0 -0.05
v 0.1 0 -0.05
v 0.15 0 -0.05
v -0.2 0 -0.1
v -0.05 0 -0.1
v 0.05 0 -0.1
v 0.2 0 -0.1
v -0.25 0.2 0.2
v 0.25 0.2 0.2
v -0.2 0.2 0.1
v -0.05 0.2 0.1
v 0.05 0.2 0.1
v 0.2 0.2 0.1
v -0.2 0.2 -0.1
v -0.05 0.2 -0.1
v 0.05 0.2 -0.1
v 0.2 0.2 -0.1
v -0.25 0.2 -0.2
v 0.25 0.2 -0.2
v -0.25 0.6 0.2
v 0.25 0.6 0.2
v -0.25 0.6 -0.2
v 0.25 0.6 -0.2

# faces
f 3/4/1 2/4/1 1/4/1
f 4/4/1 2/4/1 3/4/1
f 7/5/1 6/5/1 5/5/1
f 8/5/1 6/5/1 7/5/1
f 9/3/1 8/3/1 7/3/1
f 10/3/1 8/3/1 9/3/1
f 13/5/1 12/5/1 11/5/1
f 14/5/1 12/5/1 13/5/1
f 15/3/1 14/3/1 13/3/1
f 16/3/1 14/3/1 15/3/1
f 17/5/2 18/5/2 19/5/2
f 19/5/2 18/5/2 20/5/2
f 19/3/2 20/3/2 21/3/2
f 21/3/2 20/3/2 22/3/2
f 23/5/2 24/5/2 25/5/2
f 25/5/2 24/5/2 26/5/2
f 25/3/2 26/3/2 27/3/2
f 27/3/2 26/3/2 28/3/2
f 29/4/2 30/4/2 31/4/2
f 31/4/2 30/4/2 32/4/2
f 35/4/3 34/4/3 33/4/3
f 36/4/3 34/4/3 35/4/3
f 40/5/3 38/5/3 37/5/3
f 41/3/3 39/3/3 38/3/3
f 41/5/3 38/5/3 40/5/3
f 42/3/3 39/3/3 41/3/3
f 46/5/3 44/5/3 43/5/3
f 47/3/3 45/3/3 44/3/3
f 47/5/3 44/5/3 46/5/3
f 48/3/3 45/3/3 47/3/3
f 49/5/4 50/5/4 52/5/4
f 50/3/4 51/3/4 53/3/4
f 52/5/4 50/5/4 53/5/4
f 53/3/4 51/3/4 54/3/4
f 55/5/4 56/5/4 58/5/4
f 56/3/4 57/3/4 59/3/4
f 58/5/4 56/5/4 59/5/4
f 59/3/4 57/3/4 60/3/4
f 61/4/4 62/4/4 63/4/4
f 63/4/4 62/4/4 64/4/4
f 69/5/5 66/5/5 65/5/5
f 70/5/5 66/5/5 69/5/5
f 71/5/5 68/5/5 67/5/5
f 72/5/5 68/5/5 71/5/5
f 73/5/5 69/5/5 65/5/5
f 73/1/5 70/1/5 69/1/5
f 74/5/5 66/5/5 70/5/5
f 74/1/5 70/1/5 73/1/5
f 75/1/5 72/1/5 71/1/5
f 75/5/5 71/5/5 67/5/5
f 76/5/5 68/5/5 72/5/5
f 76/1/5 72/1/5 75/1/5
f 77/5/5 73/5/5 65/5/5
f 77/5/5 74/5/5 73/5/5
f 78/5/5 66/5/5 74/5/5
f 78/5/5 74/5/5 77/5/5
f 79/5/5 75/5/5 67/5/5
f 79/5/5 76/5/5 75/5/5
f 80/5/5 68/5/5 76/5/5
f 80/5/5 76/5/5 79/5/5
f 83/4/5 82/4/5 81/4/5
f 84/4/5 82/4/5 83/4/5
f 85/4/5 82/4/5 84/4/5
f 86/4/5 82/4/5 85/4/5
f 87/4/5 83/4/5 81/4/5
f 88/4/5 85/4/5 84/4/5
f 89/4/5 85/4/5 88/4/5
f 90/4/5 82/4/5 86/4/5
f 91/4/5 89/4/5 88/4/5
f 91/4/5 90/4/5 89/4/5
f 91/4/5 87/4/5 81/4/5
f 91/4/5 88/4/5 87/4/5
f 92/4/5 82/4/5 90/4/5
f 92/4/5 90/4/5 91/4/5
f 93/4/6 94/4/6 95/4/6
f 95/4/6 94/4/6 96/4/6
